<svg width="202" height="202" xmlns="http://www.w3.org/2000/svg" xmlns:xlink="http://www.w3.org/1999/xlink" overflow="hidden"><defs><clipPath id="clip0"><rect x="170" y="223" width="202" height="202"/></clipPath><clipPath id="clip1"><rect x="192" y="245" width="158" height="158"/></clipPath><clipPath id="clip2"><rect x="192" y="245" width="158" height="158"/></clipPath><clipPath id="clip3"><rect x="192" y="245" width="158" height="158"/></clipPath></defs><g clip-path="url(#clip0)" transform="translate(-170 -223)"><path d="M175 324C175 270.981 217.981 228 271 228 324.019 228 367 270.981 367 324 367 377.019 324.019 420 271 420 217.981 420 175 377.019 175 324Z" stroke="#3C7D9A" stroke-width="8" stroke-miterlimit="8" fill="#D9D9D9" fill-rule="evenodd"/><g clip-path="url(#clip1)"><g clip-path="url(#clip2)"><g clip-path="url(#clip3)"><path d="M294.865 386.883 289.618 400.686 252.999 400.686 247.136 386.883 247.136 368.746 294.865 368.746Z" fill="#8AC9FE"/><path d="M268.429 400.686 253 400.686 247.136 386.882 247.136 368.746 262.566 368.746 262.566 386.882Z" fill="#60B7FF"/><path d="M315.214 308.485C315.214 284.256 295.725 264.579 271.568 264.274 247.125 263.967 226.922 283.789 226.786 308.233 226.709 322.051 232.972 334.407 242.835 342.566 248.93 347.608 252.484 355.084 252.484 362.994L252.484 368.746 289.516 368.746 289.516 362.996C289.516 355.044 293.143 347.575 299.256 342.49 309.007 334.38 315.214 322.158 315.214 308.485Z" fill="#ECF6FE"/><path d="M267.914 362.994 267.914 368.746 252.484 368.746 252.484 362.994C252.484 355.085 248.929 347.607 242.835 342.565 232.972 334.406 226.711 322.05 226.788 308.234 226.924 283.79 247.124 263.966 271.568 264.275 274.015 264.306 276.413 264.534 278.746 264.948 258.169 268.592 242.338 286.605 242.217 308.234 242.14 322.05 248.402 334.406 258.264 342.565 264.359 347.607 267.914 355.085 267.914 362.994Z" fill="#DBEBFC"/><path d="M273.601 339.121C283.91 337.842 291.891 329.05 291.891 318.393 291.891 316.663 291.78 314.983 291.576 313.354 290.762 306.846 288.448 301.159 285.65 296.413 281.624 289.582 276.596 284.704 273.601 282.148 272.017 280.795 271 280.092 271 280.092 271 280.092 269.983 280.795 268.399 282.148 265.404 284.704 260.376 289.582 256.35 296.413 253.552 301.159 251.238 306.846 250.424 313.354 250.22 314.983 250.109 316.663 250.109 318.393 250.109 329.05 258.09 337.842 268.399 339.121" fill="#C6EA7C"/><path d="M275.629 338.766C274.965 338.917 274.29 339.035 273.601 339.121L268.399 339.121C258.092 337.84 250.108 329.049 250.108 318.393 250.108 316.662 250.219 314.983 250.423 313.354 251.238 306.845 253.552 301.158 256.351 296.415 260.375 289.583 265.405 284.704 268.399 282.148 269.985 280.797 271 280.093 271 280.093 271 280.093 272.015 280.797 273.601 282.148 274.203 282.661 274.885 283.269 275.629 283.966 272.682 286.743 268.824 290.956 265.609 296.415 262.81 301.158 260.495 306.845 259.681 313.354 259.477 314.983 259.366 316.662 259.366 318.393 259.366 328.339 266.322 336.662 275.629 338.766Z" fill="#B2E254"/><path d="M271 257.692C269.721 257.692 268.686 256.656 268.686 255.378L268.686 247.314C268.686 246.036 269.721 245 271 245 272.279 245 273.314 246.036 273.314 247.314L273.314 255.378C273.314 256.656 272.279 257.692 271 257.692Z"/><path d="M231.833 272.56 226.132 266.858C225.228 265.954 225.228 264.489 226.132 263.585 227.036 262.681 228.501 262.681 229.405 263.585L235.107 269.287C236.01 270.191 236.019 271.665 235.107 272.56 234.181 273.468 232.445 273.179 231.833 272.56Z"/><path d="M312.595 353.321 306.893 347.619C305.989 346.716 305.989 345.25 306.893 344.347 307.797 343.442 309.263 343.443 310.166 344.347L315.868 350.048C316.772 350.952 316.803 352.45 315.868 353.321 314.859 354.262 313.374 354.03 312.595 353.321Z"/><path d="M217.925 310.768 209.861 310.768C208.583 310.768 207.547 309.732 207.547 308.453 207.547 307.175 208.583 306.139 209.861 306.139L217.925 306.139C219.203 306.139 220.239 307.175 220.239 308.453 220.239 309.732 219.203 310.768 217.925 310.768Z"/><path d="M332.139 310.768 324.075 310.768C322.797 310.768 321.761 309.732 321.761 308.453 321.761 307.175 322.797 306.139 324.075 306.139L332.139 306.139C333.417 306.139 334.453 307.175 334.453 308.453 334.453 309.732 333.417 310.768 332.139 310.768Z"/><path d="M226.132 353.321C225.222 352.423 225.228 350.952 226.132 350.048L231.833 344.347C232.737 343.443 234.203 343.442 235.106 344.347 236.01 345.25 236.01 346.716 235.107 347.619L229.405 353.321C228.337 354.204 226.961 354.139 226.132 353.321Z"/><path d="M306.893 272.56C306.019 271.628 305.99 270.191 306.893 269.287L312.595 263.585C313.499 262.681 314.964 262.681 315.868 263.585 316.772 264.489 316.772 265.954 315.868 266.858L310.167 272.56C309.15 273.487 307.8 273.526 306.893 272.56Z"/><path d="M304.097 275.78C295.441 267.022 283.9 262.114 271.597 261.96 259.141 261.797 247.372 266.55 238.434 275.327 229.501 284.1 224.542 295.782 224.474 308.221 224.442 314.015 225.461 319.674 227.504 325.042 227.959 326.237 229.297 326.837 230.49 326.382 231.685 325.927 232.284 324.59 231.83 323.396 229.992 318.564 229.074 313.467 229.103 308.247 229.165 297.05 233.631 286.532 241.677 278.63 249.729 270.723 260.33 266.442 271.539 266.589 294.346 266.874 312.901 285.668 312.901 308.484 312.901 320.969 307.389 332.716 297.779 340.711 291.057 346.3 287.201 354.423 287.201 362.997L287.201 366.431 273.315 366.431 273.315 341.416C273.505 341.441 273.695 341.442 273.886 341.417 285.47 339.98 294.205 330.081 294.205 318.393 294.205 310.267 291.755 302.211 287.644 295.238 283.578 288.339 278.58 283.354 275.104 280.387 273.45 278.974 272.362 278.22 272.317 278.188 271.545 277.649 270.456 277.649 269.684 278.188 269.638 278.22 268.551 278.975 266.898 280.386 263.421 283.354 258.423 288.339 254.357 295.238 250.246 302.211 247.796 310.268 247.796 318.393 247.796 330.081 256.531 339.98 268.115 341.417 268.309 341.442 268.5 341.438 268.686 341.415L268.686 366.432 254.799 366.432 254.799 362.994C254.799 354.392 250.976 346.297 244.311 340.782 241.544 338.493 239.079 335.858 236.982 332.95 236.235 331.914 234.788 331.679 233.751 332.426 232.715 333.174 232.48 334.621 233.228 335.657 235.554 338.885 238.29 341.809 241.36 344.348 246.96 348.981 250.171 355.777 250.171 362.994L250.171 366.432 247.136 366.432C245.858 366.432 244.822 367.468 244.822 368.746L244.822 386.883C244.822 387.194 244.885 387.502 245.006 387.788L250.87 401.591C251.233 402.445 252.071 403 253 403L289.619 403C290.58 403 291.441 402.406 291.783 401.508L297.029 387.706C297.127 387.446 297.18 387.161 297.18 386.883L297.18 368.746C297.18 367.468 296.144 366.432 294.865 366.432L291.83 366.432 291.83 362.997C291.83 355.803 295.077 348.977 300.738 344.27 311.409 335.392 317.53 322.349 317.53 308.484 317.53 296.16 312.759 284.546 304.097 275.78ZM255.712 302.772 268.686 310.888 268.686 322.048 252.934 312.194C253.456 309.01 254.386 305.859 255.712 302.772ZM289.066 312.194 273.314 322.048 273.314 310.888 286.288 302.772C287.614 305.859 288.544 309.009 289.066 312.194ZM273.315 336.824C273.315 336.824 273.315 336.824 273.314 336.824L273.314 327.508 289.559 317.345C289.822 326.879 283.017 335.62 273.315 336.824ZM268.686 284.982 268.686 290.814C268.686 292.092 269.721 293.128 271 293.128 272.279 293.128 273.314 292.092 273.314 290.814L273.314 284.982C277.625 288.904 281.393 293.501 284.233 298.597L273.314 305.429 273.314 300.902C273.314 299.624 272.279 298.587 271 298.587 269.721 298.587 268.686 299.624 268.686 300.902L268.686 305.429 257.767 298.597C260.607 293.501 264.375 288.904 268.686 284.982ZM268.685 336.824C259.039 335.627 252.177 326.867 252.441 317.345L268.686 327.508 268.686 336.824C268.685 336.824 268.685 336.824 268.685 336.824ZM292.55 384.568 285.3 384.568C284.022 384.568 282.986 385.604 282.986 386.882 282.986 388.16 284.022 389.197 285.3 389.197L291.509 389.197 288.022 398.371 254.53 398.371 250.633 389.197 275.215 389.197C276.494 389.197 277.53 388.16 277.53 386.882 277.53 385.604 276.494 384.568 275.215 384.568L249.45 384.568 249.45 371.061 292.55 371.061Z"/></g></g></g></g></svg>