<svg width="512" height="512" viewBox="0 0 511.982 511.982" xmlns="http://www.w3.org/2000/svg" xmlns:xlink="http://www.w3.org/1999/xlink" overflow="hidden"><g transform="matrix(-1 0 0 1 511.981 0)"><path d="M368 95.983 352 95.983C166.52 96.195 16.212 246.503 16 431.983L16 479.983 112 479.983 112 431.983C112 299.435 219.452 191.983 352 191.983L368 191.983 368 255.983 496 143.983 368 31.983 368 95.983Z" fill="#3C7D9A"/><path d="M112 495.983 16 495.983C7.163 495.983 0 488.82 0 479.983L0 431.983C0.229 237.674 157.691 80.212 352 79.983L352 31.983C352.009 23.146 359.18 15.99 368.016 15.999 371.882 16.003 375.616 17.407 378.528 19.951L506.528 131.951C513.173 137.776 513.838 147.885 508.013 154.53 507.551 155.057 507.055 155.553 506.528 156.015L378.528 268.015C371.874 273.829 361.766 273.149 355.952 266.495 353.408 263.584 352.004 259.85 352 255.983L352 207.983C228.347 208.124 128.141 308.33 128 431.983L128 479.983C128 488.819 120.837 495.983 112 495.983ZM32 463.983 96 463.983 96 431.983C96.159 290.664 210.681 176.142 352 175.983L368 175.983C376.837 175.983 384 183.146 384 191.983L384 220.783 471.68 143.983 384 67.183 384 95.983C384 104.82 376.837 111.983 368 111.983L352 111.983C175.349 112.177 32.194 255.332 32 431.983L32 463.983Z"/><g></g><g></g><g></g><g></g><g></g><g></g><g></g><g></g><g></g><g></g><g></g><g></g><g></g><g></g><g></g></g></svg>