<svg width="202" height="202" xmlns="http://www.w3.org/2000/svg" xmlns:xlink="http://www.w3.org/1999/xlink" overflow="hidden"><defs><clipPath id="clip0"><rect x="539" y="223" width="202" height="202"/></clipPath><clipPath id="clip1"><rect x="578" y="262" width="124" height="124"/></clipPath><clipPath id="clip2"><rect x="578" y="262" width="124" height="124"/></clipPath><clipPath id="clip3"><rect x="578" y="262" width="124" height="124"/></clipPath></defs><g clip-path="url(#clip0)" transform="translate(-539 -223)"><path d="M544 324C544 270.981 586.981 228 640 228 693.019 228 736 270.981 736 324 736 377.019 693.019 420 640 420 586.981 420 544 377.019 544 324Z" stroke="#3C7D9A" stroke-width="8" stroke-miterlimit="8" fill="#D9D9D9" fill-rule="evenodd"/><g clip-path="url(#clip1)"><g clip-path="url(#clip2)"><g clip-path="url(#clip3)"><path d="M589.113 346.508 608.685 346.508 608.685 376.355 589.113 376.355Z" stroke="#3C7D9A" stroke-width="0.242205" fill="#F6E266"/><path d="M616.514 334.764 636.086 334.764 636.086 376.355 616.514 376.355Z" stroke="#3C7D9A" stroke-width="0.242205" fill="#E49542"/><path d="M643.914 320.086 663.486 320.086 663.486 376.355 643.914 376.355Z" stroke="#3C7D9A" stroke-width="0.242205" fill="#9DC6FB"/><path d="M671.315 310.3 690.887 310.3 690.887 376.355 671.315 376.355Z" stroke="#3C7D9A" stroke-width="0.242205" fill="#C8EA73"/><path d="M643.914 350.364 643.914 376.355 663.486 376.355 663.486 340.857C657.475 344.284 650.916 347.486 643.914 350.364Z" stroke="#3C7D9A" stroke-width="0.242205" fill="#80B4FB"/><path d="M631.658 354.91C626.557 356.605 621.494 358.05 616.514 359.253L616.514 376.355 636.086 376.355 636.086 353.378C634.625 353.903 633.149 354.415 631.658 354.91Z" stroke="#3C7D9A" stroke-width="0.242205" fill="#E28424"/><path d="M589.113 363.518 589.113 376.355 608.685 376.355 608.685 360.958C601.914 362.271 595.35 363.12 589.113 363.518Z" stroke="#3C7D9A" stroke-width="0.242205" fill="#F1D333"/><path d="M671.315 336.066 671.315 376.355 690.887 376.355 690.887 319.798C685.777 325.398 679.151 330.916 671.315 336.066Z" stroke="#3C7D9A" stroke-width="0.242205" fill="#B7E445"/><path d="M700.184 376.355 700.184 384.183 579.816 384.183 579.816 376.355Z" stroke="#3C7D9A" stroke-width="0.242205" fill="#4073C8"/><path d="M686.973 263.816 667.401 263.816 667.401 271.645 677.522 271.645 656.972 292.196 640.734 292.196C639.637 292.196 638.59 292.656 637.848 293.465L614.792 318.618 588.868 318.618 588.868 326.446 616.514 326.446C617.611 326.446 618.658 325.986 619.399 325.177L642.456 300.024 658.593 300.024C659.631 300.024 660.627 299.612 661.361 298.878L683.058 277.181 683.058 287.303 690.887 287.303 690.887 267.731C690.887 265.569 689.134 263.816 686.973 263.816Z" stroke="#3C7D9A" stroke-width="0.242205" fill="#DD5790"/><path d="M700.184 374.537 692.702 374.537 692.702 346.199C692.702 345.196 691.889 344.383 690.886 344.383 689.883 344.383 689.07 345.196 689.07 346.199L689.07 374.537 673.131 374.537 673.131 312.116 689.07 312.116 689.07 337.722C689.07 338.725 689.883 339.539 690.886 339.539 691.889 339.539 692.702 338.725 692.702 337.722L692.702 310.299C692.702 309.296 691.889 308.483 690.886 308.483L671.315 308.483C670.312 308.483 669.498 309.296 669.498 310.299L669.498 374.537 665.303 374.537 665.303 320.086C665.303 319.082 664.49 318.269 663.486 318.269L643.914 318.269C642.911 318.269 642.098 319.082 642.098 320.086L642.098 374.537 637.902 374.537 637.902 334.764C637.902 333.761 637.089 332.948 636.086 332.948L616.514 332.948C615.511 332.948 614.697 333.761 614.697 334.764L614.697 374.537 610.502 374.537 610.502 346.508C610.502 345.505 609.688 344.691 608.685 344.691L589.113 344.691C588.11 344.691 587.297 345.505 587.297 346.508L587.297 374.537 579.816 374.537C578.813 374.537 578 375.351 578 376.354L578 384.184C578 385.187 578.813 386 579.816 386L599.434 386C600.437 386 601.25 385.187 601.25 384.184 601.25 383.18 600.437 382.367 599.434 382.367L581.633 382.367 581.633 378.17 698.367 378.17 698.367 382.367 607.91 382.367C606.907 382.367 606.094 383.18 606.094 384.184 606.094 385.187 606.907 386 607.91 386L700.184 386C701.187 386 702 385.187 702 384.184L702 376.354C702 375.351 701.187 374.537 700.184 374.537ZM645.731 321.902 661.67 321.902 661.67 374.537 645.731 374.537ZM618.33 336.581 634.269 336.581 634.269 374.537 618.33 374.537ZM590.929 348.324 606.869 348.324 606.869 374.537 590.929 374.537Z" stroke="#3C7D9A" stroke-width="0.242205"/><path d="M588.869 328.263 616.513 328.263C618.116 328.263 619.657 327.585 620.739 326.404L643.255 301.84 658.593 301.84C660.124 301.84 661.563 301.244 662.645 300.162L681.242 281.565 681.242 287.303C681.242 288.307 682.055 289.12 683.059 289.12L690.886 289.12C691.889 289.12 692.702 288.307 692.702 287.303L692.702 267.73C692.702 264.571 690.132 262 686.972 262L667.401 262C666.398 262 665.585 262.813 665.585 263.816L665.585 271.646C665.585 272.649 666.398 273.463 667.401 273.463L673.137 273.463 656.22 290.38 640.734 290.38C639.132 290.38 637.592 291.057 636.511 292.237L613.992 316.802 608.983 316.802C607.98 316.802 607.167 317.615 607.167 318.619 607.167 319.622 607.98 320.435 608.983 320.435L614.791 320.435C615.3 320.435 615.786 320.221 616.13 319.846L639.188 294.692C639.584 294.26 640.147 294.013 640.734 294.013L656.972 294.013C657.454 294.013 657.916 293.821 658.257 293.48L678.806 272.931C679.326 272.411 679.481 271.63 679.2 270.951 678.919 270.273 678.256 269.83 677.522 269.83L669.217 269.83 669.217 265.633 686.972 265.633C688.128 265.633 689.069 266.574 689.069 267.73L689.069 285.487 684.875 285.487 684.875 277.18C684.875 276.446 684.432 275.783 683.753 275.502 683.075 275.221 682.293 275.376 681.774 275.896L660.077 297.593C659.681 297.989 659.154 298.207 658.593 298.207L642.456 298.207C641.946 298.207 641.461 298.421 641.117 298.796L618.06 323.95C617.664 324.382 617.1 324.63 616.513 324.63L590.686 324.63 590.686 320.435 600.506 320.435C601.51 320.435 602.323 319.622 602.323 318.619 602.323 317.615 601.51 316.802 600.506 316.802L588.869 316.802C587.866 316.802 587.053 317.615 587.053 318.619L587.053 326.446C587.053 327.449 587.866 328.263 588.869 328.263Z" stroke="#3C7D9A" stroke-width="0.242205"/></g></g></g></g></svg>