<svg width="502" height="484" xmlns="http://www.w3.org/2000/svg" xmlns:xlink="http://www.w3.org/1999/xlink" overflow="hidden"><defs><filter id="fx0" x="-10%" y="-10%" width="120%" height="120%" filterUnits="userSpaceOnUse" primitiveUnits="userSpaceOnUse"><feComponentTransfer color-interpolation-filters="sRGB"><feFuncR type="discrete" tableValues="0 0"/><feFuncG type="discrete" tableValues="0 0"/><feFuncB type="discrete" tableValues="0 0"/><feFuncA type="linear" slope="0.384314" intercept="0"/></feComponentTransfer><feGaussianBlur stdDeviation="1.77778 1.77778"/></filter><filter id="fx1" x="-10%" y="-10%" width="120%" height="120%" filterUnits="userSpaceOnUse" primitiveUnits="userSpaceOnUse"><feComponentTransfer color-interpolation-filters="sRGB"><feFuncR type="discrete" tableValues="0 0"/><feFuncG type="discrete" tableValues="0 0"/><feFuncB type="discrete" tableValues="0 0"/><feFuncA type="linear" slope="0.384314" intercept="0"/></feComponentTransfer><feGaussianBlur stdDeviation="1.77778 1.77778"/></filter><filter id="fx2" x="-10%" y="-10%" width="120%" height="120%" filterUnits="userSpaceOnUse" primitiveUnits="userSpaceOnUse"><feComponentTransfer color-interpolation-filters="sRGB"><feFuncR type="discrete" tableValues="0 0"/><feFuncG type="discrete" tableValues="0 0"/><feFuncB type="discrete" tableValues="0 0"/><feFuncA type="linear" slope="0.384314" intercept="0"/></feComponentTransfer><feGaussianBlur stdDeviation="1.77778 1.77778"/></filter><filter id="fx3" x="-10%" y="-10%" width="120%" height="120%" filterUnits="userSpaceOnUse" primitiveUnits="userSpaceOnUse"><feComponentTransfer color-interpolation-filters="sRGB"><feFuncR type="discrete" tableValues="0 0"/><feFuncG type="discrete" tableValues="0 0"/><feFuncB type="discrete" tableValues="0 0"/><feFuncA type="linear" slope="0.384314" intercept="0"/></feComponentTransfer><feGaussianBlur stdDeviation="1.77778 1.77778"/></filter><filter id="fx4" x="-10%" y="-10%" width="120%" height="120%" filterUnits="userSpaceOnUse" primitiveUnits="userSpaceOnUse"><feComponentTransfer color-interpolation-filters="sRGB"><feFuncR type="discrete" tableValues="0 0"/><feFuncG type="discrete" tableValues="0 0"/><feFuncB type="discrete" tableValues="0 0"/><feFuncA type="linear" slope="0.384314" intercept="0"/></feComponentTransfer><feGaussianBlur stdDeviation="1.77778 1.77778"/></filter><clipPath id="clip5"><rect x="390" y="117" width="502" height="484"/></clipPath><linearGradient x1="535.442" y1="304.274" x2="744.558" y2="449.726" gradientUnits="userSpaceOnUse" spreadMethod="reflect" id="fill6"><stop offset="0" stop-color="#FFFFFF"/><stop offset="0.22846" stop-color="#FFFFFF"/><stop offset="0.63322" stop-color="#E6EAEB"/><stop offset="0.9996" stop-color="#CDD5D8"/><stop offset="1" stop-color="#CDD5D8"/></linearGradient><clipPath id="clip7"><rect x="-2" y="-2" width="133" height="135"/></clipPath><clipPath id="clip8"><rect x="0" y="0" width="129" height="130"/></clipPath><linearGradient x1="573.56" y1="136.135" x2="705.44" y2="227.865" gradientUnits="userSpaceOnUse" spreadMethod="reflect" id="fill9"><stop offset="0" stop-color="#FFFFFF"/><stop offset="0.22846" stop-color="#FFFFFF"/><stop offset="0.63322" stop-color="#E6EAEB"/><stop offset="0.9996" stop-color="#CDD5D8"/><stop offset="1" stop-color="#CDD5D8"/></linearGradient><clipPath id="clip10"><rect x="-2" y="-2" width="133" height="133"/></clipPath><clipPath id="clip11"><rect x="0" y="0" width="130" height="129"/></clipPath><linearGradient x1="688.957" y1="488.563" x2="821.043" y2="580.437" gradientUnits="userSpaceOnUse" spreadMethod="reflect" id="fill12"><stop offset="0" stop-color="#FFFFFF"/><stop offset="0.22846" stop-color="#FFFFFF"/><stop offset="0.63322" stop-color="#E6EAEB"/><stop offset="0.9996" stop-color="#CDD5D8"/><stop offset="1" stop-color="#CDD5D8"/></linearGradient><clipPath id="clip13"><rect x="-2" y="-2" width="133" height="133"/></clipPath><clipPath id="clip14"><rect x="0" y="0" width="130" height="129"/></clipPath><linearGradient x1="458.957" y1="488.563" x2="591.043" y2="580.437" gradientUnits="userSpaceOnUse" spreadMethod="reflect" id="fill15"><stop offset="0" stop-color="#FFFFFF"/><stop offset="0.22846" stop-color="#FFFFFF"/><stop offset="0.63322" stop-color="#E6EAEB"/><stop offset="0.9996" stop-color="#CDD5D8"/><stop offset="1" stop-color="#CDD5D8"/></linearGradient><clipPath id="clip16"><rect x="-2" y="-2" width="133" height="135"/></clipPath><clipPath id="clip17"><rect x="0" y="0" width="130" height="130"/></clipPath><linearGradient x1="388.723" y1="269.9" x2="521.277" y2="362.1" gradientUnits="userSpaceOnUse" spreadMethod="reflect" id="fill18"><stop offset="0" stop-color="#FFFFFF"/><stop offset="0.22846" stop-color="#FFFFFF"/><stop offset="0.63322" stop-color="#E6EAEB"/><stop offset="0.9996" stop-color="#CDD5D8"/><stop offset="1" stop-color="#CDD5D8"/></linearGradient><clipPath id="clip19"><rect x="-2" y="-2" width="133" height="135"/></clipPath><clipPath id="clip20"><rect x="0" y="0" width="129" height="130"/></clipPath><linearGradient x1="759.56" y1="270.135" x2="891.44" y2="361.865" gradientUnits="userSpaceOnUse" spreadMethod="reflect" id="fill21"><stop offset="0" stop-color="#FFFFFF"/><stop offset="0.22846" stop-color="#FFFFFF"/><stop offset="0.63322" stop-color="#E6EAEB"/><stop offset="0.9996" stop-color="#CDD5D8"/><stop offset="1" stop-color="#CDD5D8"/></linearGradient><clipPath id="clip22"><rect x="782" y="273" width="87" height="87"/></clipPath><clipPath id="clip23"><rect x="782" y="273" width="87" height="87"/></clipPath><clipPath id="clip24"><rect x="782" y="273" width="87" height="87"/></clipPath><clipPath id="clip25"><rect x="596" y="137" width="87" height="87"/></clipPath><clipPath id="clip26"><rect x="596" y="137" width="87" height="87"/></clipPath><clipPath id="clip27"><rect x="596" y="137" width="87" height="87"/></clipPath><clipPath id="clip28"><rect x="412" y="273" width="86" height="86"/></clipPath><clipPath id="clip29"><rect x="412" y="273" width="86" height="86"/></clipPath><clipPath id="clip30"><rect x="412" y="273" width="86" height="86"/></clipPath><clipPath id="clip31"><rect x="482" y="492" width="87" height="86"/></clipPath><clipPath id="clip32"><rect x="482" y="492" width="87" height="86"/></clipPath><clipPath id="clip33"><rect x="482" y="492" width="87" height="86"/></clipPath><clipPath id="clip34"><rect x="712" y="492" width="86" height="87"/></clipPath><clipPath id="clip35"><rect x="712" y="492" width="86" height="87"/></clipPath><clipPath id="clip36"><rect x="712" y="492" width="86" height="87"/></clipPath><clipPath id="clip37"><rect x="618" y="430" width="42" height="36"/></clipPath><clipPath id="clip38"><rect x="618" y="430" width="42" height="36"/></clipPath><clipPath id="clip39"><rect x="618" y="331" width="101" height="152"/></clipPath><clipPath id="clip40"><rect x="618" y="420" width="42" height="24"/></clipPath><clipPath id="clip41"><rect x="618" y="420" width="42" height="24"/></clipPath><clipPath id="clip42"><rect x="618" y="420" width="101" height="101"/></clipPath><clipPath id="clip43"><rect x="619" y="314" width="72" height="70"/></clipPath><clipPath id="clip44"><rect x="619" y="314" width="72" height="70"/></clipPath><clipPath id="clip45"><rect x="619" y="314" width="72" height="70"/></clipPath><clipPath id="clip46"><rect x="575" y="376" width="128" height="48"/></clipPath><clipPath id="clip47"><rect x="575" y="376" width="128" height="48"/></clipPath><clipPath id="clip48"><rect x="575" y="339" width="128" height="125"/></clipPath></defs><g clip-path="url(#clip5)" transform="translate(-390 -117)"><path d="M534.5 377C534.5 318.734 581.734 271.5 640 271.5 698.266 271.5 745.5 318.734 745.5 377 745.5 435.266 698.266 482.5 640 482.5 581.734 482.5 534.5 435.266 534.5 377Z" stroke="#3C7D9A" stroke-width="1.33333" stroke-miterlimit="8" fill="#3C7D9A" fill-rule="evenodd"/><path d="M548.5 377C548.5 326.466 589.466 285.5 640 285.5 690.534 285.5 731.5 326.466 731.5 377 731.5 427.534 690.534 468.5 640 468.5 589.466 468.5 548.5 427.534 548.5 377Z" stroke="#3C7D9A" stroke-width="1.33333" fill="url(#fill6)" fill-rule="evenodd"/><path d="M620 262C620 251.507 628.73 243 639.5 243 650.27 243 659 251.507 659 262 659 272.493 650.27 281 639.5 281 628.73 281 620 272.493 620 262Z" fill="#FFFFFF" fill-rule="evenodd"/><path d="M639.5 118C675.124 118 704 146.747 704 182.21 704 213.246 681.891 239.13 652.502 245.122L647.264 246.471C646.368 247.116 645.645 247.884 645.144 248.738 644.642 249.592 644.361 250.532 644.361 251.522L644.935 253.553 647.013 254.945C648.936 256.861 650.125 259.502 650.125 262.423 650.125 268.264 645.365 273 639.5 273 633.635 273 628.875 268.264 628.875 262.423 628.875 259.502 630.064 256.861 631.987 254.945L633.396 254.005 633.104 254.063 633.677 253.446C634.179 252.592 634.453 251.644 634.453 250.669 634.453 249.685 634.179 248.738 633.677 247.884L631.856 245.932 626.498 245.122C597.109 239.13 575 213.246 575 182.21 575 146.747 603.876 118 639.5 118ZM638.915 257.249C635.947 257.249 633.54 259.646 633.54 262.602 633.54 265.559 635.947 267.948 638.915 267.948 641.883 267.948 644.29 265.559 644.29 262.602 644.29 259.646 641.883 257.249 638.915 257.249Z" fill="#3C7D9A" fill-rule="evenodd"/><path d="M723.407 458.487C729.639 467.066 727.738 479.073 719.159 485.306 710.58 491.539 698.573 489.637 692.34 481.058 686.108 472.479 688.009 460.472 696.588 454.239 705.167 448.007 717.174 449.908 723.407 458.487Z" fill="#FFFFFF" fill-rule="evenodd"/><path d="M792.639 586.597C763.942 607.447 723.781 601.086 702.932 572.39 684.686 547.277 687.28 513.393 707.432 491.344L710.858 487.187C711.2 486.14 711.331 485.096 711.233 484.111 711.135 483.127 710.808 482.202 710.226 481.4L708.571 480.093 706.078 480.183C703.402 479.758 700.893 478.317 699.176 475.953 695.742 471.227 696.792 464.609 701.516 461.176 706.24 457.744 712.859 458.79 716.293 463.517 718.01 465.88 718.605 468.712 718.182 471.388L717.6 472.974 717.802 472.756 717.703 473.591C717.8 474.576 718.136 475.503 718.71 476.292 719.288 477.088 720.066 477.694 720.972 478.091L723.587 478.604 728.379 476.125C755.576 463.773 788.603 471.777 806.849 496.89 827.698 525.586 821.337 565.747 792.639 586.597ZM711.247 473.579C713.638 471.842 714.168 468.494 712.43 466.101 710.692 463.709 707.348 463.184 704.957 464.921 702.566 466.659 702.032 470.001 703.77 472.393 705.508 474.785 708.856 475.316 711.247 473.579Z" fill="#3C7D9A" fill-rule="evenodd"/><path d="M587.5 481.267C581.267 489.846 569.26 491.747 560.682 485.515 552.103 479.282 550.201 467.275 556.434 458.696 562.667 450.117 574.674 448.216 583.253 454.448 591.831 460.681 593.733 472.688 587.5 481.267Z" fill="#FFFFFF" fill-rule="evenodd"/><path d="M487.055 586.699C458.358 565.849 451.996 525.688 472.845 496.993 491.091 471.879 524.118 463.875 551.315 476.228L556.328 478.201C557.429 478.203 558.462 478.005 559.369 477.607 560.275 477.21 561.053 476.614 561.636 475.812L562.368 473.834 561.512 471.491C561.089 468.815 561.684 465.983 563.401 463.619 566.835 458.893 573.454 457.846 578.178 461.279 582.903 464.711 583.953 471.329 580.519 476.056 578.802 478.419 576.292 479.86 573.616 480.285L571.928 480.221 572.198 480.346 571.373 480.509C570.467 480.907 569.689 481.513 569.115 482.302 568.537 483.098 568.201 484.025 568.104 485.009L568.423 487.655 572.262 491.446C592.414 513.496 595.008 547.38 576.762 572.493 555.913 601.188 515.752 607.549 487.055 586.699ZM569.39 474.367C571.781 476.104 575.129 475.573 576.867 473.181 578.605 470.788 578.071 467.446 575.68 465.709 573.289 463.972 569.945 464.497 568.207 466.889 566.469 469.281 566.999 472.629 569.39 474.367Z" fill="#3C7D9A" fill-rule="evenodd"/><path d="M524.773 359.401C514.689 356.124 509.169 345.292 512.446 335.207 515.723 325.122 526.555 319.603 536.64 322.88 546.725 326.157 552.244 336.989 548.967 347.073 545.69 357.158 534.858 362.677 524.773 359.401Z" fill="#FFFFFF" fill-rule="evenodd"/><path d="M393.462 296.452C404.424 262.716 440.653 244.256 474.387 255.217 503.909 264.809 521.728 293.746 518.384 323.429L518.056 328.806C518.395 329.854 518.903 330.776 519.561 331.515 520.219 332.254 521.026 332.81 521.968 333.116L524.077 333.201 526.04 331.663C528.455 330.434 531.332 330.125 534.11 331.028 539.667 332.833 542.707 338.804 540.903 344.358 539.098 349.912 533.128 352.956 527.572 351.15 524.794 350.248 522.648 348.306 521.417 345.893L520.956 344.267 520.921 344.562 520.51 343.829C519.852 343.09 519.036 342.537 518.107 342.235 517.172 341.931 516.187 341.899 515.22 342.11L512.803 343.232 510.383 348.054C495.641 374.033 464.217 386.971 434.694 377.378 400.96 366.418 382.501 330.188 393.462 296.452ZM525.74 340.044C524.826 342.855 526.366 345.875 529.178 346.789 531.99 347.703 535.004 346.162 535.917 343.351 536.83 340.54 535.298 337.522 532.486 336.609 529.673 335.695 526.653 337.233 525.74 340.044Z" fill="#3C7D9A" fill-rule="evenodd"/><path d="M743.304 322.222C753.389 318.945 764.221 324.464 767.498 334.549 770.775 344.634 765.256 355.466 755.171 358.742 745.086 362.019 734.254 356.5 730.977 346.415 727.701 336.33 733.22 325.499 743.304 322.222Z" fill="#FFFFFF" fill-rule="evenodd"/><path d="M886.538 295.966C897.499 329.702 879.04 365.931 845.306 376.892 815.783 386.485 784.359 373.547 769.617 347.568L766.722 343.025C765.832 342.376 764.879 341.929 763.912 341.718 762.946 341.507 761.965 341.532 761.023 341.838L759.268 343.008 758.583 345.407C757.352 347.82 755.206 349.762 752.428 350.664 746.872 352.47 740.902 349.426 739.097 343.872 737.293 338.318 740.333 332.347 745.89 330.542 748.668 329.639 751.546 329.948 753.96 331.177L755.288 332.221 755.143 331.962 755.906 332.314C756.873 332.525 757.859 332.493 758.787 332.191 759.722 331.887 760.539 331.334 761.197 330.595L762.493 328.267 761.616 322.943C758.272 293.26 776.091 264.323 805.613 254.73 839.347 243.77 875.576 262.23 886.538 295.966ZM753.9 338.45C752.987 335.639 749.967 334.1 747.154 335.014 744.342 335.928 742.809 338.946 743.723 341.756 744.636 344.567 747.65 346.108 750.462 345.194 753.274 344.28 754.814 341.26 753.9 338.45Z" fill="#3C7D9A" fill-rule="evenodd"/><g clip-path="url(#clip7)" filter="url(#fx0)" transform="translate(578 119)"><g clip-path="url(#clip8)"><path d="M6.88794 65.3043C6.88794 33.2718 32.6316 7.30434 64.3879 7.30434 96.1443 7.30434 121.888 33.2718 121.888 65.3043 121.888 97.3369 96.1443 123.304 64.3879 123.304 32.6316 123.304 6.88794 97.3369 6.88794 65.3043Z" fill="#FF0000" fill-rule="evenodd"/></g></g><path d="M582 182C582 149.967 607.744 124 639.5 124 671.256 124 697 149.967 697 182 697 214.033 671.256 240 639.5 240 607.744 240 582 214.033 582 182Z" fill="url(#fill9)" fill-rule="evenodd"/><g clip-path="url(#clip10)" filter="url(#fx1)" transform="translate(693 472)"><g clip-path="url(#clip11)"><path d="M6.88794 64.8044C6.88794 33.048 32.8554 7.30435 64.8879 7.30435 96.9205 7.30435 122.888 33.048 122.888 64.8044 122.888 96.5607 96.9205 122.304 64.8879 122.304 32.8554 122.304 6.88794 96.5607 6.88794 64.8044Z" fill="#FF0000" fill-rule="evenodd"/></g></g><path d="M697 534.5C697 502.744 722.967 477 755 477 787.033 477 813 502.744 813 534.5 813 566.256 787.033 592 755 592 722.967 592 697 566.256 697 534.5Z" fill="url(#fill12)" fill-rule="evenodd"/><g clip-path="url(#clip13)" filter="url(#fx2)" transform="translate(463 472)"><g clip-path="url(#clip14)"><path d="M6.88791 64.8044C6.88791 33.048 32.8554 7.30435 64.8879 7.30435 96.9204 7.30435 122.888 33.048 122.888 64.8044 122.888 96.5607 96.9204 122.304 64.8879 122.304 32.8554 122.304 6.88791 96.5607 6.88791 64.8044Z" fill="#FF0000" fill-rule="evenodd"/></g></g><path d="M467 534.5C467 502.744 492.967 477 525 477 557.033 477 583 502.744 583 534.5 583 566.256 557.033 592 525 592 492.967 592 467 566.256 467 534.5Z" fill="url(#fill15)" fill-rule="evenodd"/><g clip-path="url(#clip16)" filter="url(#fx3)" transform="translate(393 253)"><g clip-path="url(#clip17)"><path d="M6.88791 65.3044C6.88791 33.2718 32.8554 7.30435 64.8879 7.30435 96.9204 7.30435 122.888 33.2718 122.888 65.3044 122.888 97.3369 96.9204 123.304 64.8879 123.304 32.8554 123.304 6.88791 97.3369 6.88791 65.3044Z" fill="#FF0000" fill-rule="evenodd"/></g></g><path d="M397 316C397 283.967 422.967 258 455 258 487.033 258 513 283.967 513 316 513 348.033 487.033 374 455 374 422.967 374 397 348.033 397 316Z" fill="url(#fill18)" fill-rule="evenodd"/><g clip-path="url(#clip19)" filter="url(#fx4)" transform="translate(764 253)"><g clip-path="url(#clip20)"><path d="M6.88794 65.3044C6.88794 33.2718 32.6316 7.30435 64.3879 7.30435 96.1443 7.30435 121.888 33.2718 121.888 65.3044 121.888 97.3369 96.1443 123.304 64.3879 123.304 32.6316 123.304 6.88794 97.3369 6.88794 65.3044Z" fill="#FF0000" fill-rule="evenodd"/></g></g><path d="M768 316C768 283.967 793.744 258 825.5 258 857.256 258 883 283.967 883 316 883 348.033 857.256 374 825.5 374 793.744 374 768 348.033 768 316Z" fill="url(#fill21)" fill-rule="evenodd"/><g clip-path="url(#clip22)"><g clip-path="url(#clip23)"><g clip-path="url(#clip24)"><path d="M808.817 279.092C807.88 279.092 806.959 279.162 806.06 279.296 815.027 280.628 821.907 288.358 821.907 297.697L821.907 331.411C821.907 340.75 815.027 348.48 806.06 349.812 806.959 349.946 807.88 350.016 808.817 350.016 819.092 350.016 827.422 341.687 827.422 331.411L827.422 297.696C827.422 287.421 819.092 279.092 808.817 279.092Z" fill="#87BCC4"/><path d="M821.907 331.411 821.907 297.696C821.907 288.358 815.027 280.628 806.06 279.295 797.092 280.628 790.212 288.358 790.212 297.696L790.212 331.411C790.212 340.749 797.092 348.48 806.059 349.812 815.027 348.48 821.907 340.749 821.907 331.411Z" fill="#9CE3BF"/><path d="M819.857 295.474C819.857 299.7 816.437 303.126 812.218 303.126 807.999 303.126 804.579 299.7 804.579 295.474 804.579 291.247 807.999 287.821 812.218 287.821 816.437 287.821 819.857 291.247 819.857 295.474Z" fill="#FFC277"/><path d="M804.579 315.899C804.579 317.692 803.129 319.145 801.339 319.145 799.549 319.145 798.099 317.692 798.099 315.899 798.099 314.106 799.549 312.653 801.339 312.653 803.129 312.653 804.579 314.106 804.579 315.899Z" fill="#FFC277"/><path d="M817.578 332.516C817.578 335.481 815.178 337.884 812.218 337.884 809.259 337.884 806.859 335.481 806.859 332.516 806.859 329.551 809.259 327.147 812.218 327.147 815.178 327.147 817.578 329.551 817.578 332.516Z" fill="#FFC277"/><path d="M864.266 295.667 862.062 283.167C861.051 277.433 855.532 273.568 849.798 274.579 849.636 274.608 849.476 274.641 849.317 274.677 853.36 275.589 856.681 278.847 857.443 283.167L859.647 295.667C860.629 301.239 857.008 306.607 851.541 307.834 852.864 308.132 854.265 308.18 855.679 307.931 861.413 306.92 865.277 301.401 864.266 295.667Z" fill="#F05475"/><path d="M859.647 295.667 857.443 283.167C856.681 278.847 853.36 275.589 849.317 274.677 843.85 275.904 840.228 281.271 841.21 286.844L843.415 299.344C844.176 303.664 847.497 306.921 851.541 307.834 857.008 306.607 860.629 301.239 859.647 295.667Z" fill="#F88FA4"/><path d="M860.756 324.063C859.804 323.716 858.832 323.519 857.867 323.454 862.362 325.92 864.531 331.4 862.726 336.359L858.385 348.286C856.74 352.805 852.288 355.531 847.705 355.222 848.17 355.477 848.66 355.7 849.173 355.887 854.645 357.879 860.751 355.031 862.742 349.56L867.084 337.632C869.075 332.161 866.228 326.054 860.756 324.063Z" fill="#F05475"/><path d="M858.385 348.286 862.726 336.359C864.531 331.4 862.362 325.921 857.867 323.454 853.284 323.145 848.832 325.871 847.187 330.39L842.846 342.318C841.041 347.276 843.211 352.756 847.706 355.222 852.288 355.531 856.74 352.805 858.385 348.286Z" fill="#F88FA4"/><path d="M828.699 297.729C828.699 296.991 828.657 296.261 828.578 295.543L834.423 295.543 834.423 292.989 828.128 292.989C827.23 289.32 825.315 286.047 822.699 283.488L828.744 276.595 826.824 274.911 820.764 281.821C817.435 279.307 813.297 277.815 808.817 277.815 804.682 277.815 800.839 279.086 797.655 281.258L791.606 274.361 789.686 276.046 795.638 282.833C792.8 285.354 790.685 288.675 789.649 292.439L784.007 292.439 784.007 294.994 789.124 294.994C789.001 295.888 788.935 296.801 788.935 297.729L788.935 307.377 782 307.377 782 309.931 788.935 309.931 788.935 323.77 784.007 323.77 784.007 326.324 788.935 326.324 788.935 331.378C788.935 333.965 789.43 336.438 790.33 338.707L782 338.707 782 341.261 791.561 341.261C792.879 343.561 794.643 345.573 796.732 347.181L791.432 352.222 793.192 354.072 798.906 348.638C801.478 350.125 804.412 351.051 807.54 351.251L807.54 359.86 810.094 359.86 810.094 351.251C813.277 351.048 816.258 350.091 818.862 348.558L825.239 354.622 826.999 352.771 821.022 347.088C822.892 345.627 824.495 343.839 825.745 341.811L836.43 341.811 836.43 339.257 827.075 339.257C828.119 336.839 828.699 334.176 828.699 331.378L828.699 326.874 834.423 326.874 834.423 324.319 828.699 324.319 828.699 321.626 826.145 321.626 826.145 331.378C826.145 340.951 818.372 348.739 808.817 348.739 799.263 348.739 791.489 340.951 791.489 331.378L791.489 297.729C791.489 288.157 799.263 280.369 808.817 280.369 818.371 280.369 826.145 288.157 826.145 297.729L826.145 312.908 828.699 312.908 828.699 310.481 836.43 310.481 836.43 307.927 828.699 307.927 828.699 297.729Z"/><path d="M812.218 286.544C807.302 286.544 803.302 290.55 803.302 295.474 803.302 300.398 807.302 304.403 812.218 304.403 817.135 304.403 821.134 300.398 821.134 295.474 821.134 290.55 817.135 286.544 812.218 286.544ZM812.218 301.849C808.71 301.849 805.856 298.989 805.856 295.474 805.856 291.958 808.71 289.098 812.218 289.098 815.726 289.098 818.58 291.958 818.58 295.474 818.58 298.989 815.726 301.849 812.218 301.849Z"/><path d="M805.856 315.899C805.856 313.405 803.83 311.376 801.339 311.376 798.848 311.376 796.822 313.405 796.822 315.899 796.822 318.393 798.848 320.422 801.339 320.422 803.83 320.422 805.856 318.393 805.856 315.899ZM799.376 315.899C799.376 314.814 800.256 313.93 801.339 313.93 802.422 313.93 803.302 314.814 803.302 315.899 803.302 316.985 802.422 317.868 801.339 317.868 800.257 317.868 799.376 316.985 799.376 315.899Z"/><path d="M812.218 339.161C815.878 339.161 818.855 336.18 818.855 332.516 818.855 328.851 815.878 325.87 812.218 325.87 808.559 325.87 805.582 328.851 805.582 332.516 805.582 336.18 808.559 339.161 812.218 339.161ZM812.218 328.424C814.469 328.424 816.3 330.259 816.3 332.516 816.3 334.772 814.469 336.607 812.218 336.607 809.967 336.607 808.136 334.772 808.136 332.516 808.136 330.259 809.968 328.424 812.218 328.424Z"/><path d="M817.751 307.927 820.305 307.927 820.305 310.481 817.751 310.481Z" fill="#FFFFFF"/><path d="M817.751 313.882 820.305 313.882 820.305 316.436 817.751 316.436Z" fill="#FFFFFF"/><path d="M797.619 324.942 800.173 324.942 800.173 327.496 797.619 327.496Z" fill="#FFFFFF"/><path d="M797.619 330.897 800.173 330.897 800.173 333.451 797.619 333.451Z" fill="#FFFFFF"/><path d="M826.126 315.918 828.68 315.91 828.689 318.816 826.135 318.824Z"/><path d="M853.835 309.37C854.516 309.37 855.207 309.311 855.9 309.189 859.01 308.641 861.726 306.905 863.548 304.303 865.37 301.7 866.072 298.555 865.524 295.445L865.075 292.897 862.559 293.341 863.009 295.889C863.439 298.326 862.887 300.794 861.456 302.838 860.025 304.882 857.895 306.244 855.457 306.674 850.4 307.565 845.564 304.177 844.672 299.122L842.468 286.622C841.577 281.566 844.965 276.728 850.02 275.837 855.076 274.947 859.914 278.333 860.805 283.389L861.214 285.711 863.73 285.268 863.32 282.945C862.184 276.503 856.018 272.185 849.577 273.322 846.467 273.87 843.751 275.605 841.929 278.208 840.107 280.81 839.405 283.956 839.953 287.065L842.157 299.566C843.17 305.314 848.188 309.37 853.835 309.37Z"/><path d="M861.658 288.227 861.665 288.268 862.108 290.784 862.109 290.784 862.109 290.784 864.624 290.34 864.18 287.825 864.173 287.783Z"/><path d="M849.147 292.515 851.663 292.07 852.107 294.586 849.592 295.03Z"/><path d="M854.179 291.622 856.695 291.177 857.139 293.693 854.624 294.137Z"/><path d="M850.789 287.118 853.305 286.674 853.749 289.189 851.234 289.634Z"/><path d="M861.193 322.863C855.046 320.626 848.225 323.806 845.987 329.954L841.646 341.881C840.566 344.848 840.711 348.068 842.054 350.947 843.397 353.827 845.77 356.007 848.737 357.087 850.051 357.566 851.415 357.804 852.777 357.804 854.489 357.804 856.199 357.427 857.803 356.679 860.682 355.337 862.863 352.963 863.943 349.997L864.828 347.566 862.427 346.692 861.542 349.123C860.696 351.449 858.985 353.31 856.723 354.365 854.462 355.419 851.936 355.533 849.61 354.687 847.285 353.841 845.423 352.129 844.368 349.868 843.314 347.606 843.2 345.08 844.046 342.755L848.387 330.827C850.143 326.004 855.496 323.507 860.32 325.263 865.143 327.019 867.639 332.372 865.884 337.195L865.077 339.412 867.477 340.285 868.284 338.069C870.521 331.922 867.34 325.1 861.193 322.863Z"/><path d="M864.189 341.852 864.189 341.852 863.315 344.252 865.716 345.125 866.604 342.685 864.204 341.812Z"/><path d="M850.35 341.661 851.223 339.26 853.624 340.133 852.751 342.534Z"/><path d="M855.147 343.399 856.02 340.998 858.421 341.872 857.548 344.272Z"/><path d="M854.464 337.807 855.338 335.406 857.738 336.28 856.865 338.681Z"/></g></g></g><g clip-path="url(#clip25)"><g clip-path="url(#clip26)"><g clip-path="url(#clip27)"><path d="M629.346 212.284C619.897 212.05 611.094 207.675 605.194 200.282 602.447 196.839 603.011 191.821 606.453 189.074 609.896 186.327 614.914 186.891 617.661 190.334 620.613 194.033 625.017 196.223 629.742 196.34 634.144 196.449 637.625 200.106 637.516 204.509 637.407 208.912 633.75 212.393 629.346 212.284Z" fill="#FBE77B"/><path d="M635.216 198.709C634.296 202.201 631.076 204.737 627.309 204.644 618.149 204.417 609.596 200.299 603.707 193.312 603.103 195.655 603.569 198.244 605.194 200.281 611.094 207.675 619.897 212.05 629.346 212.284 633.749 212.393 637.407 208.912 637.516 204.509 637.572 202.254 636.685 200.196 635.216 198.709Z" fill="#FBD307"/><path d="M669.894 175.801C668.095 176.076 666.265 176.102 664.424 175.878 657.777 175.067 651.989 171.018 648.942 165.046 647.972 163.146 648.727 160.819 650.628 159.849 652.529 158.879 654.856 159.634 655.826 161.535 657.703 165.213 661.267 167.708 665.36 168.207 667.123 168.422 668.868 168.265 670.545 167.74 672.583 167.102 674.75 168.237 675.387 170.273 676.024 172.31 674.89 174.477 672.853 175.115 671.879 175.42 670.891 175.649 669.894 175.801Z" fill="#6DF3BF"/><path d="M675.387 170.273C674.965 168.925 673.871 167.976 672.59 167.671 672.266 168.921 671.328 169.982 670.006 170.396 669.031 170.701 668.043 170.93 667.046 171.082 665.247 171.357 663.417 171.383 661.577 171.159 656.462 170.535 651.857 167.992 648.617 164.133 648.686 164.443 648.791 164.75 648.942 165.047 651.989 171.018 657.777 175.067 664.424 175.878 666.265 176.102 668.094 176.076 669.894 175.801 670.891 175.649 671.879 175.42 672.853 175.115 674.89 174.477 676.024 172.31 675.387 170.273Z" fill="#05E29A"/><path d="M656.834 203.149C656.171 203.251 655.472 203.18 654.805 202.91 650.911 201.334 647.863 198.336 646.224 194.468 644.585 190.6 644.55 186.326 646.126 182.432 646.927 180.454 649.18 179.499 651.157 180.3 653.136 181.1 654.09 183.353 653.289 185.331 652.488 187.312 652.505 189.486 653.339 191.453 654.173 193.42 655.723 194.945 657.704 195.747 659.682 196.548 660.636 198.8 659.836 200.778 659.305 202.089 658.137 202.95 656.834 203.149Z" fill="#6DF3BF"/><path d="M657.704 195.747C655.723 194.945 654.173 193.421 653.339 191.453 652.505 189.486 652.488 187.312 653.289 185.331 654.09 183.353 653.135 181.1 651.157 180.3 649.784 179.744 648.279 180.036 647.219 180.928 648.85 181.88 649.581 183.906 648.852 185.709 648.05 187.689 648.068 189.864 648.902 191.831 649.736 193.798 651.285 195.323 653.266 196.125 655.244 196.925 656.199 199.178 655.398 201.156 655.149 201.772 654.758 202.287 654.279 202.682 654.453 202.76 654.627 202.838 654.805 202.91 655.472 203.18 656.171 203.251 656.834 203.149 658.137 202.95 659.305 202.089 659.836 200.778 660.636 198.8 659.682 196.548 657.704 195.747Z" fill="#05E29A"/><path d="M631.236 149.293C628.204 143.002 620.538 140.449 614.312 143.756 608.753 146.709 606.296 153.495 608.686 159.319 609.615 161.583 611.122 163.41 612.958 164.713 614.042 165.482 614.662 166.77 614.589 168.097 614.465 170.345 614.954 172.662 616.146 174.799 619.212 180.297 626.051 182.603 631.825 180.095 638.291 177.286 641.07 169.698 638.038 163.408 637.106 161.472 635.734 159.891 634.101 158.725 633.004 157.942 632.375 156.636 632.445 155.29 632.551 153.286 632.169 151.228 631.236 149.293Z" fill="#AE66D8"/><path d="M638.038 163.408C637.106 161.472 635.734 159.891 634.101 158.725 633.004 157.942 632.375 156.636 632.445 155.29 632.551 153.286 632.169 151.228 631.236 149.293 628.915 144.476 623.876 141.854 618.847 142.373 620.251 143.493 621.432 144.935 622.263 146.66 623.196 148.595 623.578 150.653 623.473 152.657 623.402 154.003 624.031 155.309 625.129 156.092 626.762 157.258 628.133 158.839 629.066 160.774 632.097 167.065 629.318 174.652 622.852 177.461 621.671 177.975 620.445 178.283 619.216 178.407 622.695 181.168 627.551 181.951 631.824 180.095 638.291 177.286 641.07 169.698 638.038 163.408Z" fill="#80499E"/><path d="M662.76 191.26C661.036 191.524 659.292 190.587 658.603 188.901 657.795 186.926 658.742 184.67 660.717 183.863 666.022 181.694 669.121 176.215 668.254 170.539 667.986 168.783 667.364 167.145 666.406 165.671 665.243 163.882 665.751 161.489 667.54 160.326 669.33 159.163 671.723 159.671 672.885 161.46 674.446 163.861 675.458 166.523 675.893 169.372 676.578 173.858 675.713 178.492 673.454 182.42 671.232 186.284 667.748 189.337 663.641 191.015 663.352 191.134 663.056 191.215 662.76 191.26Z" fill="#6DF3BF"/><path d="M672.885 161.46C672.115 160.275 670.805 159.656 669.487 159.709 670.798 161.92 671.661 164.337 672.053 166.906 672.739 171.393 671.873 176.026 669.615 179.954 667.393 183.818 663.908 186.871 659.802 188.55 659.512 188.668 659.217 188.749 658.92 188.794 658.806 188.812 658.692 188.823 658.577 188.83 658.587 188.854 658.593 188.878 658.602 188.901 659.292 190.587 661.035 191.524 662.76 191.26 663.056 191.215 663.351 191.134 663.641 191.016 667.747 189.337 671.232 186.284 673.454 182.42 675.712 178.492 676.578 173.858 675.893 169.372 675.457 166.523 674.446 163.861 672.885 161.46Z" fill="#05E29A"/><path d="M674.486 217.723 657.743 215.77C656.535 214.216 655.125 212.841 653.552 211.677 653.99 211.599 654.425 211.497 654.855 211.369L659.515 209.98C660.192 209.778 660.578 209.065 660.376 208.388 660.174 207.711 659.462 207.325 658.784 207.527L654.124 208.916C651.997 209.55 649.708 209.404 647.679 208.504L638.794 204.565C638.794 204.557 638.795 204.549 638.795 204.541 638.856 202.07 637.951 199.723 636.247 197.932 634.543 196.142 632.244 195.122 629.773 195.06 625.427 194.953 621.377 192.939 618.66 189.535 617.119 187.603 614.917 186.387 612.46 186.111 610.004 185.835 607.587 186.532 605.655 188.074 603.723 189.616 602.507 191.818 602.231 194.274 601.955 196.731 602.652 199.148 604.194 201.08 604.66 201.665 605.153 202.241 605.658 202.793 606.135 203.314 606.944 203.351 607.465 202.874 607.987 202.397 608.023 201.587 607.546 201.066 607.08 200.556 606.625 200.024 606.194 199.484 605.079 198.086 604.574 196.337 604.774 194.56 604.973 192.783 605.853 191.19 607.251 190.074 608.649 188.959 610.398 188.455 612.174 188.654 613.952 188.854 615.545 189.734 616.66 191.131 619.849 195.128 624.605 197.492 629.709 197.619 631.497 197.663 633.161 198.401 634.393 199.696 635.626 200.992 636.281 202.69 636.237 204.478 636.192 206.265 635.455 207.929 634.159 209.162 632.864 210.395 631.168 211.055 629.378 211.005 622.905 210.844 616.768 208.697 611.63 204.794 611.067 204.366 610.264 204.476 609.837 205.039 609.409 205.601 609.519 206.404 610.082 206.832 615.651 211.062 622.302 213.389 629.314 213.563 629.393 213.565 629.471 213.566 629.55 213.566 631.44 213.566 633.249 212.998 634.782 211.941L644.413 215.809C646.701 216.728 649.104 217.339 651.553 217.625L656.343 218.183C656.355 218.201 656.367 218.217 656.379 218.235L659.961 223.445C660.21 223.806 660.61 224 661.017 224 661.267 224 661.519 223.927 661.741 223.775 662.323 223.374 662.471 222.578 662.07 221.995L659.72 218.577 674.188 220.264C674.239 220.27 674.289 220.273 674.338 220.273 674.979 220.273 675.531 219.793 675.607 219.142 675.69 218.44 675.188 217.804 674.486 217.723ZM645.367 213.434 636.839 210.009C637.51 209.153 638.019 208.193 638.35 207.167L646.641 210.843C646.641 210.843 646.641 210.844 646.642 210.844L648.438 211.64C650.473 212.543 652.322 213.792 653.911 215.323L651.85 215.083C649.626 214.823 647.445 214.269 645.367 213.434Z"/><path d="M654.443 181.875C653.907 180.61 652.911 179.629 651.637 179.114 650.364 178.599 648.966 178.61 647.701 179.146 646.436 179.682 645.456 180.678 644.94 181.952 643.236 186.163 643.273 190.785 645.046 194.968 646.819 199.15 650.114 202.392 654.325 204.096 654.941 204.346 655.597 204.472 656.255 204.472 656.513 204.472 656.771 204.453 657.027 204.414L657.028 204.414C658.814 204.141 660.344 202.932 661.022 201.258 662.086 198.629 660.812 195.625 658.184 194.561 656.52 193.887 655.217 192.606 654.517 190.954 653.817 189.301 653.802 187.475 654.475 185.811 654.991 184.538 654.98 183.14 654.443 181.875ZM657.224 196.933C658.544 197.468 659.184 198.977 658.65 200.298 658.304 201.152 657.553 201.745 656.641 201.884 656.185 201.954 655.716 201.898 655.285 201.724 651.708 200.276 648.908 197.522 647.402 193.969 645.897 190.416 645.865 186.489 647.313 182.912 647.571 182.272 648.064 181.772 648.7 181.502 649.024 181.365 649.366 181.296 649.708 181.296 650.036 181.296 650.364 181.359 650.677 181.486 651.317 181.745 651.818 182.238 652.087 182.873 652.357 183.509 652.362 184.211 652.103 184.851 651.174 187.149 651.194 189.671 652.161 191.952 653.128 194.234 654.926 196.003 657.224 196.933Z"/><path d="M606.503 155.1C606.552 156.704 606.883 158.297 607.502 159.805 607.58 159.995 607.664 160.183 607.75 160.369L604.588 161.893C603.952 162.2 603.684 162.964 603.991 163.601 604.251 164.044 604.925 164.566 605.699 164.198L609.042 162.587C609.916 163.809 610.985 164.882 612.218 165.757 612.294 165.811 612.366 165.869 612.435 165.931L610.236 166.99C609.6 167.297 609.332 168.062 609.639 168.698 609.899 169.142 610.573 169.664 611.347 169.296L613.299 168.355C613.243 170.152 613.546 171.936 614.186 173.615L610.982 175.159C610.345 175.466 610.078 176.231 610.385 176.868 610.645 177.311 611.319 177.833 612.093 177.465L615.316 175.911C615.825 176.74 616.421 177.504 617.088 178.197L614.947 181.267C614.543 181.847 614.685 182.645 615.264 183.049 615.648 183.323 616.467 183.429 617.046 182.731L619.039 179.872C620.109 180.627 621.292 181.233 622.561 181.661 622.671 181.699 622.783 181.732 622.894 181.766L621.546 185.584C621.31 186.251 621.66 186.982 622.326 187.217 622.823 187.378 623.589 187.241 623.959 186.437L625.42 182.297C625.93 182.355 626.442 182.386 626.952 182.386 627.607 182.386 628.261 182.336 628.909 182.242L630.03 186.674C630.176 187.253 630.697 187.64 631.269 187.64 631.923 187.652 632.695 186.962 632.511 186.046L631.394 181.631C631.711 181.521 632.025 181.403 632.334 181.268 632.995 180.981 633.623 180.647 634.219 180.271L636.976 183.894C637.383 184.263 637.864 184.671 638.769 184.138 639.331 183.709 639.44 182.907 639.013 182.344L636.244 178.706C637.063 177.94 637.783 177.073 638.39 176.121L642.449 177.526C642.949 177.684 643.709 177.54 644.076 176.735 644.307 176.067 643.953 175.338 643.286 175.107L639.565 173.82C639.606 173.718 639.649 173.618 639.687 173.516 640.173 172.207 640.453 170.86 640.529 169.51L644.018 169.732C644.046 169.734 644.073 169.735 644.1 169.735 644.77 169.735 645.333 169.214 645.376 168.537 645.421 167.832 644.886 167.223 644.181 167.178L640.424 166.939C640.295 165.993 640.067 165.056 639.735 164.143L642.985 162.577C643.621 162.27 643.889 161.505 643.582 160.869 643.275 160.232 642.51 159.965 641.874 160.272L638.641 161.83C637.727 160.285 636.514 158.929 635.08 157.858L637.06 156.904C637.696 156.597 637.964 155.832 637.657 155.196 637.35 154.559 636.585 154.292 635.949 154.598L633.726 155.669C633.719 155.566 633.717 155.462 633.723 155.357 633.802 153.867 633.628 152.37 633.221 150.935L636.591 149.311C637.228 149.004 637.495 148.239 637.188 147.602 636.882 146.966 636.117 146.699 635.48 147.005L632.289 148.543C631.459 146.887 630.329 145.449 628.963 144.284L631.163 141.432C631.595 140.872 631.491 140.069 630.931 139.637 630.372 139.206 629.568 139.309 629.136 139.869L626.866 142.813C626.078 142.366 625.239 141.994 624.356 141.705 623.731 141.5 623.099 141.344 622.464 141.231L623.114 138.585C623.282 137.899 622.863 137.206 622.176 137.037 621.49 136.868 620.797 137.289 620.629 137.975L619.88 141.025C618.361 141.05 616.854 141.332 615.408 141.868L614.201 139.362C613.894 138.726 613.129 138.458 612.492 138.765 611.856 139.072 611.588 139.837 611.895 140.473L613.1 142.973C611.773 143.769 610.604 144.783 609.63 145.965L606.778 144.65C606.136 144.354 605.376 144.635 605.08 145.277 604.785 145.919 605.065 146.679 605.707 146.974L608.179 148.114C607.846 148.724 607.555 149.362 607.315 150.026 607.017 150.85 606.802 151.693 606.666 152.543L602.959 152.485C602.258 152.471 601.67 153.038 601.659 153.744 601.648 154.451 602.212 155.033 602.919 155.044ZM614.913 144.886C616.545 144.019 618.317 143.58 620.103 143.58 621.261 143.58 622.425 143.765 623.56 144.137 626.448 145.083 628.765 147.112 630.083 149.848 630.89 151.522 631.265 153.38 631.168 155.223 631.074 156.995 631.914 158.736 633.358 159.767 634.859 160.839 636.079 162.29 636.885 163.963 638.204 166.7 638.347 169.776 637.288 172.624 636.23 175.471 634.109 177.707 631.315 178.921 626.167 181.158 619.995 179.074 617.263 174.176 616.234 172.33 615.751 170.253 615.866 168.167 615.964 166.411 615.133 164.688 613.699 163.67 611.996 162.461 610.672 160.788 609.87 158.833 607.741 153.646 609.956 147.519 614.913 144.886Z"/><path d="M676.16 172.678C675.455 172.623 674.84 173.15 674.785 173.855 674.569 176.64 673.725 179.381 672.345 181.782 670.264 185.401 667.001 188.26 663.157 189.831 662.966 189.909 662.768 189.964 662.567 189.995 661.383 190.176 660.241 189.527 659.787 188.417 659.248 187.098 659.882 185.586 661.201 185.047 667.055 182.654 670.475 176.608 669.518 170.346 669.222 168.409 668.536 166.601 667.479 164.974 666.702 163.78 667.042 162.176 668.237 161.399 669.432 160.623 671.036 160.963 671.812 162.158 673.12 164.17 674.019 166.386 674.484 168.743 674.621 169.436 675.292 169.888 675.987 169.751 676.68 169.614 677.131 168.941 676.995 168.248 676.466 165.569 675.445 163.051 673.958 160.763 672.412 158.385 669.22 157.708 666.842 159.253 664.465 160.799 663.787 163.991 665.333 166.369 665.457 166.56 665.573 166.756 665.685 166.954 665.628 166.948 665.571 166.944 665.514 166.937 661.845 166.489 658.649 164.252 656.965 160.953 655.676 158.427 652.573 157.42 650.046 158.709 648.822 159.333 647.915 160.397 647.491 161.704 647.067 163.01 647.178 164.404 647.802 165.628 650.503 170.922 655.325 174.884 661.03 176.497 661.146 176.53 661.264 176.546 661.379 176.546 661.937 176.546 662.45 176.178 662.61 175.614 662.802 174.934 662.406 174.227 661.726 174.034 656.704 172.614 652.46 169.127 650.082 164.465 649.768 163.85 649.712 163.15 649.925 162.493 650.138 161.837 650.594 161.302 651.209 160.989 652.478 160.341 654.038 160.847 654.685 162.116 656.757 166.175 660.689 168.926 665.204 169.477 665.719 169.54 666.235 169.57 666.75 169.575 666.849 169.954 666.929 170.34 666.989 170.732 667.766 175.822 664.988 180.734 660.233 182.678 658.961 183.198 657.968 184.182 657.436 185.449 656.904 186.716 656.898 188.114 657.418 189.385 658.22 191.347 660.105 192.585 662.168 192.585 662.427 192.585 662.69 192.565 662.953 192.525 663.354 192.463 663.748 192.354 664.125 192.2 668.493 190.414 672.2 187.167 674.563 183.058 676.132 180.329 677.091 177.215 677.336 174.052 677.391 173.348 676.865 172.733 676.16 172.678Z"/></g></g></g><g clip-path="url(#clip28)"><g clip-path="url(#clip29)"><g clip-path="url(#clip30)"><path d="M450.969 277.367 459.031 277.367 459.031 354.633 450.969 354.633Z" fill="#95D70B"/><path d="M459.031 286.967C460.144 286.967 461.047 287.869 461.047 288.983L461.047 288.983C461.047 290.096 460.144 290.998 459.031 290.998L450.969 290.998C449.856 290.998 448.953 290.096 448.953 288.983L448.953 288.983C448.953 287.869 449.856 286.967 450.969 286.967Z" fill="#90C202"/><path d="M459.031 304.979C460.144 304.979 461.047 305.881 461.047 306.994L461.047 306.994C461.047 308.107 460.144 309.01 459.031 309.01L450.969 309.01C449.856 309.01 448.953 308.107 448.953 306.994L448.953 306.994C448.953 305.881 449.856 304.979 450.969 304.979Z" fill="#90C202"/><path d="M459.031 322.99C460.144 322.99 461.047 323.893 461.047 325.006L461.047 325.006C461.047 326.119 460.144 327.021 459.031 327.021L450.969 327.021C449.856 327.021 448.953 326.119 448.953 325.006L448.953 325.006C448.953 323.893 449.856 322.99 450.969 322.99Z" fill="#90C202"/><path d="M459.031 341.002C460.144 341.002 461.047 341.904 461.047 343.017L461.047 343.017C461.047 344.131 460.144 345.033 459.031 345.033L450.969 345.033C449.856 345.033 448.953 344.131 448.953 343.017L448.953 343.017C448.953 341.904 449.856 341.002 450.969 341.002Z" fill="#90C202"/><path d="M430.27 289.254 438.332 289.254 438.332 354.633 430.27 354.633Z" fill="#95D70B"/><path d="M438.332 301.916C439.445 301.916 440.348 302.819 440.348 303.932L440.348 303.932C440.348 305.045 439.445 305.947 438.332 305.947L430.27 305.947C429.156 305.947 428.254 305.045 428.254 303.932L428.254 303.932C428.254 302.819 429.156 301.916 430.27 301.916Z" fill="#90C202"/><path d="M438.332 319.928C439.445 319.928 440.348 320.83 440.348 321.943L440.348 321.943C440.348 323.057 439.445 323.959 438.332 323.959L430.27 323.959C429.156 323.959 428.254 323.057 428.254 321.943L428.254 321.943C428.254 320.83 429.156 319.928 430.27 319.928Z" fill="#90C202"/><path d="M438.332 337.939C439.445 337.939 440.348 338.842 440.348 339.955L440.348 339.955C440.348 341.068 439.445 341.971 438.332 341.971L430.27 341.971C429.156 341.971 428.254 341.068 428.254 339.955L428.254 339.955C428.254 338.842 429.156 337.939 430.27 337.939Z" fill="#90C202"/><path d="M479.73 354.633 471.668 354.633 471.668 291.485 479.73 286.779Z" fill="#95D70B"/><path d="M479.73 300.679C480.844 300.679 481.746 301.582 481.746 302.695L481.746 302.695C481.746 303.808 480.844 304.71 479.73 304.71L471.668 304.71C470.555 304.71 469.652 303.808 469.652 302.695L469.652 302.695C469.652 301.582 470.555 300.679 471.668 300.679Z" fill="#90C202"/><path d="M479.73 318.69C480.844 318.69 481.746 319.593 481.746 320.706L481.746 320.706C481.746 321.819 480.844 322.721 479.73 322.721L471.668 322.721C470.555 322.721 469.652 321.819 469.652 320.706L469.652 320.706C469.652 319.593 470.555 318.69 471.668 318.69Z" fill="#90C202"/><path d="M479.73 336.702C480.844 336.702 481.746 337.604 481.746 338.717L481.746 338.717C481.746 339.831 480.844 340.733 479.73 340.733L471.668 340.733C470.555 340.733 469.652 339.831 469.652 338.717L469.652 338.717C469.652 337.604 470.555 336.702 471.668 336.702Z" fill="#90C202"/><path d="M452.145 300.681 452.145 297.638C452.145 296.988 451.618 296.462 450.969 296.462 450.319 296.462 449.793 296.988 449.793 297.638L449.793 300.681C449.793 301.331 450.319 301.857 450.969 301.857 451.618 301.857 452.145 301.331 452.145 300.681Z" fill="#061720"/><path d="M462.223 288.983C462.22 287.677 461.422 286.504 460.207 286.022L460.207 277.367C460.207 276.718 459.681 276.191 459.031 276.191L450.969 276.191C450.319 276.191 449.793 276.718 449.793 277.367L449.793 286.022C448.158 286.666 447.354 288.514 447.998 290.149 448.322 290.97 448.972 291.62 449.793 291.944L449.793 293.94C449.793 294.59 450.319 295.116 450.969 295.116 451.618 295.116 452.145 294.59 452.145 293.94L452.145 292.175 457.855 292.175 457.855 303.803 450.969 303.803C449.208 303.804 447.782 305.233 447.783 306.993 447.784 308.298 448.58 309.471 449.793 309.953L449.793 322.047C448.158 322.691 447.354 324.539 447.998 326.174 448.322 326.995 448.972 327.645 449.793 327.968L449.793 340.062C448.158 340.706 447.354 342.553 447.998 344.189 448.322 345.01 448.972 345.66 449.793 345.983L449.793 354.633C449.793 355.282 450.319 355.809 450.969 355.809L459.031 355.809C459.681 355.809 460.207 355.282 460.207 354.633L460.207 345.978C461.842 345.333 462.646 343.486 462.002 341.851 461.678 341.03 461.028 340.38 460.207 340.056L460.207 327.963C461.842 327.319 462.646 325.471 462.002 323.836 461.678 323.015 461.028 322.365 460.207 322.042L460.207 309.953C461.842 309.309 462.646 307.461 462.002 305.826 461.678 305.005 461.028 304.355 460.207 304.032L460.207 291.947C461.423 291.465 462.221 290.291 462.223 288.983ZM450.969 289.823C450.505 289.81 450.14 289.423 450.153 288.96 450.166 288.515 450.524 288.157 450.969 288.144L459.038 288.144C459.502 288.144 459.878 288.52 459.878 288.984 459.878 289.448 459.502 289.824 459.038 289.824ZM457.855 278.543 457.855 285.792 452.145 285.792 452.145 278.543ZM450.969 306.154 459.005 306.154 459.031 306.154 459.04 306.154C459.504 306.157 459.878 306.535 459.875 306.999 459.873 307.462 459.495 307.836 459.031 307.834L450.969 307.834C450.505 307.834 450.129 307.458 450.129 306.994 450.129 306.53 450.505 306.154 450.969 306.154ZM459.04 325.844 459.031 325.844C459.023 325.844 459.014 325.844 459.005 325.844L450.995 325.844C450.986 325.844 450.977 325.844 450.969 325.844L450.96 325.844C450.496 325.841 450.122 325.463 450.125 324.999 450.127 324.536 450.505 324.162 450.969 324.164L459.031 324.164C459.495 324.162 459.873 324.536 459.875 324.999 459.878 325.463 459.504 325.841 459.04 325.844ZM459.035 343.856 450.969 343.856C450.505 343.855 450.13 343.478 450.131 343.014 450.132 342.55 450.508 342.176 450.972 342.176L459.031 342.176C459.495 342.176 459.871 342.552 459.871 343.016 459.871 343.48 459.495 343.856 459.031 343.856ZM452.145 339.825 452.145 328.197 457.855 328.197 457.855 339.825ZM452.145 321.814 452.145 310.186 457.855 310.186 457.855 321.814ZM452.145 353.459 452.145 346.208 457.855 346.208 457.855 353.457Z" fill="#061720"/><path d="M441.524 303.932C441.521 302.626 440.723 301.453 439.508 300.971L439.508 289.253C439.508 288.603 438.982 288.077 438.332 288.077L430.27 288.077C429.62 288.077 429.094 288.603 429.094 289.253L429.094 292.47C429.094 293.12 429.62 293.646 430.27 293.646 430.919 293.646 431.445 293.12 431.445 292.47L431.445 290.428 437.156 290.428 437.156 300.741 431.445 300.741 431.445 298.666C431.445 298.016 430.919 297.49 430.27 297.49 429.62 297.49 429.094 298.016 429.094 298.666L429.094 300.975C427.459 301.62 426.657 303.468 427.302 305.103 427.625 305.922 428.274 306.571 429.094 306.895L429.094 318.988C427.459 319.634 426.657 321.483 427.302 323.118 427.626 323.937 428.275 324.586 429.094 324.909L429.094 337.003C427.459 337.648 426.657 339.497 427.302 341.132 427.626 341.951 428.275 342.6 429.094 342.923L429.094 354.633C429.094 355.282 429.62 355.808 430.27 355.809L438.332 355.809C438.982 355.809 439.508 355.282 439.508 354.633L439.508 342.916C441.143 342.272 441.947 340.425 441.304 338.79 440.98 337.968 440.33 337.318 439.508 336.994L439.508 324.904C441.143 324.261 441.947 322.413 441.304 320.778 440.98 319.956 440.33 319.306 439.508 318.982L439.508 306.893C440.723 306.412 441.521 305.239 441.524 303.932ZM439.172 321.943C439.172 322.407 438.796 322.783 438.332 322.783L430.27 322.783C429.806 322.786 429.428 322.412 429.425 321.948 429.423 321.484 429.797 321.106 430.261 321.104L430.268 321.104 430.294 321.104 438.305 321.104 438.331 321.104 438.341 321.104C438.801 321.108 439.172 321.483 439.172 321.943ZM438.341 340.792 438.331 340.792C438.322 340.792 438.314 340.792 438.305 340.792L430.294 340.792C430.286 340.792 430.278 340.792 430.268 340.792L430.261 340.792C429.797 340.789 429.423 340.412 429.425 339.948 429.428 339.484 429.806 339.11 430.27 339.112L438.332 339.112C438.796 339.11 439.174 339.484 439.176 339.948 439.179 340.412 438.805 340.789 438.341 340.792ZM431.444 336.761 431.444 325.138 437.155 325.138 437.155 336.761ZM431.444 318.749 431.444 307.124 437.155 307.124 437.155 318.755ZM430.266 303.093 438.337 303.093C438.801 303.094 439.177 303.471 439.176 303.935 439.175 304.399 438.798 304.774 438.334 304.773L430.272 304.773C429.808 304.773 429.432 304.397 429.432 303.933 429.432 303.469 429.808 303.093 430.272 303.093ZM431.444 353.457 431.444 343.144 437.155 343.144 437.155 353.457Z" fill="#061720"/><path d="M479.732 328.194C480.381 328.194 480.908 327.667 480.908 327.018L480.908 323.666C482.542 323.021 483.344 321.173 482.699 319.538 482.376 318.719 481.727 318.07 480.908 317.746L480.908 305.652C482.542 305.007 483.344 303.159 482.699 301.525 482.376 300.705 481.727 300.056 480.908 299.733L480.908 286.78C480.907 286.131 480.38 285.605 479.731 285.605 479.523 285.606 479.319 285.661 479.139 285.766L471.077 290.469C470.716 290.68 470.494 291.066 470.493 291.485L470.493 299.733C468.858 300.377 468.054 302.224 468.698 303.859 469.021 304.681 469.672 305.332 470.493 305.655L470.493 317.747C468.858 318.39 468.054 320.238 468.698 321.873 469.021 322.695 469.672 323.345 470.493 323.669L470.493 335.756C468.858 336.4 468.054 338.247 468.698 339.883 469.021 340.705 469.672 341.355 470.493 341.678L470.493 354.633C470.493 355.282 471.02 355.809 471.669 355.809L479.732 355.809C480.381 355.808 480.907 355.282 480.908 354.633L480.908 341.678C482.542 341.032 483.344 339.184 482.699 337.549 482.376 336.729 481.727 336.081 480.908 335.757L480.908 332.573C480.908 331.924 480.381 331.397 479.732 331.397 479.082 331.397 478.556 331.924 478.556 332.573L478.556 335.526 472.845 335.526 472.845 323.897 478.556 323.897 478.556 327.019C478.556 327.668 479.082 328.194 479.731 328.194 479.731 328.194 479.732 328.194 479.732 328.194ZM471.698 321.546C471.688 321.546 471.679 321.546 471.669 321.546L471.658 321.546C471.195 321.543 470.821 321.165 470.823 320.701 470.826 320.237 471.204 319.863 471.668 319.866L479.73 319.866C480.194 319.863 480.572 320.237 480.575 320.701 480.578 321.165 480.204 321.543 479.74 321.546L479.732 321.546C479.722 321.546 479.712 321.546 479.702 321.546ZM471.663 301.856 471.673 301.856 471.698 301.856 479.709 301.856 479.735 301.856 479.742 301.856C480.206 301.859 480.58 302.237 480.578 302.701 480.576 303.164 480.197 303.538 479.734 303.536L471.671 303.536C471.207 303.538 470.829 303.164 470.827 302.701 470.825 302.237 471.199 301.859 471.663 301.856ZM478.559 305.888 478.559 317.514 472.848 317.514 472.848 305.886ZM478.559 288.829 478.559 299.503 472.848 299.503 472.848 292.159ZM479.734 337.88C480.197 337.878 480.575 338.253 480.576 338.717 480.577 339.181 480.202 339.558 479.738 339.559L479.725 339.559 471.682 339.559 471.669 339.559 471.663 339.559C471.199 339.558 470.824 339.181 470.825 338.717 470.826 338.254 471.203 337.878 471.667 337.88ZM472.845 353.457 472.845 341.909 478.556 341.909 478.556 353.457Z" fill="#061720"/></g></g></g><g clip-path="url(#clip31)"><g clip-path="url(#clip32)"><g clip-path="url(#clip33)"><path d="M61.0839 76.3574 24.9161 76.3574C20.7416 76.3574 17.3576 72.9734 17.3576 68.7988L17.3576 32.8765C17.3576 24.5275 24.1257 17.7593 32.4747 17.7593L53.5253 17.7593C61.8743 17.7593 68.6424 24.5275 68.6424 32.8765L68.6424 68.7988C68.6424 72.9734 65.2584 76.3574 61.0839 76.3574Z" fill="#C6EA7C" transform="matrix(1.01163 0 0 1 482 492)"/><path d="M33.2887 76.3571 24.9039 76.3571C20.7366 76.3571 17.3576 72.9781 17.3576 68.8108L17.3576 32.8517C17.3576 24.5172 24.1141 17.759 32.4502 17.759L40.835 17.759C32.4989 17.759 25.7424 24.5172 25.7424 32.8517L25.7424 68.8108C25.7424 72.9781 29.1214 76.3571 33.2887 76.3571Z" fill="#B2E254" transform="matrix(1.01163 0 0 1 482 492)"/><path d="M52.3233 50.9671C52.3233 53.5415 51.2792 55.8711 49.5923 57.558 47.9054 59.2449 45.574 60.2868 42.9995 60.2868 37.8524 60.2868 33.6794 56.116 33.6776 50.9689 33.6776 50.9671 33.6776 50.9671 33.6776 50.9652 33.6537 49.0242 34.0735 46.7297 35.241 44.0668L39.0531 45.1809C39.193 37.8109 46.0454 35.2162 46.0454 35.2162 46.2922 37.6415 46.9184 39.9876 48.2166 42.1091 49.1613 43.6505 50.0545 44.9709 51.0875 46.4496 51.9826 47.7332 52.3307 49.4275 52.3233 50.9671Z" fill="#FEF0AE" transform="matrix(1.01163 0 0 1 482 492)"/><path d="M47.6616 55.6269C47.6616 56.9142 47.1396 58.0789 46.2962 58.9224 45.4528 59.7658 44.2871 60.2868 42.9998 60.2868 40.4262 60.2868 38.3397 58.2015 38.3389 55.6279 38.3389 55.627 38.3389 55.627 38.3389 55.626 38.3269 54.6555 38.5369 53.5083 39.1206 52.1768L41.0265 52.734C41.0966 49.0491 44.5228 47.7517 44.5228 47.7517 44.6461 48.9644 44.9592 50.1373 45.6084 51.1981 46.0807 51.9687 46.5273 52.629 47.0438 53.3684 47.4913 54.01 47.6653 54.8571 47.6616 55.6269Z" fill="#FD8087" transform="matrix(1.01163 0 0 1 482 492)"/><path d="M24.7556 76.3574 61.2443 76.3574 61.2443 84.7422 24.7556 84.7422Z" fill="#DBEBFC" transform="matrix(1.01163 0 0 1 482 492)"/><path d="M24.7562 76.3571 33.1411 76.3571 33.1411 84.7419 24.7562 84.7419Z" fill="#C9E2FB" transform="matrix(1.01163 0 0 1 482 492)"/><path d="M32.0901 1.25775 53.9099 1.25775 53.9099 17.7593 32.0901 17.7593Z" fill="#ECF6FE" transform="matrix(1.01163 0 0 1 482 492)"/><path d="M32.0898 1.25775 37.1206 1.25775 37.1206 17.759 32.0898 17.759Z" fill="#DBEBFC" transform="matrix(1.01163 0 0 1 482 492)"/><path d="M39.5249 8.51064 46.4751 8.51064 46.4751 17.7595 39.5249 17.7595Z" fill="#DBEBFC" transform="matrix(1.01163 0 0 1 482 492)"/><path d="M53.583 50.9705C53.5923 48.9558 53.0731 47.0944 52.1204 45.7283 49.7923 42.3962 47.7233 39.2593 47.2988 35.0885 47.0774 34.18 46.5109 33.8299 45.5993 34.038 45.3087 34.148 38.9335 36.6427 37.925 43.5387L35.5948 42.8574C34.9859 42.68 34.3419 42.9809 34.0874 43.5608 32.9509 46.1531 32.3892 48.6495 32.418 50.9693 32.42 56.8017 37.167 61.5466 42.9997 61.5466L42.9998 61.5466C42.9998 61.5466 43 61.5466 43 61.5466 43.0989 61.5466 43.1975 61.5443 43.2956 61.5394 46.0127 61.4653 48.5554 60.3765 50.4832 58.4488 52.4812 56.4506 53.582 53.7948 53.583 50.9705ZM34.9373 50.9688C34.9373 49.1655 35.35 47.259 35.9777 45.5944L38.6995 46.3901C39.6277 46.5265 40.1655 46.1314 40.3127 45.2048 40.3973 40.746 43.2461 38.2688 45.0479 37.1448 45.4408 39.2639 46.1318 41.1157 47.1426 42.7674 48.1744 44.4509 49.152 45.8788 50.0543 47.1703 50.7027 48.1002 51.0706 49.4819 51.0635 50.9609L51.0635 50.9669C51.0635 53.044 50.2804 55.0004 48.8572 56.5035 49.0554 55.1714 48.7953 53.8857 48.0767 52.6468 46.8357 51.1975 46.0688 49.5232 45.7762 47.624 45.5548 46.7155 44.9882 46.3653 44.0767 46.5734 43.9265 46.6301 40.833 47.8402 39.9813 51.1157L39.4738 50.9674C38.866 50.7897 38.2211 51.0909 37.9666 51.6709 37.2108 53.2446 36.9365 54.8534 37.1436 56.4976 35.7782 55.0534 34.938 53.1079 34.9373 50.9688ZM42.9997 59.0271C41.1248 59.0271 39.5991 57.5019 39.5985 55.6279 39.5985 55.6229 39.5985 55.616 39.5983 55.6108 39.5911 55.0155 39.6892 54.3809 39.8906 53.7142L40.6731 53.943C41.6013 54.0794 42.139 53.6843 42.2861 52.7576 42.3125 51.3612 42.974 50.4078 43.6336 49.8014 43.8501 50.546 44.1489 51.2264 44.5341 51.8562 45.0581 52.7111 45.5536 53.4347 46.0103 54.0886 46.2621 54.4494 46.4047 55.0079 46.4017 55.6203 46.4019 57.5024 44.8839 59.0271 42.9997 59.0271Z" transform="matrix(1.01163 0 0 1 482 492)"/><path d="M68.6424 37.2555C69.3372 37.2555 69.9002 36.6924 69.9002 35.9977L69.9002 32.8518C69.9002 24.3822 63.4268 17.3967 55.168 16.5815L55.168 1.25775C55.168 0.563031 54.605 4.62477e-15 53.9102 4.62477e-15L32.0898 4.62477e-15C31.395 4.62477e-15 30.832 0.563031 30.832 1.25775L30.832 6.15454C30.832 6.84926 31.395 7.41229 32.0898 7.41229 32.7845 7.41229 33.3475 6.84926 33.3475 6.15454L33.3475 2.5155 52.6525 2.5155 52.6525 16.5014 47.7329 16.5014 47.7329 8.51064C47.7329 7.81592 47.1698 7.25289 46.4751 7.25289L39.5249 7.25289C38.8302 7.25289 38.2671 7.81592 38.2671 8.51064L38.2671 16.5014 33.3475 16.5014 33.3475 11.6364C33.3475 10.9417 32.7845 10.3786 32.0898 10.3786 31.395 10.3786 30.832 10.9417 30.832 11.6364L30.832 16.5814C22.5732 17.3965 16.0998 24.3822 16.0998 32.8517L16.0998 68.8108C16.0998 73.1867 19.3095 76.8259 23.498 77.5011L23.498 84.7421C23.498 85.4368 24.061 85.9998 24.7557 85.9998L61.2444 85.9998C61.9391 85.9998 62.5022 85.4368 62.5022 84.7421L62.5022 77.5011C66.6906 76.8259 69.9004 73.1867 69.9004 68.8108L69.9004 41.478C69.9004 40.7833 69.3373 40.2203 68.6426 40.2203 67.9479 40.2203 67.3849 40.7833 67.3849 41.478L67.3849 64.4793 31.6888 64.4793C30.9941 64.4793 30.4311 65.0424 30.4311 65.7371 30.4311 66.4318 30.9941 66.9948 31.6888 66.9948L67.3847 66.9948 67.3847 68.8111C67.3847 72.2786 64.5637 75.0997 61.0961 75.0997L24.9039 75.0997C21.4363 75.0997 18.6153 72.2786 18.6153 68.8111L18.6153 66.9948 26.2087 66.9948C26.9034 66.9948 27.4664 66.4318 27.4664 65.7371 27.4664 65.0424 26.9034 64.4793 26.2087 64.4793L18.6153 64.4793 18.6153 32.8518C18.6153 32.0871 18.6805 31.3374 18.8004 30.6061L67.1998 30.6061C67.3197 31.3374 67.3849 32.0871 67.3849 32.8518L67.3849 35.9977C67.3847 36.6924 67.9477 37.2555 68.6424 37.2555ZM59.9867 83.4845 26.0133 83.4845 26.0133 77.6152 59.9867 77.6152ZM40.7826 9.76822 45.2174 9.76822 45.2174 16.5012 40.7826 16.5012ZM19.4597 28.0906C21.4048 22.8006 26.4939 19.0168 32.4501 19.0168L53.5496 19.0168C59.506 19.0168 64.5951 22.8006 66.54 28.0906Z" transform="matrix(1.01163 0 0 1 482 492)"/></g></g></g><g clip-path="url(#clip34)"><g clip-path="url(#clip35)"><g clip-path="url(#clip36)"><path d="M56.3587 22.6037C57.445 24.2282 57.6303 26.2939 56.8503 28.0859 56.0703 29.8777 54.4323 31.1498 52.503 31.4617 53.8724 35.1903 52.5024 39.3714 49.192 41.5667 49.2178 41.71 53.0333 59.0032 53.0333 61.6333 53.0333 64.7997 50.4664 67.3667 47.3 67.3667 44.1336 67.3667 41.5667 64.7997 41.5667 61.6333 41.5667 59.4504 44.9579 43.5117 45.0927 42.9713 43.288 43.12 41.4834 42.6827 39.947 41.7243 39.2113 44.9872 36.3113 47.3034 32.9667 47.3 32.8947 47.3024 32.8226 47.2976 32.7517 47.2857 31.8289 47.3373 30.9101 47.1286 30.1 46.6837 30.007 46.6508 29.9161 46.6126 29.8277 46.569 29.8133 46.569 29.799 46.5547 29.7847 46.5547 29.123 48.708 27.48 50.4204 25.3557 51.17 26.1139 54.6688 29.8334 71.8258 30.0713 75.3933 30.358 80.0158 27.1932 83.1333 23.951 83.1333L22.9333 83.1333C18.9753 83.1333 15.7667 79.9247 15.7667 75.9667 15.7667 73.5587 18.4183 60.7877 20.511 51.17 18.373 50.4004 16.7267 48.6627 16.0738 46.4862 15.4208 44.3098 15.8388 41.9527 17.2 40.1333 14.8941 40.1336 12.6846 39.208 11.0676 37.5639 9.45064 35.92 8.56157 33.6957 8.6 31.39 8.54424 31.4073 8.48638 31.4171 8.428 31.4187 8.012 31.4958 7.58974 31.5342 7.16667 31.5333 3.20863 31.5333-5.09222e-15 28.3247-5.09222e-15 24.3667-5.09222e-15 20.4087 3.20863 17.2 7.16667 17.2 7.22912 17.1977 7.29164 17.2024 7.353 17.2143 6.61006 14.4004 8.105 11.4785 10.8217 10.4347 9.71558 8.12518 9.92559 5.40104 11.3726 3.2884 12.8196 1.17574 15.2838-0.00444653 17.837 0.192389 20.39 0.389226 22.6442 1.93318 23.7503 4.24267 25.0101 2.10833 27.5009 1.02795 29.92 1.56662 32.3392 2.10529 34.1363 4.14047 34.3713 6.60767L34.486 6.60767C34.0229 4.27638 35.5373 2.0111 37.8687 1.548 40.2 1.08491 42.4652 2.59938 42.9283 4.93067 45.1458 3.93385 47.7175 4.12926 49.7589 5.44968 51.8004 6.77009 53.0332 9.03543 53.0333 11.4667 53.0358 11.5291 53.0309 11.5916 53.019 11.653 55.9734 10.9304 58.9779 12.6405 59.865 15.5497 60.7523 18.4589 59.2134 21.5546 56.3587 22.6037Z" fill="#DBA115" transform="matrix(1 0 0 1.01163 724.9 493.45)"/><path d="M56.3587 22.6037C57.445 24.2282 57.6303 26.2939 56.8503 28.0859 56.0703 29.8777 54.4323 31.1498 52.503 31.4617 53.8724 35.1903 52.5024 39.3714 49.192 41.5667 49.2178 41.71 53.0333 59.0032 53.0333 61.6333 53.0333 64.7997 50.4664 67.3667 47.3 67.3667 44.1336 67.3667 41.5667 64.7997 41.5667 61.6333 41.5667 59.4504 44.9579 43.5117 45.0927 42.9713 43.288 43.12 41.4834 42.6827 39.947 41.7243 39.2113 44.9872 36.3113 47.3034 32.9667 47.3 32.8947 47.3024 32.8226 47.2976 32.7517 47.2857 31.8289 47.3373 30.9101 47.1286 30.1 46.6837 30.007 46.6508 29.9161 46.6126 29.8277 46.569 29.8133 46.569 29.799 46.5547 29.7847 46.5547 29.123 48.708 27.48 50.4204 25.3557 51.17 26.1139 54.6688 29.8334 71.8258 30.0713 75.3933 30.358 80.0158 27.1932 83.1333 23.951 83.1333L22.9333 83.1333C18.9753 83.1333 15.7667 79.9247 15.7667 75.9667 15.7667 73.5587 18.4183 60.7877 20.511 51.17 18.373 50.4004 16.7267 48.6627 16.0738 46.4862 15.4208 44.3098 15.8388 41.9527 17.2 40.1333 14.8941 40.1336 12.6846 39.208 11.0676 37.5639 9.45064 35.92 8.56157 33.6957 8.6 31.39 8.54424 31.4073 8.48638 31.4171 8.428 31.4187 8.012 31.4958 7.58974 31.5342 7.16667 31.5333 3.20863 31.5333-5.09222e-15 28.3247-5.09222e-15 24.3667-5.09222e-15 20.4087 3.20863 17.2 7.16667 17.2 7.22912 17.1977 7.29164 17.2024 7.353 17.2143 6.61006 14.4004 8.105 11.4785 10.8217 10.4347 9.71558 8.12518 9.92559 5.40104 11.3726 3.2884 12.8196 1.17574 15.2838-0.00444653 17.837 0.192389 20.39 0.389226 22.6442 1.93318 23.7503 4.24267 25.0101 2.10833 27.5009 1.02795 29.92 1.56662 32.3392 2.10529 34.1363 4.14047 34.3713 6.60767L34.486 6.60767C34.0229 4.27638 35.5373 2.0111 37.8687 1.548 40.2 1.08491 42.4652 2.59938 42.9283 4.93067 45.1458 3.93385 47.7175 4.12926 49.7589 5.44968 51.8004 6.77009 53.0332 9.03543 53.0333 11.4667 53.0358 11.5291 53.0309 11.5916 53.019 11.653 55.9734 10.9304 58.9779 12.6405 59.865 15.5497 60.7523 18.4589 59.2134 21.5546 56.3587 22.6037Z" fill="#DBA115" transform="matrix(1 0 0 1.01163 724.9 493.45)"/><path d="M56.3587 22.6037C57.445 24.2282 57.6303 26.2939 56.8503 28.0859 56.0703 29.8777 54.4323 31.1498 52.503 31.4617 53.8724 35.1903 52.5024 39.3714 49.192 41.5667 49.2178 41.71 53.0333 59.0032 53.0333 61.6333 53.0338 63.5394 52.0855 65.3206 50.5041 66.3844 48.9225 67.4484 46.9153 67.6553 45.15 66.9367 47.3176 66.0692 48.7373 63.9679 48.7333 61.6333 48.7333 59.0992 44.9192 41.71 44.892 41.5667 48.202 39.3711 49.5718 35.1903 48.203 31.4617 50.1344 31.1532 51.7753 29.8816 52.5559 28.0883 53.3365 26.2949 53.149 24.2273 52.0587 22.6037 54.9134 21.5546 56.4523 18.4589 55.565 15.5497 54.6779 12.6405 51.6734 10.9304 48.719 11.653 48.7309 11.5916 48.7358 11.5291 48.7333 11.4667 48.7355 8.34058 46.7112 5.57375 43.731 4.62967 45.9062 3.9506 48.2748 4.34647 50.1109 5.69601 51.9472 7.04556 53.032 9.1879 53.0333 11.4667 53.0358 11.5291 53.0309 11.5916 53.019 11.653 55.9734 10.9304 58.9779 12.6405 59.865 15.5497 60.7523 18.4589 59.2134 21.5546 56.3587 22.6037Z" fill="#BB8C1B" transform="matrix(1 0 0 1.01163 724.9 493.45)"/><path d="M51.6 78.8333C51.5987 80.9197 50.0997 82.7042 48.0449 83.0655 45.9899 83.427 43.9722 82.2611 43.259 80.3003 42.5458 78.3397 43.3431 76.1498 45.15 75.1067 46.4809 74.3382 48.1206 74.3385 49.4511 75.1074 50.7818 75.8761 51.601 77.2967 51.6 78.8333Z" fill="#BB8C1B" transform="matrix(1 0 0 1.01163 724.9 493.45)"/><path d="M45.15 82.56C43.8169 81.7926 42.9953 80.3716 42.9953 78.8333 42.9953 77.2951 43.8169 75.8741 45.15 75.1067 46.4831 75.8741 47.3047 77.2951 47.3047 78.8333 47.3047 80.3716 46.4831 81.7926 45.15 82.56Z" fill="#DBA115" transform="matrix(1 0 0 1.01163 724.9 493.45)"/><path d="M64.5 20.0667C64.4953 18.1467 63.7223 16.3086 62.3534 14.9621 60.9847 13.6158 59.1342 12.8732 57.2144 12.9 56.8159 10.5414 55.4531 8.45528 53.4533 7.14276 51.4535 5.83024 48.9975 5.40992 46.6751 5.98273 45.7627 4.20156 43.9876 3.02504 41.9916 2.87862 39.9957 2.73221 38.068 3.6371 36.9055 5.26607 34.2737 2.31697 29.7534 2.04919 26.7919 4.66693 24.2086 1.42117 19.6765 0.482037 16.0162 2.434 12.3559 4.38597 10.6106 8.67266 11.8666 12.6262 9.8212 13.9374 8.58876 16.2038 8.6 18.6333L8.6 18.7523C4.18801 19.4939 1.0815 23.4942 1.45561 27.9524 1.82971 32.4107 5.55947 35.8373 10.0333 35.8333L10.1351 35.8333C10.7323 39.918 13.764 43.2236 17.7819 44.171 16.2126 48.2224 17.9046 52.8083 21.7293 54.8694 19.9305 63.177 17.2 76.2161 17.2 78.8333 17.2 83.583 21.0504 87.4333 25.8 87.4333 30.5496 87.4333 34.4 83.583 34.4 78.8333 34.4 76.2175 31.6767 63.1828 29.8721 54.8737 31.3982 54.0564 32.6422 52.7975 33.4411 51.2617 37.5239 52.4442 41.8582 50.4665 43.6407 46.6077 44.4616 46.9316 45.322 47.1442 46.1992 47.2398 43.3325 60.7561 43 63.5655 43 64.5 43 68.458 46.2087 71.6667 50.1667 71.6667 54.1247 71.6667 57.3333 68.458 57.3333 64.5 57.3333 62.9233 56.1738 56.7342 53.8933 46.1146 53.8331 45.8122 53.7672 45.5155 53.7027 45.2245L53.6583 45.0267C55.9831 43.1205 57.3318 40.2731 57.3333 37.2667 57.3335 36.6111 57.2681 35.957 57.1384 35.3145 59.8421 34.2101 61.6156 31.5872 61.6333 28.6667 61.6353 27.7955 61.478 26.9313 61.1689 26.1168 63.2418 24.8034 64.4987 22.5207 64.5 20.0667ZM58.7566 24.1158C58.3347 24.2616 58.0047 24.5957 57.8642 25.0195 57.7238 25.4432 57.7887 25.9082 58.04 26.2773 58.5178 26.9822 58.7711 27.8151 58.7667 28.6667 58.7559 30.7747 57.2271 32.5679 55.1475 32.9122 54.7214 32.9787 54.3477 33.2334 54.1303 33.6059 53.913 33.9785 53.8748 34.4291 54.0266 34.8329 54.3186 35.611 54.4677 36.4355 54.4667 37.2667 54.4629 39.6689 53.2599 41.9108 51.2603 43.2422 50.7884 43.559 50.5484 44.1247 50.6483 44.6842L50.7429 45.1658C50.7589 45.2576 50.7834 45.3478 50.816 45.4352L50.9048 45.8423C50.965 46.1161 51.0267 46.3956 51.0883 46.7023 54.1384 60.8995 54.4667 63.8779 54.4667 64.5 54.4667 66.8749 52.5416 68.8 50.1667 68.8 47.7918 68.8 45.8667 66.8749 45.8667 64.5 45.8667 63.64 46.4214 59.9993 49.0616 47.5623L49.3611 46.129C49.4547 45.6892 49.3366 45.231 49.0421 44.8913 48.7474 44.5516 48.3105 44.3698 47.8619 44.4004 46.3609 44.5063 44.8636 44.1464 43.5748 43.3698 43.1807 43.1233 42.6917 43.0831 42.2628 43.262 41.8338 43.4408 41.5182 43.8166 41.4162 44.2699 41.0273 45.9819 39.8743 47.4208 38.2882 48.1735 36.7022 48.9263 34.8585 48.9096 33.2863 48.1285 32.9099 47.9416 32.4704 47.9292 32.0843 48.0948 31.698 48.2603 31.4039 48.587 31.2796 48.9885 30.7503 50.7062 29.4395 52.0723 27.745 52.6721 27.0631 52.9122 26.6667 53.6226 26.8205 54.3291 29.7718 67.8999 31.5333 77.0546 31.5333 78.8333 31.5333 81.9997 28.9664 84.5667 25.8 84.5667 22.6336 84.5667 20.0667 81.9997 20.0667 78.8333 20.0667 77.0546 21.8282 67.8999 24.778 54.342 24.9308 53.6381 24.5377 52.9301 23.8593 52.6879 21.5863 51.8702 20.0697 49.7156 20.0667 47.3 20.0589 46.0583 20.4621 44.8489 21.2133 43.86 21.5391 43.4257 21.5914 42.8446 21.3486 42.359 21.1058 41.8734 20.6096 41.5667 20.0667 41.5667 16.1105 41.5619 12.9047 38.3561 12.9 34.4L12.9 34.2567C12.9 33.465 12.2583 32.8233 11.4667 32.8233 11.364 32.8229 11.2616 32.8339 11.1614 32.8563 10.7903 32.9328 10.4122 32.9698 10.0333 32.9667 6.8669 32.9702 4.29712 30.4062 4.29355 27.2398 4.28998 24.0734 6.854 21.5036 10.0204 21.5 10.4676 21.5665 10.9196 21.4146 11.2359 21.0915 11.59 20.7353 11.732 20.2199 11.61 19.7327 11.5171 19.3735 11.4689 19.0043 11.4667 18.6333 11.4586 16.8613 12.549 15.2696 14.2043 14.6372 14.5836 14.4907 14.8827 14.19 15.0274 13.81 15.172 13.43 15.1485 13.0065 14.9626 12.6449 14.0785 10.7965 14.2476 8.6169 15.4063 6.92706 16.5649 5.23723 18.5372 4.29389 20.5799 4.45241 22.6226 4.61093 24.4257 5.84721 25.3098 7.69557 25.5297 8.18536 26.005 8.51119 26.541 8.5398 27.0785 8.57437 27.5887 8.29956 27.8554 7.83173 28.8021 6.23821 30.6654 5.43322 32.4746 5.83615 34.2838 6.23906 35.6294 7.75868 35.8104 9.60333 35.9334 10.3578 36.5883 10.9098 37.3527 10.9034 37.7831 10.9035 38.1909 10.7101 38.4631 10.3767 38.7354 10.0433 38.8435 9.60512 38.7573 9.18337 38.7192 8.99126 38.7 8.79587 38.7 8.6 38.6892 7.11366 39.8163 5.86564 41.2961 5.72539 42.7758 5.58513 44.1173 6.59917 44.386 8.06107 44.4666 8.49201 44.7401 8.86236 45.1281 9.06632 45.5162 9.27028 45.9763 9.28542 46.3769 9.1074 48.1491 8.3084 50.2055 8.46188 51.8395 9.51513 53.4735 10.5684 54.4625 12.3779 54.4667 14.3219 54.401 14.7936 54.574 15.2671 54.9283 15.5856 55.2825 15.904 55.7719 16.0255 56.234 15.91 56.5933 15.8178 56.9624 15.7697 57.3333 15.7667 59.4204 15.7781 61.1977 17.2866 61.5485 19.344 61.8992 21.4014 60.722 23.4135 58.7566 24.1158Z" transform="matrix(1 0 0 1.01163 722.033 490.55)"/><path d="M50.1667 75.9667C47.0003 75.9667 44.4333 78.5336 44.4333 81.7 44.4333 84.8664 47.0003 87.4333 50.1667 87.4333 53.333 87.4333 55.9 84.8664 55.9 81.7 55.9 78.5336 53.333 75.9667 50.1667 75.9667ZM50.1667 84.5667C48.5834 84.5667 47.3 83.2833 47.3 81.7 47.3 80.1167 48.5834 78.8333 50.1667 78.8333 51.7499 78.8333 53.0333 80.1167 53.0333 81.7 53.0333 83.2833 51.7499 84.5667 50.1667 84.5667Z" transform="matrix(1 0 0 1.01163 722.033 490.55)"/></g></g></g><g clip-path="url(#clip37)"><g clip-path="url(#clip38)"><g clip-path="url(#clip39)"><path d="M36.7209 1.66913C37.6427 1.66913 38.39 2.41643 38.39 3.33826L38.39 6.67652C38.39 7.59836 37.6427 8.34565 36.7209 8.34565L3.33826 8.34565C2.41643 8.34565 1.66913 7.59836 1.66913 6.67652L1.66913 3.33826C1.66913 2.41643 2.41643 1.66913 3.33826 1.66913Z" fill="#505050" transform="matrix(1 0 0 1.50468 618 331.394)"/><path d="M36.7209 91.8022C37.6427 91.8022 38.39 92.5495 38.39 93.4713L38.39 96.8096C38.39 97.7314 37.6427 98.4787 36.7209 98.4787L3.33826 98.4787C2.41643 98.4787 1.66913 97.7314 1.66913 96.8096L1.66913 93.4713C1.66913 92.5495 2.41643 91.8022 3.33826 91.8022Z" fill="#505050" transform="matrix(1 0 0 1.50468 618 331.394)"/><path d="M45.0665 50.0739C45.0622 52.3257 45.3426 54.5691 45.9011 56.7504L38.39 56.7504C36.5486 56.7559 35.0573 58.2473 35.0517 60.0887L35.0517 91.8022 5.00739 91.8022 5.00739 8.34565 35.0517 8.34565 35.0517 40.0591C35.0573 41.9005 36.5486 43.3919 38.39 43.3974L45.9011 43.3974C45.3426 45.5788 45.0622 47.8221 45.0665 50.0739Z" fill="#7F8E94" transform="matrix(1 0 0 1.50468 618 331.394)"/><path d="M33.3826 43.3974 38.39 43.3974C36.5486 43.3919 35.0573 41.9005 35.0517 40.0591L35.0517 8.34565 30.0443 8.34565 30.0443 40.0591C30.0499 41.9005 31.5412 43.3919 33.3826 43.3974Z" fill="#707070" transform="matrix(1 0 0 1.50468 618 331.394)"/><path d="M30.0443 60.0887 30.0443 91.8022 35.0517 91.8022 35.0517 60.0887C35.0573 58.2473 36.5486 56.7559 38.39 56.7504L33.3826 56.7504C31.5412 56.7559 30.0499 58.2473 30.0443 60.0887Z" fill="#707070" transform="matrix(1 0 0 1.50468 618 331.394)"/><path d="M45.9011 43.3974 40.8937 43.3974C39.7809 47.7789 39.7809 52.369 40.8937 56.7504L45.9011 56.7504C44.7883 52.369 44.7883 47.7789 45.9011 43.3974Z" fill="#707070" transform="matrix(1 0 0 1.50468 618 331.394)"/><path d="M98.4787 50.0739C98.4787 64.8234 86.5221 76.78 71.7726 76.78 57.0232 76.78 45.0665 64.8234 45.0665 50.0739 45.0665 35.3245 57.0232 23.3678 71.7726 23.3678 86.5221 23.3678 98.4787 35.3245 98.4787 50.0739Z" fill="#CFD8DC" transform="matrix(1 0 0 1.50468 618 331.394)"/><path d="M91.8022 50.0739C91.8022 61.1359 82.8346 70.1035 71.7726 70.1035 60.7106 70.1035 51.743 61.1359 51.743 50.0739 51.743 39.0119 60.7106 30.0443 71.7726 30.0443 82.8346 30.0443 91.8022 39.0119 91.8022 50.0739Z" fill="#F5F5F5" transform="matrix(1 0 0 1.50468 618 331.394)"/><path d="M71.7726 30.0443C70.9354 30.0475 70.0991 30.1033 69.2689 30.2113 79.2807 31.4656 86.7924 39.9773 86.7924 50.0672 86.7924 60.1571 79.2807 68.6689 69.2689 69.9232 76.6987 70.9247 84.0659 67.6931 88.3611 61.5485 92.6563 55.4038 93.1604 47.3749 89.6675 40.7413 86.1745 34.1075 79.2693 29.9799 71.7726 30.0443Z" fill="#CFD8DC" transform="matrix(1 0 0 1.50468 618 331.394)"/><path d="M75.1109 50.0739C75.1109 51.9176 73.6163 53.4122 71.7726 53.4122 69.9289 53.4122 68.4344 51.9176 68.4344 50.0739 68.4344 48.2302 69.9289 46.7357 71.7726 46.7357 73.6163 46.7357 75.1109 48.2302 75.1109 50.0739Z" fill="#F44335" transform="matrix(1 0 0 1.50468 618 331.394)"/><path d="M71.7726 58.4196 71.7726 53.4122" stroke="#000000" stroke-width="3.33826" stroke-linecap="round" stroke-linejoin="round" fill="none" fill-rule="evenodd" transform="matrix(1 0 0 1.50468 618 331.394)"/><path d="M71.7726 46.7357 71.7726 38.39" stroke="#000000" stroke-width="3.33826" stroke-linecap="round" stroke-linejoin="round" fill="none" fill-rule="evenodd" transform="matrix(1 0 0 1.50468 618 331.394)"/><path d="M71.7726 21.6987C59.3217 21.7146 48.3307 29.8325 44.6543 41.7283L38.39 41.7283C37.4681 41.7283 36.7209 40.981 36.7209 40.0591L36.7209 10.0148C38.5646 10.0148 40.0591 8.52019 40.0591 6.67652L40.0591 3.33826C40.0591 1.49459 38.5646 0 36.7209 0L3.33826 0C1.49459 0 0 1.49459 0 3.33826L0 6.67652C0 8.52019 1.49459 10.0148 3.33826 10.0148L3.33826 90.133C1.49459 90.133 0 91.6276 0 93.4713L0 96.8096C0 98.6533 1.49459 100.148 3.33826 100.148L36.7209 100.148C38.5646 100.148 40.0591 98.6533 40.0591 96.8096L40.0591 93.4713C40.0591 91.6276 38.5646 90.133 36.7209 90.133L36.7209 60.0887C36.7209 59.1668 37.4681 58.4196 38.39 58.4196L44.6543 58.4196C48.9424 72.3545 63.0931 80.7717 77.3851 77.889 91.677 75.0061 101.458 61.7613 100.009 47.2538 98.5602 32.7462 86.3523 21.6977 71.7726 21.6987ZM3.33826 3.33826 36.7209 3.33826 36.7209 6.67652 3.33826 6.67652ZM36.7209 96.8096 3.33826 96.8096 3.33826 93.4713 36.7209 93.4713ZM43.8648 55.0813 38.39 55.0813C35.6244 55.0813 33.3826 57.3231 33.3826 60.0887L33.3826 90.133 6.67652 90.133 6.67652 10.0148 33.3826 10.0148 33.3826 40.0591C33.3826 42.8247 35.6244 45.0665 38.39 45.0665L43.8664 45.0665C43.241 48.3756 43.241 51.7723 43.8664 55.0813ZM71.7726 75.1109C57.945 75.1109 46.7357 63.9015 46.7357 50.0739 46.7357 36.2463 57.945 25.037 71.7726 25.037 85.6002 25.037 96.8096 36.2463 96.8096 50.0739 96.7939 63.895 85.5937 75.0952 71.7726 75.1109Z" transform="matrix(1 0 0 1.50468 618 331.394)"/><path d="M71.7726 28.3752C59.7888 28.3752 50.0739 38.0901 50.0739 50.0739 50.0739 62.0578 59.7888 71.7726 71.7726 71.7726 83.7565 71.7726 93.4713 62.0578 93.4713 50.0739 93.4575 38.0957 83.7508 28.3891 71.7726 28.3752ZM71.7726 68.4344C61.6325 68.4344 53.4122 60.2141 53.4122 50.0739 53.4122 39.9338 61.6325 31.7135 71.7726 31.7135 81.9128 31.7135 90.133 39.9338 90.133 50.0739 90.121 60.2092 81.9079 68.4223 71.7726 68.4344Z" transform="matrix(1 0 0 1.50468 618 331.394)"/><path d="M73.4417 45.3736 73.4417 38.39C73.4417 37.4681 72.6945 36.7209 71.7726 36.7209 70.8508 36.7209 70.1035 37.4681 70.1035 38.39L70.1035 45.3736C68.1037 46.0703 66.7637 47.9561 66.7637 50.0739 66.7637 52.1917 68.1037 54.0775 70.1035 54.7742L70.1035 58.4196C70.1035 59.3414 70.8508 60.0887 71.7726 60.0887 72.6945 60.0887 73.4417 59.3414 73.4417 58.4196L73.4417 54.7742C75.4415 54.0775 76.7815 52.1917 76.7815 50.0739 76.7815 47.9561 75.4415 46.0703 73.4417 45.3736ZM71.7726 51.743C70.8508 51.743 70.1035 50.9958 70.1035 50.0739 70.1035 49.1521 70.8508 48.4048 71.7726 48.4048 72.6945 48.4048 73.4417 49.1521 73.4417 50.0739 73.4417 50.9958 72.6945 51.743 71.7726 51.743Z" transform="matrix(1 0 0 1.50468 618 331.394)"/><path d="M11.6839 20.0296C10.7621 20.0296 10.0148 19.2823 10.0148 18.3604L10.0148 15.0222C10.0148 14.1003 10.7621 13.353 11.6839 13.353 12.6057 13.353 13.353 14.1003 13.353 15.0222L13.353 18.3604C13.353 19.2823 12.6057 20.0296 11.6839 20.0296Z" fill="#F5F5F5" transform="matrix(1 0 0 1.50468 618 331.394)"/><path d="M11.6839 41.7283C10.7621 41.7283 10.0148 40.981 10.0148 40.0591L10.0148 25.037C10.0148 24.1151 10.7621 23.3678 11.6839 23.3678 12.6057 23.3678 13.353 24.1151 13.353 25.037L13.353 40.0591C13.353 40.981 12.6057 41.7283 11.6839 41.7283Z" fill="#F5F5F5" transform="matrix(1 0 0 1.50468 618 331.394)"/></g></g></g><g clip-path="url(#clip40)"><g clip-path="url(#clip41)"><g clip-path="url(#clip42)"><path d="M36.7209 1.66913C37.6427 1.66913 38.39 2.41643 38.39 3.33826L38.39 6.67652C38.39 7.59836 37.6427 8.34565 36.7209 8.34565L3.33826 8.34565C2.41643 8.34565 1.66913 7.59836 1.66913 6.67652L1.66913 3.33826C1.66913 2.41643 2.41643 1.66913 3.33826 1.66913Z" fill="#505050" transform="matrix(1 -1.22465e-16 -1.22847e-16 -1.00312 618 520.46)"/><path d="M36.7209 91.8022C37.6427 91.8022 38.39 92.5495 38.39 93.4713L38.39 96.8096C38.39 97.7314 37.6427 98.4787 36.7209 98.4787L3.33826 98.4787C2.41643 98.4787 1.66913 97.7314 1.66913 96.8096L1.66913 93.4713C1.66913 92.5495 2.41643 91.8022 3.33826 91.8022Z" fill="#505050" transform="matrix(1 -1.22465e-16 -1.22847e-16 -1.00312 618 520.46)"/><path d="M45.0665 50.0739C45.0622 52.3257 45.3426 54.5691 45.9011 56.7504L38.39 56.7504C36.5486 56.7559 35.0573 58.2473 35.0517 60.0887L35.0517 91.8022 5.00739 91.8022 5.00739 8.34565 35.0517 8.34565 35.0517 40.0591C35.0573 41.9005 36.5486 43.3919 38.39 43.3974L45.9011 43.3974C45.3426 45.5788 45.0622 47.8221 45.0665 50.0739Z" fill="#7F8E94" transform="matrix(1 -1.22465e-16 -1.22847e-16 -1.00312 618 520.46)"/><path d="M33.3826 43.3974 38.39 43.3974C36.5486 43.3919 35.0573 41.9005 35.0517 40.0591L35.0517 8.34565 30.0443 8.34565 30.0443 40.0591C30.0499 41.9005 31.5412 43.3919 33.3826 43.3974Z" fill="#707070" transform="matrix(1 -1.22465e-16 -1.22847e-16 -1.00312 618 520.46)"/><path d="M30.0443 60.0887 30.0443 91.8022 35.0517 91.8022 35.0517 60.0887C35.0573 58.2473 36.5486 56.7559 38.39 56.7504L33.3826 56.7504C31.5412 56.7559 30.0499 58.2473 30.0443 60.0887Z" fill="#707070" transform="matrix(1 -1.22465e-16 -1.22847e-16 -1.00312 618 520.46)"/><path d="M45.9011 43.3974 40.8937 43.3974C39.7809 47.7789 39.7809 52.369 40.8937 56.7504L45.9011 56.7504C44.7883 52.369 44.7883 47.7789 45.9011 43.3974Z" fill="#707070" transform="matrix(1 -1.22465e-16 -1.22847e-16 -1.00312 618 520.46)"/><path d="M98.4787 50.0739C98.4787 64.8234 86.5221 76.78 71.7726 76.78 57.0232 76.78 45.0665 64.8234 45.0665 50.0739 45.0665 35.3245 57.0232 23.3678 71.7726 23.3678 86.5221 23.3678 98.4787 35.3245 98.4787 50.0739Z" fill="#CFD8DC" transform="matrix(1 -1.22465e-16 -1.22847e-16 -1.00312 618 520.46)"/><path d="M91.8022 50.0739C91.8022 61.1359 82.8346 70.1035 71.7726 70.1035 60.7106 70.1035 51.743 61.1359 51.743 50.0739 51.743 39.0119 60.7106 30.0443 71.7726 30.0443 82.8346 30.0443 91.8022 39.0119 91.8022 50.0739Z" fill="#F5F5F5" transform="matrix(1 -1.22465e-16 -1.22847e-16 -1.00312 618 520.46)"/><path d="M71.7726 30.0443C70.9354 30.0475 70.0991 30.1033 69.2689 30.2113 79.2807 31.4656 86.7924 39.9773 86.7924 50.0672 86.7924 60.1571 79.2807 68.6689 69.2689 69.9232 76.6987 70.9247 84.0659 67.6931 88.3611 61.5485 92.6563 55.4038 93.1604 47.3749 89.6675 40.7413 86.1745 34.1075 79.2693 29.9799 71.7726 30.0443Z" fill="#CFD8DC" transform="matrix(1 -1.22465e-16 -1.22847e-16 -1.00312 618 520.46)"/><path d="M75.1109 50.0739C75.1109 51.9176 73.6163 53.4122 71.7726 53.4122 69.9289 53.4122 68.4344 51.9176 68.4344 50.0739 68.4344 48.2302 69.9289 46.7357 71.7726 46.7357 73.6163 46.7357 75.1109 48.2302 75.1109 50.0739Z" fill="#F44335" transform="matrix(1 -1.22465e-16 -1.22847e-16 -1.00312 618 520.46)"/><path d="M71.7726 58.4196 71.7726 53.4122" stroke="#000000" stroke-width="3.33826" stroke-linecap="round" stroke-linejoin="round" fill="none" fill-rule="evenodd" transform="matrix(1 -1.22465e-16 -1.22847e-16 -1.00312 618 520.46)"/><path d="M71.7726 46.7357 71.7726 38.39" stroke="#000000" stroke-width="3.33826" stroke-linecap="round" stroke-linejoin="round" fill="none" fill-rule="evenodd" transform="matrix(1 -1.22465e-16 -1.22847e-16 -1.00312 618 520.46)"/><path d="M71.7726 21.6987C59.3217 21.7146 48.3307 29.8325 44.6543 41.7283L38.39 41.7283C37.4681 41.7283 36.7209 40.981 36.7209 40.0591L36.7209 10.0148C38.5646 10.0148 40.0591 8.52019 40.0591 6.67652L40.0591 3.33826C40.0591 1.49459 38.5646 0 36.7209 0L3.33826 0C1.49459 0 0 1.49459 0 3.33826L0 6.67652C0 8.52019 1.49459 10.0148 3.33826 10.0148L3.33826 90.133C1.49459 90.133 0 91.6276 0 93.4713L0 96.8096C0 98.6533 1.49459 100.148 3.33826 100.148L36.7209 100.148C38.5646 100.148 40.0591 98.6533 40.0591 96.8096L40.0591 93.4713C40.0591 91.6276 38.5646 90.133 36.7209 90.133L36.7209 60.0887C36.7209 59.1668 37.4681 58.4196 38.39 58.4196L44.6543 58.4196C48.9424 72.3545 63.0931 80.7717 77.3851 77.889 91.677 75.0061 101.458 61.7613 100.009 47.2538 98.5602 32.7462 86.3523 21.6977 71.7726 21.6987ZM3.33826 3.33826 36.7209 3.33826 36.7209 6.67652 3.33826 6.67652ZM36.7209 96.8096 3.33826 96.8096 3.33826 93.4713 36.7209 93.4713ZM43.8648 55.0813 38.39 55.0813C35.6244 55.0813 33.3826 57.3231 33.3826 60.0887L33.3826 90.133 6.67652 90.133 6.67652 10.0148 33.3826 10.0148 33.3826 40.0591C33.3826 42.8247 35.6244 45.0665 38.39 45.0665L43.8664 45.0665C43.241 48.3756 43.241 51.7723 43.8664 55.0813ZM71.7726 75.1109C57.945 75.1109 46.7357 63.9015 46.7357 50.0739 46.7357 36.2463 57.945 25.037 71.7726 25.037 85.6002 25.037 96.8096 36.2463 96.8096 50.0739 96.7939 63.895 85.5937 75.0952 71.7726 75.1109Z" transform="matrix(1 -1.22465e-16 -1.22847e-16 -1.00312 618 520.46)"/><path d="M71.7726 28.3752C59.7888 28.3752 50.0739 38.0901 50.0739 50.0739 50.0739 62.0578 59.7888 71.7726 71.7726 71.7726 83.7565 71.7726 93.4713 62.0578 93.4713 50.0739 93.4575 38.0957 83.7508 28.3891 71.7726 28.3752ZM71.7726 68.4344C61.6325 68.4344 53.4122 60.2141 53.4122 50.0739 53.4122 39.9338 61.6325 31.7135 71.7726 31.7135 81.9128 31.7135 90.133 39.9338 90.133 50.0739 90.121 60.2092 81.9079 68.4223 71.7726 68.4344Z" transform="matrix(1 -1.22465e-16 -1.22847e-16 -1.00312 618 520.46)"/><path d="M73.4417 45.3736 73.4417 38.39C73.4417 37.4681 72.6945 36.7209 71.7726 36.7209 70.8508 36.7209 70.1035 37.4681 70.1035 38.39L70.1035 45.3736C68.1037 46.0703 66.7637 47.9561 66.7637 50.0739 66.7637 52.1917 68.1037 54.0775 70.1035 54.7742L70.1035 58.4196C70.1035 59.3414 70.8508 60.0887 71.7726 60.0887 72.6945 60.0887 73.4417 59.3414 73.4417 58.4196L73.4417 54.7742C75.4415 54.0775 76.7815 52.1917 76.7815 50.0739 76.7815 47.9561 75.4415 46.0703 73.4417 45.3736ZM71.7726 51.743C70.8508 51.743 70.1035 50.9958 70.1035 50.0739 70.1035 49.1521 70.8508 48.4048 71.7726 48.4048 72.6945 48.4048 73.4417 49.1521 73.4417 50.0739 73.4417 50.9958 72.6945 51.743 71.7726 51.743Z" transform="matrix(1 -1.22465e-16 -1.22847e-16 -1.00312 618 520.46)"/><path d="M11.6839 20.0296C10.7621 20.0296 10.0148 19.2823 10.0148 18.3604L10.0148 15.0222C10.0148 14.1003 10.7621 13.353 11.6839 13.353 12.6057 13.353 13.353 14.1003 13.353 15.0222L13.353 18.3604C13.353 19.2823 12.6057 20.0296 11.6839 20.0296Z" fill="#F5F5F5" transform="matrix(1 -1.22465e-16 -1.22847e-16 -1.00312 618 520.46)"/><path d="M11.6839 41.7283C10.7621 41.7283 10.0148 40.981 10.0148 40.0591L10.0148 25.037C10.0148 24.1151 10.7621 23.3678 11.6839 23.3678 12.6057 23.3678 13.353 24.1151 13.353 25.037L13.353 40.0591C13.353 40.981 12.6057 41.7283 11.6839 41.7283Z" fill="#F5F5F5" transform="matrix(1 -1.22465e-16 -1.22847e-16 -1.00312 618 520.46)"/></g></g></g><g clip-path="url(#clip43)"><g clip-path="url(#clip44)"><g clip-path="url(#clip45)"><path d="M66.5 44.3333 66.5 57.1667 36.1667 57.1667 36.1667 44.3333C36.1577 38.538 31.462 33.8423 25.6667 33.8333L12.8333 33.8333 12.8333 3.5 25.6667 3.5C48.2082 3.52443 66.4756 21.7918 66.5 44.3333Z" fill="#7F8E94" transform="matrix(-1.02857 0 0 1 691 314)"/><path d="M25.6667 3.5 22.1667 3.5C44.7082 3.52443 62.9756 21.7918 63 44.3333L63 57.1667 66.5 57.1667 66.5 44.3333C66.4756 21.7918 48.2082 3.52443 25.6667 3.5Z" fill="#707070" transform="matrix(-1.02857 0 0 1 691 314)"/><path d="M11.6667 1.16667C12.311 1.16667 12.8333 1.689 12.8333 2.33333L12.8333 35C12.8333 35.6443 12.311 36.1667 11.6667 36.1667L2.33333 36.1667C1.689 36.1667 1.16667 35.6443 1.16667 35L1.16667 2.33333C1.16667 1.689 1.689 1.16667 2.33333 1.16667Z" fill="#707070" transform="matrix(-1.02857 0 0 1 691 314)"/><path d="M11.6667 1.16667 8.16667 1.16667C8.81099 1.16667 9.33333 1.68901 9.33333 2.33333L9.33333 35C9.33333 35.6443 8.81099 36.1667 8.16667 36.1667L11.6667 36.1667C12.311 36.1667 12.8333 35.6443 12.8333 35L12.8333 2.33333C12.8333 1.68901 12.311 1.16667 11.6667 1.16667Z" fill="#505050" transform="matrix(-1.02857 0 0 1 691 314)"/><path d="M67.6667 57.1667C68.311 57.1667 68.8333 57.689 68.8333 58.3333L68.8333 67.6667C68.8333 68.311 68.311 68.8333 67.6667 68.8333L35 68.8333C34.3557 68.8333 33.8333 68.311 33.8333 67.6667L33.8333 58.3333C33.8333 57.689 34.3557 57.1667 35 57.1667Z" fill="#707070" transform="matrix(-1.02857 0 0 1 691 314)"/><path d="M67.6667 57.1667 64.1667 57.1667C64.811 57.1667 65.3333 57.689 65.3333 58.3333L65.3333 67.6667C65.3333 68.311 64.811 68.8333 64.1667 68.8333L67.6667 68.8333C68.311 68.8333 68.8333 68.311 68.8333 67.6667L68.8333 58.3333C68.8333 57.689 68.311 57.1667 67.6667 57.1667Z" fill="#505050" transform="matrix(-1.02857 0 0 1 691 314)"/><path d="M67.6667 56 67.6667 44.3333C67.641 21.148 48.8519 2.35905 25.6667 2.33333L14 2.33333C14 1.04467 12.9554 0 11.6667 0L2.33333 0C1.7145 0 1.121 0.245833 0.683417 0.683417 0.245833 1.121 -1.29526e-16 1.7145 -1.29526e-16 2.33333L-1.29526e-16 35C-1.29526e-16 36.2887 1.04467 37.3333 2.33333 37.3333L11.6667 37.3333C12.9554 37.3333 14 36.2887 14 35L25.6667 35C30.8189 35.0058 34.9942 39.1811 35 44.3333L35 56C33.7113 56 32.6667 57.0446 32.6667 58.3333L32.6667 67.6667C32.6667 68.9554 33.7113 70 35 70L67.6667 70C68.9554 70 70 68.9554 70 67.6667L70 58.3333C70 57.0446 68.9554 56 67.6667 56ZM11.6667 3.5 11.6667 35 2.33333 35 2.33333 2.33333 11.6667 2.33333ZM25.6667 32.6667 14 32.6667 14 4.66667 25.6667 4.66667C47.5638 4.6911 65.3089 22.4362 65.3333 44.3333L65.3333 56 37.3333 56 37.3333 44.3333C37.3262 37.893 32.107 32.6738 25.6667 32.6667ZM67.6667 67.6667 35 67.6667 35 58.3333 67.6667 58.3333Z" transform="matrix(-1.02857 0 0 1 691 314)"/><path d="M52.3635 21.1248C52.036 21.1249 51.7236 20.9873 51.5025 20.7457 44.8695 13.4903 35.497 9.3503 25.6667 9.33333L24.5 9.33333C23.8556 9.33333 23.3333 8.81099 23.3333 8.16667 23.3333 7.52234 23.8556 7 24.5 7L25.6667 7C36.1521 7.018 46.149 11.4335 53.2245 19.1718 53.5359 19.5131 53.6165 20.006 53.4302 20.4288 53.2437 20.8516 52.8255 21.1245 52.3635 21.1248Z" fill="#F5F5F5" transform="matrix(-1.02857 0 0 1 691 314)"/><path d="M19.8333 9.33333 17.5 9.33333C16.8556 9.33333 16.3333 8.81099 16.3333 8.16667 16.3333 7.52234 16.8556 7 17.5 7L19.8333 7C20.4777 7 21 7.52234 21 8.16667 21 8.81099 20.4777 9.33333 19.8333 9.33333Z" fill="#F5F5F5" transform="matrix(-1.02857 0 0 1 691 314)"/></g></g></g><g clip-path="url(#clip46)"><g clip-path="url(#clip47)"><g clip-path="url(#clip48)"><path d="M121.741 60.6278C121.741 61.9665 121.197 63.179 120.32 64.0569 119.442 64.9348 118.229 65.478 116.89 65.478L116.03 65.478 8.13625 65.478 7.27534 65.478C4.59559 65.478 2.42511 63.3076 2.42511 60.6278 2.42511 59.2892 2.96834 58.0766 3.84623 57.1987 4.72412 56.3208 5.93668 55.7776 7.27534 55.7776L9.24453 55.7776 114.921 55.7776 116.89 55.7776C119.57 55.7776 121.741 57.9481 121.741 60.6278Z" fill="#02A9F4" transform="matrix(-1.03088 -1.22465e-16 1.26247e-16 -1 703 463.332)"/><path d="M8.13625 65.478 116.03 65.478C114.824 76.391 104.845 84.8789 93.6093 84.8789L91.1842 84.8789 32.9815 84.8789 30.5564 84.8789C19.3209 84.8789 9.34153 76.391 8.13625 65.478Z" fill="#0377BC" transform="matrix(-1.03088 -1.22465e-16 1.26247e-16 -1 703 463.332)"/><path d="M114.921 55.7776 9.24453 55.7776C12.242 47.2994 21.0524 41.2269 30.5564 41.2269L93.6093 41.2269C103.113 41.2269 111.924 47.2994 114.921 55.7776Z" fill="#0377BC" transform="matrix(-1.03088 -1.22465e-16 1.26247e-16 -1 703 463.332)"/><path d="M96.0345 36.3767 96.0345 41.2269 93.6093 41.2269 30.5564 41.2269 28.1313 41.2269 28.1313 36.3767C28.1313 17.6257 43.3319 2.42511 62.0829 2.42511 71.4584 2.42511 79.9463 6.22526 86.0915 12.3681 92.2343 18.5133 96.0345 27.0012 96.0345 36.3767Z" fill="#8CD9F4" transform="matrix(-1.03088 -1.22465e-16 1.26247e-16 -1 703 463.332)"/><path d="M91.1842 84.8789 96.0345 95.3069C72.0605 95.3069 51.8654 95.3069 28.1313 95.3069L32.9815 84.8789 91.1842 84.8789Z" fill="#57555C" transform="matrix(-1.03088 -1.22465e-16 1.26247e-16 -1 703 463.332)"/><path d="M91.1842 72.7534C89.8456 72.7534 88.7591 73.8398 88.7591 75.1785 88.7591 76.5172 89.8456 77.6036 91.1842 77.6036 92.5229 77.6036 93.6093 76.5172 93.6093 75.1785 93.6093 73.8398 92.5229 72.7534 91.1842 72.7534Z" transform="matrix(-1.03088 -1.22465e-16 1.26247e-16 -1 703 463.332)"/><path d="M76.6336 72.7534C75.2949 72.7534 74.2084 73.8398 74.2084 75.1785 74.2084 76.5172 75.2949 77.6036 76.6336 77.6036 77.9722 77.6036 79.0587 76.5172 79.0587 75.1785 79.0587 73.8398 77.9722 72.7534 76.6336 72.7534Z" transform="matrix(-1.03088 -1.22465e-16 1.26247e-16 -1 703 463.332)"/><path d="M66.9331 9.70045C65.5944 9.70045 64.508 10.7869 64.508 12.1256 64.508 13.4642 65.5944 14.5507 66.9331 14.5507 68.2718 14.5507 69.3582 13.4642 69.3582 12.1256 69.3582 10.7869 68.2718 9.70045 66.9331 9.70045Z" transform="matrix(-1.03088 -1.22465e-16 1.26247e-16 -1 703 463.332)"/><path d="M62.0829 72.7534C60.7442 72.7534 59.6578 73.8398 59.6578 75.1785 59.6578 76.5172 60.7442 77.6036 62.0829 77.6036 63.4215 77.6036 64.508 76.5172 64.508 75.1785 64.508 73.8398 63.4215 72.7534 62.0829 72.7534Z" transform="matrix(-1.03088 -1.22465e-16 1.26247e-16 -1 703 463.332)"/><path d="M47.5322 72.7534C46.1935 72.7534 45.1071 73.8398 45.1071 75.1785 45.1071 76.5172 46.1935 77.6036 47.5322 77.6036 48.8709 77.6036 49.9573 76.5172 49.9573 75.1785 49.9573 73.8398 48.8709 72.7534 47.5322 72.7534Z" transform="matrix(-1.03088 -1.22465e-16 1.26247e-16 -1 703 463.332)"/><path d="M32.9815 72.7534C31.6429 72.7534 30.5564 73.8398 30.5564 75.1785 30.5564 76.5172 31.6429 77.6036 32.9815 77.6036 34.3202 77.6036 35.4066 76.5172 35.4066 75.1785 35.4066 73.8398 34.3202 72.7534 32.9815 72.7534Z" transform="matrix(-1.03088 -1.22465e-16 1.26247e-16 -1 703 463.332)"/><path d="M124.166 60.6278C124.166 56.6162 120.902 53.3525 116.89 53.3525L116.561 53.3525C113.354 46.139 106.429 40.8333 98.4596 39.2737L98.4596 36.3767C98.4596 26.661 94.6761 17.526 87.8058 10.653 80.9335 3.78342 71.7986 0 62.0829 0 42.0248 0 25.7062 16.3186 25.7062 36.3767L25.7062 39.2737C17.7368 40.8333 10.8114 46.1387 7.60515 53.3525L7.27534 53.3525C5.33282 53.3525 3.50599 54.1094 2.13143 55.4841 0.756878 56.8587 0 58.6853 0 60.6278 0 64.2218 2.62009 67.2135 6.05017 67.7979 8.23277 78.4631 17.9061 86.6524 29.1967 87.2657L25.9322 94.284C25.583 95.0353 25.641 95.9125 26.0865 96.6109 26.5317 97.3093 27.3029 97.732 28.1311 97.732L40.2566 97.732 40.2566 106.462C40.2566 107.802 41.3424 108.888 42.6817 108.888 44.0211 108.888 45.1068 107.802 45.1068 106.462L45.1068 97.732 59.6575 97.732 59.6575 101.612C59.6575 102.951 60.7435 104.037 62.0826 104.037 63.4218 104.037 64.5078 102.951 64.5078 101.612L64.5078 97.732 79.0584 97.732 79.0584 106.462C79.0584 107.802 80.1444 108.888 81.4835 108.888 82.8227 108.888 83.9087 107.802 83.9087 106.462L83.9087 97.732 96.0342 97.732C96.8624 97.732 97.6336 97.3093 98.0791 96.6109 98.5243 95.9125 98.5825 95.0353 98.2333 94.284L94.9689 87.2657C106.259 86.6524 115.932 78.4638 118.115 67.7989 119.592 67.5496 120.953 66.8528 122.034 65.7717 123.409 64.3972 124.166 62.5703 124.166 60.6278ZM30.5564 36.3767C30.5564 18.9928 44.6992 4.85022 62.0829 4.85022 70.5034 4.85022 78.4206 8.12922 84.3765 14.0824 90.3304 20.0389 93.6093 27.9562 93.6093 36.3767L93.6093 38.8018 30.5564 38.8018 30.5564 36.3767ZM30.5564 43.652 93.6093 43.652C100.723 43.652 107.565 47.5776 111.089 53.3525L13.0772 53.3525C16.6011 47.5776 23.4431 43.652 30.5564 43.652ZM31.9339 92.8818 34.5283 87.3041 89.6375 87.3041 92.2319 92.8818 31.9339 92.8818ZM93.6093 82.4538 30.5564 82.4538C21.3674 82.4538 13.2959 76.2494 11.0546 67.9032L113.111 67.9032C110.87 76.2494 102.798 82.4538 93.6093 82.4538ZM118.604 62.3419C118.146 62.8005 117.537 63.0529 116.89 63.0529L7.27534 63.0529C5.93813 63.0529 4.85022 61.965 4.85022 60.6278 4.85022 59.9808 5.10268 59.3718 5.56103 58.9137 6.01937 58.4552 6.62832 58.2027 7.27534 58.2027L9.22755 58.2027C9.23313 58.2027 9.23895 58.2034 9.24453 58.2034 9.25059 58.2034 9.25665 58.2027 9.26296 58.2027L114.903 58.2027C114.909 58.2027 114.915 58.2034 114.921 58.2034 114.927 58.2034 114.932 58.2027 114.938 58.2027L116.89 58.2027C118.228 58.2027 119.316 59.2906 119.316 60.6278 119.316 61.2748 119.063 61.8835 118.604 62.3419Z" transform="matrix(-1.03088 -1.22465e-16 1.26247e-16 -1 703 463.332)"/><path d="M76.3712 13.8581C75.2408 13.138 73.7421 13.4722 73.0233 14.6021 72.3043 15.7319 72.6372 17.2309 73.7673 17.95 78.7606 21.1273 82.2972 26.2521 83.4702 32.0105 83.7042 33.1595 84.715 33.9521 85.8439 33.9521 86.0042 33.9521 86.1674 33.9361 86.3306 33.9028 87.6431 33.6353 88.4902 32.3549 88.2229 31.0424 86.7887 24.0016 82.4691 17.738 76.3712 13.8581Z" transform="matrix(-1.03088 -1.22465e-16 1.26247e-16 -1 703 463.332)"/><path d="M62.0829 108.888C60.7437 108.888 59.6578 109.974 59.6578 111.313L59.6578 121.741C59.6578 123.08 60.7437 124.166 62.0829 124.166 63.422 124.166 64.508 123.08 64.508 121.741L64.508 111.313C64.508 109.974 63.422 108.888 62.0829 108.888Z" transform="matrix(-1.03088 -1.22465e-16 1.26247e-16 -1 703 463.332)"/><path d="M81.4838 113.738C80.1446 113.738 79.0587 114.824 79.0587 116.163L79.0587 121.741C79.0587 123.08 80.1446 124.166 81.4838 124.166 82.8229 124.166 83.9089 123.08 83.9089 121.741L83.9089 116.163C83.9089 114.824 82.8229 113.738 81.4838 113.738Z" transform="matrix(-1.03088 -1.22465e-16 1.26247e-16 -1 703 463.332)"/><path d="M42.682 113.738C41.3426 113.738 40.2569 114.824 40.2569 116.163L40.2569 121.741C40.2569 123.08 41.3426 124.166 42.682 124.166 44.0214 124.166 45.1071 123.08 45.1071 121.741L45.1071 116.163C45.1071 114.824 44.0214 113.738 42.682 113.738Z" transform="matrix(-1.03088 -1.22465e-16 1.26247e-16 -1 703 463.332)"/></g></g></g><path d="M548 376.5C548 325.966 588.966 285 639.5 285 690.034 285 731 325.966 731 376.5 731 427.034 690.034 468 639.5 468 588.966 468 548 427.034 548 376.5Z" stroke="#3C7D9A" stroke-width="4" stroke-miterlimit="8" fill="none" fill-rule="evenodd"/><path d="M591.843 222.882 677.403 137.323 682.833 142.753 597.274 228.313Z" fill="#3C7D9A" fill-rule="evenodd"/><path d="M778.218 357.751 863.778 272.192 869.208 277.622 783.649 363.182Z" fill="#3C7D9A" fill-rule="evenodd"/><path d="M708.623 576.995 794.183 491.435 799.613 496.866 714.054 582.425Z" fill="#3C7D9A" fill-rule="evenodd"/></g></svg>