<svg width="202" height="202" xmlns="http://www.w3.org/2000/svg" xmlns:xlink="http://www.w3.org/1999/xlink" overflow="hidden"><defs><clipPath id="clip0"><rect x="170" y="223" width="202" height="202"/></clipPath><clipPath id="clip1"><rect x="208" y="270" width="125" height="125"/></clipPath><clipPath id="clip2"><rect x="208" y="270" width="125" height="125"/></clipPath><clipPath id="clip3"><rect x="208" y="270" width="125" height="125"/></clipPath></defs><g clip-path="url(#clip0)" transform="translate(-170 -223)"><path d="M175 324C175 270.981 217.981 228 271 228 324.019 228 367 270.981 367 324 367 377.019 324.019 420 271 420 217.981 420 175 377.019 175 324Z" stroke="#3C7D9A" stroke-width="8" stroke-miterlimit="8" fill="#D9D9D9" fill-rule="evenodd"/><g clip-path="url(#clip1)"><g clip-path="url(#clip2)"><g clip-path="url(#clip3)"><path d="M323.234 311.016C325.392 311.016 327.141 312.765 327.141 314.922L327.141 318.828C327.141 320.985 325.392 322.734 323.234 322.734L303.703 322.734C301.546 322.734 299.797 320.985 299.797 318.828L299.797 314.922C299.797 312.765 301.546 311.016 303.703 311.016Z" fill="#C6C5CA"/><path d="M327.141 279.766C327.141 281.923 325.392 283.672 323.234 283.672 321.077 283.672 319.328 281.923 319.328 279.766 319.328 277.608 321.077 275.859 323.234 275.859 325.392 275.859 327.141 277.608 327.141 279.766Z" fill="#FFDE55"/><path d="M327.141 299.297C327.141 301.454 325.392 303.203 323.234 303.203 321.077 303.203 319.328 301.454 319.328 299.297 319.328 297.14 321.077 295.391 323.234 295.391 325.392 295.391 327.141 297.14 327.141 299.297Z" fill="#FFDE55"/><path d="M313.469 389.141C309.159 389.146 305.662 385.657 305.656 381.348 305.656 381.341 305.656 381.335 305.656 381.328L305.656 322.734 321.281 322.734 321.281 381.328C321.281 385.643 317.783 389.141 313.469 389.141Z" fill="#57A4FF"/><path d="M305.656 291.484C305.656 294.72 303.033 297.344 299.797 297.344 296.561 297.344 293.938 294.72 293.938 291.484 293.938 288.248 296.561 285.625 299.797 285.625 303.033 285.625 305.656 288.248 305.656 291.484Z" fill="#FFDE55"/><path d="M288.078 389.141C284.274 389.131 280.821 386.913 279.23 383.457L279.23 383.438C278.628 382.168 278.315 380.78 278.313 379.375 278.313 375.371 280.266 371.563 284.172 371.563L284.172 357.891 291.984 357.891 291.984 371.563C295.891 371.563 297.844 375.371 297.844 379.375 297.841 380.78 297.528 382.168 296.926 383.438L296.926 383.457C295.335 386.913 291.883 389.131 288.078 389.141Z" fill="#00EED1"/><path d="M276.359 307.109C276.359 309.267 274.61 311.016 272.453 311.016 270.296 311.016 268.547 309.267 268.547 307.109 268.547 304.952 270.296 303.203 272.453 303.203 274.61 303.203 276.359 304.952 276.359 307.109Z" fill="#FFDE55"/><path d="M262.688 389.141C258.883 389.131 255.43 386.913 253.84 383.457L253.84 383.438C253.703 383.125 253.566 382.813 253.449 382.48 253.104 381.481 252.925 380.432 252.922 379.375 252.922 375.371 254.875 371.563 258.781 371.563L258.781 357.891 266.594 357.891 266.594 371.563C270.5 371.563 272.453 375.371 272.453 379.375 272.451 380.78 272.137 382.168 271.535 383.438L271.535 383.457C269.945 386.913 266.492 389.131 262.688 389.141Z" fill="#00EED1"/><path d="M272.453 279.766C272.453 281.923 270.704 283.672 268.547 283.672 266.39 283.672 264.641 281.923 264.641 279.766 264.641 277.608 266.39 275.859 268.547 275.859 270.704 275.859 272.453 277.608 272.453 279.766Z" fill="#FFDE55"/><path d="M264.641 295.391C264.641 298.627 262.017 301.25 258.781 301.25 255.545 301.25 252.922 298.627 252.922 295.391 252.922 292.155 255.545 289.531 258.781 289.531 262.017 289.531 264.641 292.155 264.641 295.391Z" fill="#FFDE55"/><path d="M248.566 383.672C249.429 385.649 248.526 387.952 246.549 388.815 246.058 389.029 245.528 389.14 244.992 389.141L217.883 389.141C215.725 389.137 213.979 387.386 213.982 385.228 213.983 384.693 214.094 384.163 214.309 383.672L225.578 357.891 225.578 342.266 237.297 342.266 237.297 357.891Z" fill="#FFDE55"/><path d="M321.281 322.734 321.281 381.328C321.288 385.636 317.801 389.134 313.493 389.141 312.112 389.143 310.756 388.779 309.563 388.086 311.983 386.698 313.474 384.119 313.469 381.328L313.469 322.734Z" fill="#2488FF"/><path d="M244.992 389.141 237.18 389.141C239.337 389.137 241.083 387.386 241.08 385.228 241.079 384.693 240.968 384.163 240.754 383.672L229.484 357.891 229.484 342.266 237.297 342.266 237.297 357.891 248.566 383.672C249.429 385.649 248.526 387.952 246.549 388.815 246.058 389.029 245.528 389.14 244.992 389.141Z" fill="#FFCD00"/><path d="M243.156 338.359C243.14 340.51 241.401 342.25 239.25 342.266L223.625 342.266C221.47 342.259 219.725 340.514 219.719 338.359 219.735 336.209 221.474 334.469 223.625 334.453L239.25 334.453C241.405 334.46 243.15 336.205 243.156 338.359Z" fill="#C6C5CA"/><path d="M327.141 314.922 327.141 318.828C327.134 320.983 325.389 322.728 323.234 322.734L315.422 322.734C317.577 322.728 319.322 320.983 319.328 318.828L319.328 314.922C319.322 312.767 317.577 311.022 315.422 311.016L323.234 311.016C325.389 311.022 327.134 312.767 327.141 314.922Z" fill="#898890"/><path d="M243.156 338.359C243.14 340.51 241.401 342.25 239.25 342.266L231.438 342.266C233.588 342.25 235.328 340.51 235.344 338.359 235.337 336.205 233.592 334.46 231.438 334.453L239.25 334.453C241.405 334.46 243.15 336.205 243.156 338.359Z" fill="#898890"/><path d="M247.063 281.719C247.063 284.955 244.439 287.578 241.203 287.578 237.967 287.578 235.344 284.955 235.344 281.719 235.344 278.483 237.967 275.859 241.203 275.859 244.439 275.859 247.063 278.483 247.063 281.719Z" fill="#FFDE55"/><path d="M239.25 303.203C239.25 305.36 237.501 307.109 235.344 307.109 233.186 307.109 231.438 305.36 231.438 303.203 231.438 301.046 233.186 299.297 235.344 299.297 237.501 299.297 239.25 301.046 239.25 303.203Z" fill="#FFDE55"/><path d="M225.578 289.531C225.578 292.767 222.955 295.391 219.719 295.391 216.483 295.391 213.859 292.767 213.859 289.531 213.859 286.295 216.483 283.672 219.719 283.672 222.955 283.672 225.578 286.295 225.578 289.531Z" fill="#FFDE55"/><path d="M250.363 382.891 239.25 357.48 239.25 344.219C242.486 344.219 245.109 341.595 245.109 338.359 245.109 335.123 242.486 332.5 239.25 332.5L223.625 332.5C220.389 332.5 217.766 335.123 217.766 338.359 217.766 341.595 220.389 344.219 223.625 344.219L223.625 357.48 212.512 382.891C211.217 385.857 212.572 389.31 215.538 390.605 216.278 390.927 217.076 391.094 217.883 391.094L244.992 391.094C248.228 391.094 250.852 388.471 250.852 385.235 250.853 384.428 250.686 383.63 250.363 382.891ZM221.672 338.359C221.672 337.281 222.546 336.406 223.625 336.406L239.25 336.406C240.329 336.406 241.203 337.281 241.203 338.359 241.203 339.438 240.329 340.313 239.25 340.313L223.625 340.313C222.546 340.313 221.672 339.438 221.672 338.359ZM246.633 386.309C246.27 386.86 245.652 387.191 244.992 387.188L217.883 387.188C217.223 387.191 216.605 386.86 216.242 386.309 215.872 385.759 215.813 385.057 216.086 384.453L227.375 358.672C227.475 358.423 227.528 358.159 227.531 357.891L227.531 344.219 235.344 344.219 235.344 357.891C235.347 358.159 235.4 358.423 235.5 358.672L246.789 384.453C247.062 385.057 247.003 385.759 246.633 386.309Z"/><path d="M293.938 369.863 293.938 359.844 297.844 359.844 297.844 355.938 278.313 355.938 278.313 359.844 282.219 359.844 282.219 369.863C278.684 370.84 276.359 374.473 276.359 379.375 276.359 380.998 276.706 382.603 277.375 384.082 277.417 384.219 277.476 384.35 277.551 384.473 280.34 390.284 287.312 392.734 293.124 389.945 295.524 388.793 297.458 386.855 298.605 384.453 298.683 384.34 298.743 384.214 298.781 384.082 299.451 382.603 299.797 380.998 299.797 379.375 299.797 374.473 297.473 370.84 293.938 369.863ZM295.188 382.578C295.168 382.598 295.168 382.617 295.148 382.637 293.372 386.542 288.766 388.267 284.862 386.491 283.154 385.714 281.785 384.345 281.008 382.637 280.988 382.617 280.988 382.598 280.969 382.578 280.511 381.572 280.272 380.48 280.266 379.375 280.266 377.207 281.086 373.516 284.172 373.516 285.251 373.516 286.125 372.641 286.125 371.563L286.125 359.844 290.031 359.844 290.031 371.563C290.031 372.641 290.906 373.516 291.984 373.516 295.07 373.516 295.891 377.207 295.891 379.375 295.885 380.48 295.645 381.572 295.188 382.578Z"/><path d="M268.547 369.863 268.547 359.844 272.453 359.844 272.453 355.938 252.922 355.938 252.922 359.844 256.828 359.844 256.828 369.863C253.293 370.84 250.969 374.473 250.969 379.375 250.969 380.998 251.315 382.603 251.984 384.082 252.026 384.219 252.086 384.35 252.16 384.473 254.949 390.284 261.922 392.734 267.733 389.945 270.133 388.793 272.067 386.855 273.215 384.453 273.293 384.34 273.352 384.214 273.391 384.082 274.06 382.603 274.406 380.998 274.406 379.375 274.406 374.473 272.082 370.84 268.547 369.863ZM269.797 382.578C269.777 382.598 269.777 382.617 269.758 382.637 267.981 386.542 263.376 388.267 259.471 386.491 257.763 385.714 256.394 384.345 255.617 382.637 255.598 382.617 255.598 382.598 255.578 382.578 255.121 381.572 254.881 380.48 254.875 379.375 254.875 377.207 255.695 373.516 258.781 373.516 259.86 373.516 260.734 372.641 260.734 371.563L260.734 359.844 264.641 359.844 264.641 371.563C264.641 372.641 265.515 373.516 266.594 373.516 269.68 373.516 270.5 377.207 270.5 379.375 270.494 380.48 270.254 381.572 269.797 382.578Z"/><path d="M323.234 309.063 303.703 309.063C300.471 309.072 297.853 311.69 297.844 314.922L297.844 318.828C297.853 322.06 300.471 324.678 303.703 324.688L303.703 381.328C303.703 386.722 308.075 391.094 313.469 391.094 318.862 391.094 323.234 386.722 323.234 381.328L323.234 324.688C326.466 324.678 329.084 322.06 329.094 318.828L329.094 314.922C329.084 311.69 326.466 309.072 323.234 309.063ZM319.328 381.328C319.328 384.564 316.705 387.188 313.469 387.188 310.233 387.188 307.609 384.564 307.609 381.328L307.609 324.688 319.328 324.688ZM325.188 318.828C325.188 319.907 324.313 320.781 323.234 320.781L303.703 320.781C302.624 320.781 301.75 319.907 301.75 318.828L301.75 314.922C301.75 313.843 302.624 312.969 303.703 312.969L323.234 312.969C324.313 312.969 325.188 313.843 325.188 314.922Z"/><path d="M290.031 352.031 290.031 344.219C290.031 343.14 289.157 342.266 288.078 342.266L262.688 342.266C261.609 342.266 260.734 343.14 260.734 344.219L260.734 352.031 264.641 352.031 264.641 346.172 286.125 346.172 286.125 352.031Z"/><path d="M233.391 320.781 266.594 320.781 266.594 338.359 270.5 338.359 270.5 318.828C270.5 317.749 269.626 316.875 268.547 316.875L231.438 316.875C230.359 316.875 229.484 317.749 229.484 318.828L229.484 328.594 233.391 328.594Z"/><path d="M286.125 277.813 311.516 277.813 311.516 305.156 315.422 305.156 315.422 275.859C315.422 274.781 314.547 273.906 313.469 273.906L284.172 273.906C283.093 273.906 282.219 274.781 282.219 275.859L282.219 338.359 286.125 338.359Z"/><path d="M219.719 297.344C224.033 297.344 227.531 293.846 227.531 289.531 227.531 285.217 224.033 281.719 219.719 281.719 215.404 281.719 211.906 285.217 211.906 289.531 211.906 293.846 215.404 297.344 219.719 297.344ZM219.719 285.625C221.876 285.625 223.625 287.374 223.625 289.531 223.625 291.689 221.876 293.438 219.719 293.438 217.561 293.438 215.813 291.689 215.813 289.531 215.813 287.374 217.561 285.625 219.719 285.625Z"/><path d="M235.344 309.063C238.58 309.063 241.203 306.439 241.203 303.203 241.203 299.967 238.58 297.344 235.344 297.344 232.108 297.344 229.484 299.967 229.484 303.203 229.484 306.439 232.108 309.063 235.344 309.063ZM235.344 301.25C236.422 301.25 237.297 302.124 237.297 303.203 237.297 304.282 236.422 305.156 235.344 305.156 234.265 305.156 233.391 304.282 233.391 303.203 233.391 302.124 234.265 301.25 235.344 301.25Z"/><path d="M241.203 289.531C245.518 289.531 249.016 286.033 249.016 281.719 249.016 277.404 245.518 273.906 241.203 273.906 236.888 273.906 233.391 277.404 233.391 281.719 233.391 286.033 236.888 289.531 241.203 289.531ZM241.203 277.813C243.36 277.813 245.109 279.561 245.109 281.719 245.109 283.876 243.36 285.625 241.203 285.625 239.046 285.625 237.297 283.876 237.297 281.719 237.297 279.561 239.046 277.813 241.203 277.813Z"/><path d="M266.594 307.109C266.594 310.345 269.217 312.969 272.453 312.969 275.689 312.969 278.313 310.345 278.313 307.109 278.313 303.873 275.689 301.25 272.453 301.25 269.217 301.25 266.594 303.873 266.594 307.109ZM274.406 307.109C274.406 308.188 273.532 309.063 272.453 309.063 271.374 309.063 270.5 308.188 270.5 307.109 270.5 306.031 271.374 305.156 272.453 305.156 273.532 305.156 274.406 306.031 274.406 307.109Z"/><path d="M268.547 285.625C271.783 285.625 274.406 283.002 274.406 279.766 274.406 276.53 271.783 273.906 268.547 273.906 265.311 273.906 262.688 276.53 262.688 279.766 262.688 283.002 265.311 285.625 268.547 285.625ZM268.547 277.813C269.626 277.813 270.5 278.687 270.5 279.766 270.5 280.844 269.626 281.719 268.547 281.719 267.468 281.719 266.594 280.844 266.594 279.766 266.594 278.687 267.468 277.813 268.547 277.813Z"/><path d="M323.234 293.438C319.998 293.438 317.375 296.061 317.375 299.297 317.375 302.533 319.998 305.156 323.234 305.156 326.47 305.156 329.094 302.533 329.094 299.297 329.094 296.061 326.47 293.438 323.234 293.438ZM323.234 301.25C322.156 301.25 321.281 300.376 321.281 299.297 321.281 298.218 322.156 297.344 323.234 297.344 324.313 297.344 325.188 298.218 325.188 299.297 325.188 300.376 324.313 301.25 323.234 301.25Z"/><path d="M323.234 285.625C326.47 285.625 329.094 283.002 329.094 279.766 329.094 276.53 326.47 273.906 323.234 273.906 319.998 273.906 317.375 276.53 317.375 279.766 317.375 283.002 319.998 285.625 323.234 285.625ZM323.234 277.813C324.313 277.813 325.188 278.687 325.188 279.766 325.188 280.844 324.313 281.719 323.234 281.719 322.156 281.719 321.281 280.844 321.281 279.766 321.281 278.687 322.156 277.813 323.234 277.813Z"/><path d="M258.781 303.203C263.096 303.203 266.594 299.705 266.594 295.391 266.594 291.076 263.096 287.578 258.781 287.578 254.467 287.578 250.969 291.076 250.969 295.391 250.969 299.705 254.467 303.203 258.781 303.203ZM258.781 291.484C260.939 291.484 262.688 293.233 262.688 295.391 262.688 297.548 260.939 299.297 258.781 299.297 256.624 299.297 254.875 297.548 254.875 295.391 254.875 293.233 256.624 291.484 258.781 291.484Z"/><path d="M291.984 291.484C291.984 295.799 295.482 299.297 299.797 299.297 304.112 299.297 307.609 295.799 307.609 291.484 307.609 287.17 304.112 283.672 299.797 283.672 295.482 283.672 291.984 287.17 291.984 291.484ZM303.703 291.484C303.703 293.642 301.954 295.391 299.797 295.391 297.64 295.391 295.891 293.642 295.891 291.484 295.891 289.327 297.64 287.578 299.797 287.578 301.954 287.578 303.703 289.327 303.703 291.484Z"/></g></g></g><path d="M200.204 389.167 335.969 253.402 341.399 258.833 205.635 394.598Z" fill="#3C7D9A" fill-rule="evenodd"/></g></svg>