<svg width="201" height="202" xmlns="http://www.w3.org/2000/svg" xmlns:xlink="http://www.w3.org/1999/xlink" overflow="hidden"><defs><clipPath id="clip0"><rect x="909" y="223" width="201" height="202"/></clipPath><clipPath id="clip1"><rect x="942" y="257" width="134" height="134"/></clipPath><clipPath id="clip2"><rect x="942" y="257" width="134" height="134"/></clipPath><clipPath id="clip3"><rect x="942" y="257" width="134" height="134"/></clipPath></defs><g clip-path="url(#clip0)" transform="translate(-909 -223)"><path d="M913 324C913 270.981 955.981 228 1009 228 1062.02 228 1105 270.981 1105 324 1105 377.019 1062.02 420 1009 420 955.981 420 913 377.019 913 324Z" stroke="#3C7D9A" stroke-width="8" stroke-miterlimit="8" fill="#D9D9D9" fill-rule="evenodd"/><g clip-path="url(#clip1)"><g clip-path="url(#clip2)"><g clip-path="url(#clip3)"><path d="M953.909 356.199C948.937 356.199 945.006 352.153 945.006 347.297L945.006 300.703C945.006 295.732 949.053 291.801 953.909 291.801L1064.09 291.801C1069.06 291.801 1072.99 295.847 1072.99 300.703L1072.99 347.297C1072.99 352.268 1068.95 356.199 1064.09 356.199L953.909 356.199 953.909 356.199ZM961.424 300.472C961.077 300.472 960.846 300.703 960.846 301.05L960.846 301.05C960.846 304.403 958.071 307.062 954.833 307.062L954.833 307.062C954.487 307.062 954.255 307.293 954.255 307.64L954.255 307.64 954.255 340.013C954.255 340.36 954.487 340.591 954.833 340.591 958.186 340.591 960.846 343.25 960.846 346.603 960.846 346.95 961.077 347.181 961.424 347.181L1056.69 347.181C1057.04 347.181 1057.27 346.95 1057.27 346.603 1057.27 343.25 1060.04 340.591 1063.4 340.591 1063.4 340.591 1063.4 340.591 1063.51 340.591 1063.86 340.591 1064.09 340.36 1064.09 340.013L1064.09 307.756C1064.09 307.409 1063.86 307.178 1063.51 307.178 1060.16 307.178 1057.5 304.519 1057.5 301.166 1057.5 300.819 1057.27 300.588 1056.92 300.588L961.424 300.472Z" fill="#C0D863"/><path d="M1009.06 346.025C996.802 346.025 986.975 336.082 986.975 323.942 986.975 311.687 996.918 301.859 1009.06 301.859 1021.31 301.859 1031.14 311.802 1031.14 323.942 1031.14 329.839 1028.83 335.388 1024.67 339.55 1020.5 343.713 1014.95 346.025 1009.06 346.025Z" fill="#FFE64C"/><path d="M1006.4 322.902C1005.82 322.786 1005.24 322.555 1004.66 322.439 1003.74 322.208 1003.05 321.63 1002.47 320.936 1002.01 320.242 1001.77 319.433 1001.77 318.508 1001.77 316.774 1002.7 315.04 1004.2 314.115 1004.78 313.652 1005.47 313.305 1006.17 313.074L1008.48 312.265 1008.48 323.248 1006.4 322.902Z" fill="#FFE64C"/><path d="M1009.64 323.711 1011.83 324.289C1012.64 324.52 1013.57 324.867 1014.26 325.214 1015.76 326.023 1016.8 327.758 1016.69 329.492 1016.69 331.342 1015.76 332.96 1014.14 333.885 1013.45 334.348 1012.53 334.695 1011.72 334.926L1009.52 335.504 1009.64 323.711Z" fill="#FFE64C"/><path d="M1017.84 346.141 1022.35 343.019C1023.51 342.21 1024.55 341.4 1025.48 340.36 1034.61 331.226 1034.61 316.543 1025.48 307.409 1024.55 306.484 1023.51 305.559 1022.35 304.75L1017.84 301.628 1056 301.628 1056.35 302.9C1057.04 305.443 1059 307.293 1061.43 307.987L1062.7 308.334 1062.7 339.319 1061.43 339.666C1058.89 340.36 1057.04 342.325 1056.35 344.753L1056 346.025 1017.84 346.141Z" fill="#C0D863"/><path d="M962.117 346.141 961.771 344.869C961.077 342.325 959.111 340.475 956.683 339.782L955.412 339.435 955.412 308.45 956.683 308.103C959.227 307.409 961.077 305.443 961.771 303.016L962.117 301.744 1000.27 301.744 995.762 304.865C994.606 305.675 993.565 306.484 992.64 307.525 983.506 316.658 983.506 331.342 992.64 340.475 993.565 341.4 994.606 342.325 995.762 343.135L1000.27 346.256 962.117 346.141Z" fill="#C0D863"/><path d="M1064.21 293.419 953.909 293.419C949.978 293.419 946.74 296.657 946.74 300.588L946.74 347.181C946.74 351.112 949.978 354.349 953.909 354.349L1064.09 354.349C1068.02 354.349 1071.26 351.112 1071.26 347.181L1071.26 300.703C1071.38 296.657 1068.14 293.535 1064.21 293.419L1064.21 293.419ZM961.424 298.738 1056.69 298.738C1057.96 298.738 1059 299.778 1059 301.05 1059 303.478 1060.85 305.443 1063.28 305.443L1063.4 305.443C1064.67 305.443 1065.71 306.484 1065.71 307.756L1065.71 340.129C1065.71 341.4 1064.67 342.441 1063.4 342.441 1060.97 342.441 1059.12 344.406 1059.12 346.719 1059.12 347.991 1058.08 349.031 1056.81 349.031L961.424 349.031C960.152 349.031 959.111 347.991 959.111 346.719 959.111 344.291 957.146 342.441 954.833 342.441L954.833 342.441C953.562 342.441 952.521 341.4 952.521 340.129L952.521 307.756C952.521 306.484 953.562 305.443 954.833 305.443 957.261 305.443 959.111 303.478 959.111 301.166 959.111 299.894 960.036 298.853 961.308 298.738 961.308 298.738 961.424 298.738 961.424 298.738ZM1006.75 321.167 1006.75 314.693C1006.17 314.924 1005.7 315.155 1005.13 315.502 1004.09 316.08 1003.51 317.236 1003.39 318.508 1003.39 318.971 1003.51 319.549 1003.74 319.896 1004.09 320.358 1004.55 320.589 1005.13 320.821 1005.7 320.936 1006.28 321.052 1006.75 321.167ZM1011.37 326.023 1011.37 333.192C1012.06 333.076 1012.76 332.729 1013.34 332.382 1014.38 331.804 1015.07 330.648 1014.95 329.492 1015.07 328.336 1014.49 327.295 1013.45 326.717 1012.76 326.37 1012.06 326.139 1011.37 326.023ZM1006.75 307.756C1006.75 306.484 1007.79 305.443 1009.06 305.443 1010.33 305.443 1011.37 306.484 1011.37 307.756L1011.37 310.415C1013.34 310.531 1015.19 310.993 1016.92 311.687 1017.96 312.265 1018.42 312.843 1018.42 313.537 1018.42 314.924 1017.73 315.733 1016.46 315.733 1015.53 315.618 1014.61 315.387 1013.68 315.04 1012.87 314.808 1012.06 314.577 1011.25 314.462L1011.25 321.861C1013.22 322.208 1015.07 322.902 1016.8 323.942 1018.54 325.098 1019.46 327.179 1019.35 329.261 1019.46 331.689 1018.31 333.885 1016.46 335.388 1014.95 336.544 1013.1 337.238 1011.25 337.469L1011.25 340.129C1011.25 341.4 1010.21 342.441 1008.94 342.441 1007.67 342.441 1006.63 341.4 1006.63 340.129L1006.63 337.469C1005.01 337.354 1003.39 337.007 1001.89 336.544 999.808 335.735 998.652 334.926 998.652 334.116 998.652 332.498 999.346 331.689 1000.73 331.689 1001.89 331.92 1002.93 332.151 1003.97 332.613 1004.9 332.96 1005.82 333.076 1006.75 333.307L1006.75 325.214 1005.94 325.098C1005.13 324.867 1004.2 324.636 1003.39 324.405 1002.58 324.173 1001.77 323.711 1001.08 323.248 999.693 322.092 998.999 320.474 998.999 318.739 998.999 316.427 1000.16 314.23 1002.12 312.843 1003.51 311.802 1005.01 311.109 1006.75 310.762L1006.75 307.756ZM1023.51 309.606C1015.53 301.628 1002.7 301.628 994.721 309.606 986.744 317.583 986.744 330.417 994.721 338.394 1002.7 346.372 1015.53 346.372 1023.51 338.394 1027.33 334.579 1029.52 329.376 1029.52 323.942 1029.41 318.508 1027.33 313.305 1023.51 309.606L1023.51 309.606ZM994.721 344.406C983.391 336.429 980.616 320.821 988.594 309.49 990.328 307.062 992.409 304.981 994.721 303.362L963.389 303.362C962.58 306.484 960.152 308.912 957.03 309.721L957.03 338.047C960.152 338.857 962.58 341.285 963.389 344.406L994.721 344.406ZM1023.39 303.478C1034.72 311.456 1037.5 326.948 1029.52 338.279 1027.79 340.707 1025.71 342.788 1023.39 344.406L1054.73 344.406C1055.54 341.285 1057.96 338.857 1061.09 338.047L1061.09 309.721C1057.96 308.912 1055.54 306.484 1054.73 303.362L1023.39 303.478ZM953.909 288.795 1064.09 288.795C1070.68 288.795 1076 294.113 1076 300.703L1076 347.297C1076 353.887 1070.68 359.205 1064.09 359.205L953.909 359.205C947.318 359.205 942 353.887 942 347.297L942 300.703C942.116 294.113 947.434 288.795 953.909 288.795Z" fill="#2B2D03"/></g></g></g></g></svg>