<?xml version="1.0" encoding="iso-8859-1"?>
<!-- Generator: Adobe Illustrator 19.0.0, SVG Export Plug-In . SVG Version: 6.00 Build 0)  -->
<svg version="1.1" id="Capa_1" xmlns="http://www.w3.org/2000/svg" xmlns:xlink="http://www.w3.org/1999/xlink" x="0px" y="0px"
	 viewBox="0 0 512 512" style="enable-background:new 0 0 512 512;" xml:space="preserve">
<path style="fill:#9AC864;" d="M504.5,320.066v165.02c0,10.722-8.692,19.414-19.414,19.414H26.914
	c-10.722,0-19.414-8.692-19.414-19.414v-165.02c0-10.722,8.692-19.414,19.414-19.414h77.656h300.918h79.597
	C495.808,300.652,504.5,309.344,504.5,320.066z"/>
<path style="fill:#6C8937;" d="M143.398,275.469v81.484H65.742v-81.484c0-19.33,15.67-35,35-35h7.656
	C127.728,240.469,143.398,256.139,143.398,275.469z"/>
<path style="fill:#5E752D;" d="M143.398,274.443v82.51h-19.414v-82.51c0-17.115-12.658-31.268-29.121-33.624
	c1.586-0.227,3.205-0.351,4.854-0.351h9.707C128.187,240.469,143.398,255.68,143.398,274.443z"/>
<path style="fill:#D6C499;" d="M366.013,60.889v252.383c0,8.041-6.519,14.561-14.561,14.561s-14.561-6.519-14.561-14.561V60.889
	c0-13.381-10.886-24.268-24.268-24.268h-86.716c-13.381,0-24.268,10.886-24.268,24.268v252.383c0,8.041-6.519,14.561-14.561,14.561
	s-14.561-6.519-14.561-14.561V60.889c0-29.439,23.95-53.389,53.389-53.389h86.716C342.063,7.5,366.013,31.45,366.013,60.889z"/>
<path style="fill:#BCA77C;" d="M211.024,36.621h14.884c-13.381,0-24.268,10.886-24.268,24.268v252.383
	c0,8.041-6.519,14.561-14.561,14.561c-2.724,0-5.269-0.755-7.448-2.058c4.261-2.54,7.125-7.181,7.125-12.502V60.889
	C186.757,47.507,197.643,36.621,211.024,36.621z M312.625,7.5H297.74c29.439,0,53.389,23.95,53.389,53.389v252.383
	c0,5.321-2.864,9.962-7.125,12.502c2.179,1.304,4.724,2.058,7.448,2.058c8.041,0,14.561-6.519,14.561-14.561V60.889
	C366.013,31.45,342.063,7.5,312.625,7.5z"/>
<path style="fill:#7FA740;" d="M457.716,138.983c3.639,1.497,6.015,5.042,6.015,8.977v28.442H350.449H237.168V147.96
	c0-3.935,2.375-7.481,6.015-8.977l107.266-44.646L457.716,138.983z"/>
<path style="fill:#6C8937;" d="M237.168,153.105H463.73v222.291H237.168V153.105z"/>
<path style="fill:#5E752D;" d="M444.316,153.105h19.414v232.969h-19.414V153.105z"/>
<path style="fill:#9AC864;" d="M269.59,153.105h38.828v232.969H269.59V153.105z"/>
<path style="fill:#7FA740;" d="M279.297,356.953h185.404c5.361,0,9.707,4.346,9.707,9.707v9.707c0,5.361-4.346,9.707-9.707,9.707
	H279.297c-5.361,0-9.707-4.346-9.707-9.707v-9.707C269.59,361.299,273.936,356.953,279.297,356.953z"/>
<path style="fill:#6C8937;" d="M379.57,77.685v28.828h-58.242V77.685c0-5.523,4.477-10,10-10h38.242
	C375.093,67.685,379.57,72.162,379.57,77.685z"/>
<path style="fill:#EADDB0;" d="M327.832,473.438H46.328V347.246h281.504V473.438z"/>
<path style="fill:#D6C499;" d="M327.832,473.438h-19.414V347.246h19.414V473.438z"/>
<path style="fill:#7FA740;" d="M128.838,395.781h116.484v77.656H128.838V395.781z M320.706,325.866L187.08,289.004L53.454,325.866
	c-4.21,1.161-7.126,4.991-7.126,9.357v21.729H187.08h140.752v-21.729C327.832,330.857,324.916,327.028,320.706,325.866z"/>
<path style="fill:#6C8937;" d="M245.322,395.781v77.656h-58.726v-77.656H245.322z"/>
<path d="M457.771,417.404l-9.779,12.795l-9.778-12.795c-2.516-3.291-7.224-3.922-10.513-1.405
	c-3.292,2.515-3.921,7.222-1.405,10.513l15.737,20.592c1.419,1.856,3.622,2.946,5.959,2.946s4.54-1.089,5.959-2.946l15.738-20.592
	c2.515-3.291,1.887-7.998-1.404-10.513C464.993,413.483,460.287,414.113,457.771,417.404z M85.641,497H26.914
	C20.345,497,15,491.655,15,485.086v-165.02c0-6.569,5.345-11.914,11.914-11.914H41.96c4.142,0,7.5-3.358,7.5-7.5s-3.358-7.5-7.5-7.5
	H26.914C12.074,293.152,0,305.226,0,320.066v165.02C0,499.926,12.074,512,26.914,512h58.727c4.142,0,7.5-3.358,7.5-7.5
	S89.783,497,85.641,497z M485.086,293.152c-4.143,0-7.5,3.358-7.5,7.5s3.357,7.5,7.5,7.5c6.569,0,11.914,5.345,11.914,11.914v165.02
	c0,6.569-5.345,11.914-11.914,11.914H115.733c-4.142,0-7.5,3.358-7.5,7.5s3.358,7.5,7.5,7.5h369.353
	C499.927,512,512,499.926,512,485.086v-165.02C512,305.226,499.927,293.152,485.086,293.152z M395.853,448.292l-9.779,12.795
	l-9.779-12.795c-2.516-3.291-7.223-3.921-10.514-1.405c-3.291,2.516-3.92,7.222-1.404,10.513l15.738,20.592
	c1.419,1.857,3.622,2.946,5.959,2.946s4.54-1.089,5.959-2.946l15.738-20.592c2.516-3.291,1.887-7.998-1.404-10.513
	C403.076,444.371,398.369,445.001,395.853,448.292z M51.459,318.636l6.784-1.871v-42.322c0-21.98,17.188-40.021,38.828-41.391
	v-21.705c0-4.142,3.358-7.5,7.5-7.5s7.5,3.358,7.5,7.5v21.705c21.641,1.37,38.828,19.411,38.828,41.391v16.761l14.121-3.895V121.396
	c0-4.142,3.358-7.5,7.5-7.5s7.5,3.358,7.5,7.5v161.776l5.066-1.397c1.306-0.36,2.684-0.36,3.989,0l5.066,1.397V60.889
	c0-17.517,14.251-31.768,31.768-31.768h62.933c4.143,0,7.5,3.358,7.5,7.5s-3.357,7.5-7.5,7.5h-62.933
	c-9.246,0-16.768,7.522-16.768,16.768V287.31l20.528,5.663V147.96c0-7.003,4.185-13.25,10.661-15.913l73.499-30.54V77.685
	c0-8.992,6.816-16.421,15.553-17.393c-0.315-8.97-7.711-16.171-16.757-16.171c-4.143,0-7.5-3.358-7.5-7.5s3.357-7.5,7.5-7.5
	c17.281,0,31.384,13.871,31.76,31.064h14.124C358.131,35.205,337.693,15,312.625,15h-86.716c-25.303,0-45.889,20.585-45.889,45.889
	v32.68c0,4.142-3.358,7.5-7.5,7.5s-7.5-3.358-7.5-7.5v-32.68C165.02,27.314,192.334,0,225.908,0h86.716
	c33.488,0,60.749,27.177,60.888,60.633c7.758,1.792,13.559,8.758,13.559,17.052v23.816l73.522,30.557
	c6.451,2.653,10.637,8.899,10.637,15.903V350.74c6.26,2.577,10.678,8.743,10.678,15.92v9.707c0,9.488-7.719,17.207-17.207,17.207
	H335.332v72.363h2.207c4.143,0,7.5,3.358,7.5,7.5s-3.357,7.5-7.5,7.5H36.621c-4.142,0-7.5-3.358-7.5-7.5s3.358-7.5,7.5-7.5h2.207
	V335.224C38.828,327.509,44.022,320.688,51.459,318.636z M179.58,403.281h-43.242v62.656h43.242V403.281z M237.823,403.281H194.58
	v62.656h43.242L237.823,403.281L237.823,403.281z M328.829,99.013h43.242V77.685c0-1.378-1.121-2.5-2.5-2.5h-38.242
	c-1.379,0-2.5,1.122-2.5,2.5V99.013z M244.669,297.11l78.032,21.526c7.438,2.053,12.631,8.874,12.631,16.587v43.351h129.369
	c1.217,0,2.207-0.99,2.207-2.207v-9.707c0-1.217-0.99-2.207-2.207-2.207H353.555c-4.143,0-7.5-3.358-7.5-7.5s3.357-7.5,7.5-7.5
	H456.23V160.605H314.9c-4.143,0-7.5-3.358-7.5-7.5s3.357-7.5,7.5-7.5h139.207l-76.016-31.592h-55.267l-76.033,31.592h39.311
	c4.143,0,7.5,3.358,7.5,7.5s-3.357,7.5-7.5,7.5h-41.434L244.669,297.11L244.669,297.11z M53.828,465.938h67.51v-70.156
	c0-4.142,3.358-7.5,7.5-7.5h116.484c4.142,0,7.5,3.358,7.5,7.5v70.156h67.509V364.453h-33.27c-4.143,0-7.5-3.358-7.5-7.5
	s3.357-7.5,7.5-7.5h33.27v-14.229c0-0.989-0.666-1.864-1.62-2.128L187.08,296.784l-73.717,20.335
	c-3.993,1.101-8.123-1.242-9.225-5.235c-1.102-3.993,1.243-8.123,5.235-9.225l26.524-7.317v-20.899
	c0-14.598-11.876-26.475-26.475-26.475h-9.707c-14.598,0-26.475,11.876-26.475,26.475v38.184l9.109-2.513
	c3.996-1.1,8.123,1.243,9.225,5.235c1.102,3.993-1.243,8.123-5.235,9.225l-30.893,8.522c-0.954,0.263-1.62,1.138-1.62,2.127v14.229
	h206.783c4.143,0,7.5,3.358,7.5,7.5s-3.357,7.5-7.5,7.5H53.828V465.938z"/>
<g>
</g>
<g>
</g>
<g>
</g>
<g>
</g>
<g>
</g>
<g>
</g>
<g>
</g>
<g>
</g>
<g>
</g>
<g>
</g>
<g>
</g>
<g>
</g>
<g>
</g>
<g>
</g>
<g>
</g>
</svg>
