<svg width="171" height="171" xmlns="http://www.w3.org/2000/svg" xmlns:xlink="http://www.w3.org/1999/xlink" overflow="hidden"><defs><clipPath id="clip0"><rect x="153" y="285" width="171" height="171"/></clipPath><clipPath id="clip1"><rect x="219" y="417" width="37" height="32"/></clipPath><clipPath id="clip2"><rect x="219" y="417" width="37" height="32"/></clipPath><clipPath id="clip3"><rect x="219" y="329" width="89" height="135"/></clipPath><clipPath id="clip4"><rect x="219" y="408" width="37" height="22"/></clipPath><clipPath id="clip5"><rect x="219" y="408" width="37" height="22"/></clipPath><clipPath id="clip6"><rect x="219" y="408" width="89" height="93"/></clipPath><clipPath id="clip7"><rect x="220" y="313" width="63" height="63"/></clipPath><clipPath id="clip8"><rect x="220" y="313" width="63" height="63"/></clipPath><clipPath id="clip9"><rect x="220" y="313" width="63" height="63"/></clipPath><clipPath id="clip10"><rect x="181" y="368" width="112" height="44"/></clipPath><clipPath id="clip11"><rect x="181" y="368" width="112" height="44"/></clipPath><clipPath id="clip12"><rect x="181" y="334" width="112" height="115"/></clipPath></defs><g clip-path="url(#clip0)" transform="translate(-153 -285)"><path d="M158 370.5C158 326.041 194.041 290 238.5 290 282.959 290 319 326.041 319 370.5 319 414.959 282.959 451 238.5 451 194.041 451 158 414.959 158 370.5Z" fill="#D9D9D9" fill-rule="evenodd"/><g clip-path="url(#clip1)"><g clip-path="url(#clip2)"><g clip-path="url(#clip3)"><path d="M32.3493 1.47042C33.1614 1.47042 33.8198 2.12876 33.8198 2.94085L33.8198 5.8817C33.8198 6.69379 33.1614 7.35212 32.3493 7.35212L2.94085 7.35212C2.12876 7.35212 1.47042 6.69379 1.47042 5.8817L1.47042 2.94085C1.47042 2.12876 2.12876 1.47042 2.94085 1.47042Z" fill="#505050" transform="matrix(1 0 0 1.51824 219 329.35)"/><path d="M32.3493 80.8734C33.1614 80.8734 33.8198 81.5317 33.8198 82.3438L33.8198 85.2846C33.8198 86.0967 33.1614 86.7551 32.3493 86.7551L2.94085 86.7551C2.12876 86.7551 1.47042 86.0967 1.47042 85.2846L1.47042 82.3438C1.47042 81.5317 2.12876 80.8734 2.94085 80.8734Z" fill="#505050" transform="matrix(1 0 0 1.51824 219 329.35)"/><path d="M39.7015 44.1127C39.6976 46.0965 39.9447 48.0727 40.4367 49.9944L33.8198 49.9944C32.1976 49.9993 30.8838 51.3131 30.8789 52.9353L30.8789 80.8734 4.41127 80.8734 4.41127 7.35212 30.8789 7.35212 30.8789 35.2902C30.8838 36.9124 32.1976 38.2262 33.8198 38.231L40.4367 38.231C39.9447 40.1527 39.6976 42.129 39.7015 44.1127Z" fill="#7F8E94" transform="matrix(1 0 0 1.51824 219 329.35)"/><path d="M29.4085 38.231 33.8198 38.231C32.1976 38.2262 30.8838 36.9124 30.8789 35.2902L30.8789 7.35212 26.4676 7.35212 26.4676 35.2902C26.4725 36.9124 27.7863 38.2262 29.4085 38.231Z" fill="#707070" transform="matrix(1 0 0 1.51824 219 329.35)"/><path d="M26.4676 52.9353 26.4676 80.8734 30.8789 80.8734 30.8789 52.9353C30.8838 51.3131 32.1976 49.9993 33.8198 49.9944L29.4085 49.9944C27.7863 49.9993 26.4725 51.3131 26.4676 52.9353Z" fill="#707070" transform="matrix(1 0 0 1.51824 219 329.35)"/><path d="M40.4367 38.231 36.0254 38.231C35.0451 42.0909 35.0451 46.1346 36.0254 49.9944L40.4367 49.9944C39.4563 46.1346 39.4563 42.0909 40.4367 38.231Z" fill="#707070" transform="matrix(1 0 0 1.51824 219 329.35)"/><path d="M86.7551 44.1127C86.7551 57.1063 76.2218 67.6395 63.2283 67.6395 50.2347 67.6395 39.7015 57.1063 39.7015 44.1127 39.7015 31.1192 50.2347 20.5859 63.2283 20.5859 76.2218 20.5859 86.7551 31.1192 86.7551 44.1127Z" fill="#CFD8DC" transform="matrix(1 0 0 1.51824 219 329.35)"/><path d="M80.8734 44.1127C80.8734 53.8579 72.9734 61.7578 63.2283 61.7578 53.4831 61.7578 45.5832 53.8579 45.5832 44.1127 45.5832 34.3676 53.4831 26.4676 63.2283 26.4676 72.9734 26.4676 80.8734 34.3676 80.8734 44.1127Z" fill="#F5F5F5" transform="matrix(1 0 0 1.51824 219 329.35)"/><path d="M63.2283 26.4676C62.4907 26.4704 61.754 26.5195 61.0226 26.6147 69.8425 27.7197 76.46 35.2181 76.46 44.1069 76.46 52.9956 69.8425 60.494 61.0226 61.599 67.5679 62.4813 74.0581 59.6344 77.8419 54.2213 81.6258 48.8081 82.0698 41.7351 78.9928 35.8912 75.9157 30.0471 69.8325 26.4109 63.2283 26.4676Z" fill="#CFD8DC" transform="matrix(1 0 0 1.51824 219 329.35)"/><path d="M66.1691 44.1127C66.1691 45.7369 64.8524 47.0536 63.2283 47.0536 61.6041 47.0536 60.2874 45.7369 60.2874 44.1127 60.2874 42.4886 61.6041 41.1719 63.2283 41.1719 64.8524 41.1719 66.1691 42.4886 66.1691 44.1127Z" fill="#F44335" transform="matrix(1 0 0 1.51824 219 329.35)"/><path d="M63.2283 51.4649 63.2283 47.0536" stroke="#000000" stroke-width="2.94085" stroke-linecap="round" stroke-linejoin="round" fill="none" fill-rule="evenodd" transform="matrix(1 0 0 1.51824 219 329.35)"/><path d="M63.2283 41.1719 63.2283 33.8198" stroke="#000000" stroke-width="2.94085" stroke-linecap="round" stroke-linejoin="round" fill="none" fill-rule="evenodd" transform="matrix(1 0 0 1.51824 219 329.35)"/><path d="M63.2283 19.1155C52.2596 19.1295 42.577 26.281 39.3383 36.7606L33.8198 36.7606C33.0077 36.7606 32.3493 36.1023 32.3493 35.2902L32.3493 8.82255C33.9736 8.82255 35.2902 7.50589 35.2902 5.8817L35.2902 2.94085C35.2902 1.31666 33.9736 0 32.3493 0L2.94085 0C1.31666 0 0 1.31666 0 2.94085L0 5.8817C0 7.50589 1.31666 8.82255 2.94085 8.82255L2.94085 79.4029C1.31666 79.4029 0 80.7196 0 82.3438L0 85.2846C0 86.9089 1.31666 88.2255 2.94085 88.2255L32.3493 88.2255C33.9736 88.2255 35.2902 86.9089 35.2902 85.2846L35.2902 82.3438C35.2902 80.7196 33.9736 79.4029 32.3493 79.4029L32.3493 52.9353C32.3493 52.1232 33.0077 51.4649 33.8198 51.4649L39.3383 51.4649C43.1159 63.7408 55.5821 71.1561 68.1726 68.6165 80.7631 66.0768 89.3799 54.4088 88.1033 41.6283 86.8268 28.8478 76.0723 19.1146 63.2283 19.1155ZM2.94085 2.94085 32.3493 2.94085 32.3493 5.8817 2.94085 5.8817ZM32.3493 85.2846 2.94085 85.2846 2.94085 82.3438 32.3493 82.3438ZM38.6428 48.524 33.8198 48.524C31.3834 48.524 29.4085 50.4989 29.4085 52.9353L29.4085 79.4029 5.8817 79.4029 5.8817 8.82255 29.4085 8.82255 29.4085 35.2902C29.4085 37.7265 31.3834 39.7015 33.8198 39.7015L38.6442 39.7015C38.0933 42.6166 38.0933 45.6089 38.6442 48.524ZM63.2283 66.1691C51.0468 66.1691 41.1719 56.2942 41.1719 44.1127 41.1719 31.9313 51.0468 22.0564 63.2283 22.0564 75.4097 22.0564 85.2846 31.9313 85.2846 44.1127 85.2708 56.2884 75.404 66.1553 63.2283 66.1691Z" transform="matrix(1 0 0 1.51824 219 329.35)"/><path d="M63.2283 24.9972C52.6711 24.9972 44.1127 33.5555 44.1127 44.1127 44.1127 54.6699 52.6711 63.2283 63.2283 63.2283 73.7855 63.2283 82.3438 54.6699 82.3438 44.1127 82.3316 33.5605 73.7805 25.0094 63.2283 24.9972ZM63.2283 60.2874C54.2953 60.2874 47.0536 53.0457 47.0536 44.1127 47.0536 35.1798 54.2953 27.9381 63.2283 27.9381 72.1612 27.9381 79.4029 35.1798 79.4029 44.1127 79.3923 53.0415 72.157 60.2768 63.2283 60.2874Z" transform="matrix(1 0 0 1.51824 219 329.35)"/><path d="M64.6987 39.972 64.6987 33.8198C64.6987 33.0077 64.0404 32.3493 63.2283 32.3493 62.4161 32.3493 61.7578 33.0077 61.7578 33.8198L61.7578 39.972C59.9961 40.5858 58.8157 42.2471 58.8157 44.1127 58.8157 45.9784 59.9961 47.6397 61.7578 48.2535L61.7578 51.4649C61.7578 52.277 62.4161 52.9353 63.2283 52.9353 64.0404 52.9353 64.6987 52.277 64.6987 51.4649L64.6987 48.2535C66.4604 47.6397 67.6409 45.9784 67.6409 44.1127 67.6409 42.2471 66.4604 40.5858 64.6987 39.972ZM63.2283 45.5832C62.4161 45.5832 61.7578 44.9249 61.7578 44.1127 61.7578 43.3006 62.4161 42.6423 63.2283 42.6423 64.0404 42.6423 64.6987 43.3006 64.6987 44.1127 64.6987 44.9249 64.0404 45.5832 63.2283 45.5832Z" transform="matrix(1 0 0 1.51824 219 329.35)"/><path d="M10.293 17.6451C9.48089 17.6451 8.82255 16.9868 8.82255 16.1747L8.82255 13.2338C8.82255 12.4217 9.48089 11.7634 10.293 11.7634 11.1051 11.7634 11.7634 12.4217 11.7634 13.2338L11.7634 16.1747C11.7634 16.9868 11.1051 17.6451 10.293 17.6451Z" fill="#F5F5F5" transform="matrix(1 0 0 1.51824 219 329.35)"/><path d="M10.293 36.7606C9.48089 36.7606 8.82255 36.1023 8.82255 35.2902L8.82255 22.0564C8.82255 21.2443 9.48089 20.5859 10.293 20.5859 11.1051 20.5859 11.7634 21.2443 11.7634 22.0564L11.7634 35.2902C11.7634 36.1023 11.1051 36.7606 10.293 36.7606Z" fill="#F5F5F5" transform="matrix(1 0 0 1.51824 219 329.35)"/></g></g></g><g clip-path="url(#clip4)"><g clip-path="url(#clip5)"><g clip-path="url(#clip6)"><path d="M32.3493 1.47042C33.1614 1.47042 33.8198 2.12876 33.8198 2.94085L33.8198 5.8817C33.8198 6.69379 33.1614 7.35212 32.3493 7.35212L2.94085 7.35212C2.12876 7.35212 1.47042 6.69379 1.47042 5.8817L1.47042 2.94085C1.47042 2.12876 2.12876 1.47042 2.94085 1.47042Z" fill="#505050" transform="matrix(1 -1.22465e-16 -1.27827e-16 -1.04379 219 500.089)"/><path d="M32.3493 80.8734C33.1614 80.8734 33.8198 81.5317 33.8198 82.3438L33.8198 85.2846C33.8198 86.0967 33.1614 86.7551 32.3493 86.7551L2.94085 86.7551C2.12876 86.7551 1.47042 86.0967 1.47042 85.2846L1.47042 82.3438C1.47042 81.5317 2.12876 80.8734 2.94085 80.8734Z" fill="#505050" transform="matrix(1 -1.22465e-16 -1.27827e-16 -1.04379 219 500.089)"/><path d="M39.7015 44.1127C39.6976 46.0965 39.9447 48.0727 40.4367 49.9944L33.8198 49.9944C32.1976 49.9993 30.8838 51.3131 30.8789 52.9353L30.8789 80.8734 4.41127 80.8734 4.41127 7.35212 30.8789 7.35212 30.8789 35.2902C30.8838 36.9124 32.1976 38.2262 33.8198 38.231L40.4367 38.231C39.9447 40.1527 39.6976 42.129 39.7015 44.1127Z" fill="#7F8E94" transform="matrix(1 -1.22465e-16 -1.27827e-16 -1.04379 219 500.089)"/><path d="M29.4085 38.231 33.8198 38.231C32.1976 38.2262 30.8838 36.9124 30.8789 35.2902L30.8789 7.35212 26.4676 7.35212 26.4676 35.2902C26.4725 36.9124 27.7863 38.2262 29.4085 38.231Z" fill="#707070" transform="matrix(1 -1.22465e-16 -1.27827e-16 -1.04379 219 500.089)"/><path d="M26.4676 52.9353 26.4676 80.8734 30.8789 80.8734 30.8789 52.9353C30.8838 51.3131 32.1976 49.9993 33.8198 49.9944L29.4085 49.9944C27.7863 49.9993 26.4725 51.3131 26.4676 52.9353Z" fill="#707070" transform="matrix(1 -1.22465e-16 -1.27827e-16 -1.04379 219 500.089)"/><path d="M40.4367 38.231 36.0254 38.231C35.0451 42.0909 35.0451 46.1346 36.0254 49.9944L40.4367 49.9944C39.4563 46.1346 39.4563 42.0909 40.4367 38.231Z" fill="#707070" transform="matrix(1 -1.22465e-16 -1.27827e-16 -1.04379 219 500.089)"/><path d="M86.7551 44.1127C86.7551 57.1063 76.2218 67.6395 63.2283 67.6395 50.2347 67.6395 39.7015 57.1063 39.7015 44.1127 39.7015 31.1192 50.2347 20.5859 63.2283 20.5859 76.2218 20.5859 86.7551 31.1192 86.7551 44.1127Z" fill="#CFD8DC" transform="matrix(1 -1.22465e-16 -1.27827e-16 -1.04379 219 500.089)"/><path d="M80.8734 44.1127C80.8734 53.8579 72.9734 61.7578 63.2283 61.7578 53.4831 61.7578 45.5832 53.8579 45.5832 44.1127 45.5832 34.3676 53.4831 26.4676 63.2283 26.4676 72.9734 26.4676 80.8734 34.3676 80.8734 44.1127Z" fill="#F5F5F5" transform="matrix(1 -1.22465e-16 -1.27827e-16 -1.04379 219 500.089)"/><path d="M63.2283 26.4676C62.4907 26.4704 61.754 26.5195 61.0226 26.6147 69.8425 27.7197 76.46 35.2181 76.46 44.1069 76.46 52.9956 69.8425 60.494 61.0226 61.599 67.5679 62.4813 74.0581 59.6344 77.8419 54.2213 81.6258 48.8081 82.0698 41.7351 78.9928 35.8912 75.9157 30.0471 69.8325 26.4109 63.2283 26.4676Z" fill="#CFD8DC" transform="matrix(1 -1.22465e-16 -1.27827e-16 -1.04379 219 500.089)"/><path d="M66.1691 44.1127C66.1691 45.7369 64.8524 47.0536 63.2283 47.0536 61.6041 47.0536 60.2874 45.7369 60.2874 44.1127 60.2874 42.4886 61.6041 41.1719 63.2283 41.1719 64.8524 41.1719 66.1691 42.4886 66.1691 44.1127Z" fill="#F44335" transform="matrix(1 -1.22465e-16 -1.27827e-16 -1.04379 219 500.089)"/><path d="M63.2283 51.4649 63.2283 47.0536" stroke="#000000" stroke-width="2.94085" stroke-linecap="round" stroke-linejoin="round" fill="none" fill-rule="evenodd" transform="matrix(1 -1.22465e-16 -1.27827e-16 -1.04379 219 500.089)"/><path d="M63.2283 41.1719 63.2283 33.8198" stroke="#000000" stroke-width="2.94085" stroke-linecap="round" stroke-linejoin="round" fill="none" fill-rule="evenodd" transform="matrix(1 -1.22465e-16 -1.27827e-16 -1.04379 219 500.089)"/><path d="M63.2283 19.1155C52.2596 19.1295 42.577 26.281 39.3383 36.7606L33.8198 36.7606C33.0077 36.7606 32.3493 36.1023 32.3493 35.2902L32.3493 8.82255C33.9736 8.82255 35.2902 7.50589 35.2902 5.8817L35.2902 2.94085C35.2902 1.31666 33.9736 0 32.3493 0L2.94085 0C1.31666 0 0 1.31666 0 2.94085L0 5.8817C0 7.50589 1.31666 8.82255 2.94085 8.82255L2.94085 79.4029C1.31666 79.4029 0 80.7196 0 82.3438L0 85.2846C0 86.9089 1.31666 88.2255 2.94085 88.2255L32.3493 88.2255C33.9736 88.2255 35.2902 86.9089 35.2902 85.2846L35.2902 82.3438C35.2902 80.7196 33.9736 79.4029 32.3493 79.4029L32.3493 52.9353C32.3493 52.1232 33.0077 51.4649 33.8198 51.4649L39.3383 51.4649C43.1159 63.7408 55.5821 71.1561 68.1726 68.6165 80.7631 66.0768 89.3799 54.4088 88.1033 41.6283 86.8268 28.8478 76.0723 19.1146 63.2283 19.1155ZM2.94085 2.94085 32.3493 2.94085 32.3493 5.8817 2.94085 5.8817ZM32.3493 85.2846 2.94085 85.2846 2.94085 82.3438 32.3493 82.3438ZM38.6428 48.524 33.8198 48.524C31.3834 48.524 29.4085 50.4989 29.4085 52.9353L29.4085 79.4029 5.8817 79.4029 5.8817 8.82255 29.4085 8.82255 29.4085 35.2902C29.4085 37.7265 31.3834 39.7015 33.8198 39.7015L38.6442 39.7015C38.0933 42.6166 38.0933 45.6089 38.6442 48.524ZM63.2283 66.1691C51.0468 66.1691 41.1719 56.2942 41.1719 44.1127 41.1719 31.9313 51.0468 22.0564 63.2283 22.0564 75.4097 22.0564 85.2846 31.9313 85.2846 44.1127 85.2708 56.2884 75.404 66.1553 63.2283 66.1691Z" transform="matrix(1 -1.22465e-16 -1.27827e-16 -1.04379 219 500.089)"/><path d="M63.2283 24.9972C52.6711 24.9972 44.1127 33.5555 44.1127 44.1127 44.1127 54.6699 52.6711 63.2283 63.2283 63.2283 73.7855 63.2283 82.3438 54.6699 82.3438 44.1127 82.3316 33.5605 73.7805 25.0094 63.2283 24.9972ZM63.2283 60.2874C54.2953 60.2874 47.0536 53.0457 47.0536 44.1127 47.0536 35.1798 54.2953 27.9381 63.2283 27.9381 72.1612 27.9381 79.4029 35.1798 79.4029 44.1127 79.3923 53.0415 72.157 60.2768 63.2283 60.2874Z" transform="matrix(1 -1.22465e-16 -1.27827e-16 -1.04379 219 500.089)"/><path d="M64.6987 39.972 64.6987 33.8198C64.6987 33.0077 64.0404 32.3493 63.2283 32.3493 62.4161 32.3493 61.7578 33.0077 61.7578 33.8198L61.7578 39.972C59.9961 40.5858 58.8157 42.2471 58.8157 44.1127 58.8157 45.9784 59.9961 47.6397 61.7578 48.2535L61.7578 51.4649C61.7578 52.277 62.4161 52.9353 63.2283 52.9353 64.0404 52.9353 64.6987 52.277 64.6987 51.4649L64.6987 48.2535C66.4604 47.6397 67.6409 45.9784 67.6409 44.1127 67.6409 42.2471 66.4604 40.5858 64.6987 39.972ZM63.2283 45.5832C62.4161 45.5832 61.7578 44.9249 61.7578 44.1127 61.7578 43.3006 62.4161 42.6423 63.2283 42.6423 64.0404 42.6423 64.6987 43.3006 64.6987 44.1127 64.6987 44.9249 64.0404 45.5832 63.2283 45.5832Z" transform="matrix(1 -1.22465e-16 -1.27827e-16 -1.04379 219 500.089)"/><path d="M10.293 17.6451C9.48089 17.6451 8.82255 16.9868 8.82255 16.1747L8.82255 13.2338C8.82255 12.4217 9.48089 11.7634 10.293 11.7634 11.1051 11.7634 11.7634 12.4217 11.7634 13.2338L11.7634 16.1747C11.7634 16.9868 11.1051 17.6451 10.293 17.6451Z" fill="#F5F5F5" transform="matrix(1 -1.22465e-16 -1.27827e-16 -1.04379 219 500.089)"/><path d="M10.293 36.7606C9.48089 36.7606 8.82255 36.1023 8.82255 35.2902L8.82255 22.0564C8.82255 21.2443 9.48089 20.5859 10.293 20.5859 11.1051 20.5859 11.7634 21.2443 11.7634 22.0564L11.7634 35.2902C11.7634 36.1023 11.1051 36.7606 10.293 36.7606Z" fill="#F5F5F5" transform="matrix(1 -1.22465e-16 -1.27827e-16 -1.04379 219 500.089)"/></g></g></g><g clip-path="url(#clip7)"><g clip-path="url(#clip8)"><g clip-path="url(#clip9)"><path d="M59.85 39.9 59.85 51.45 32.55 51.45 32.55 39.9C32.5419 34.6842 28.3158 30.4581 23.1 30.45L11.55 30.45 11.55 3.15 23.1 3.15C43.3874 3.17199 59.8281 19.6126 59.85 39.9Z" fill="#7F8E94" transform="matrix(-1 0 0 1 283 313)"/><path d="M23.1 3.15 19.95 3.15C40.2374 3.17199 56.6781 19.6126 56.7 39.9L56.7 51.45 59.85 51.45 59.85 39.9C59.8281 19.6126 43.3874 3.17199 23.1 3.15Z" fill="#707070" transform="matrix(-1 0 0 1 283 313)"/><path d="M10.5 1.05C11.0799 1.05 11.55 1.5201 11.55 2.1L11.55 31.5C11.55 32.0799 11.0799 32.55 10.5 32.55L2.1 32.55C1.5201 32.55 1.05 32.0799 1.05 31.5L1.05 2.1C1.05 1.5201 1.5201 1.05 2.1 1.05Z" fill="#707070" transform="matrix(-1 0 0 1 283 313)"/><path d="M10.5 1.05 7.35 1.05C7.92989 1.05 8.4 1.52011 8.4 2.1L8.4 31.5C8.4 32.0799 7.92989 32.55 7.35 32.55L10.5 32.55C11.0799 32.55 11.55 32.0799 11.55 31.5L11.55 2.1C11.55 1.52011 11.0799 1.05 10.5 1.05Z" fill="#505050" transform="matrix(-1 0 0 1 283 313)"/><path d="M60.9 51.45C61.4799 51.45 61.95 51.9201 61.95 52.5L61.95 60.9C61.95 61.4799 61.4799 61.95 60.9 61.95L31.5 61.95C30.9201 61.95 30.45 61.4799 30.45 60.9L30.45 52.5C30.45 51.9201 30.9201 51.45 31.5 51.45Z" fill="#707070" transform="matrix(-1 0 0 1 283 313)"/><path d="M60.9 51.45 57.75 51.45C58.3299 51.45 58.8 51.9201 58.8 52.5L58.8 60.9C58.8 61.4799 58.3299 61.95 57.75 61.95L60.9 61.95C61.4799 61.95 61.95 61.4799 61.95 60.9L61.95 52.5C61.95 51.9201 61.4799 51.45 60.9 51.45Z" fill="#505050" transform="matrix(-1 0 0 1 283 313)"/><path d="M60.9 50.4 60.9 39.9C60.8769 19.0332 43.9668 2.12314 23.1 2.1L12.6 2.1C12.6 0.940202 11.6598 0 10.5 0L2.1 0C1.54305 0 1.0089 0.22125 0.615075 0.615075 0.22125 1.0089 -1.16573e-16 1.54305 -1.16573e-16 2.1L-1.16573e-16 31.5C-1.16573e-16 32.6598 0.940202 33.6 2.1 33.6L10.5 33.6C11.6598 33.6 12.6 32.6598 12.6 31.5L23.1 31.5C27.737 31.5052 31.4947 35.263 31.5 39.9L31.5 50.4C30.3402 50.4 29.4 51.3402 29.4 52.5L29.4 60.9C29.4 62.0598 30.3402 63 31.5 63L60.9 63C62.0598 63 63 62.0598 63 60.9L63 52.5C63 51.3402 62.0598 50.4 60.9 50.4ZM10.5 3.15 10.5 31.5 2.1 31.5 2.1 2.1 10.5 2.1ZM23.1 29.4 12.6 29.4 12.6 4.2 23.1 4.2C42.8074 4.22199 58.7781 20.1926 58.8 39.9L58.8 50.4 33.6 50.4 33.6 39.9C33.5936 34.1037 28.8963 29.4064 23.1 29.4ZM60.9 60.9 31.5 60.9 31.5 52.5 60.9 52.5Z" transform="matrix(-1 0 0 1 283 313)"/><path d="M47.1271 19.0124C46.8324 19.0125 46.5512 18.8886 46.3522 18.6711 40.3826 12.1413 31.9473 8.41527 23.1 8.4L22.05 8.4C21.4701 8.4 21 7.92989 21 7.35 21 6.77011 21.4701 6.3 22.05 6.3L23.1 6.3C32.5369 6.3162 41.5341 10.2902 47.902 17.2547 48.1823 17.5618 48.2548 18.0054 48.0872 18.3859 47.9194 18.7664 47.5429 19.012 47.1271 19.0124Z" fill="#F5F5F5" transform="matrix(-1 0 0 1 283 313)"/><path d="M17.85 8.4 15.75 8.4C15.1701 8.4 14.7 7.92989 14.7 7.35 14.7 6.77011 15.1701 6.3 15.75 6.3L17.85 6.3C18.4299 6.3 18.9 6.77011 18.9 7.35 18.9 7.92989 18.4299 8.4 17.85 8.4Z" fill="#F5F5F5" transform="matrix(-1 0 0 1 283 313)"/></g></g></g><g clip-path="url(#clip10)"><g clip-path="url(#clip11)"><g clip-path="url(#clip12)"><path d="M109.813 54.6875C109.813 55.895 109.323 56.9887 108.531 57.7806 107.739 58.5725 106.645 59.0625 105.438 59.0625L104.661 59.0625 7.33906 59.0625 6.5625 59.0625C4.14531 59.0625 2.1875 57.1047 2.1875 54.6875 2.1875 53.48 2.6775 52.3862 3.46937 51.5944 4.26125 50.8025 5.355 50.3125 6.5625 50.3125L8.33875 50.3125 103.661 50.3125 105.438 50.3125C107.855 50.3125 109.813 52.2703 109.813 54.6875Z" fill="#02A9F4" transform="matrix(-1 -1.24454e-16 1.22465e-16 -1.01624 293 448.054)"/><path d="M7.33906 59.0625 104.661 59.0625C103.574 68.9063 94.5722 76.5625 84.4375 76.5625L82.25 76.5625 29.75 76.5625 27.5625 76.5625C17.4278 76.5625 8.42625 68.9063 7.33906 59.0625Z" fill="#0377BC" transform="matrix(-1 -1.24454e-16 1.22465e-16 -1.01624 293 448.054)"/><path d="M103.661 50.3125 8.33875 50.3125C11.0425 42.665 18.9897 37.1875 27.5625 37.1875L84.4375 37.1875C93.0103 37.1875 100.957 42.665 103.661 50.3125Z" fill="#0377BC" transform="matrix(-1 -1.24454e-16 1.22465e-16 -1.01624 293 448.054)"/><path d="M86.625 32.8125 86.625 37.1875 84.4375 37.1875 27.5625 37.1875 25.375 37.1875 25.375 32.8125C25.375 15.8988 39.0863 2.1875 56 2.1875 64.4569 2.1875 72.1131 5.61531 77.6563 11.1563 83.1972 16.6994 86.625 24.3556 86.625 32.8125Z" fill="#8CD9F4" transform="matrix(-1 -1.24454e-16 1.22465e-16 -1.01624 293 448.054)"/><path d="M82.25 76.5625 86.625 85.9688C65 85.9688 46.7836 85.9688 25.375 85.9688L29.75 76.5625 82.25 76.5625Z" fill="#57555C" transform="matrix(-1 -1.24454e-16 1.22465e-16 -1.01624 293 448.054)"/><path d="M82.25 65.625C81.0425 65.625 80.0625 66.605 80.0625 67.8125 80.0625 69.02 81.0425 70 82.25 70 83.4575 70 84.4375 69.02 84.4375 67.8125 84.4375 66.605 83.4575 65.625 82.25 65.625Z" transform="matrix(-1 -1.24454e-16 1.22465e-16 -1.01624 293 448.054)"/><path d="M69.125 65.625C67.9175 65.625 66.9375 66.605 66.9375 67.8125 66.9375 69.02 67.9175 70 69.125 70 70.3325 70 71.3125 69.02 71.3125 67.8125 71.3125 66.605 70.3325 65.625 69.125 65.625Z" transform="matrix(-1 -1.24454e-16 1.22465e-16 -1.01624 293 448.054)"/><path d="M60.375 8.75C59.1675 8.75 58.1875 9.73 58.1875 10.9375 58.1875 12.145 59.1675 13.125 60.375 13.125 61.5825 13.125 62.5625 12.145 62.5625 10.9375 62.5625 9.73 61.5825 8.75 60.375 8.75Z" transform="matrix(-1 -1.24454e-16 1.22465e-16 -1.01624 293 448.054)"/><path d="M56 65.625C54.7925 65.625 53.8125 66.605 53.8125 67.8125 53.8125 69.02 54.7925 70 56 70 57.2075 70 58.1875 69.02 58.1875 67.8125 58.1875 66.605 57.2075 65.625 56 65.625Z" transform="matrix(-1 -1.24454e-16 1.22465e-16 -1.01624 293 448.054)"/><path d="M42.875 65.625C41.6675 65.625 40.6875 66.605 40.6875 67.8125 40.6875 69.02 41.6675 70 42.875 70 44.0825 70 45.0625 69.02 45.0625 67.8125 45.0625 66.605 44.0825 65.625 42.875 65.625Z" transform="matrix(-1 -1.24454e-16 1.22465e-16 -1.01624 293 448.054)"/><path d="M29.75 65.625C28.5425 65.625 27.5625 66.605 27.5625 67.8125 27.5625 69.02 28.5425 70 29.75 70 30.9575 70 31.9375 69.02 31.9375 67.8125 31.9375 66.605 30.9575 65.625 29.75 65.625Z" transform="matrix(-1 -1.24454e-16 1.22465e-16 -1.01624 293 448.054)"/><path d="M112 54.6875C112 51.0689 109.056 48.125 105.438 48.125L105.14 48.125C102.248 41.6183 96.0011 36.8325 88.8125 35.4257L88.8125 32.8125C88.8125 24.0487 85.3998 15.8088 79.2026 9.60925 73.0037 3.41272 64.7638 0 56 0 37.9072 0 23.1875 14.7197 23.1875 32.8125L23.1875 35.4257C15.9989 36.8325 9.75209 41.6181 6.86 48.125L6.5625 48.125C4.81031 48.125 3.16247 48.8077 1.92259 50.0478 0.682719 51.2877 0 52.9353 0 54.6875 0 57.9294 2.36337 60.6279 5.45738 61.1551 7.42613 70.7753 16.1516 78.1622 26.336 78.7154L23.3914 85.0461C23.0764 85.7238 23.1287 86.515 23.5305 87.145 23.9321 87.775 24.6278 88.1563 25.3748 88.1563L36.3123 88.1563 36.3123 96.0313C36.3123 97.2392 37.2916 98.2188 38.4998 98.2188 39.7079 98.2188 40.6873 97.2392 40.6873 96.0313L40.6873 88.1563 53.8123 88.1563 53.8123 91.6563C53.8123 92.8642 54.7918 93.8438 55.9998 93.8438 57.2077 93.8438 58.1873 92.8642 58.1873 91.6563L58.1873 88.1563 71.3123 88.1563 71.3123 96.0313C71.3123 97.2392 72.2918 98.2188 73.4998 98.2188 74.7077 98.2188 75.6873 97.2392 75.6873 96.0313L75.6873 88.1563 86.6248 88.1563C87.3718 88.1563 88.0674 87.775 88.4693 87.145 88.8709 86.515 88.9234 85.7238 88.6084 85.0461L85.6638 78.7154C95.8479 78.1622 104.573 70.7759 106.542 61.1559 107.874 60.9311 109.102 60.3026 110.077 59.3274 111.317 58.0875 112 56.4397 112 54.6875ZM27.5625 32.8125C27.5625 17.1318 40.3196 4.375 56 4.375 63.5954 4.375 70.737 7.33272 76.1093 12.7026 81.4798 18.0755 84.4375 25.2171 84.4375 32.8125L84.4375 35 27.5625 35 27.5625 32.8125ZM27.5625 39.375 84.4375 39.375C90.8539 39.375 97.0255 42.9159 100.204 48.125L11.7959 48.125C14.9745 42.9159 21.1461 39.375 27.5625 39.375ZM28.805 83.7813 31.1452 78.75 80.8548 78.75 83.195 83.7813 28.805 83.7813ZM84.4375 74.375 27.5625 74.375C19.2738 74.375 11.9932 68.7785 9.9715 61.25L102.028 61.25C100.007 68.7785 92.7262 74.375 84.4375 74.375ZM106.984 56.2336C106.57 56.6473 106.021 56.875 105.438 56.875L6.5625 56.875C5.35631 56.875 4.375 55.8937 4.375 54.6875 4.375 54.1039 4.60272 53.5546 5.01616 53.1414 5.42959 52.7277 5.97888 52.5 6.5625 52.5L8.32344 52.5C8.32847 52.5 8.33372 52.5007 8.33875 52.5007 8.34422 52.5007 8.34969 52.5 8.35538 52.5L103.645 52.5C103.65 52.5 103.656 52.5007 103.661 52.5007 103.666 52.5007 103.671 52.5 103.677 52.5L105.438 52.5C106.644 52.5 107.625 53.4813 107.625 54.6875 107.625 55.2711 107.397 55.8202 106.984 56.2336Z" transform="matrix(-1 -1.24454e-16 1.22465e-16 -1.01624 293 448.054)"/><path d="M68.8883 12.5002C67.8687 11.8508 66.5168 12.1522 65.8685 13.1714 65.2199 14.1905 65.5202 15.5426 66.5396 16.1912 71.0437 19.0573 74.2337 23.6799 75.2918 28.8741 75.5029 29.9106 76.4146 30.6254 77.4329 30.6254 77.5775 30.6254 77.7247 30.611 77.8719 30.581 79.0558 30.3398 79.8199 29.1847 79.5788 28.0009 78.2852 21.6499 74.3888 16 68.8883 12.5002Z" transform="matrix(-1 -1.24454e-16 1.22465e-16 -1.01624 293 448.054)"/><path d="M56 98.2188C54.7921 98.2188 53.8125 99.1983 53.8125 100.406L53.8125 109.813C53.8125 111.02 54.7921 112 56 112 57.2079 112 58.1875 111.02 58.1875 109.813L58.1875 100.406C58.1875 99.1983 57.2079 98.2188 56 98.2188Z" transform="matrix(-1 -1.24454e-16 1.22465e-16 -1.01624 293 448.054)"/><path d="M73.5 102.594C72.2921 102.594 71.3125 103.573 71.3125 104.781L71.3125 109.813C71.3125 111.02 72.2921 112 73.5 112 74.7079 112 75.6875 111.02 75.6875 109.813L75.6875 104.781C75.6875 103.573 74.7079 102.594 73.5 102.594Z" transform="matrix(-1 -1.24454e-16 1.22465e-16 -1.01624 293 448.054)"/><path d="M38.5 102.594C37.2918 102.594 36.3125 103.573 36.3125 104.781L36.3125 109.813C36.3125 111.02 37.2918 112 38.5 112 39.7082 112 40.6875 111.02 40.6875 109.813L40.6875 104.781C40.6875 103.573 39.7082 102.594 38.5 102.594Z" transform="matrix(-1 -1.24454e-16 1.22465e-16 -1.01624 293 448.054)"/></g></g></g><path d="M158 370.5C158 326.041 194.041 290 238.5 290 282.959 290 319 326.041 319 370.5 319 414.959 282.959 451 238.5 451 194.041 451 158 414.959 158 370.5Z" stroke="#3C7D9A" stroke-width="8" stroke-miterlimit="8" fill="none" fill-rule="evenodd"/></g></svg>