<svg width="407" height="261" xmlns="http://www.w3.org/2000/svg" xmlns:xlink="http://www.w3.org/1999/xlink" overflow="hidden"><defs><clipPath id="clip0"><rect x="737" y="258" width="407" height="261"/></clipPath><clipPath id="clip1"><rect x="800" y="454" width="38" height="32"/></clipPath><clipPath id="clip2"><rect x="800" y="454" width="38" height="32"/></clipPath><clipPath id="clip3"><rect x="800" y="366" width="91" height="135"/></clipPath><clipPath id="clip4"><rect x="800" y="445" width="38" height="21"/></clipPath><clipPath id="clip5"><rect x="800" y="445" width="38" height="22"/></clipPath><clipPath id="clip6"><rect x="800" y="445" width="91" height="88"/></clipPath><clipPath id="clip7"><rect x="801" y="349" width="64" height="64"/></clipPath><clipPath id="clip8"><rect x="801" y="349" width="64" height="64"/></clipPath><clipPath id="clip9"><rect x="801" y="349" width="64" height="64"/></clipPath><clipPath id="clip10"><rect x="763" y="405" width="112" height="43"/></clipPath><clipPath id="clip11"><rect x="763" y="405" width="112" height="43"/></clipPath><clipPath id="clip12"><rect x="763" y="372" width="112" height="112"/></clipPath></defs><g clip-path="url(#clip0)" transform="translate(-737 -258)"><text fill="#D6584E" font-family="Russo One,Russo One_MSFontService,sans-serif" font-weight="400" font-size="16" transform="translate(931.152 401)">Soluções Energéticas<tspan fill="#3C7D9A" x="-1.72797" y="82">Soluções para o </tspan><tspan fill="#3C7D9A" x="1.18536" y="101">Meio</tspan><tspan fill="#3C7D9A" x="40.3521" y="101">-</tspan><tspan fill="#3C7D9A" x="47.8521" y="101">Ambiente</tspan><tspan fill="#53C153" x="18.3451" y="-123">Soluções para a </tspan><tspan fill="#53C153" x="-0.90155" y="-104">Industria de bebidas</tspan></text><path d="M920 306 1105.95 306" stroke="#3C7D9A" stroke-width="8" stroke-miterlimit="8" fill="none" fill-rule="evenodd"/><path d="M0 0 140.019 0.000104987" stroke="#3C7D9A" stroke-width="8" stroke-miterlimit="8" fill="none" fill-rule="evenodd" transform="matrix(1 0 0 -1 921 510)"/><path d="M810.158 417.505 922.668 304.996" stroke="#3C7D9A" stroke-width="8" stroke-miterlimit="8" fill="none" fill-rule="evenodd"/><path d="M811.405 398.997 923.914 511.507" stroke="#3C7D9A" stroke-width="8" stroke-miterlimit="8" fill="none" fill-rule="evenodd"/><path d="M0 0 324.59 0.000104987" stroke="#3C7D9A" stroke-width="8" stroke-miterlimit="8" fill="none" fill-rule="evenodd" transform="matrix(1 0 0 -1 805 407)"/><path d="M1105 306C1105 301.582 1108.58 298 1113 298 1117.42 298 1121 301.582 1121 306 1121 310.418 1117.42 314 1113 314 1108.58 314 1105 310.418 1105 306Z" fill="#3C7D9A" fill-rule="evenodd"/><path d="M1059 510C1059 505.582 1062.58 502 1067 502 1071.42 502 1075 505.582 1075 510 1075 514.418 1071.42 518 1067 518 1062.58 518 1059 514.418 1059 510Z" fill="#3C7D9A" fill-rule="evenodd"/><path d="M1127 407C1127 402.582 1130.58 399 1135 399 1139.42 399 1143 402.582 1143 407 1143 411.418 1139.42 415 1135 415 1130.58 415 1127 411.418 1127 407Z" fill="#3C7D9A" fill-rule="evenodd"/><path d="M740 407.5C740 363.041 776.041 327 820.5 327 864.959 327 901 363.041 901 407.5 901 451.959 864.959 488 820.5 488 776.041 488 740 451.959 740 407.5Z" fill="#D9D9D9" fill-rule="evenodd"/><g clip-path="url(#clip1)"><g clip-path="url(#clip2)"><g clip-path="url(#clip3)"><path d="M33.2236 1.51017C34.0577 1.51017 34.7338 2.18629 34.7338 3.02033L34.7338 6.04066C34.7338 6.8747 34.0577 7.55083 33.2236 7.55083L3.02033 7.55083C2.18629 7.55083 1.51017 6.8747 1.51017 6.04066L1.51017 3.02033C1.51017 2.18629 2.18629 1.51017 3.02033 1.51017Z" fill="#505050" transform="matrix(1 0 0 1.47828 800 366.35)"/><path d="M33.2236 83.0591C34.0577 83.0591 34.7338 83.7352 34.7338 84.5693L34.7338 87.5896C34.7338 88.4237 34.0577 89.0998 33.2236 89.0998L3.02033 89.0998C2.18629 89.0998 1.51017 88.4237 1.51017 87.5896L1.51017 84.5693C1.51017 83.7352 2.18629 83.0591 3.02033 83.0591Z" fill="#505050" transform="matrix(1 0 0 1.47828 800 366.35)"/><path d="M40.7745 45.305C40.7705 47.3423 41.0242 49.372 41.5296 51.3456L34.7338 51.3456C33.0678 51.3506 31.7185 52.7 31.7135 54.366L31.7135 83.0591 4.5305 83.0591 4.5305 7.55083 31.7135 7.55083 31.7135 36.244C31.7185 37.91 33.0678 39.2593 34.7338 39.2643L41.5296 39.2643C41.0242 41.238 40.7705 43.2676 40.7745 45.305Z" fill="#7F8E94" transform="matrix(1 0 0 1.47828 800 366.35)"/><path d="M30.2033 39.2643 34.7338 39.2643C33.0678 39.2593 31.7185 37.91 31.7135 36.244L31.7135 7.55083 27.183 7.55083 27.183 36.244C27.188 37.91 28.5373 39.2593 30.2033 39.2643Z" fill="#707070" transform="matrix(1 0 0 1.47828 800 366.35)"/><path d="M27.183 54.366 27.183 83.0591 31.7135 83.0591 31.7135 54.366C31.7185 52.7 33.0678 51.3506 34.7338 51.3456L30.2033 51.3456C28.5373 51.3506 27.188 52.7 27.183 54.366Z" fill="#707070" transform="matrix(1 0 0 1.47828 800 366.35)"/><path d="M41.5296 39.2643 36.9991 39.2643C35.9923 43.2285 35.9923 47.3815 36.9991 51.3456L41.5296 51.3456C40.5228 47.3815 40.5228 43.2285 41.5296 39.2643Z" fill="#707070" transform="matrix(1 0 0 1.47828 800 366.35)"/><path d="M89.0998 45.305C89.0998 58.6496 78.2818 69.4676 64.9371 69.4676 51.5925 69.4676 40.7745 58.6496 40.7745 45.305 40.7745 31.9603 51.5925 21.1423 64.9371 21.1423 78.2818 21.1423 89.0998 31.9603 89.0998 45.305Z" fill="#CFD8DC" transform="matrix(1 0 0 1.47828 800 366.35)"/><path d="M83.0591 45.305C83.0591 55.3135 74.9456 63.427 64.9371 63.427 54.9286 63.427 46.8151 55.3135 46.8151 45.305 46.8151 35.2965 54.9286 27.183 64.9371 27.183 74.9456 27.183 83.0591 35.2965 83.0591 45.305Z" fill="#F5F5F5" transform="matrix(1 0 0 1.47828 800 366.35)"/><path d="M64.9371 27.183C64.1796 27.1858 63.4231 27.2362 62.6719 27.334 71.7301 28.4689 78.5265 36.1699 78.5265 45.2989 78.5265 54.428 71.7301 62.129 62.6719 63.2639 69.3941 64.17 76.0596 61.2462 79.9458 55.6867 83.8319 50.1272 84.288 42.863 81.1277 36.8611 77.9674 30.8592 71.7199 27.1247 64.9371 27.183Z" fill="#CFD8DC" transform="matrix(1 0 0 1.47828 800 366.35)"/><path d="M67.9575 45.305C67.9575 46.9731 66.6052 48.3253 64.9371 48.3253 63.269 48.3253 61.9168 46.9731 61.9168 45.305 61.9168 43.6369 63.269 42.2846 64.9371 42.2846 66.6052 42.2846 67.9575 43.6369 67.9575 45.305Z" fill="#F44335" transform="matrix(1 0 0 1.47828 800 366.35)"/><path d="M64.9371 52.8558 64.9371 48.3253" stroke="#000000" stroke-width="3.02033" stroke-linecap="round" stroke-linejoin="round" fill="none" fill-rule="evenodd" transform="matrix(1 0 0 1.47828 800 366.35)"/><path d="M64.9371 42.2846 64.9371 34.7338" stroke="#000000" stroke-width="3.02033" stroke-linecap="round" stroke-linejoin="round" fill="none" fill-rule="evenodd" transform="matrix(1 0 0 1.47828 800 366.35)"/><path d="M64.9371 19.6322C53.6721 19.6465 43.7278 26.9914 40.4015 37.7541L34.7338 37.7541C33.8998 37.7541 33.2236 37.078 33.2236 36.244L33.2236 9.061C34.8917 9.061 36.244 7.70875 36.244 6.04066L36.244 3.02033C36.244 1.35225 34.8917 0 33.2236 0L3.02033 0C1.35225 0 0 1.35225 0 3.02033L0 6.04066C0 7.70875 1.35225 9.061 3.02033 9.061L3.02033 81.549C1.35225 81.549 0 82.9012 0 84.5693L0 87.5896C0 89.2577 1.35225 90.6099 3.02033 90.6099L33.2236 90.6099C34.8917 90.6099 36.244 89.2577 36.244 87.5896L36.244 84.5693C36.244 82.9012 34.8917 81.549 33.2236 81.549L33.2236 54.366C33.2236 53.5319 33.8998 52.8558 34.7338 52.8558L40.4015 52.8558C44.2812 65.4636 57.0843 73.0792 70.0151 70.4709 82.9458 67.8626 91.7955 55.8793 90.4845 42.7534 89.1734 29.6275 78.1283 19.6313 64.9371 19.6322ZM3.02033 3.02033 33.2236 3.02033 33.2236 6.04066 3.02033 6.04066ZM33.2236 87.5896 3.02033 87.5896 3.02033 84.5693 33.2236 84.5693ZM39.6872 49.8355 34.7338 49.8355C32.2317 49.8355 30.2033 51.8638 30.2033 54.366L30.2033 81.549 6.04066 81.549 6.04066 9.061 30.2033 9.061 30.2033 36.244C30.2033 38.7461 32.2317 40.7745 34.7338 40.7745L39.6887 40.7745C39.1229 43.7683 39.1229 46.8416 39.6887 49.8355ZM64.9371 67.9575C52.4265 67.9575 42.2846 57.8156 42.2846 45.305 42.2846 32.7943 52.4265 22.6525 64.9371 22.6525 77.4478 22.6525 87.5896 32.7943 87.5896 45.305 87.5755 57.8097 77.4419 67.9433 64.9371 67.9575Z" transform="matrix(1 0 0 1.47828 800 366.35)"/><path d="M64.9371 25.6728C54.0946 25.6728 45.305 34.4624 45.305 45.305 45.305 56.1475 54.0946 64.9371 64.9371 64.9371 75.7797 64.9371 84.5693 56.1475 84.5693 45.305 84.5568 34.4676 75.7745 25.6853 64.9371 25.6728ZM64.9371 61.9168C55.7627 61.9168 48.3253 54.4794 48.3253 45.305 48.3253 36.1305 55.7627 28.6931 64.9371 28.6931 74.1116 28.6931 81.549 36.1305 81.549 45.305 81.5381 54.4749 74.1071 61.906 64.9371 61.9168Z" transform="matrix(1 0 0 1.47828 800 366.35)"/><path d="M66.4473 41.0523 66.4473 34.7338C66.4473 33.8998 65.7712 33.2236 64.9371 33.2236 64.1031 33.2236 63.427 33.8998 63.427 34.7338L63.427 41.0523C61.6176 41.6827 60.4052 43.3889 60.4052 45.305 60.4052 47.221 61.6176 48.9272 63.427 49.5576L63.427 52.8558C63.427 53.6898 64.1031 54.366 64.9371 54.366 65.7712 54.366 66.4473 53.6898 66.4473 52.8558L66.4473 49.5576C68.2567 48.9272 69.4691 47.221 69.4691 45.305 69.4691 43.3889 68.2567 41.6827 66.4473 41.0523ZM64.9371 46.8151C64.1031 46.8151 63.427 46.139 63.427 45.305 63.427 44.4709 64.1031 43.7948 64.9371 43.7948 65.7712 43.7948 66.4473 44.4709 66.4473 45.305 66.4473 46.139 65.7712 46.8151 64.9371 46.8151Z" transform="matrix(1 0 0 1.47828 800 366.35)"/><path d="M10.5712 18.122C9.73712 18.122 9.061 17.4459 9.061 16.6118L9.061 13.5915C9.061 12.7575 9.73712 12.0813 10.5712 12.0813 11.4052 12.0813 12.0813 12.7575 12.0813 13.5915L12.0813 16.6118C12.0813 17.4459 11.4052 18.122 10.5712 18.122Z" fill="#F5F5F5" transform="matrix(1 0 0 1.47828 800 366.35)"/><path d="M10.5712 37.7541C9.73712 37.7541 9.061 37.078 9.061 36.244L9.061 22.6525C9.061 21.8184 9.73712 21.1423 10.5712 21.1423 11.4052 21.1423 12.0813 21.8184 12.0813 22.6525L12.0813 36.244C12.0813 37.078 11.4052 37.7541 10.5712 37.7541Z" fill="#F5F5F5" transform="matrix(1 0 0 1.47828 800 366.35)"/></g></g></g><g clip-path="url(#clip4)"><g clip-path="url(#clip5)"><g clip-path="url(#clip6)"><path d="M32.2311 1.46505C33.0402 1.46505 33.6961 2.12097 33.6961 2.9301L33.6961 5.86019C33.6961 6.66932 33.0402 7.32524 32.2311 7.32524L2.9301 7.32524C2.12097 7.32524 1.46505 6.66932 1.46505 5.86019L1.46505 2.9301C1.46505 2.12097 2.12097 1.46505 2.9301 1.46505Z" fill="#505050" transform="matrix(1.0308 -1.26236e-16 -1.22465e-16 -1 800 532.903)"/><path d="M32.2311 80.5777C33.0402 80.5777 33.6961 81.2336 33.6961 82.0427L33.6961 84.9728C33.6961 85.7819 33.0402 86.4378 32.2311 86.4378L2.9301 86.4378C2.12097 86.4378 1.46505 85.7819 1.46505 84.9728L1.46505 82.0427C1.46505 81.2336 2.12097 80.5777 2.9301 80.5777Z" fill="#505050" transform="matrix(1.0308 -1.26236e-16 -1.22465e-16 -1 800 532.903)"/><path d="M39.5563 43.9514C39.5524 45.9279 39.7986 47.8969 40.2888 49.8116L33.6961 49.8116C32.0799 49.8165 30.7708 51.1255 30.766 52.7417L30.766 80.5777 4.39514 80.5777 4.39514 7.32524 30.766 7.32524 30.766 35.1612C30.7708 36.7774 32.0799 38.0864 33.6961 38.0913L40.2888 38.0913C39.7986 40.006 39.5524 41.975 39.5563 43.9514Z" fill="#7F8E94" transform="matrix(1.0308 -1.26236e-16 -1.22465e-16 -1 800 532.903)"/><path d="M29.301 38.0913 33.6961 38.0913C32.0799 38.0864 30.7708 36.7774 30.766 35.1612L30.766 7.32524 26.3709 7.32524 26.3709 35.1612C26.3757 36.7774 27.6847 38.0864 29.301 38.0913Z" fill="#707070" transform="matrix(1.0308 -1.26236e-16 -1.22465e-16 -1 800 532.903)"/><path d="M26.3709 52.7417 26.3709 80.5777 30.766 80.5777 30.766 52.7417C30.7708 51.1255 32.0799 49.8165 33.6961 49.8116L29.301 49.8116C27.6847 49.8165 26.3757 51.1255 26.3709 52.7417Z" fill="#707070" transform="matrix(1.0308 -1.26236e-16 -1.22465e-16 -1 800 532.903)"/><path d="M40.2888 38.0913 35.8937 38.0913C34.917 41.937 34.917 45.9659 35.8937 49.8116L40.2888 49.8116C39.3121 45.9659 39.3121 41.937 40.2888 38.0913Z" fill="#707070" transform="matrix(1.0308 -1.26236e-16 -1.22465e-16 -1 800 532.903)"/><path d="M86.4378 43.9514C86.4378 56.8974 75.9431 67.3922 62.9971 67.3922 50.0511 67.3922 39.5563 56.8974 39.5563 43.9514 39.5563 31.0055 50.0511 20.5107 62.9971 20.5107 75.9431 20.5107 86.4378 31.0055 86.4378 43.9514Z" fill="#CFD8DC" transform="matrix(1.0308 -1.26236e-16 -1.22465e-16 -1 800 532.903)"/><path d="M80.5777 43.9514C80.5777 53.6609 72.7066 61.532 62.9971 61.532 53.2876 61.532 45.4165 53.6609 45.4165 43.9514 45.4165 34.242 53.2876 26.3709 62.9971 26.3709 72.7066 26.3709 80.5777 34.242 80.5777 43.9514Z" fill="#F5F5F5" transform="matrix(1.0308 -1.26236e-16 -1.22465e-16 -1 800 532.903)"/><path d="M62.9971 26.3709C62.2622 26.3736 61.5282 26.4225 60.7995 26.5174 69.5871 27.6183 76.1805 35.0893 76.1805 43.9456 76.1805 52.8019 69.5871 60.2728 60.7995 61.3738 67.3209 62.2529 73.7873 59.4164 77.5573 54.023 81.3274 48.6296 81.7698 41.5824 78.7039 35.7598 75.6381 29.9373 69.5772 26.3144 62.9971 26.3709Z" fill="#CFD8DC" transform="matrix(1.0308 -1.26236e-16 -1.22465e-16 -1 800 532.903)"/><path d="M65.9272 43.9514C65.9272 45.5697 64.6153 46.8815 62.9971 46.8815 61.3788 46.8815 60.067 45.5697 60.067 43.9514 60.067 42.3332 61.3788 41.0214 62.9971 41.0214 64.6153 41.0214 65.9272 42.3332 65.9272 43.9514Z" fill="#F44335" transform="matrix(1.0308 -1.26236e-16 -1.22465e-16 -1 800 532.903)"/><path d="M62.9971 51.2767 62.9971 46.8815" stroke="#000000" stroke-width="2.9301" stroke-linecap="round" stroke-linejoin="round" fill="none" fill-rule="evenodd" transform="matrix(1.0308 -1.26236e-16 -1.22465e-16 -1 800 532.903)"/><path d="M62.9971 41.0214 62.9971 33.6961" stroke="#000000" stroke-width="2.9301" stroke-linecap="round" stroke-linejoin="round" fill="none" fill-rule="evenodd" transform="matrix(1.0308 -1.26236e-16 -1.22465e-16 -1 800 532.903)"/><path d="M62.9971 19.0456C52.0686 19.0596 42.4214 26.185 39.1944 36.6262L33.6961 36.6262C32.887 36.6262 32.2311 35.9703 32.2311 35.1612L32.2311 8.79029C33.8493 8.79029 35.1612 7.47844 35.1612 5.86019L35.1612 2.9301C35.1612 1.31185 33.8493 0 32.2311 0L2.9301 0C1.31185 0 0 1.31185 0 2.9301L0 5.86019C0 7.47844 1.31185 8.79029 2.9301 8.79029L2.9301 79.1126C1.31185 79.1126 0 80.4245 0 82.0427L0 84.9728C0 86.591 1.31185 87.9029 2.9301 87.9029L32.2311 87.9029C33.8493 87.9029 35.1612 86.591 35.1612 84.9728L35.1612 82.0427C35.1612 80.4245 33.8493 79.1126 32.2311 79.1126L32.2311 52.7417C32.2311 51.9326 32.887 51.2767 33.6961 51.2767L39.1944 51.2767C42.9583 63.5078 55.3789 70.8959 67.9233 68.3655 80.4678 65.8352 89.053 54.2098 87.7812 41.4761 86.5093 28.7423 75.7942 19.0448 62.9971 19.0456ZM2.9301 2.9301 32.2311 2.9301 32.2311 5.86019 2.9301 5.86019ZM32.2311 84.9728 2.9301 84.9728 2.9301 82.0427 32.2311 82.0427ZM38.5015 48.3466 33.6961 48.3466C31.2687 48.3466 29.301 50.3144 29.301 52.7417L29.301 79.1126 5.86019 79.1126 5.86019 8.79029 29.301 8.79029 29.301 35.1612C29.301 37.5885 31.2687 39.5563 33.6961 39.5563L38.5029 39.5563C37.954 42.4607 37.954 45.4422 38.5029 48.3466ZM62.9971 65.9272C50.8602 65.9272 41.0214 56.0883 41.0214 43.9514 41.0214 31.8146 50.8602 21.9757 62.9971 21.9757 75.1339 21.9757 84.9728 31.8146 84.9728 43.9514 84.9591 56.0826 75.1282 65.9134 62.9971 65.9272Z" transform="matrix(1.0308 -1.26236e-16 -1.22465e-16 -1 800 532.903)"/><path d="M62.9971 24.9058C52.4785 24.9058 43.9514 33.4328 43.9514 43.9514 43.9514 54.4701 52.4785 62.9971 62.9971 62.9971 73.5157 62.9971 82.0427 54.4701 82.0427 43.9514 82.0306 33.4379 73.5107 24.9179 62.9971 24.9058ZM62.9971 60.067C54.0967 60.067 46.8815 52.8518 46.8815 43.9514 46.8815 35.0511 54.0967 27.8359 62.9971 27.8359 71.8974 27.8359 79.1126 35.0511 79.1126 43.9514 79.1021 52.8475 71.8931 60.0565 62.9971 60.067Z" transform="matrix(1.0308 -1.26236e-16 -1.22465e-16 -1 800 532.903)"/><path d="M64.4621 39.8259 64.4621 33.6961C64.4621 32.887 63.8062 32.2311 62.9971 32.2311 62.188 32.2311 61.532 32.887 61.532 33.6961L61.532 39.8259C59.7767 40.4374 58.6005 42.0927 58.6005 43.9514 58.6005 45.8102 59.7767 47.4655 61.532 48.077L61.532 51.2767C61.532 52.0858 62.188 52.7417 62.9971 52.7417 63.8062 52.7417 64.4621 52.0858 64.4621 51.2767L64.4621 48.077C66.2174 47.4655 67.3936 45.8102 67.3936 43.9514 67.3936 42.0927 66.2174 40.4374 64.4621 39.8259ZM62.9971 45.4165C62.188 45.4165 61.532 44.7606 61.532 43.9514 61.532 43.1423 62.188 42.4864 62.9971 42.4864 63.8062 42.4864 64.4621 43.1423 64.4621 43.9514 64.4621 44.7606 63.8062 45.4165 62.9971 45.4165Z" transform="matrix(1.0308 -1.26236e-16 -1.22465e-16 -1 800 532.903)"/><path d="M10.2553 17.5806C9.44621 17.5806 8.79029 16.9247 8.79029 16.1155L8.79029 13.1854C8.79029 12.3763 9.44621 11.7204 10.2553 11.7204 11.0645 11.7204 11.7204 12.3763 11.7204 13.1854L11.7204 16.1155C11.7204 16.9247 11.0645 17.5806 10.2553 17.5806Z" fill="#F5F5F5" transform="matrix(1.0308 -1.26236e-16 -1.22465e-16 -1 800 532.903)"/><path d="M10.2553 36.6262C9.44621 36.6262 8.79029 35.9703 8.79029 35.1612L8.79029 21.9757C8.79029 21.1666 9.44621 20.5107 10.2553 20.5107 11.0645 20.5107 11.7204 21.1666 11.7204 21.9757L11.7204 35.1612C11.7204 35.9703 11.0645 36.6262 10.2553 36.6262Z" fill="#F5F5F5" transform="matrix(1.0308 -1.26236e-16 -1.22465e-16 -1 800 532.903)"/></g></g></g><g clip-path="url(#clip7)"><g clip-path="url(#clip8)"><g clip-path="url(#clip9)"><path d="M60.8 40.5333 60.8 52.2667 33.0667 52.2667 33.0667 40.5333C33.0584 35.2348 28.7652 30.9416 23.4667 30.9333L11.7333 30.9333 11.7333 3.2 23.4667 3.2C44.076 3.22234 60.7777 19.924 60.8 40.5333Z" fill="#7F8E94" transform="matrix(-1 0 0 1 865 349)"/><path d="M23.4667 3.2 20.2667 3.2C40.876 3.22234 57.5777 19.924 57.6 40.5333L57.6 52.2667 60.8 52.2667 60.8 40.5333C60.7777 19.924 44.076 3.22234 23.4667 3.2Z" fill="#707070" transform="matrix(-1 0 0 1 865 349)"/><path d="M10.6667 1.06667C11.2558 1.06667 11.7333 1.54423 11.7333 2.13333L11.7333 32C11.7333 32.5891 11.2558 33.0667 10.6667 33.0667L2.13333 33.0667C1.54423 33.0667 1.06667 32.5891 1.06667 32L1.06667 2.13333C1.06667 1.54423 1.54423 1.06667 2.13333 1.06667Z" fill="#707070" transform="matrix(-1 0 0 1 865 349)"/><path d="M10.6667 1.06667 7.46667 1.06667C8.05577 1.06667 8.53333 1.54423 8.53333 2.13333L8.53333 32C8.53333 32.5891 8.05577 33.0667 7.46667 33.0667L10.6667 33.0667C11.2558 33.0667 11.7333 32.5891 11.7333 32L11.7333 2.13333C11.7333 1.54423 11.2558 1.06667 10.6667 1.06667Z" fill="#505050" transform="matrix(-1 0 0 1 865 349)"/><path d="M61.8667 52.2667C62.4558 52.2667 62.9333 52.7442 62.9333 53.3333L62.9333 61.8667C62.9333 62.4558 62.4558 62.9333 61.8667 62.9333L32 62.9333C31.4109 62.9333 30.9333 62.4558 30.9333 61.8667L30.9333 53.3333C30.9333 52.7442 31.4109 52.2667 32 52.2667Z" fill="#707070" transform="matrix(-1 0 0 1 865 349)"/><path d="M61.8667 52.2667 58.6667 52.2667C59.2558 52.2667 59.7333 52.7442 59.7333 53.3333L59.7333 61.8667C59.7333 62.4558 59.2558 62.9333 58.6667 62.9333L61.8667 62.9333C62.4558 62.9333 62.9333 62.4558 62.9333 61.8667L62.9333 53.3333C62.9333 52.7442 62.4558 52.2667 61.8667 52.2667Z" fill="#505050" transform="matrix(-1 0 0 1 865 349)"/><path d="M61.8667 51.2 61.8667 40.5333C61.8432 19.3353 44.6647 2.15685 23.4667 2.13333L12.8 2.13333C12.8 0.955126 11.8449 0 10.6667 0L2.13333 0C1.56754 0 1.02492 0.224761 0.624839 0.624839 0.224761 1.02492 -1.18424e-16 1.56754 -1.18424e-16 2.13333L-1.18424e-16 32C-1.18424e-16 33.1782 0.955126 34.1333 2.13333 34.1333L10.6667 34.1333C11.8449 34.1333 12.8 33.1782 12.8 32L23.4667 32C28.1773 32.0053 31.9947 35.8227 32 40.5333L32 51.2C30.8218 51.2 29.8667 52.1551 29.8667 53.3333L29.8667 61.8667C29.8667 63.0449 30.8218 64 32 64L61.8667 64C63.0449 64 64 63.0449 64 61.8667L64 53.3333C64 52.1551 63.0449 51.2 61.8667 51.2ZM10.6667 3.2 10.6667 32 2.13333 32 2.13333 2.13333 10.6667 2.13333ZM23.4667 29.8667 12.8 29.8667 12.8 4.26667 23.4667 4.26667C43.4869 4.28901 59.711 20.5131 59.7333 40.5333L59.7333 51.2 34.1333 51.2 34.1333 40.5333C34.1269 34.645 29.355 29.8731 23.4667 29.8667ZM61.8667 61.8667 32 61.8667 32 53.3333 61.8667 53.3333Z" transform="matrix(-1 0 0 1 865 349)"/><path d="M47.8752 19.3141C47.5758 19.3142 47.2901 19.1884 47.088 18.9675 41.0235 12.334 32.4545 8.54884 23.4667 8.53333L22.4 8.53333C21.8109 8.53333 21.3333 8.05577 21.3333 7.46667 21.3333 6.87756 21.8109 6.4 22.4 6.4L23.4667 6.4C33.0533 6.41646 42.1934 10.4535 48.6624 17.5285 48.9471 17.8406 49.0208 18.2912 48.8504 18.6778 48.68 19.0643 48.2976 19.3138 47.8752 19.3141Z" fill="#F5F5F5" transform="matrix(-1 0 0 1 865 349)"/><path d="M18.1333 8.53333 16 8.53333C15.4109 8.53333 14.9333 8.05577 14.9333 7.46667 14.9333 6.87756 15.4109 6.4 16 6.4L18.1333 6.4C18.7224 6.4 19.2 6.87756 19.2 7.46667 19.2 8.05577 18.7224 8.53333 18.1333 8.53333Z" fill="#F5F5F5" transform="matrix(-1 0 0 1 865 349)"/></g></g></g><g clip-path="url(#clip10)"><g clip-path="url(#clip11)"><g clip-path="url(#clip12)"><path d="M109.059 54.3124C109.059 55.5116 108.573 56.5979 107.786 57.3843 107 58.1708 105.914 58.6574 104.714 58.6574L103.943 58.6574 7.28873 58.6574 6.51749 58.6574C4.11688 58.6574 2.1725 56.713 2.1725 54.3124 2.1725 53.1132 2.65914 52.0269 3.44558 51.2405 4.23202 50.4541 5.31827 49.9674 6.51749 49.9674L8.28156 49.9674 102.95 49.9674 104.714 49.9674C107.115 49.9674 109.059 51.9118 109.059 54.3124Z" fill="#02A9F4" transform="matrix(-1.00691 -1.22465e-16 1.2331e-16 -1 875 483.235)"/><path d="M7.28873 58.6574 103.943 58.6574C102.863 68.4336 93.9235 76.0374 83.8584 76.0374L81.6859 76.0374 29.546 76.0374 27.3735 76.0374C17.3083 76.0374 8.36846 68.4336 7.28873 58.6574Z" fill="#0377BC" transform="matrix(-1.00691 -1.22465e-16 1.2331e-16 -1 875 483.235)"/><path d="M102.95 49.9674 8.28156 49.9674C10.9668 42.3724 18.8594 36.9324 27.3735 36.9324L83.8584 36.9324C92.3724 36.9324 100.265 42.3724 102.95 49.9674Z" fill="#0377BC" transform="matrix(-1.00691 -1.22465e-16 1.2331e-16 -1 875 483.235)"/><path d="M86.0309 32.5874 86.0309 36.9324 83.8584 36.9324 27.3735 36.9324 25.201 36.9324 25.201 32.5874C25.201 15.7897 38.8182 2.1725 55.6159 2.1725 64.0148 2.1725 71.6185 5.5768 77.1236 11.0797 82.6266 16.5848 86.0309 24.1886 86.0309 32.5874Z" fill="#8CD9F4" transform="matrix(-1.00691 -1.22465e-16 1.2331e-16 -1 875 483.235)"/><path d="M81.6859 76.0374 86.0309 85.3791C64.5542 85.3791 46.4627 85.3791 25.201 85.3791L29.546 76.0374 81.6859 76.0374Z" fill="#57555C" transform="matrix(-1.00691 -1.22465e-16 1.2331e-16 -1 875 483.235)"/><path d="M81.6859 65.1749C80.4867 65.1749 79.5134 66.1482 79.5134 67.3474 79.5134 68.5466 80.4867 69.5199 81.6859 69.5199 82.8851 69.5199 83.8584 68.5466 83.8584 67.3474 83.8584 66.1482 82.8851 65.1749 81.6859 65.1749Z" transform="matrix(-1.00691 -1.22465e-16 1.2331e-16 -1 875 483.235)"/><path d="M68.6509 65.1749C67.4517 65.1749 66.4784 66.1482 66.4784 67.3474 66.4784 68.5466 67.4517 69.5199 68.6509 69.5199 69.8501 69.5199 70.8234 68.5466 70.8234 67.3474 70.8234 66.1482 69.8501 65.1749 68.6509 65.1749Z" transform="matrix(-1.00691 -1.22465e-16 1.2331e-16 -1 875 483.235)"/><path d="M59.9609 8.68999C58.7617 8.68999 57.7884 9.66327 57.7884 10.8625 57.7884 12.0617 58.7617 13.035 59.9609 13.035 61.1601 13.035 62.1334 12.0617 62.1334 10.8625 62.1334 9.66327 61.1601 8.68999 59.9609 8.68999Z" transform="matrix(-1.00691 -1.22465e-16 1.2331e-16 -1 875 483.235)"/><path d="M55.6159 65.1749C54.4167 65.1749 53.4434 66.1482 53.4434 67.3474 53.4434 68.5466 54.4167 69.5199 55.6159 69.5199 56.8151 69.5199 57.7884 68.5466 57.7884 67.3474 57.7884 66.1482 56.8151 65.1749 55.6159 65.1749Z" transform="matrix(-1.00691 -1.22465e-16 1.2331e-16 -1 875 483.235)"/><path d="M42.5809 65.1749C41.3817 65.1749 40.4084 66.1482 40.4084 67.3474 40.4084 68.5466 41.3817 69.5199 42.5809 69.5199 43.7802 69.5199 44.7534 68.5466 44.7534 67.3474 44.7534 66.1482 43.7802 65.1749 42.5809 65.1749Z" transform="matrix(-1.00691 -1.22465e-16 1.2331e-16 -1 875 483.235)"/><path d="M29.546 65.1749C28.3467 65.1749 27.3735 66.1482 27.3735 67.3474 27.3735 68.5466 28.3467 69.5199 29.546 69.5199 30.7452 69.5199 31.7185 68.5466 31.7185 67.3474 31.7185 66.1482 30.7452 65.1749 29.546 65.1749Z" transform="matrix(-1.00691 -1.22465e-16 1.2331e-16 -1 875 483.235)"/><path d="M111.232 54.3124C111.232 50.7187 108.308 47.7949 104.714 47.7949L104.419 47.7949C101.546 41.3328 95.3426 36.5798 88.2034 35.1827L88.2034 32.5874C88.2034 23.8838 84.814 15.7004 78.6594 9.54334 72.5029 3.38931 64.3196 0 55.6159 0 37.6472 0 23.0285 14.6187 23.0285 32.5874L23.0285 35.1827C15.8892 36.5798 9.68521 41.3326 6.81295 47.7949L6.51749 47.7949C4.77732 47.7949 3.14078 48.473 1.90941 49.7045 0.678036 50.9359 0 52.5722 0 54.3124 0 57.5321 2.34717 60.212 5.41994 60.7356 7.37519 70.2898 16.0408 77.6261 26.1553 78.1756L23.2309 84.4628C22.9181 85.1358 22.97 85.9216 23.3691 86.5473 23.768 87.1729 24.4588 87.5516 25.2007 87.5516L36.0632 87.5516 36.0632 95.3726C36.0632 96.5723 37.0359 97.5451 38.2357 97.5451 39.4356 97.5451 40.4082 96.5723 40.4082 95.3726L40.4082 87.5516 53.4432 87.5516 53.4432 91.0276C53.4432 92.2273 54.416 93.2001 55.6157 93.2001 56.8153 93.2001 57.7882 92.2273 57.7882 91.0276L57.7882 87.5516 70.8232 87.5516 70.8232 95.3726C70.8232 96.5723 71.796 97.5451 72.9957 97.5451 74.1953 97.5451 75.1682 96.5723 75.1682 95.3726L75.1682 87.5516 86.0306 87.5516C86.7726 87.5516 87.4634 87.1729 87.8625 86.5473 88.2614 85.9216 88.3135 85.1358 88.0007 84.4628L85.0763 78.1756C95.1905 77.6261 103.856 70.2905 105.811 60.7365 107.134 60.5132 108.354 59.889 109.322 58.9205 110.554 57.6891 111.232 56.0526 111.232 54.3124ZM27.3735 32.5874C27.3735 17.0143 40.043 4.34499 55.6159 4.34499 63.1593 4.34499 70.2518 7.28243 75.5872 12.6155 80.9209 17.9516 83.8584 25.0441 83.8584 32.5874L83.8584 34.7599 27.3735 34.7599 27.3735 32.5874ZM27.3735 39.1049 83.8584 39.1049C90.2307 39.1049 96.36 42.6216 99.5169 47.7949L11.715 47.7949C14.8718 42.6216 21.0011 39.1049 27.3735 39.1049ZM28.6074 83.2066 30.9316 78.2099 80.3003 78.2099 82.6244 83.2066 28.6074 83.2066ZM83.8584 73.8649 27.3735 73.8649C19.1417 73.8649 11.9109 68.3068 9.90311 60.8299L101.329 60.8299C99.3209 68.3068 92.0902 73.8649 83.8584 73.8649ZM106.25 55.8479C105.839 56.2588 105.294 56.4849 104.714 56.4849L6.51749 56.4849C5.31958 56.4849 4.34499 55.5103 4.34499 54.3124 4.34499 53.7328 4.57115 53.1873 4.98175 52.7769 5.39235 52.3661 5.93787 52.1399 6.51749 52.1399L8.26635 52.1399C8.27135 52.1399 8.27656 52.1406 8.28156 52.1406 8.28699 52.1406 8.29242 52.1399 8.29807 52.1399L102.934 52.1399C102.939 52.1399 102.945 52.1406 102.95 52.1406 102.955 52.1406 102.96 52.1399 102.965 52.1399L104.714 52.1399C105.912 52.1399 106.887 53.1145 106.887 54.3124 106.887 54.892 106.661 55.4373 106.25 55.8479Z" transform="matrix(-1.00691 -1.22465e-16 1.2331e-16 -1 875 483.235)"/><path d="M68.4158 12.4145C67.4032 11.7695 66.0606 12.0689 65.4167 13.081 64.7726 14.0932 65.0708 15.436 66.0832 16.0802 70.5564 18.9266 73.7245 23.5175 74.7754 28.6761 74.985 29.7054 75.8905 30.4154 76.9018 30.4154 77.0454 30.4154 77.1916 30.4011 77.3378 30.3713 78.5136 30.1317 79.2724 28.9846 79.033 27.8088 77.7482 21.5014 73.8786 15.8903 68.4158 12.4145Z" transform="matrix(-1.00691 -1.22465e-16 1.2331e-16 -1 875 483.235)"/><path d="M55.6159 97.5451C54.4163 97.5451 53.4434 98.5179 53.4434 99.7176L53.4434 109.059C53.4434 110.259 54.4163 111.232 55.6159 111.232 56.8156 111.232 57.7884 110.259 57.7884 109.059L57.7884 99.7176C57.7884 98.5179 56.8156 97.5451 55.6159 97.5451Z" transform="matrix(-1.00691 -1.22465e-16 1.2331e-16 -1 875 483.235)"/><path d="M72.9959 101.89C71.7962 101.89 70.8234 102.863 70.8234 104.063L70.8234 109.059C70.8234 110.259 71.7962 111.232 72.9959 111.232 74.1955 111.232 75.1684 110.259 75.1684 109.059L75.1684 104.063C75.1684 102.863 74.1955 101.89 72.9959 101.89Z" transform="matrix(-1.00691 -1.22465e-16 1.2331e-16 -1 875 483.235)"/><path d="M38.2359 101.89C37.0361 101.89 36.0634 102.863 36.0634 104.063L36.0634 109.059C36.0634 110.259 37.0361 111.232 38.2359 111.232 39.4358 111.232 40.4084 110.259 40.4084 109.059L40.4084 104.063C40.4084 102.863 39.4358 101.89 38.2359 101.89Z" transform="matrix(-1.00691 -1.22465e-16 1.2331e-16 -1 875 483.235)"/></g></g></g><path d="M740 407.5C740 363.041 776.041 327 820.5 327 864.959 327 901 363.041 901 407.5 901 451.959 864.959 488 820.5 488 776.041 488 740 451.959 740 407.5Z" stroke="#BFBFBF" stroke-width="4" stroke-miterlimit="8" fill="none" fill-rule="evenodd"/></g></svg>