<svg width="598" height="592" xmlns="http://www.w3.org/2000/svg" xmlns:xlink="http://www.w3.org/1999/xlink" overflow="hidden"><defs><filter id="fx0" x="-10%" y="-10%" width="120%" height="120%" filterUnits="userSpaceOnUse" primitiveUnits="userSpaceOnUse"><feComponentTransfer color-interpolation-filters="sRGB"><feFuncR type="discrete" tableValues="0 0"/><feFuncG type="discrete" tableValues="0 0"/><feFuncB type="discrete" tableValues="0 0"/><feFuncA type="linear" slope="0.337255" intercept="0"/></feComponentTransfer><feGaussianBlur stdDeviation="2.66667 2.66667"/></filter><filter id="fx1" x="-10%" y="-10%" width="120%" height="120%" filterUnits="userSpaceOnUse" primitiveUnits="userSpaceOnUse"><feComponentTransfer color-interpolation-filters="sRGB"><feFuncR type="discrete" tableValues="0 0"/><feFuncG type="discrete" tableValues="0 0"/><feFuncB type="discrete" tableValues="0 0"/><feFuncA type="linear" slope="0.337255" intercept="0"/></feComponentTransfer><feGaussianBlur stdDeviation="2.66667 2.66667"/></filter><filter id="fx2" x="-10%" y="-10%" width="120%" height="120%" filterUnits="userSpaceOnUse" primitiveUnits="userSpaceOnUse"><feComponentTransfer color-interpolation-filters="sRGB"><feFuncR type="discrete" tableValues="0 0"/><feFuncG type="discrete" tableValues="0 0"/><feFuncB type="discrete" tableValues="0 0"/><feFuncA type="linear" slope="0.337255" intercept="0"/></feComponentTransfer><feGaussianBlur stdDeviation="2.66667 2.66667"/></filter><filter id="fx3" x="-10%" y="-10%" width="120%" height="120%" filterUnits="userSpaceOnUse" primitiveUnits="userSpaceOnUse"><feComponentTransfer color-interpolation-filters="sRGB"><feFuncR type="discrete" tableValues="0 0"/><feFuncG type="discrete" tableValues="0 0"/><feFuncB type="discrete" tableValues="0 0"/><feFuncA type="linear" slope="0.337255" intercept="0"/></feComponentTransfer><feGaussianBlur stdDeviation="2.66667 2.66667"/></filter><filter id="fx4" x="-10%" y="-10%" width="120%" height="120%" filterUnits="userSpaceOnUse" primitiveUnits="userSpaceOnUse"><feComponentTransfer color-interpolation-filters="sRGB"><feFuncR type="discrete" tableValues="0 0"/><feFuncG type="discrete" tableValues="0 0"/><feFuncB type="discrete" tableValues="0 0"/><feFuncA type="linear" slope="0.337255" intercept="0"/></feComponentTransfer><feGaussianBlur stdDeviation="2.66667 2.66667"/></filter><filter id="fx5" x="-10%" y="-10%" width="120%" height="120%" filterUnits="userSpaceOnUse" primitiveUnits="userSpaceOnUse"><feComponentTransfer color-interpolation-filters="sRGB"><feFuncR type="discrete" tableValues="0 0"/><feFuncG type="discrete" tableValues="0 0"/><feFuncB type="discrete" tableValues="0 0"/><feFuncA type="linear" slope="0.337255" intercept="0"/></feComponentTransfer><feGaussianBlur stdDeviation="2.66667 2.66667"/></filter><filter id="fx6" x="-10%" y="-10%" width="120%" height="120%" filterUnits="userSpaceOnUse" primitiveUnits="userSpaceOnUse"><feComponentTransfer color-interpolation-filters="sRGB"><feFuncR type="discrete" tableValues="0 0"/><feFuncG type="discrete" tableValues="0 0"/><feFuncB type="discrete" tableValues="0 0"/><feFuncA type="linear" slope="0.337255" intercept="0"/></feComponentTransfer><feGaussianBlur stdDeviation="2.66667 2.66667"/></filter><filter id="fx7" x="-10%" y="-10%" width="120%" height="120%" filterUnits="userSpaceOnUse" primitiveUnits="userSpaceOnUse"><feComponentTransfer color-interpolation-filters="sRGB"><feFuncR type="discrete" tableValues="0 0"/><feFuncG type="discrete" tableValues="0 0"/><feFuncB type="discrete" tableValues="0 0"/><feFuncA type="linear" slope="0.337255" intercept="0"/></feComponentTransfer><feGaussianBlur stdDeviation="2.66667 2.66667"/></filter><filter id="fx8" x="-10%" y="-10%" width="120%" height="120%" filterUnits="userSpaceOnUse" primitiveUnits="userSpaceOnUse"><feComponentTransfer color-interpolation-filters="sRGB"><feFuncR type="discrete" tableValues="0 0"/><feFuncG type="discrete" tableValues="0 0"/><feFuncB type="discrete" tableValues="0 0"/><feFuncA type="linear" slope="0.337255" intercept="0"/></feComponentTransfer><feGaussianBlur stdDeviation="2.66667 2.66667"/></filter><filter id="fx9" x="-10%" y="-10%" width="120%" height="120%" filterUnits="userSpaceOnUse" primitiveUnits="userSpaceOnUse"><feComponentTransfer color-interpolation-filters="sRGB"><feFuncR type="discrete" tableValues="0 0"/><feFuncG type="discrete" tableValues="0 0"/><feFuncB type="discrete" tableValues="0 0"/><feFuncA type="linear" slope="0.337255" intercept="0"/></feComponentTransfer><feGaussianBlur stdDeviation="2.66667 2.66667"/></filter><clipPath id="clip10"><rect x="348" y="72" width="598" height="592"/></clipPath><clipPath id="clip11"><rect x="-2" y="-4" width="223" height="225"/></clipPath><clipPath id="clip12"><rect x="0" y="0" width="219" height="219"/></clipPath><linearGradient x1="524.657" y1="288.62" x2="754.343" y2="448.38" gradientUnits="userSpaceOnUse" spreadMethod="reflect" id="fill13"><stop offset="0" stop-color="#FFFFFF"/><stop offset="0.22846" stop-color="#FFFFFF"/><stop offset="0.63321" stop-color="#E6EAEB"/><stop offset="0.9996" stop-color="#CDD5D8"/><stop offset="1" stop-color="#CDD5D8"/></linearGradient><clipPath id="clip14"><rect x="-2" y="-4" width="148" height="148"/></clipPath><clipPath id="clip15"><rect x="0" y="0" width="142" height="142"/></clipPath><linearGradient x1="569.152" y1="87.7209" x2="710.848" y2="186.279" gradientUnits="userSpaceOnUse" spreadMethod="reflect" id="fill16"><stop offset="0" stop-color="#F0C8C8"/><stop offset="0.2" stop-color="#F0C8C8"/><stop offset="0.99" stop-color="#D45858"/><stop offset="0.9996" stop-color="#CDD5D8"/><stop offset="1" stop-color="#CDD5D8"/></linearGradient><clipPath id="clip17"><rect x="-2" y="-4" width="148" height="148"/></clipPath><clipPath id="clip18"><rect x="0" y="0" width="142" height="141"/></clipPath><linearGradient x1="718.386" y1="142.384" x2="859.614" y2="240.616" gradientUnits="userSpaceOnUse" spreadMethod="reflect" id="fill19"><stop offset="0" stop-color="#F0C8C8"/><stop offset="0.2" stop-color="#F0C8C8"/><stop offset="0.99" stop-color="#D45858"/><stop offset="0.9996" stop-color="#CDD5D8"/><stop offset="1" stop-color="#CDD5D8"/></linearGradient><clipPath id="clip20"><rect x="-2" y="-4" width="148" height="148"/></clipPath><clipPath id="clip21"><rect x="0" y="0" width="142" height="142"/></clipPath><linearGradient x1="797.152" y1="279.721" x2="938.848" y2="378.279" gradientUnits="userSpaceOnUse" spreadMethod="reflect" id="fill22"><stop offset="0" stop-color="#F0C8C8"/><stop offset="0.2" stop-color="#F0C8C8"/><stop offset="0.99" stop-color="#D45858"/><stop offset="0.9996" stop-color="#CDD5D8"/><stop offset="1" stop-color="#CDD5D8"/></linearGradient><clipPath id="clip23"><rect x="-2" y="-4" width="146" height="148"/></clipPath><clipPath id="clip24"><rect x="0" y="0" width="141" height="142"/></clipPath><linearGradient x1="769.989" y1="435.955" x2="911.011" y2="534.045" gradientUnits="userSpaceOnUse" spreadMethod="reflect" id="fill25"><stop offset="0" stop-color="#C8F0C8"/><stop offset="0.2" stop-color="#C8F0C8"/><stop offset="0.99" stop-color="#58D458"/><stop offset="0.9996" stop-color="#CDD5D8"/><stop offset="1" stop-color="#CDD5D8"/></linearGradient><clipPath id="clip26"><rect x="-2" y="-4" width="148" height="148"/></clipPath><clipPath id="clip27"><rect x="0" y="0" width="142" height="142"/></clipPath><linearGradient x1="648.152" y1="537.721" x2="789.848" y2="636.279" gradientUnits="userSpaceOnUse" spreadMethod="reflect" id="fill28"><stop offset="0" stop-color="#C8F0C8"/><stop offset="0.2" stop-color="#C8F0C8"/><stop offset="0.99" stop-color="#58D458"/><stop offset="0.9996" stop-color="#CDD5D8"/><stop offset="1" stop-color="#CDD5D8"/></linearGradient><clipPath id="clip29"><rect x="-2" y="-4" width="146" height="148"/></clipPath><clipPath id="clip30"><rect x="0" y="0" width="141" height="142"/></clipPath><linearGradient x1="489.989" y1="537.955" x2="631.011" y2="636.045" gradientUnits="userSpaceOnUse" spreadMethod="reflect" id="fill31"><stop offset="0" stop-color="#C8F0C8"/><stop offset="0.2" stop-color="#C8F0C8"/><stop offset="0.99" stop-color="#58D458"/><stop offset="0.9996" stop-color="#CDD5D8"/><stop offset="1" stop-color="#CDD5D8"/></linearGradient><clipPath id="clip32"><rect x="-2" y="-4" width="148" height="148"/></clipPath><clipPath id="clip33"><rect x="0" y="0" width="142" height="141"/></clipPath><linearGradient x1="368.386" y1="436.384" x2="509.614" y2="534.616" gradientUnits="userSpaceOnUse" spreadMethod="reflect" id="fill34"><stop offset="0" stop-color="#C8C8F0"/><stop offset="0.2" stop-color="#C8C8F0"/><stop offset="0.99" stop-color="#5858D4"/><stop offset="0.9996" stop-color="#CDD5D8"/><stop offset="1" stop-color="#CDD5D8"/></linearGradient><clipPath id="clip35"><rect x="-2" y="-4" width="148" height="148"/></clipPath><clipPath id="clip36"><rect x="0" y="0" width="142" height="142"/></clipPath><linearGradient x1="340.152" y1="279.721" x2="481.848" y2="378.279" gradientUnits="userSpaceOnUse" spreadMethod="reflect" id="fill37"><stop offset="0" stop-color="#C8C8F0"/><stop offset="0.2" stop-color="#C8C8F0"/><stop offset="0.99" stop-color="#5858D4"/><stop offset="0.9996" stop-color="#CDD5D8"/><stop offset="1" stop-color="#CDD5D8"/></linearGradient><clipPath id="clip38"><rect x="-2" y="-4" width="146" height="148"/></clipPath><clipPath id="clip39"><rect x="0" y="0" width="141" height="142"/></clipPath><linearGradient x1="419.989" y1="141.955" x2="561.011" y2="240.045" gradientUnits="userSpaceOnUse" spreadMethod="reflect" id="fill40"><stop offset="0" stop-color="#F0C8C8"/><stop offset="0.2" stop-color="#F0C8C8"/><stop offset="0.99" stop-color="#D45858"/><stop offset="0.9996" stop-color="#CDD5D8"/><stop offset="1" stop-color="#CDD5D8"/></linearGradient><clipPath id="clip41"><rect x="563" y="292" width="153" height="153"/></clipPath><clipPath id="clip42"><rect x="563" y="292" width="153" height="153"/></clipPath><clipPath id="clip43"><rect x="563" y="292" width="153" height="153"/></clipPath><clipPath id="clip44"><rect x="449" y="149" width="86" height="86"/></clipPath><clipPath id="clip45"><rect x="449" y="149" width="86" height="86"/></clipPath><clipPath id="clip46"><rect x="449" y="149" width="86" height="86"/></clipPath><clipPath id="clip47"><rect x="368" y="286" width="86" height="86"/></clipPath><clipPath id="clip48"><rect x="368" y="286" width="86" height="86"/></clipPath><clipPath id="clip49"><rect x="368" y="286" width="86" height="86"/></clipPath><clipPath id="clip50"><rect x="397" y="443" width="86" height="86"/></clipPath><clipPath id="clip51"><rect x="397" y="443" width="86" height="86"/></clipPath><clipPath id="clip52"><rect x="397" y="443" width="86" height="86"/></clipPath><clipPath id="clip53"><rect x="518" y="544" width="86" height="86"/></clipPath><clipPath id="clip54"><rect x="518" y="544" width="86" height="86"/></clipPath><clipPath id="clip55"><rect x="518" y="544" width="86" height="86"/></clipPath><clipPath id="clip56"><rect x="679" y="544" width="86" height="86"/></clipPath><clipPath id="clip57"><rect x="679" y="544" width="86" height="86"/></clipPath><clipPath id="clip58"><rect x="679" y="544" width="86" height="86"/></clipPath><clipPath id="clip59"><rect x="826" y="282" width="86" height="86"/></clipPath><clipPath id="clip60"><rect x="826" y="282" width="86" height="86"/></clipPath><clipPath id="clip61"><rect x="826" y="282" width="86" height="86"/></clipPath><clipPath id="clip62"><rect x="804" y="441" width="86" height="86"/></clipPath><clipPath id="clip63"><rect x="804" y="441" width="86" height="86"/></clipPath><clipPath id="clip64"><rect x="804" y="441" width="86" height="86"/></clipPath><clipPath id="clip65"><rect x="748" y="149" width="86" height="86"/></clipPath><clipPath id="clip66"><rect x="748" y="149" width="86" height="86"/></clipPath><clipPath id="clip67"><rect x="748" y="149" width="86" height="86"/></clipPath><clipPath id="clip68"><rect x="598" y="94" width="86" height="87"/></clipPath><clipPath id="clip69"><rect x="598" y="94" width="86" height="87"/></clipPath><clipPath id="clip70"><rect x="598" y="94" width="86" height="87"/></clipPath></defs><g clip-path="url(#clip10)" transform="translate(-348 -72)"><rect x="636" y="139" width="8" height="230" fill="#3C7D9A"/><path d="M642.583 371.562 636.66 366.592 784.207 190.753 790.129 195.723Z" fill="#3C7D9A" fill-rule="evenodd"/><path d="M640.527 372.936 639.185 365.322 865.239 325.462 866.582 333.076Z" fill="#3C7D9A" fill-rule="evenodd"/><path d="M637.66 372.521 641.526 365.826 840.315 480.596 836.449 487.292Z" fill="#3C7D9A" fill-rule="evenodd"/><path d="M636.061 370.552 643.326 367.908 721.834 583.607 714.569 586.251Z" fill="#3C7D9A" fill-rule="evenodd"/><path d="M636.163 367.88 643.428 370.524 564.921 586.223 557.656 583.578Z" fill="#3C7D9A" fill-rule="evenodd"/><path d="M637.622 366.086 641.487 372.782 442.698 487.552 438.833 480.857Z" fill="#3C7D9A" fill-rule="evenodd"/><path d="M640.186 365.282 638.843 372.896 412.789 333.036 414.131 325.422Z" fill="#3C7D9A" fill-rule="evenodd"/><path d="M642.588 366.359 636.665 371.328 489.119 195.489 495.041 190.519Z" fill="#3C7D9A" fill-rule="evenodd"/><path d="M524 369C524 304.935 575.711 253 639.5 253 703.289 253 755 304.935 755 369 755 433.065 703.289 485 639.5 485 575.711 485 524 433.065 524 369Z" fill="#3C7D9A" fill-rule="evenodd"/><g clip-path="url(#clip11)" filter="url(#fx0)" transform="translate(537 265)"><g clip-path="url(#clip12)"><path d="M9.23987 109.277C9.23987 53.7722 54.2352 8.77686 109.74 8.77686 165.244 8.77686 210.24 53.7722 210.24 109.277 210.24 164.781 165.244 209.777 109.74 209.777 54.2352 209.777 9.23987 164.781 9.23987 109.277Z" fill="#FF0000" fill-rule="evenodd"/></g></g><path d="M539 368.5C539 312.995 583.995 268 639.5 268 695.005 268 740 312.995 740 368.5 740 424.005 695.005 469 639.5 469 583.995 469 539 424.005 539 368.5Z" fill="url(#fill13)" fill-rule="evenodd"/><g clip-path="url(#clip14)" filter="url(#fx1)" transform="translate(576 72)"><g clip-path="url(#clip15)"><path d="M9.23987 70.7769C9.23987 36.5352 36.9982 8.77686 71.2399 8.77686 105.482 8.77686 133.24 36.5352 133.24 70.7769 133.24 105.019 105.482 132.777 71.2399 132.777 36.9982 132.777 9.23987 105.019 9.23987 70.7769Z" fill="#FF0000" fill-rule="evenodd"/></g></g><path d="M578 137C578 102.758 605.758 75 640 75 674.242 75 702 102.758 702 137 702 171.242 674.242 199 640 199 605.758 199 578 171.242 578 137Z" fill="url(#fill16)" fill-rule="evenodd"/><g clip-path="url(#clip17)" filter="url(#fx2)" transform="translate(725 127)"><g clip-path="url(#clip18)"><path d="M9.23987 70.2769C9.23987 36.3113 36.9982 8.77686 71.2399 8.77686 105.482 8.77686 133.24 36.3113 133.24 70.2769 133.24 104.242 105.482 131.777 71.2399 131.777 36.9982 131.777 9.23987 104.242 9.23987 70.2769Z" fill="#FF0000" fill-rule="evenodd"/></g></g><path d="M727 191.5C727 157.534 754.758 130 789 130 823.242 130 851 157.534 851 191.5 851 225.465 823.242 253 789 253 754.758 253 727 225.465 727 191.5Z" fill="url(#fill19)" fill-rule="evenodd"/><g clip-path="url(#clip20)" filter="url(#fx3)" transform="translate(804 264)"><g clip-path="url(#clip21)"><path d="M9.23987 70.7769C9.23987 36.5352 36.9982 8.77686 71.2399 8.77686 105.482 8.77686 133.24 36.5352 133.24 70.7769 133.24 105.019 105.482 132.777 71.2399 132.777 36.9982 132.777 9.23987 105.019 9.23987 70.7769Z" fill="#FF0000" fill-rule="evenodd"/></g></g><path d="M806 329C806 294.758 833.758 267 868 267 902.242 267 930 294.758 930 329 930 363.242 902.242 391 868 391 833.758 391 806 363.242 806 329Z" fill="url(#fill22)" fill-rule="evenodd"/><g clip-path="url(#clip23)" filter="url(#fx4)" transform="translate(777 420)"><g clip-path="url(#clip24)"><path d="M9.23987 70.7769C9.23987 36.5352 36.7744 8.77686 70.7399 8.77686 104.705 8.77686 132.24 36.5352 132.24 70.7769 132.24 105.019 104.705 132.777 70.7399 132.777 36.7744 132.777 9.23987 105.019 9.23987 70.7769Z" fill="#FF0000" fill-rule="evenodd"/></g></g><path d="M779 485C779 450.758 806.534 423 840.5 423 874.466 423 902 450.758 902 485 902 519.242 874.466 547 840.5 547 806.534 547 779 519.242 779 485Z" fill="url(#fill25)" fill-rule="evenodd"/><g clip-path="url(#clip26)" filter="url(#fx5)" transform="translate(655 522)"><g clip-path="url(#clip27)"><path d="M9.23987 70.7769C9.23987 36.5352 36.9982 8.77686 71.2399 8.77686 105.482 8.77686 133.24 36.5352 133.24 70.7769 133.24 105.019 105.482 132.777 71.2399 132.777 36.9982 132.777 9.23987 105.019 9.23987 70.7769Z" fill="#FF0000" fill-rule="evenodd"/></g></g><path d="M657 587C657 552.758 684.758 525 719 525 753.242 525 781 552.758 781 587 781 621.242 753.242 649 719 649 684.758 649 657 621.242 657 587Z" fill="url(#fill28)" fill-rule="evenodd"/><g clip-path="url(#clip29)" filter="url(#fx6)" transform="translate(497 522)"><g clip-path="url(#clip30)"><path d="M9.23984 70.7769C9.23984 36.5352 36.7743 8.77686 70.7398 8.77686 104.705 8.77686 132.24 36.5352 132.24 70.7769 132.24 105.019 104.705 132.777 70.7398 132.777 36.7743 132.777 9.23984 105.019 9.23984 70.7769Z" fill="#FF0000" fill-rule="evenodd"/></g></g><path d="M499 587C499 552.758 526.534 525 560.5 525 594.466 525 622 552.758 622 587 622 621.242 594.466 649 560.5 649 526.534 649 499 621.242 499 587Z" fill="url(#fill31)" fill-rule="evenodd"/><g clip-path="url(#clip32)" filter="url(#fx7)" transform="translate(375 421)"><g clip-path="url(#clip33)"><path d="M9.23984 70.2769C9.23984 36.3113 36.9982 8.77686 71.2398 8.77686 105.481 8.77686 133.24 36.3113 133.24 70.2769 133.24 104.242 105.481 131.777 71.2398 131.777 36.9982 131.777 9.23984 104.242 9.23984 70.2769Z" fill="#FF0000" fill-rule="evenodd"/></g></g><path d="M377 485.5C377 451.534 404.758 424 439 424 473.242 424 501 451.534 501 485.5 501 519.466 473.242 547 439 547 404.758 547 377 519.466 377 485.5Z" fill="url(#fill34)" fill-rule="evenodd"/><g clip-path="url(#clip35)" filter="url(#fx8)" transform="translate(347 264)"><g clip-path="url(#clip36)"><path d="M9.23984 70.7769C9.23984 36.5352 36.9982 8.77686 71.2398 8.77686 105.481 8.77686 133.24 36.5352 133.24 70.7769 133.24 105.019 105.481 132.777 71.2398 132.777 36.9982 132.777 9.23984 105.019 9.23984 70.7769Z" fill="#FF0000" fill-rule="evenodd"/></g></g><path d="M349 329C349 294.758 376.758 267 411 267 445.242 267 473 294.758 473 329 473 363.242 445.242 391 411 391 376.758 391 349 363.242 349 329Z" fill="url(#fill37)" fill-rule="evenodd"/><g clip-path="url(#clip38)" filter="url(#fx9)" transform="translate(427 126)"><g clip-path="url(#clip39)"><path d="M9.23984 70.7769C9.23984 36.5352 36.7743 8.77686 70.7398 8.77686 104.705 8.77686 132.24 36.5352 132.24 70.7769 132.24 105.019 104.705 132.777 70.7398 132.777 36.7743 132.777 9.23984 105.019 9.23984 70.7769Z" fill="#FF0000" fill-rule="evenodd"/></g></g><path d="M429 191C429 156.758 456.534 129 490.5 129 524.466 129 552 156.758 552 191 552 225.242 524.466 253 490.5 253 456.534 253 429 225.242 429 191Z" fill="url(#fill40)" fill-rule="evenodd"/><g clip-path="url(#clip41)"><g clip-path="url(#clip42)"><g clip-path="url(#clip43)"><path d="M713.758 365.471 672.878 354.596 693.612 318.145 655.216 335.762 647.371 294.679 629.427 332.545 596.674 306.053 607.576 346.449 565.241 346.944 599.889 370.97 567.781 398.22 609.963 394.633 603.105 435.888 633.083 406.366 654.684 442.322 658.432 400.679 698.385 414.512 674.148 380.233Z" fill="#EB874B"/><path d="M671.647 366.262 653.531 361.443 662.719 345.29 645.703 353.097 642.227 334.891 634.275 351.671 619.76 339.931 624.592 357.833 605.83 358.052 621.185 368.699 606.956 380.775 625.649 379.185 622.61 397.468 635.895 384.385 645.468 400.319 647.128 381.865 664.834 387.995 654.093 372.804Z" fill="#FFDC64"/><path d="M651.178 368.024 644.749 366.314 648.009 360.582 641.971 363.352 640.738 356.891 637.916 362.846 632.765 358.68 634.48 365.033 627.822 365.111 633.271 368.889 628.221 373.174 634.855 372.61 633.777 379.098 638.491 374.455 641.888 380.109 642.477 373.561 648.76 375.736 644.949 370.346Z" fill="#FFF082"/><path d="M714.335 363.305 676.264 353.177 695.56 319.253C696.041 318.407 695.921 317.348 695.264 316.631 694.607 315.913 693.561 315.703 692.677 316.108L656.881 332.532 649.573 294.259C649.391 293.306 648.617 292.579 647.655 292.456 646.694 292.331 645.761 292.843 645.346 293.719L628.621 329.011 598.083 304.31C597.328 303.699 596.265 303.644 595.451 304.175 594.637 304.705 594.257 305.699 594.51 306.637L604.659 344.242 565.215 344.703C564.24 344.714 563.384 345.355 563.098 346.288 562.813 347.22 563.163 348.23 563.964 348.786L596.215 371.149 566.331 396.511C565.588 397.141 565.337 398.181 565.712 399.081 566.086 399.981 566.996 400.536 567.971 400.453L607.279 397.11 600.894 435.52C600.735 436.478 601.211 437.429 602.072 437.877 602.934 438.324 603.985 438.165 604.678 437.484L632.628 409.96 652.763 443.476C653.175 444.16 653.91 444.563 654.684 444.563 654.851 444.563 655.019 444.544 655.186 444.506 656.132 444.289 656.83 443.489 656.917 442.522L660.408 403.735 697.652 416.63C698.572 416.949 699.592 416.637 700.177 415.858 700.762 415.08 700.777 414.013 700.215 413.218L677.659 381.317 714.541 367.571C715.456 367.23 716.045 366.337 715.997 365.362 715.95 364.388 715.278 363.556 714.335 363.305ZM673.365 378.134C672.714 378.377 672.212 378.908 672.006 379.573 671.801 380.237 671.916 380.96 672.318 381.527L692.53 410.113 659.165 398.561C658.514 398.335 657.795 398.422 657.215 398.797 656.636 399.171 656.262 399.791 656.2 400.478L653.069 435.279 635.005 405.212C634.651 404.623 634.047 404.229 633.365 404.143 633.272 404.131 633.177 404.125 633.084 404.125 632.499 404.125 631.933 404.354 631.511 404.769L606.448 429.451 612.174 395C612.288 394.318 612.08 393.621 611.61 393.113 611.141 392.604 610.46 392.34 609.773 392.4L574.576 395.393 601.34 372.679C601.871 372.228 602.162 371.556 602.128 370.861 602.094 370.166 601.739 369.525 601.167 369.128L572.288 349.103 607.602 348.691C608.295 348.683 608.945 348.354 609.363 347.802 609.782 347.249 609.92 346.535 609.74 345.866L600.639 312.142 628.017 334.287C628.551 334.72 629.255 334.883 629.924 334.73 630.595 334.577 631.158 334.125 631.452 333.504L646.458 301.841 653.015 336.182C653.144 336.859 653.577 337.438 654.19 337.754 654.802 338.069 655.526 338.086 656.151 337.799L688.225 323.082 670.93 353.487C670.586 354.091 670.542 354.821 670.811 355.462 671.08 356.103 671.63 356.582 672.302 356.761L706.383 365.828 673.365 378.134Z"/><path d="M656.916 360.024 664.667 346.397C665.148 345.552 665.028 344.492 664.371 343.775 663.714 343.057 662.668 342.847 661.784 343.252L647.369 349.867 647.028 348.081C646.796 346.865 645.621 346.068 644.406 346.3 643.191 346.532 642.393 347.706 642.625 348.922L643.503 353.516C643.632 354.193 644.065 354.773 644.677 355.088 645.29 355.404 646.013 355.421 646.639 355.133L657.332 350.227 651.583 360.334C651.239 360.938 651.195 361.668 651.464 362.308 651.733 362.949 652.283 363.429 652.955 363.608L664.272 366.619 653.311 370.704C652.659 370.947 652.157 371.478 651.952 372.143 651.747 372.808 651.862 373.53 652.264 374.098L658.979 383.595 647.862 379.746C647.211 379.52 646.491 379.607 645.913 379.982 645.333 380.356 644.959 380.976 644.897 381.663L643.852 393.276 637.817 383.23C637.463 382.641 636.859 382.247 636.178 382.161 635.497 382.075 634.813 382.305 634.323 382.788L625.953 391.031 626.235 389.334C626.438 388.113 625.612 386.959 624.391 386.756 623.169 386.553 622.016 387.378 621.813 388.599L620.4 397.1C620.241 398.057 620.716 399.009 621.578 399.456 622.44 399.903 623.491 399.745 624.183 399.064L635.44 387.978 643.547 401.472C643.958 402.156 644.694 402.56 645.468 402.56 645.635 402.56 645.803 402.541 645.97 402.502 646.915 402.286 647.614 401.485 647.701 400.519L649.105 384.92 664.101 390.112C665.021 390.43 666.042 390.119 666.626 389.34 667.211 388.562 667.227 387.495 666.665 386.7L657.605 373.887 672.43 368.361C673.345 368.021 673.933 367.127 673.886 366.153 673.839 365.178 673.167 364.346 672.224 364.095L656.916 360.024Z"/><path d="M627.882 378.996C627.777 377.762 626.698 376.847 625.459 376.953L613.751 377.948 622.635 370.408C623.166 369.957 623.457 369.286 623.423 368.59 623.39 367.895 623.034 367.254 622.462 366.858L612.877 360.211 624.617 360.074C625.31 360.066 625.96 359.738 626.378 359.185 626.797 358.633 626.935 357.918 626.755 357.249L623.725 346.02 632.865 353.413C633.4 353.846 634.104 354.009 634.773 353.856 635.443 353.703 636.006 353.252 636.3 352.63L644.252 335.85C644.782 334.732 644.305 333.395 643.187 332.865 642.069 332.336 640.732 332.812 640.202 333.93L633.469 348.137 621.17 338.188C620.414 337.577 619.352 337.522 618.537 338.052 617.723 338.583 617.343 339.577 617.596 340.514L621.674 355.625 605.804 355.811C604.829 355.822 603.974 356.463 603.688 357.395 603.402 358.328 603.752 359.338 604.554 359.893L617.51 368.878 605.506 379.066C604.763 379.696 604.512 380.736 604.887 381.636 605.237 382.477 606.057 383.016 606.955 383.016 607.018 383.016 607.082 383.013 607.146 383.008L625.839 381.418C627.073 381.314 627.988 380.229 627.882 378.996Z"/></g></g></g><g clip-path="url(#clip44)"><g clip-path="url(#clip45)"><g clip-path="url(#clip46)"><path d="M497.859 156.997 505.102 160.422 511.114 156.997 511.114 151.198C511.114 150.684 510.69 150.26 510.171 150.26L498.801 150.26C498.282 150.26 497.859 150.684 497.859 151.198Z" fill="#375E7D" fill-rule="evenodd"/><path d="M468.83 227.217 492.672 230.297 515.17 227.217 515.17 216.718 492.504 212.996 468.83 216.718Z" fill="#375E7D" fill-rule="evenodd"/><path d="M468.83 210.195 492.672 214.004 515.17 210.195 515.17 180.537 492.504 175.707 468.83 180.537 468.83 195.645 468.83 201.616 468.83 210.195Z" fill="#375E7D" fill-rule="evenodd"/><path d="M468.83 174.014 492.504 179.402 515.17 174.014 515.17 169.491 515.17 163.52 492.336 160.59 468.83 163.52 468.83 169.491Z" fill="#375E7D" fill-rule="evenodd"/><path d="M467.016 227.769C466.144 228.355 465.568 229.355 465.568 230.479 465.568 232.269 467.035 233.74 468.83 233.74L515.17 233.74C516.965 233.74 518.432 232.269 518.432 230.479 518.432 229.355 517.856 228.355 516.984 227.769 516.465 227.422 515.842 227.217 515.17 227.217L468.83 227.217C468.158 227.217 467.535 227.422 467.016 227.769Z" fill="#F9F7F8" fill-rule="evenodd"/><path d="M468.83 216.718 515.17 216.718C516.965 216.718 518.432 215.252 518.432 213.457 518.432 211.662 516.965 210.196 515.17 210.196L468.83 210.196C467.035 210.196 465.568 211.662 465.568 213.457 465.568 215.252 467.035 216.718 468.83 216.718Z" fill="#F9F7F8" fill-rule="evenodd"/><path d="M485.708 198.144C485.708 202.253 488.855 204.31 492.002 204.31 495.145 204.31 498.292 202.253 498.292 198.144 498.292 194.973 494.216 189.441 492.512 186.879 492.107 186.27 491.893 186.27 491.488 186.879 489.784 189.441 485.708 194.973 485.708 198.144Z" fill="#FFD772" fill-rule="evenodd"/><path d="M468.83 180.537 515.17 180.537C516.965 180.537 518.432 179.071 518.432 177.276 518.432 175.485 516.965 174.014 515.17 174.014L468.83 174.014C467.035 174.014 465.568 175.485 465.568 177.276 465.568 179.071 467.035 180.537 468.83 180.537Z" fill="#F9F7F8" fill-rule="evenodd"/><path d="M468.83 163.52 515.17 163.52C516.965 163.52 518.432 162.054 518.432 160.259 518.432 158.464 516.965 156.997 515.17 156.997L511.114 156.997 492.002 156.997 468.83 156.997C467.035 156.997 465.568 158.464 465.568 160.259 465.568 162.054 467.035 163.52 468.83 163.52Z" fill="#F9F7F8" fill-rule="evenodd"/><path d="M510.057 160.259C510.057 162.054 508.586 163.52 506.796 163.52L515.17 163.52C516.965 163.52 518.432 162.054 518.432 160.259 518.432 158.464 516.965 156.997 515.17 156.997L511.114 156.997 506.795 156.997C508.586 156.997 510.057 158.464 510.057 160.259Z" fill="#E5E4EC" fill-rule="evenodd"/><path d="M515.17 163.52 506.796 163.52 506.796 169.491 506.796 174.014 515.17 174.014 515.17 169.491Z" fill="#2B4D66" fill-rule="evenodd"/><path d="M518.432 177.276C518.432 175.485 516.965 174.014 515.17 174.014L506.796 174.014C508.586 174.014 510.057 175.485 510.057 177.276 510.057 179.071 508.586 180.537 506.796 180.537L515.17 180.537C516.965 180.537 518.432 179.071 518.432 177.276Z" fill="#E5E4EC" fill-rule="evenodd"/><path d="M515.17 195.645 515.17 180.537 506.796 180.537 506.796 210.195 515.17 210.195 515.17 201.616Z" fill="#2B4D66" fill-rule="evenodd"/><path d="M515.17 210.195 506.796 210.195C508.586 210.195 510.057 211.662 510.057 213.457 510.057 215.252 508.586 216.718 506.796 216.718L515.17 216.718C516.965 216.718 518.432 215.252 518.432 213.457 518.432 211.662 516.965 210.195 515.17 210.195Z" fill="#E5E4EC" fill-rule="evenodd"/><path d="M506.796 216.718 515.17 216.718 515.17 227.217 506.796 227.217Z" fill="#2B4D66" fill-rule="evenodd"/><path d="M515.17 227.217 506.796 227.217C507.462 227.217 508.086 227.422 508.605 227.769 509.481 228.355 510.057 229.355 510.057 230.479 510.057 232.269 508.586 233.74 506.795 233.74L515.17 233.74C516.965 233.74 518.432 232.269 518.432 230.479 518.432 229.355 517.856 228.355 516.984 227.769 516.465 227.422 515.842 227.217 515.17 227.217Z" fill="#E5E4EC" fill-rule="evenodd"/><path d="M492.002 204.31C495.145 204.31 498.292 202.253 498.292 198.144 498.292 194.973 494.216 189.441 492.512 186.879 492.107 186.27 491.893 186.27 491.488 186.879 491.007 187.603 490.336 188.565 489.622 189.645 491.436 192.383 493.531 195.868 493.531 198.144 493.531 201.192 491.798 203.115 489.622 203.901 490.379 204.172 491.188 204.31 492.002 204.31Z" fill="#FBBA58" fill-rule="evenodd"/><path d="M506.515 151.198 506.515 156.997 506.795 156.997 511.114 156.997 511.114 151.198C511.114 150.684 510.69 150.26 510.171 150.26L505.572 150.26C506.091 150.26 506.515 150.684 506.515 151.198Z" fill="#2B4D66" fill-rule="evenodd"/><path d="M494.275 187.237C494.01 186.847 493.768 186.492 493.561 186.182 493.376 185.903 492.884 185.162 492 185.162 491.117 185.162 490.625 185.902 490.439 186.181 490.232 186.492 489.99 186.848 489.724 187.238 487.055 191.152 484.448 195.219 484.448 198.144 484.448 203.019 488.249 205.57 492.002 205.57 495.754 205.57 499.552 203.019 499.552 198.144 499.552 195.219 496.945 191.152 494.275 187.237ZM492.002 203.051C489.496 203.051 486.968 201.534 486.968 198.144 486.968 195.751 490.115 191.136 491.806 188.657 491.872 188.56 491.937 188.465 492 188.372 492.063 188.465 492.128 188.559 492.194 188.656 493.884 191.136 497.032 195.751 497.032 198.144 497.032 201.534 494.506 203.051 492.002 203.051Z"/><path d="M519.692 177.276C519.692 175.22 518.312 173.481 516.43 172.934L516.43 164.6C518.312 164.053 519.692 162.314 519.692 160.259 519.692 157.766 517.663 155.737 515.17 155.737L512.374 155.737 512.374 151.198C512.374 149.986 511.386 149 510.171 149L498.802 149C497.587 149 496.599 149.986 496.599 151.198L496.599 155.737 468.83 155.737C466.337 155.737 464.308 157.765 464.308 160.258 464.308 162.314 465.688 164.053 467.57 164.6L467.57 172.934C465.688 173.481 464.308 175.22 464.308 177.275 464.308 179.331 465.688 181.07 467.57 181.617L467.57 209.115C465.688 209.662 464.308 211.401 464.308 213.457 464.308 215.512 465.688 217.251 467.57 217.798L467.57 226.137C465.688 226.684 464.308 228.423 464.308 230.478 464.308 232.971 466.337 234.999 468.83 234.999L515.17 234.999C517.663 234.999 519.692 232.971 519.692 230.478 519.692 228.423 518.312 226.684 516.43 226.137L516.43 217.798C518.312 217.251 519.692 215.513 519.692 213.457 519.692 211.401 518.312 209.663 516.43 209.116L516.43 181.617C518.312 181.07 519.692 179.331 519.692 177.276ZM470.089 208.936 470.089 181.797 513.911 181.797 513.911 208.936ZM499.119 151.52 509.854 151.52 509.854 155.737 499.119 155.737ZM466.828 160.259C466.828 159.155 467.726 158.257 468.83 158.257L515.17 158.257C516.274 158.257 517.172 159.155 517.172 160.259 517.172 161.362 516.274 162.26 515.17 162.26L495.483 162.26C494.787 162.26 494.223 162.824 494.223 163.52 494.223 164.216 494.787 164.78 495.483 164.78L513.911 164.78 513.911 172.754 470.089 172.754 470.089 164.78 489.665 164.78C490.36 164.78 490.924 164.216 490.924 163.52 490.924 162.824 490.36 162.26 489.665 162.26L468.83 162.26C467.726 162.26 466.828 161.362 466.828 160.259ZM466.828 177.276C466.828 176.172 467.726 175.274 468.83 175.274L515.17 175.274C516.274 175.274 517.172 176.172 517.172 177.276 517.172 178.379 516.274 179.277 515.17 179.277L468.83 179.277C467.726 179.277 466.828 178.379 466.828 177.276ZM517.172 230.479C517.172 231.583 516.274 232.48 515.17 232.48L468.83 232.48C467.726 232.48 466.828 231.583 466.828 230.479 466.828 229.375 467.726 228.477 468.83 228.477L489.665 228.477C490.36 228.477 490.924 227.913 490.924 227.217 490.924 226.522 490.36 225.958 489.665 225.958L470.089 225.958 470.089 217.978 513.911 217.978 513.911 225.958 495.483 225.958C494.787 225.958 494.223 226.522 494.223 227.217 494.223 227.913 494.787 228.477 495.483 228.477L515.17 228.477C516.274 228.477 517.172 229.375 517.172 230.479ZM517.172 213.457C517.172 214.561 516.274 215.459 515.17 215.459L468.83 215.459C467.726 215.459 466.828 214.561 466.828 213.457 466.828 212.353 467.726 211.455 468.83 211.455L515.17 211.455C516.274 211.455 517.172 212.353 517.172 213.457Z"/></g></g></g><g clip-path="url(#clip47)"><g clip-path="url(#clip48)"><g clip-path="url(#clip49)"><path d="M373.106 333.031C376.842 333.649 378.763 338.138 384.112 338.138 390.83 338.138 390.83 333.3 397.549 333.3 404.268 333.3 404.268 338.138 410.987 338.138 417.705 338.138 417.705 333.3 424.424 333.3 431.143 333.3 431.143 338.138 437.875 338.138 443.223 338.138 445.145 333.649 448.88 333.031L449.969 333.031 449.969 367.969 372.031 367.969 372.031 333.031Z" fill="#4A80AA"/><path d="M431.156 310.188C431.156 321.319 422.132 330.344 411 330.344 399.868 330.344 390.844 321.319 390.844 310.188 390.844 299.056 399.868 290.031 411 290.031 422.132 290.031 431.156 299.056 431.156 310.188Z" fill="#898890"/><path d="M428.469 343.781C428.314 343.781 428.169 343.816 428.017 343.827 427.569 342.537 426.799 341.382 425.781 340.472L425.781 310.188C425.781 302.024 419.163 295.406 411 295.406 402.837 295.406 396.219 302.024 396.219 310.188L396.219 339.884C392.578 340.601 390.207 344.133 390.923 347.774 391.639 351.414 395.171 353.785 398.812 353.069 399.808 352.873 400.747 352.454 401.557 351.844L414.409 351.844C416.52 354.208 419.821 355.113 422.842 354.155 424.861 357.269 429.022 358.156 432.135 356.138 435.249 354.119 436.136 349.959 434.118 346.845 432.877 344.931 430.75 343.777 428.469 343.781Z" fill="#235182"/><path d="M425.096 305.726C422.635 297.943 414.33 293.628 406.546 296.089 401.687 297.625 397.961 301.557 396.689 306.492L396.689 306.506Z" fill="#2D2D30"/><path d="M396.689 306.492 396.689 306.506C397.266 306.754 397.889 306.873 398.517 306.855 401.016 306.855 401.016 305.457 403.515 305.457 406.015 305.457 406.001 306.855 408.501 306.855 411 306.855 410.987 305.457 413.486 305.457 415.985 305.457 415.985 306.855 418.471 306.855 420.957 306.855 420.971 305.457 423.47 305.457 424.024 305.444 424.576 305.535 425.096 305.726Z" fill="#2D2D30"/><path d="M372.031 348.108 372.031 367.969 449.969 367.969 449.969 350.204C447.362 349.197 446.099 347.436 441.705 347.436 435.564 347.436 435.564 350.876 429.409 350.876 423.255 350.876 423.268 347.436 417.128 347.436 410.987 347.436 410.987 350.876 404.846 350.876 398.705 350.876 398.705 347.436 392.564 347.436 386.423 347.436 386.423 350.876 380.282 350.876 375.888 350.876 374.638 349.116 372.031 348.108Z" fill="#365E7D"/><path d="M449.969 331.688 448.88 331.688C448.808 331.685 448.736 331.69 448.665 331.701 446.886 332.125 445.241 332.989 443.882 334.214 442.254 335.767 440.122 336.682 437.875 336.794 435.697 336.827 433.582 336.056 431.936 334.63 430.523 333.498 428.882 332.687 427.125 332.252L427.125 324.364C430.594 320.457 432.507 315.412 432.5 310.188 432.5 298.313 422.874 288.688 411 288.688 399.126 288.688 389.5 298.313 389.5 310.188 389.493 315.412 391.406 320.457 394.875 324.364L394.875 332.238C393.106 332.669 391.454 333.486 390.038 334.63 388.394 336.053 386.285 336.823 384.112 336.794 381.865 336.682 379.733 335.767 378.105 334.214 376.746 332.989 375.101 332.125 373.321 331.701 373.25 331.69 373.178 331.685 373.106 331.688L372.031 331.688C371.289 331.688 370.688 332.289 370.688 333.031L370.688 367.969C370.688 368.711 371.289 369.313 372.031 369.313L449.969 369.313C450.711 369.313 451.313 368.711 451.313 367.969L451.313 333.031C451.313 332.289 450.711 331.688 449.969 331.688ZM392.188 310.188C392.188 299.798 400.61 291.375 411 291.375 421.39 291.375 429.813 299.798 429.813 310.188 429.817 313.593 428.888 316.935 427.125 319.849L427.125 310.188C427.125 301.282 419.906 294.063 411 294.063 402.094 294.063 394.875 301.282 394.875 310.188L394.875 319.849C393.112 316.935 392.183 313.593 392.188 310.188ZM422.986 304.154C422.04 304.207 421.121 304.493 420.312 304.987 419.189 305.686 417.767 305.686 416.644 304.987 414.7 303.823 412.272 303.823 410.328 304.987 409.205 305.686 407.783 305.686 406.66 304.987 404.72 303.823 402.297 303.823 400.357 304.987 399.812 305.347 399.169 305.529 398.517 305.511L398.422 305.511C400.988 298.566 408.698 295.015 415.644 297.581 418.837 298.76 421.462 301.11 422.986 304.154ZM396.487 341.201C397.113 341.074 397.563 340.523 397.563 339.884L397.563 310.188C397.566 309.499 397.625 308.811 397.737 308.132 397.996 308.168 398.256 308.191 398.517 308.199 399.632 308.22 400.729 307.916 401.674 307.325 402.797 306.627 404.22 306.627 405.343 307.325 407.282 308.49 409.706 308.49 411.645 307.325 412.773 306.626 414.199 306.626 415.327 307.325 417.266 308.49 419.69 308.49 421.629 307.325 422.174 306.966 422.817 306.783 423.47 306.801 423.646 306.8 423.821 306.813 423.994 306.842 424.285 307.933 424.434 309.058 424.438 310.188L424.438 340.476C424.438 340.859 424.599 341.224 424.881 341.483 425.733 342.226 426.373 343.181 426.735 344.252 426.92 344.799 427.434 345.167 428.012 345.165 428.165 345.164 428.318 345.151 428.469 345.125 430.748 345.112 432.783 346.548 433.535 348.699 432.242 349.292 430.83 349.577 429.409 349.533 427.467 349.585 425.555 349.046 423.927 347.987 421.895 346.702 419.531 346.043 417.128 346.092 414.724 346.043 412.36 346.702 410.328 347.987 408.7 349.046 406.788 349.585 404.846 349.533 402.904 349.585 400.992 349.046 399.363 347.987 397.332 346.702 394.967 346.043 392.564 346.092 392.443 346.092 392.335 346.106 392.214 346.106 392.379 343.698 394.125 341.694 396.487 341.201ZM373.375 334.469C374.514 334.905 375.566 335.542 376.479 336.35 378.571 338.266 381.277 339.376 384.112 339.481 386.85 339.513 389.51 338.565 391.61 336.807 392.585 336.021 393.69 335.411 394.875 335.007L394.875 338.863C391.678 340.006 389.533 343.02 389.5 346.415 388.183 346.748 386.923 347.278 385.764 347.987 384.136 349.046 382.224 349.585 380.282 349.533 378.338 349.584 376.425 349.04 374.799 347.974 374.342 347.732 373.872 347.477 373.375 347.248ZM448.625 366.625 373.375 366.625 373.375 350.272C373.413 350.284 373.45 350.302 373.483 350.325 375.514 351.61 377.879 352.269 380.282 352.22 382.685 352.269 385.05 351.61 387.081 350.325 388.71 349.266 390.622 348.727 392.564 348.78 394.506 348.727 396.418 349.266 398.046 350.325 400.078 351.61 402.442 352.269 404.846 352.22 407.249 352.269 409.613 351.61 411.645 350.325 413.273 349.266 415.186 348.727 417.128 348.78 419.069 348.727 420.982 349.266 422.61 350.325 426.796 352.852 432.037 352.852 436.222 350.325 439.596 348.26 443.845 348.265 447.214 350.339 447.658 350.581 448.114 350.849 448.625 351.091ZM448.625 348.041C448.587 348.029 448.55 348.01 448.517 347.987 446.481 346.703 444.112 346.044 441.705 346.092 439.685 346.041 437.687 346.508 435.9 347.45 434.742 344.56 432.008 342.608 428.899 342.451 428.46 341.503 427.86 340.639 427.125 339.898L427.125 335.02C428.299 335.426 429.394 336.031 430.363 336.807 432.466 338.569 435.132 339.518 437.875 339.481 440.71 339.376 443.415 338.266 445.508 336.35 446.428 335.544 447.483 334.907 448.625 334.469Z"/><path d="M402.938 314.219 405.625 314.219 405.625 319.594 402.938 319.594Z"/><path d="M408.313 326.313 411 326.313 411 331.688 408.313 331.688Z"/><path d="M415.031 314.219 417.719 314.219 417.719 319.594 415.031 319.594Z"/><path d="M381.438 361.25 390.844 361.25 390.844 363.938 381.438 363.938Z"/><path d="M396.219 357.219 405.625 357.219 405.625 359.906 396.219 359.906Z"/><path d="M416.375 353.188 423.094 353.188 423.094 355.875 416.375 355.875Z"/><path d="M429.813 359.906 436.531 359.906 436.531 362.594 429.813 362.594Z"/><path d="M439.219 353.188 444.594 353.188 444.594 355.875 439.219 355.875Z"/></g></g></g><g clip-path="url(#clip50)"><g clip-path="url(#clip51)"><g clip-path="url(#clip52)"><path d="M31.4203 60.5882 31.4203 42.777 31.4203 35.8075 8.47518 35.8075 8.47518 78.8296 31.4203 78.8296Z" fill="#E6E7E8" transform="matrix(-1 0 0 1 483 443)"/><path d="M34.2884 81.6977C34.2884 80.113 33.005 78.8294 31.4203 78.8294L8.47518 78.8294C6.89057 78.8294 5.60712 80.1129 5.60712 81.6977L5.60712 84.5659 34.2886 84.5659 34.2886 81.6977Z" fill="#0A87EB" transform="matrix(-1 0 0 1 483 443)"/><path d="M31.4203 23.658C31.4188 22.3702 32.2765 21.2401 33.5169 20.8931L55.9515 14.6262C60.519 13.3498 63.1936 8.61745 61.9286 4.04569L61.2117 1.43277 15.2828 11.2374C11.3133 12.085 8.47518 15.5927 8.47518 19.6511L8.47518 35.8073 31.4203 35.8073 31.4203 23.658Z" fill="#BCBEC0" transform="matrix(-1 0 0 1 483 443)"/><path d="M80.3939 47.4664 78.9067 41.9222C77.2646 35.803 70.972 32.1733 64.8528 33.8154L31.4203 42.7769 31.4203 60.5881 80.3939 47.4664Z" fill="#E6E7E8" transform="matrix(-1 0 0 1 483 443)"/><path d="M78.3647 50.9856 77.6217 48.215 60.9994 52.6692 61.7423 55.4398C62.1525 56.97 63.7257 57.8777 65.2557 57.4675L65.2557 57.4675 76.3368 54.4975C77.8656 54.0875 78.7733 52.5158 78.3647 50.9856Z" fill="#ACABB1" transform="matrix(-1 0 0 1 483 443)"/><path d="M73.0085 84.5659C76.968 84.5659 80.1789 81.355 80.1789 77.3955 80.1789 73.436 73.0085 63.0548 73.0085 63.0548 73.0085 63.0548 65.8381 73.4361 65.8381 77.3955 65.8381 81.3563 69.0475 84.5659 73.0085 84.5659Z" fill="#0A87EB" transform="matrix(-1 0 0 1 483 443)"/><path d="M81.7791 47.0936 80.2906 41.5524C78.4377 34.673 71.3664 30.5933 64.4843 32.4302L32.8543 40.9084 32.8543 23.6565C32.8543 23.0127 33.2831 22.449 33.9026 22.2755L56.3358 16.0072C61.6619 14.5115 64.7782 8.99454 63.3112 3.66138L62.5871 1.0498C62.3835 0.319812 61.6478-0.126144 60.9064 0.0315781L14.983 9.83506C10.3623 10.8417 7.05971 14.9232 7.04107 19.6513L7.04107 77.6595C5.3288 78.2647 4.18006 79.8809 4.17301 81.6978L4.17301 84.5661C4.17301 85.3577 4.81549 86.0002 5.60712 86.0002L34.2886 86.0002C35.0802 86.0002 35.7227 85.3577 35.7227 84.5661L35.7227 81.6978C35.7155 79.8809 34.5669 78.2647 32.8546 77.6595L32.8546 61.6881 59.9844 54.4203 60.3573 55.8099C60.9653 58.1015 63.3157 59.4654 65.6075 58.8573 65.6147 58.8558 65.6204 58.8529 65.6276 58.8516L76.7087 55.8844C79.0031 55.2692 80.3642 52.9087 79.7489 50.6143L79.7489 50.6143 79.376 49.2231 80.7641 48.8518C81.5285 48.6467 81.983 47.8608 81.7779 47.095 81.7778 47.095 81.7778 47.095 81.7791 47.0936L81.7791 47.0936ZM75.9654 53.1167 64.8844 56.0867C64.1199 56.2931 63.3327 55.8399 63.1262 55.0742L63.1262 55.0726 62.7562 53.6874 76.6094 49.976 76.9808 51.3612C77.1815 52.1256 76.7283 52.9072 75.9654 53.1123L75.9654 53.1167 75.9654 53.1167ZM9.9093 37.2415 29.9862 37.2415 29.9862 77.3955 9.9093 77.3955 9.9093 37.2415ZM9.9093 19.6511C9.92357 16.2724 12.2827 13.3584 15.5824 12.6384L60.1821 3.11766 60.5449 4.42698C61.5918 8.23583 59.3661 12.1767 55.5629 13.2465L55.5629 13.2465 33.1313 19.5147C31.2742 20.0368 29.9906 21.7276 29.9864 23.6563L29.9864 34.3732 9.9093 34.3732 9.9093 19.6511 9.9093 19.6511ZM32.8545 83.1318 7.04107 83.1318 7.04107 81.6977C7.04107 80.906 7.68355 80.2635 8.47518 80.2635L31.4203 80.2635C32.212 80.2635 32.8545 80.906 32.8545 81.6977L32.8545 83.1318ZM32.8545 43.8784 65.2258 35.1995C70.5792 33.7739 76.0761 36.9477 77.5201 42.2953L78.6373 46.454 32.8545 58.7211 32.8545 43.8784Z" fill="#231F20" transform="matrix(-1 0 0 1 483 443)"/><path d="M73.0085 60.5308 71.8282 62.2402C71.0681 63.3416 64.404 73.112 64.404 77.3955 64.404 82.148 68.2558 85.9998 73.0083 85.9998 77.7608 85.9998 81.6127 82.148 81.6127 77.3955 81.6127 73.112 74.9485 63.3416 74.1885 62.2402L73.0085 60.5308ZM73.0085 83.1318C69.8406 83.1318 67.2722 80.5634 67.2722 77.3955 67.2722 75.1912 70.4271 69.6113 73.0085 65.636 75.5898 69.6127 78.7448 75.1927 78.7448 77.3955 78.7448 80.5634 76.1762 83.1318 73.0085 83.1318Z" fill="#231F20" transform="matrix(-1 0 0 1 483 443)"/></g></g></g><g clip-path="url(#clip53)"><g clip-path="url(#clip54)"><g clip-path="url(#clip55)"><path d="M549.856 566.573 549.856 555.73 534.216 555.73 534.216 566.588C534.216 568.84 533.487 571.031 532.139 572.833L528.495 577.706C527.146 579.509 526.418 581.7 526.418 583.951L526.418 621.311C526.418 623.231 527.974 624.787 529.893 624.787L554.223 624.787C556.142 624.787 557.698 623.231 557.698 621.311L557.698 583.967C557.698 581.706 556.964 579.506 555.605 577.699L551.95 572.84C550.591 571.033 549.856 568.834 549.856 566.573Z" fill="#FFFFFF"/><path d="M555.605 577.699 551.95 572.84C550.591 571.033 549.856 568.834 549.856 566.573L549.856 555.73 546.381 555.73 546.381 566.573C546.381 568.834 547.116 571.033 548.474 572.84L552.129 577.699C553.488 579.506 554.223 581.706 554.223 583.967L554.223 621.311C554.223 623.231 552.667 624.787 550.747 624.787L554.223 624.787C556.142 624.787 557.698 623.231 557.698 621.311L557.698 583.967C557.698 581.706 556.963 579.506 555.605 577.699Z" fill="#B6E6FA"/><path d="M587.719 566.573 587.719 555.73 572.079 555.73 572.079 566.588C572.079 568.84 571.35 571.031 570.002 572.833L566.357 577.706C565.009 579.509 564.28 581.7 564.28 583.951L564.28 621.311C564.28 623.231 565.836 624.787 567.756 624.787L592.085 624.787C594.005 624.787 595.561 623.231 595.561 621.311L595.561 583.967C595.561 581.706 594.826 579.506 593.467 577.699L589.813 572.84C588.454 571.033 587.719 568.834 587.719 566.573Z" fill="#FFFFFF"/><path d="M593.467 577.699 589.813 572.84C588.454 571.033 587.719 568.834 587.719 566.573L587.719 555.73 584.243 555.73 584.243 566.573C584.243 568.834 584.978 571.033 586.337 572.84L589.992 577.699C591.35 579.506 592.085 581.706 592.085 583.967L592.085 621.311C592.085 623.231 590.529 624.787 588.61 624.787L592.085 624.787C594.005 624.787 595.561 623.231 595.561 621.311L595.561 583.967C595.561 581.706 594.826 579.506 593.467 577.699Z" fill="#B6E6FA"/><path d="M552.485 555.73 531.631 555.73 531.631 550.94C531.631 549.981 532.409 549.203 533.369 549.203L550.747 549.203C551.707 549.203 552.485 549.981 552.485 550.94Z" fill="#B6E6FA"/><path d="M550.747 549.203 547.271 549.203C548.231 549.203 549.009 549.981 549.009 550.94L549.009 555.73 552.485 555.73 552.485 550.94C552.485 549.981 551.707 549.203 550.747 549.203Z" fill="#54C9F3"/><path d="M590.347 555.73 569.494 555.73 569.494 550.94C569.494 549.981 570.272 549.203 571.231 549.203L588.61 549.203C589.569 549.203 590.347 549.981 590.347 550.94Z" fill="#B6E6FA"/><path d="M588.61 549.203 585.134 549.203C586.094 549.203 586.872 549.981 586.872 550.94L586.872 555.73 590.347 555.73 590.347 550.94C590.347 549.981 589.569 549.203 588.61 549.203Z" fill="#54C9F3"/><path d="M519.303 588.303 602.697 588.303 602.697 603.075 519.303 603.075Z" fill="#DFBA7F"/><path d="M599.221 588.303 599.221 599.599 519.303 599.599 519.303 603.075 602.697 603.075 602.697 588.303Z" fill="#F69500"/><path d="M519.303 610.026 602.697 610.026 602.697 624.797 519.303 624.797Z" fill="#DFBA7F"/><path d="M599.221 610.026 599.221 621.322 519.303 621.322 519.303 624.797 602.697 624.797 602.697 610.026Z" fill="#F69500"/><path d="M604 604.378 604 587 596.864 587 596.864 583.967C596.864 581.44 596.028 578.936 594.509 576.916L590.854 572.057C589.673 570.486 589.022 568.538 589.022 566.573L589.022 557.034 591.651 557.034 591.651 550.94C591.651 549.264 590.286 547.899 588.609 547.899L571.231 547.899C569.554 547.899 568.19 549.264 568.19 550.94L568.19 557.034 570.775 557.034 570.775 566.588C570.775 568.545 570.13 570.486 568.958 572.053L565.313 576.926C563.806 578.94 562.977 581.436 562.977 583.951L562.977 587 559.001 587 559.001 583.967C559.001 581.44 558.165 578.936 556.646 576.916L552.992 572.057C551.81 570.486 551.16 568.538 551.16 566.573L551.16 557.034 553.788 557.034 553.788 550.94C553.788 549.264 552.424 547.899 550.747 547.899L540.222 547.899 540.222 550.506 550.747 550.506C550.986 550.506 551.181 550.701 551.181 550.94L551.181 554.427 551.16 554.427 532.934 554.427 532.934 550.94C532.934 550.701 533.129 550.506 533.369 550.506L537.616 550.506 537.616 547.899 533.369 547.899C531.692 547.899 530.328 549.264 530.328 550.94L530.328 557.034 532.913 557.034 532.913 566.588C532.913 568.545 532.267 570.486 531.095 572.053L527.451 576.926C525.944 578.94 525.114 581.436 525.114 583.951L525.114 587 518 587 518 604.378 525.114 604.378 525.114 608.723 518 608.723 518 626.101 604 626.101 604 608.723 596.864 608.723 596.864 604.378ZM570.797 550.94C570.797 550.701 570.992 550.506 571.231 550.506L588.61 550.506C588.849 550.506 589.044 550.701 589.044 550.94L589.044 554.427 589.022 554.427 570.797 554.427ZM586.416 557.034 586.416 560.944 573.382 560.944 573.382 557.034ZM535.519 557.034 548.553 557.034 548.553 560.944 535.519 560.944ZM527.721 583.951C527.721 581.995 528.366 580.054 529.538 578.487L533.183 573.614C534.69 571.599 535.519 569.104 535.519 566.588L535.519 563.55 548.553 563.55 548.553 566.573C548.553 569.1 549.389 571.604 550.908 573.624L554.563 578.483C555.744 580.054 556.395 582.001 556.395 583.967L556.395 587 527.721 587ZM601.393 611.329 601.393 623.494 520.607 623.494 520.607 611.329 547.977 611.329 547.977 608.723 527.721 608.723 527.721 604.378 556.395 604.378 556.395 608.723 550.562 608.723 550.562 611.329ZM559.002 608.723 559.002 604.378 562.977 604.378 562.977 608.723ZM565.584 608.723 565.584 604.378 594.257 604.378 594.257 608.723ZM520.607 601.771 520.607 589.607 576.629 589.607 576.629 587 565.583 587 565.583 583.951C565.583 581.995 566.229 580.054 567.401 578.487L571.045 573.614C572.552 571.599 573.382 569.104 573.382 566.588L573.382 563.55 586.415 563.55 586.415 566.573C586.415 569.1 587.252 571.604 588.771 573.624L592.425 578.483C593.607 580.054 594.257 582.001 594.257 583.967L594.257 587 579.236 587 579.236 589.607 601.393 589.607 601.393 601.771Z"/><path d="M525.769 594.762 528.318 594.762 528.318 597.369 525.769 597.369Z"/><path d="M525.769 615.674 528.318 615.674 528.318 618.281 525.769 618.281Z"/><path d="M593.718 594.762 596.267 594.762 596.267 597.369 593.718 597.369Z"/><path d="M593.718 615.674 596.267 615.674 596.267 618.281 593.718 618.281Z"/><path d="M582.075 620.887 579.468 620.887 579.468 618.281 582.075 618.281ZM576.861 620.887 574.254 620.887 574.254 618.281 576.861 618.281ZM571.648 620.887 569.041 620.887 569.041 618.281 571.648 618.281Z" fill="#FFFFFF"/></g></g></g><g clip-path="url(#clip56)"><g clip-path="url(#clip57)"><g clip-path="url(#clip58)"><path d="M746.284 628.74 735.367 628.74 735.367 564.02 746.284 564.02C746.748 564.02 747.124 564.396 747.124 564.86L747.124 627.9C747.124 628.364 746.749 628.74 746.284 628.74Z" fill="#EEA33E"/><path d="M746.284 628.74 739.853 628.74 739.853 564.02 746.284 564.02C746.748 564.02 747.124 564.396 747.124 564.86L747.124 627.9C747.124 628.364 746.749 628.74 746.284 628.74Z" fill="#DF862A"/><path d="M735.367 564.02 741.246 568.909 745.338 565.505C745.943 565.003 745.587 564.02 744.801 564.02L735.367 564.02Z" fill="#E2E8ED"/><path d="M705.668 564.02 705.668 550.923C705.668 550.459 705.292 550.083 704.828 550.083L697.716 550.083C697.252 550.083 696.876 549.707 696.876 549.243L696.876 546.1C696.876 545.636 697.252 545.26 697.716 545.26L707.852 545.26C709.244 545.26 710.373 546.388 710.373 547.78L710.373 564.02 705.668 564.02Z" fill="#49B76E"/><path d="M710.372 547.78 710.372 564.02 707.575 564.02 707.575 547.78C707.575 546.389 706.448 545.26 705.055 545.26L707.852 545.26C709.245 545.26 710.372 546.389 710.372 547.78Z" fill="#14802B"/><path d="M735.442 628.74 697.716 628.74C697.252 628.74 696.876 628.364 696.876 627.9L696.876 564.86C696.876 564.396 697.252 564.02 697.716 564.02L735.442 564.02 735.442 628.74Z" fill="#EEA33E"/><path d="M728.17 564.02 735.442 564.02 735.442 628.741 728.17 628.741Z" fill="#DF862A"/><path d="M696.876 577.589 747.125 577.589 747.125 615.173 696.876 615.173Z" fill="#E2E8ED"/><path d="M728.17 577.589 735.442 577.589 735.442 615.173 728.17 615.173Z" fill="#CFDDE8"/><path d="M739.852 577.589 747.123 577.589 747.123 615.173 739.852 615.173Z" fill="#CFDDE8"/><path d="M746.284 562.759 744.801 562.759 735.442 562.759 735.367 562.759 724.175 562.759C723.479 562.759 722.915 563.324 722.915 564.02 722.915 564.715 723.479 565.28 724.175 565.28L734.107 565.28 734.107 576.328 698.136 576.328 698.136 565.28 705.668 565.28 710.372 565.28 715.387 565.28C716.083 565.28 716.648 564.715 716.648 564.02 716.648 563.324 716.083 562.759 715.387 562.759L711.632 562.759 711.632 547.78C711.632 545.696 709.936 544 707.852 544L697.716 544C696.557 544 695.615 544.942 695.615 546.1L695.615 549.243C695.615 550.401 696.557 551.343 697.716 551.343L704.408 551.343 704.408 562.759 697.716 562.759C696.557 562.759 695.615 563.701 695.615 564.86L695.615 577.588 695.615 615.172 695.615 627.9C695.615 629.058 696.557 630 697.716 630L704.131 630C704.827 630 705.391 629.436 705.391 628.74 705.391 628.044 704.827 627.48 704.131 627.48L698.135 627.48 698.135 616.432 734.107 616.432 734.107 627.48 712.867 627.48C712.171 627.48 711.607 628.044 711.607 628.74 711.607 629.436 712.171 630 712.867 630L735.367 630 735.442 630 746.284 630C747.443 630 748.385 629.058 748.385 627.9L748.385 615.171 748.385 577.588 748.385 564.86C748.385 563.702 747.443 562.759 746.284 562.759ZM704.828 548.823 698.136 548.823 698.136 546.52 707.852 546.52C708.547 546.52 709.112 547.085 709.112 547.78L709.112 562.759 706.928 562.759 706.928 550.923C706.928 549.765 705.986 548.823 704.828 548.823ZM745.864 613.911 736.701 613.911 736.701 578.848 745.864 578.848 745.864 613.911ZM736.702 576.328 736.702 566.769 740.44 569.878C740.674 570.072 740.96 570.17 741.246 570.17 741.532 570.17 741.818 570.072 742.052 569.878L745.865 566.707 745.865 576.328 736.702 576.328 736.702 576.328ZM743.639 565.279 741.246 567.27 738.852 565.279C738.852 565.279 743.639 565.279 743.639 565.279ZM698.136 613.911 698.136 578.848 734.107 578.848 734.107 613.911 698.136 613.911 698.136 613.911ZM736.702 627.48 736.702 616.432 745.865 616.432 745.865 627.48 736.702 627.48Z"/><path d="M728.482 584.219C728.482 584.219 725.495 582.796 722.592 584.825 719.639 586.781 719.867 590.083 719.867 590.083 719.867 590.083 722.855 591.506 725.758 589.478 728.711 587.521 728.482 584.219 728.482 584.219Z" fill="#49B76E"/><path d="M725.758 589.477C722.855 591.506 719.868 590.083 719.868 590.083 719.868 590.083 719.84 589.676 719.93 589.065 721.023 589.341 723.019 589.543 724.977 588.175 726.894 586.904 727.469 585.068 727.638 583.935 728.165 584.069 728.482 584.22 728.482 584.22 728.482 584.22 728.711 587.521 725.758 589.477Z" fill="#14802B"/><path d="M727.201 599.192C727.201 604.622 722.799 609.024 717.369 609.024 711.938 609.024 707.537 604.622 707.537 599.192 707.537 593.761 711.938 589.359 717.369 589.359 722.799 589.359 727.201 593.761 727.201 599.192Z" fill="#EEA33E"/><path d="M727.2 599.021C727.295 604.451 722.971 608.929 717.54 609.024 713.511 609.094 710.008 606.732 708.429 603.291 709.849 604.044 711.474 604.458 713.194 604.428 718.624 604.333 722.949 599.854 722.854 594.425 722.83 593.024 722.513 591.695 721.962 590.497 725.024 592.116 727.136 595.31 727.2 599.021Z" fill="#DF862A"/><path d="M726.467 590.519C729.977 588.184 729.751 584.297 729.74 584.133 729.708 583.679 729.435 583.278 729.025 583.082 728.876 583.011 725.344 581.374 721.883 583.783 720.329 584.817 719.508 586.153 719.076 587.337L719.076 584.941C719.076 584.245 718.511 583.681 717.816 583.681 717.12 583.681 716.555 584.245 716.555 584.941L716.555 588.13C713.829 588.327 711.303 589.504 709.389 591.486 707.331 593.617 706.226 596.423 706.277 599.385 706.329 602.348 707.531 605.113 709.663 607.171 711.746 609.184 714.474 610.285 717.363 610.285 717.429 610.285 717.496 610.285 717.562 610.284 720.524 610.232 723.289 609.03 725.348 606.898 727.406 604.767 728.511 601.961 728.46 598.999 728.407 595.965 727.134 593.236 725.119 591.266 725.564 591.078 726.016 590.833 726.467 590.519ZM723.288 585.875C723.296 585.869 723.305 585.864 723.314 585.858 724.787 584.828 726.286 584.92 727.167 585.115 727.026 586.006 726.561 587.434 725.062 588.427 725.054 588.433 725.045 588.439 725.037 588.445 724.114 589.089 723.182 589.295 722.398 589.31 722.029 589.122 721.647 588.954 721.256 588.807 721.463 587.928 721.984 586.739 723.288 585.875ZM717.518 607.764C715.231 607.805 713.061 606.949 711.413 605.359 709.766 603.768 708.837 601.631 708.797 599.341 708.758 597.052 709.611 594.884 711.202 593.237 712.793 591.59 714.93 590.661 717.219 590.621 717.27 590.62 717.32 590.619 717.371 590.619 722.029 590.619 725.859 594.367 725.94 599.043 726.023 603.769 722.244 607.681 717.518 607.764Z"/></g></g></g><g clip-path="url(#clip59)"><g clip-path="url(#clip60)"><g clip-path="url(#clip61)"><path d="M910.74 335.761 910.74 363.479C910.74 365.28 909.28 366.74 907.479 366.74L830.521 366.74C828.72 366.74 827.26 365.28 827.26 363.479L827.26 335.761C827.26 333.96 828.72 332.5 830.521 332.5L843.565 332.5 894.109 332.5 907.479 332.5C909.28 332.5 910.74 333.96 910.74 335.761Z" fill="#9AC864"/><path d="M850.086 328.27 850.086 341.957 837.043 341.957 837.043 328.27C837.043 325.023 839.675 322.391 842.922 322.391L844.207 322.391C847.454 322.391 850.086 325.023 850.086 328.27Z" fill="#6C8937"/><path d="M850.086 328.098 850.086 341.957 846.825 341.957 846.825 328.098C846.825 325.223 844.699 322.846 841.934 322.45 842.2 322.412 842.472 322.391 842.749 322.391L844.38 322.391C847.531 322.391 850.086 324.946 850.086 328.098Z" fill="#5E752D"/><path d="M887.479 292.227 887.479 334.62C887.479 335.971 886.384 337.066 885.033 337.066 883.682 337.066 882.587 335.971 882.587 334.62L882.587 292.227C882.587 289.98 880.759 288.151 878.511 288.151L863.945 288.151C861.698 288.151 859.869 289.98 859.869 292.227L859.869 334.62C859.869 335.971 858.774 337.066 857.423 337.066 856.072 337.066 854.977 335.971 854.977 334.62L854.977 292.227C854.977 287.283 859 283.26 863.945 283.26L878.511 283.26C883.456 283.26 887.479 287.283 887.479 292.227Z" fill="#D6C499"/><path d="M861.445 288.151 863.945 288.151C861.698 288.151 859.869 289.98 859.869 292.227L859.869 334.62C859.869 335.971 858.774 337.066 857.423 337.066 856.966 337.066 856.538 336.939 856.172 336.72 856.888 336.293 857.369 335.514 857.369 334.62L857.369 292.227C857.369 289.98 859.198 288.151 861.445 288.151ZM878.511 283.26 876.011 283.26C880.956 283.26 884.979 287.283 884.979 292.227L884.979 334.62C884.979 335.514 884.498 336.293 883.782 336.72 884.148 336.939 884.575 337.066 885.033 337.066 886.384 337.066 887.479 335.971 887.479 334.62L887.479 292.227C887.479 287.283 883.456 283.26 878.511 283.26Z" fill="#BCA77C"/><path d="M902.882 305.345C903.493 305.596 903.892 306.192 903.892 306.853L903.892 311.63 884.865 311.63 865.837 311.63 865.837 306.853C865.837 306.192 866.236 305.596 866.847 305.345L884.865 297.846 902.882 305.345Z" fill="#7FA740"/><path d="M865.837 307.717 903.892 307.717 903.892 345.055 865.837 345.055 865.837 307.717Z" fill="#6C8937"/><path d="M900.631 307.717 903.892 307.717 903.892 346.848 900.631 346.848 900.631 307.717Z" fill="#5E752D"/><path d="M871.283 307.717 877.805 307.717 877.805 346.848 871.283 346.848 871.283 307.717Z" fill="#9AC864"/><path d="M872.913 341.957 904.055 341.957C904.956 341.957 905.686 342.687 905.686 343.587L905.686 345.218C905.686 346.118 904.956 346.848 904.055 346.848L872.913 346.848C872.013 346.848 871.283 346.118 871.283 345.218L871.283 343.587C871.283 342.687 872.013 341.957 872.913 341.957Z" fill="#7FA740"/><path d="M889.756 295.049 889.756 299.891 879.973 299.891 879.973 295.049C879.973 294.121 880.725 293.369 881.653 293.369L888.076 293.369C889.004 293.369 889.756 294.121 889.756 295.049Z" fill="#6C8937"/><path d="M881.066 361.523 833.782 361.523 833.782 340.326 881.066 340.326 881.066 361.523Z" fill="#EADDB0"/><path d="M881.066 361.523 877.805 361.523 877.805 340.326 881.066 340.326 881.066 361.523Z" fill="#D6C499"/><path d="M847.641 348.479 867.206 348.479 867.206 361.523 847.641 361.523 847.641 348.479ZM879.869 336.735 857.424 330.544 834.979 336.735C834.271 336.93 833.782 337.574 833.782 338.307L833.782 341.957 857.424 341.957 881.066 341.957 881.066 338.307C881.066 337.574 880.576 336.93 879.869 336.735Z" fill="#7FA740"/><path d="M867.206 348.479 867.206 361.523 857.342 361.523 857.342 348.479 867.206 348.479Z" fill="#6C8937"/><path d="M902.891 352.111 901.249 354.26 899.606 352.111C899.184 351.558 898.393 351.452 897.84 351.875 897.287 352.297 897.182 353.088 897.604 353.641L900.248 357.099C900.486 357.411 900.856 357.594 901.249 357.594 901.641 357.594 902.011 357.411 902.25 357.099L904.893 353.641C905.315 353.088 905.21 352.297 904.657 351.875 904.104 351.452 903.314 351.558 902.891 352.111ZM840.385 365.48 830.521 365.48C829.417 365.48 828.52 364.583 828.52 363.479L828.52 335.761C828.52 334.658 829.417 333.76 830.521 333.76L833.048 333.76C833.744 333.76 834.308 333.196 834.308 332.5 834.308 331.804 833.744 331.24 833.048 331.24L830.521 331.24C828.028 331.24 826 333.268 826 335.761L826 363.479C826 365.972 828.028 368 830.521 368L840.385 368C841.081 368 841.645 367.436 841.645 366.74 841.645 366.044 841.081 365.48 840.385 365.48ZM907.479 331.24C906.783 331.24 906.22 331.804 906.22 332.5 906.22 333.196 906.783 333.76 907.479 333.76 908.583 333.76 909.48 334.658 909.48 335.761L909.48 363.479C909.48 364.583 908.583 365.48 907.479 365.48L845.44 365.48C844.744 365.48 844.18 366.044 844.18 366.74 844.18 367.436 844.744 368 845.44 368L907.479 368C909.972 368 912 365.972 912 363.479L912 335.761C912 333.268 909.972 331.24 907.479 331.24ZM892.491 357.299 890.848 359.448 889.206 357.299C888.783 356.746 887.993 356.64 887.44 357.063 886.887 357.486 886.781 358.276 887.204 358.829L889.847 362.288C890.086 362.6 890.456 362.783 890.848 362.783 891.241 362.783 891.611 362.6 891.849 362.288L894.493 358.829C894.915 358.276 894.81 357.486 894.257 357.063 893.704 356.64 892.914 356.746 892.491 357.299ZM834.643 335.521 835.783 335.207 835.783 328.098C835.783 324.406 838.67 321.376 842.305 321.145L842.305 317.5C842.305 316.804 842.869 316.24 843.565 316.24 844.26 316.24 844.824 316.804 844.824 317.5L844.824 321.145C848.459 321.376 851.346 324.406 851.346 328.098L851.346 330.913 853.718 330.259 853.718 302.391C853.718 301.695 854.282 301.131 854.978 301.131 855.674 301.131 856.238 301.695 856.238 302.391L856.238 329.564 857.089 329.329C857.308 329.269 857.539 329.269 857.759 329.329L858.61 329.564 858.61 292.227C858.61 289.285 861.003 286.891 863.946 286.891L874.516 286.891C875.212 286.891 875.776 287.455 875.776 288.151 875.776 288.847 875.212 289.411 874.516 289.411L863.946 289.411C862.393 289.411 861.129 290.674 861.129 292.227L861.129 330.259 864.577 331.21 864.577 306.853C864.577 305.676 865.28 304.627 866.368 304.18L878.713 299.05 878.713 295.049C878.713 293.538 879.858 292.29 881.326 292.127 881.273 290.62 880.031 289.411 878.511 289.411 877.815 289.411 877.251 288.847 877.251 288.151 877.251 287.455 877.815 286.891 878.511 286.891 881.414 286.891 883.783 289.221 883.846 292.109L886.218 292.109C886.155 287.913 882.722 284.52 878.511 284.52L863.946 284.52C859.696 284.52 856.238 287.977 856.238 292.227L856.238 297.717C856.238 298.412 855.674 298.976 854.978 298.976 854.282 298.976 853.718 298.412 853.718 297.717L853.718 292.227C853.718 286.588 858.306 282 863.945 282L878.511 282C884.136 282 888.715 286.565 888.738 292.184 890.041 292.485 891.016 293.656 891.016 295.049L891.016 299.049 903.365 304.182C904.449 304.627 905.152 305.676 905.152 306.853L905.152 340.913C906.203 341.346 906.945 342.382 906.945 343.587L906.945 345.218C906.945 346.812 905.649 348.108 904.055 348.108L882.325 348.108 882.325 360.263 882.696 360.263C883.392 360.263 883.956 360.827 883.956 361.523 883.956 362.218 883.392 362.782 882.696 362.782L832.151 362.782C831.455 362.782 830.891 362.218 830.891 361.523 830.891 360.827 831.455 360.263 832.151 360.263L832.522 360.263 832.522 338.307C832.522 337.011 833.394 335.866 834.643 335.521ZM856.164 349.739 848.901 349.739 848.901 360.263 856.164 360.263 856.164 349.739ZM865.947 349.739 858.683 349.739 858.683 360.263 865.947 360.263 865.947 349.739 865.947 349.739ZM881.233 298.631 888.496 298.631 888.496 295.049C888.496 294.817 888.308 294.629 888.076 294.629L881.653 294.629C881.421 294.629 881.233 294.817 881.233 295.049L881.233 298.631ZM867.097 331.905 880.204 335.521C881.453 335.866 882.325 337.011 882.325 338.307L882.325 345.589 904.055 345.589C904.26 345.589 904.426 345.422 904.426 345.218L904.426 343.587C904.426 343.383 904.26 343.217 904.055 343.217L885.386 343.217C884.69 343.217 884.126 342.653 884.126 341.957 884.126 341.261 884.69 340.697 885.386 340.697L902.632 340.697 902.632 308.977 878.893 308.977C878.197 308.977 877.634 308.413 877.634 307.717 877.634 307.021 878.197 306.457 878.893 306.457L902.276 306.457 889.507 301.151 880.224 301.151 867.453 306.457 874.056 306.457C874.752 306.457 875.316 307.021 875.316 307.717 875.316 308.413 874.752 308.977 874.056 308.977L867.097 308.977 867.097 331.905 867.097 331.905ZM835.041 360.263 846.381 360.263 846.381 348.479C846.381 347.783 846.945 347.219 847.641 347.219L867.206 347.219C867.902 347.219 868.466 347.783 868.466 348.479L868.466 360.263 879.806 360.263 879.806 343.217 874.217 343.217C873.521 343.217 872.958 342.653 872.958 341.957 872.958 341.261 873.521 340.697 874.217 340.697L879.806 340.697 879.806 338.307C879.806 338.141 879.694 337.994 879.534 337.95L857.424 331.85 845.041 335.266C844.371 335.451 843.677 335.057 843.492 334.387 843.307 333.716 843.701 333.022 844.371 332.837L848.826 331.608 848.826 328.098C848.826 325.646 846.832 323.651 844.379 323.651L842.749 323.651C840.297 323.651 838.302 325.646 838.302 328.098L838.302 334.512 839.832 334.089C840.503 333.905 841.196 334.298 841.382 334.969 841.567 335.639 841.173 336.333 840.502 336.518L835.313 337.95C835.153 337.994 835.041 338.141 835.041 338.307L835.041 340.697 869.774 340.697C870.47 340.697 871.034 341.261 871.034 341.957 871.034 342.652 870.47 343.217 869.774 343.217L835.041 343.217 835.041 360.263Z"/></g></g></g><g clip-path="url(#clip62)"><g clip-path="url(#clip63)"><g clip-path="url(#clip64)"><path d="M815.669 479.976C813.119 479.976 811.115 477.972 811.115 475.422L811.115 457.57C811.115 453.745 814.394 450.648 818.219 450.831 820.041 450.831 821.862 451.741 823.137 453.016 822.955 452.288 822.773 451.559 822.773 450.648 822.955 446.094 826.78 442.451 831.334 442.451 834.795 442.451 837.892 444.819 838.985 448.098 842.446 445.002 847.729 445.366 850.825 449.009 851.19 449.555 851.736 450.102 851.918 450.648 853.193 449.738 854.468 449.373 856.108 449.373 859.933 449.373 863.03 452.47 863.03 456.295 863.03 457.935 862.483 459.392 861.39 460.667L860.844 461.396 847.911 461.396C847.911 461.578 847.911 461.578 847.911 461.76 847.911 462.489 847.911 463.035 847.911 463.764 847.911 464.128 847.911 464.492 847.911 464.675 847.911 469.229 844.085 472.872 839.349 472.872 835.524 472.872 832.063 469.957 831.334 466.132 829.695 469.593 825.505 471.05 822.044 469.411 821.316 469.046 820.769 468.682 820.223 468.136L820.223 475.604C820.223 478.154 818.219 480.158 815.669 479.976L815.669 479.976Z" fill="#FFFFFF"/><path d="M847.911 461.396 840.807 461.396C840.807 461.578 840.807 461.578 840.807 461.76 840.807 462.489 840.807 463.035 840.807 463.764 840.807 464.128 840.807 464.492 840.807 464.675 840.807 467.771 838.803 470.686 836.07 471.961 837.163 472.507 838.438 472.689 839.531 472.689 844.085 472.689 847.911 469.046 847.911 464.492 847.911 464.31 847.911 463.946 847.911 463.582 847.911 462.853 847.911 462.307 847.911 461.578 847.911 461.578 847.911 461.578 847.911 461.396Z" fill="#F7EEBA"/><path d="M856.108 449.555C854.833 449.555 853.74 449.92 852.647 450.466 855.926 452.288 857.019 456.295 855.197 459.574 855.015 459.938 854.651 460.303 854.468 460.667L853.922 461.396 861.026 461.396 861.573 460.667C862.665 459.392 863.212 457.935 863.212 456.295 863.03 452.652 859.933 449.555 856.108 449.555L856.108 449.555Z" fill="#F7EEBA"/><path d="M823.684 525.151C820.223 525.515 817.126 523.147 816.762 519.686 816.762 519.139 816.762 518.775 816.762 518.229L816.762 480.158 817.855 479.611C819.494 478.883 820.405 477.243 820.405 475.604L820.405 468.864 822.773 469.775C823.502 469.957 824.23 470.139 825.141 470.139 826.78 470.139 828.602 469.593 829.877 468.5L831.516 467.042 832.609 468.864C834.067 471.414 836.799 472.871 839.714 472.871 844.268 472.871 848.093 469.228 848.093 464.674 848.093 464.492 848.093 464.128 848.093 463.764L848.275 461.396 860.297 461.396C861.39 461.396 862.301 462.306 862.301 463.399L862.301 463.399 862.301 518.229C862.665 521.69 860.297 524.786 856.836 525.151 856.29 525.151 855.926 525.151 855.379 525.151L823.684 525.151Z" fill="#FBCF4C"/><path d="M860.115 461.396 850.461 461.396C851.554 461.396 852.282 462.307 852.282 463.399L852.282 518.229C852.647 521.69 850.279 524.787 846.818 525.151 846.271 525.151 845.907 525.151 845.36 525.151L855.015 525.151C858.476 525.515 861.573 523.147 861.937 519.686 861.937 519.14 861.937 518.775 861.937 518.229L861.937 463.399C861.937 462.307 861.208 461.396 860.115 461.396Z" fill="#EDB248"/><path d="M862.119 515.496 862.119 505.295 868.677 505.295C872.866 505.295 873.231 501.106 873.231 499.284L873.231 487.262C873.231 485.44 872.866 481.251 868.677 481.251L862.119 481.251 862.119 471.232 874.141 471.232C879.424 471.232 882.521 475.239 882.521 482.161L882.521 504.385C882.521 511.307 879.424 515.314 874.141 515.314L862.119 515.496Z" fill="#FBCF4C"/><path d="M874.141 471.232 868.312 471.232C873.595 471.232 876.692 475.24 876.692 482.162L876.692 504.385C876.692 511.307 873.595 515.314 868.312 515.314L874.141 515.314C879.424 515.314 882.521 511.307 882.521 504.385L882.521 482.162C882.521 475.24 879.424 471.232 874.141 471.232Z" fill="#EDB248"/><path d="M874.141 469.411 863.941 469.411 863.941 463.399C863.941 462.671 863.758 461.942 863.394 461.396 864.487 459.938 865.034 458.299 865.034 456.477 865.034 451.559 861.026 447.734 856.108 447.734 855.015 447.734 853.74 447.916 852.829 448.463 849.732 444.637 844.45 443.362 840.078 445.73 837.163 440.994 830.788 439.537 826.052 442.633 823.502 444.273 821.862 446.823 821.498 449.738 816.944 448.098 811.844 450.284 810.204 454.838 809.84 455.749 809.658 456.842 809.658 457.753L809.658 475.604C809.658 478.701 812.026 481.433 815.122 481.797L815.122 518.229C814.758 522.601 818.037 526.608 822.409 526.972 822.955 526.972 823.319 526.972 823.866 526.972L855.379 526.972C859.751 527.337 863.758 524.058 864.123 519.686 864.123 519.14 864.123 518.775 864.123 518.229L864.123 517.318 874.141 517.318C880.517 517.318 884.342 512.582 884.342 504.567L884.342 482.162C884.342 474.147 880.517 469.411 874.141 469.411ZM860.297 518.229C860.662 520.779 859.022 522.965 856.472 523.329 856.108 523.329 855.561 523.329 855.197 523.329L823.684 523.329C821.133 523.693 818.948 522.054 818.583 519.504 818.583 519.139 818.583 518.593 818.583 518.229L818.583 481.251C820.769 480.158 822.226 477.972 822.226 475.604L822.226 471.414C825.323 472.507 828.602 471.778 830.97 469.775 833.885 474.511 840.078 476.15 844.996 473.236 847.911 471.414 849.732 468.135 849.914 464.674 849.914 464.492 849.914 464.128 849.914 463.946 849.914 463.764 849.914 463.581 849.914 463.399L860.297 463.399C860.297 463.399 860.48 463.399 860.48 463.581L860.48 463.581 860.48 518.229 860.297 518.229ZM860.115 459.574 847.911 459.574C846.818 459.574 846.089 460.303 846.089 461.396 846.089 461.578 846.089 461.578 846.089 461.76L846.089 461.942C846.089 462.489 846.089 463.035 846.089 463.582 846.089 463.946 846.089 464.31 846.089 464.675 846.089 468.318 842.992 471.05 839.349 471.05 836.253 471.05 833.702 468.864 833.156 465.768 832.974 465.039 832.427 464.31 831.516 464.31 830.788 464.31 830.059 464.675 829.695 465.403 828.42 467.953 825.323 469.046 822.773 467.771 822.226 467.589 821.862 467.225 821.498 466.86 820.769 466.132 819.676 466.132 818.948 466.86 818.583 467.225 818.401 467.589 818.401 468.136L818.401 475.604C818.401 477.061 817.126 478.336 815.669 478.336 814.212 478.336 812.936 477.061 812.936 475.604L812.936 457.753C812.936 454.838 815.487 452.652 818.219 452.834 819.676 452.834 820.951 453.563 821.862 454.474 822.591 455.202 823.684 455.385 824.412 454.656 824.959 454.109 825.141 453.381 824.959 452.652 824.777 452.106 824.594 451.377 824.594 450.831 824.594 447.187 827.509 444.273 830.97 444.273 833.885 444.273 836.435 446.094 837.346 448.827 837.71 449.738 838.621 450.284 839.714 449.92 839.896 449.92 840.078 449.738 840.26 449.555 842.992 447.187 847.182 447.552 849.368 450.466 849.732 450.831 849.914 451.377 850.279 451.741 850.643 452.652 851.736 453.016 852.647 452.47L852.829 452.288C853.74 451.741 854.833 451.377 855.926 451.377 858.658 451.377 861.026 453.563 861.026 456.295 861.39 457.57 860.844 458.663 860.115 459.574ZM863.941 483.255 868.677 483.255C870.498 483.255 871.409 484.712 871.409 487.444L871.409 499.467C871.409 502.199 870.498 503.656 868.677 503.656L863.941 503.656 863.941 483.255ZM880.699 504.567C880.699 508.028 879.788 513.675 874.141 513.675L863.941 513.675 863.941 507.117 868.677 507.117C872.684 507.117 875.052 504.203 875.052 499.284L875.052 487.262C875.052 482.526 872.684 479.429 868.677 479.429L863.941 479.429 863.941 473.054 874.141 473.054C879.788 473.054 880.699 478.7 880.699 482.161L880.699 504.567Z" fill="#4A2328"/><path d="M826.416 478.336C825.323 478.336 824.594 479.065 824.594 480.158L824.594 510.032C824.594 511.125 825.323 511.853 826.416 511.853 827.509 511.853 828.238 511.125 828.238 510.032L828.238 480.158C828.238 479.065 827.327 478.336 826.416 478.336Z" fill="#4A2328"/><path d="M834.977 478.336C833.885 478.336 833.156 479.065 833.156 480.158L833.156 510.032C833.156 511.125 833.885 511.853 834.977 511.853 836.07 511.853 836.799 511.125 836.799 510.032L836.799 480.158C836.799 479.065 836.07 478.336 834.977 478.336Z" fill="#4A2328"/><path d="M843.721 478.336C842.628 478.336 841.899 479.065 841.899 480.158L841.899 510.032C841.899 511.125 842.628 511.853 843.721 511.853 844.814 511.853 845.543 511.125 845.543 510.032L845.543 480.158C845.543 479.065 844.632 478.336 843.721 478.336Z" fill="#4A2328"/><path d="M852.282 478.336C851.19 478.336 850.461 479.065 850.461 480.158L850.461 510.032C850.461 511.125 851.19 511.853 852.282 511.853 853.375 511.853 854.104 511.125 854.104 510.032L854.104 480.158C854.104 479.065 853.375 478.336 852.282 478.336Z" fill="#4A2328"/></g></g></g><g clip-path="url(#clip65)"><g clip-path="url(#clip66)"><g clip-path="url(#clip67)"><path d="M773.791 184.609C775.142 165.129 781.74 150.344 789.676 150.344 796.248 150.344 801.903 160.485 804.419 175.035L804.419 202.582 774.228 202.582Z" fill="#FFA127"/><path d="M773.791 184.609 774.088 196.836 778.938 202.582 779.956 202.582C780.949 160.24 789.676 150.344 789.676 150.344 781.74 150.344 775.142 165.129 773.791 184.609Z" fill="#FCDCBB" fill-opacity="0.3"/><path d="M787.977 197.207 804.419 195.765 804.419 175.035C801.903 160.485 796.248 150.344 789.676 150.344 789.676 150.344 796.204 161.383 797.526 172.513 797.866 175.385 797.152 178.284 795.516 180.67 793.212 184.029 789.698 189.997 787.977 197.207Z" fill="#BC6C0C" fill-opacity="0.3"/><path d="M789.656 233.656C799.063 233.656 803.676 223.109 808.477 206.854L814.234 187.629C815.131 184.634 827.281 166.469 827.281 166.469L805.781 174.531C800.406 177.219 796.375 181.25 789.656 196.031Z" fill="#869644"/><path d="M789.656 196.031 789.656 233.656C791.674 233.676 793.657 233.13 795.38 232.08 799.303 222.608 795.306 204.798 794.359 200.063 793.56 196.067 794.736 188.814 795.572 184.577 793.796 187.451 791.872 191.156 789.656 196.031Z" fill="#576021" fill-opacity="0.3"/><path d="M772.026 206.854C774.93 235.228 784.281 233.656 789.656 233.656 795.176 233.656 794.139 217.884 791.196 201.192 786.969 177.219 749.344 183.938 749.344 183.938 749.344 183.938 770.52 192.146 772.026 206.854Z" fill="#A9BA45"/><path d="M748.857 185.19C749.062 185.269 769.285 193.28 770.689 206.991 771.939 219.202 774.479 227.166 778.454 231.339 781.66 234.705 785.158 235.016 787.924 235.016 788.249 235.016 788.564 235.012 788.868 235.007 789.139 235.004 789.402 235 789.656 235 794.566 235 798.582 232.405 801.932 227.065 803.78 224.122 806.154 219.464 809.765 207.24L815.521 188.014C816.133 185.974 823.744 174.173 828.398 167.216 828.811 166.599 828.645 165.764 828.028 165.352 827.668 165.111 827.215 165.059 826.809 165.211L805.453 173.219C802.573 158.234 796.592 149 789.676 149 785.247 149 781.224 152.669 778.042 159.611 775.274 165.652 773.351 173.859 772.579 182.869 769.317 182.177 765.699 181.799 761.724 181.735 757.501 181.661 753.28 181.956 749.108 182.615 748.377 182.745 747.891 183.443 748.021 184.174 748.104 184.635 748.421 185.02 748.858 185.19ZM823.869 169.183C820.223 174.722 813.654 184.882 812.947 187.242L807.189 206.474C803.255 219.793 799.595 228.547 793.905 231.344 795.358 227.26 795.299 219.621 793.73 208.532 793.818 204.101 799.377 194.677 801.53 191.393L799.283 189.919C799.199 190.046 797.22 193.073 795.208 196.861 794.192 198.774 793.361 200.516 792.715 202.088 792.651 201.714 792.586 201.339 792.519 200.959 792.232 199.295 791.754 197.669 791.096 196.115 797.454 182.224 801.239 178.321 806.32 175.764ZM775.431 181.25 781.594 181.25 781.594 178.563 775.753 178.563C775.937 177.189 776.149 175.845 776.388 174.531L781.594 174.531 781.594 171.844 776.927 171.844C777.338 169.961 777.806 168.163 778.329 166.469L782.938 166.469 782.938 163.781 779.234 163.781C779.628 162.71 780.045 161.693 780.485 160.731 780.64 160.395 780.796 160.068 780.954 159.75L786.969 159.75 786.969 157.063 782.461 157.063C784.693 153.569 787.187 151.688 789.676 151.688 792.205 151.688 794.694 153.629 796.888 157.063L792.344 157.063 792.344 159.75 798.394 159.75C799.039 161.062 799.613 162.408 800.113 163.781L796.375 163.781 796.375 166.469 801.02 166.469C801.539 168.148 802.011 169.945 802.426 171.844L797.719 171.844 797.719 174.531 802.965 174.531C802.967 174.542 802.969 174.553 802.971 174.565 799.4 176.811 796.269 180.201 792.344 187.495L792.344 185.281 786.969 185.281 786.969 187.969 792.091 187.969C791.27 189.515 790.414 191.232 789.513 193.143 788.074 190.947 786.221 189.052 784.058 187.564 781.58 185.833 778.627 184.483 775.221 183.519 775.283 182.757 775.353 182 775.431 181.25ZM761.736 184.424C767.873 184.524 776.461 185.532 782.524 189.77 786.53 192.571 789.003 196.492 789.872 201.425 792.73 217.632 793.029 228.983 790.673 231.791 790.366 232.156 790.062 232.313 789.656 232.313 789.39 232.313 789.115 232.316 788.831 232.32L788.812 232.32C783.019 227.226 782.938 214.969 782.938 214.844L781.594 214.844 780.25 214.844C780.25 215.343 780.313 225.639 785.002 232.084 783.462 231.768 781.897 231.057 780.4 229.486 776.9 225.812 774.532 218.152 773.362 206.717 772.706 200.307 768.396 194.106 760.897 188.785 758.752 187.271 756.505 185.906 754.173 184.7 756.688 184.479 759.212 184.387 761.736 184.424Z"/><path d="M785.625 178.563 793.688 178.563 793.688 181.25 785.625 181.25Z"/><path d="M785.625 171.844 793.688 171.844 793.688 174.531 785.625 174.531Z"/><path d="M785.625 163.781 793.688 163.781 793.688 166.469 785.625 166.469Z"/></g></g></g><g clip-path="url(#clip68)"><g clip-path="url(#clip69)"><g clip-path="url(#clip70)"><path d="M69.1381 73.5827 51.916 70.5461C51.1785 70.4155 50.7987 69.5875 51.1818 68.9438 51.9219 67.6985 52.4298 66.3292 52.6817 64.9028L55.1186 51.0828C55.3699 49.6557 55.3607 48.1958 55.091 46.7727 54.9513 46.0365 55.591 45.3882 56.3291 45.5181L73.5505 48.5547C74.2887 48.6846 74.6685 49.5126 74.2854 50.157 73.5453 51.4023 73.0368 52.771 72.7855 54.1974L70.3486 68.018C70.0973 69.4445 70.1065 70.905 70.3762 72.3281 70.5153 73.0643 69.8755 73.7126 69.1381 73.5827Z" fill="#B4DE87" transform="matrix(1 0 0 1.01163 600.352 94)"/><path d="M60.88 46.3206 56.3291 45.5181C55.591 45.3882 54.9513 46.0365 55.091 46.7727 55.3607 48.1958 55.3699 49.6557 55.1186 51.0828L52.6817 64.9028C52.4298 66.3292 51.9219 67.6985 51.1818 68.9438 50.7987 69.5875 51.1785 70.4155 51.916 70.5461L65.9742 73.0243C62.3694 64.5143 60.5074 56.7497 60.88 46.3206Z" fill="#92D18A" transform="matrix(1 0 0 1.01163 600.352 94)"/><path d="M73.5505 48.5547 56.3291 45.5181C55.591 45.3882 55.2118 44.5602 55.5943 43.9159 56.3344 42.6706 56.8429 41.3019 57.0942 39.8755L59.531 26.0548C59.783 24.6284 59.7738 23.1678 59.5035 21.7447 59.3644 21.0085 60.0041 20.3603 60.7423 20.4902L77.9636 23.5267C78.7018 23.6573 79.081 24.4853 78.6985 25.129 77.9584 26.3743 77.4499 27.7437 77.1986 29.1701L74.7617 42.9901C74.5098 44.4172 74.519 45.877 74.7893 47.3002 74.9284 48.0364 74.2887 48.6846 73.5505 48.5547Z" fill="#8EC15D" transform="matrix(1 0 0 1.01163 600.352 94)"/><path d="M65.4506 21.3208 60.7423 20.4902C60.0041 20.3603 59.3644 21.0085 59.5041 21.7447 59.7738 23.1678 59.783 24.6284 59.5317 26.0548L57.0948 39.8748C56.8429 41.3019 56.335 42.6706 55.5943 43.9159 55.2118 44.5595 55.591 45.3876 56.3291 45.5181L65.2833 47.0968C63.1988 41.3006 64.101 28.4949 65.4506 21.3208Z" fill="#57B33B" transform="matrix(1 0 0 1.01163 600.352 94)"/><path d="M79.2024 22.2729C78.9321 20.8491 78.9229 19.3892 79.1748 17.9628L80.1059 12.681 63.6765 2.5484 61.508 14.8475C61.256 16.2739 60.7482 17.6432 60.0074 18.8879 59.6249 19.5322 60.0048 20.3603 60.7423 20.4902L77.9643 23.5267C78.7018 23.6573 79.3415 23.0091 79.2024 22.2729Z" fill="#B4DE87" transform="matrix(1 0 0 1.01163 600.352 94)"/><path d="M68.5049 5.52656 63.6765 2.5484 61.508 14.8475C61.256 16.2739 60.7482 17.6432 60.0074 18.8886 59.6249 19.5322 60.0048 20.3603 60.7423 20.4902L68.0968 21.7873C65.8902 16.9084 67.1979 10.4016 68.5049 5.52656Z" fill="#92D18A" transform="matrix(1 0 0 1.01163 600.352 94)"/><path d="M62.6686 77.7622 45.4473 80.7987C44.7091 80.9286 44.0694 80.2811 44.2085 79.5442 44.4782 78.1211 44.4874 76.6612 44.2361 75.2341L41.7992 61.4141C41.5479 59.9877 41.0394 58.6184 40.2993 57.373 39.9168 56.7294 40.296 55.9013 41.0342 55.7708L58.2555 52.7342C58.9937 52.6043 59.6334 53.2526 59.4936 53.9887 59.224 55.4119 59.2148 56.8724 59.4661 58.2988L61.9029 72.1195C62.1549 73.5459 62.6627 74.9146 63.4035 76.1599 63.786 76.8042 63.4061 77.6323 62.6686 77.7622Z" fill="#8EC15D" transform="matrix(1 0 0 1.01163 600.352 94)"/><path d="M47.1453 54.6934 41.0342 55.7708C40.296 55.9013 39.9161 56.7294 40.2993 57.373 41.0394 58.6184 41.5479 59.9877 41.7992 61.4141L44.2361 75.2341C44.4874 76.6612 44.4782 78.1211 44.2085 79.5442 44.0688 80.2804 44.7091 80.9286 45.4466 80.7987L55.4434 79.0364C49.6668 74.4638 47.4563 62.6024 47.1453 54.6934Z" fill="#57B33B" transform="matrix(1 0 0 1.01163 600.352 94)"/><path d="M58.2555 52.7342 41.0342 55.7708C40.296 55.9013 39.6563 55.2531 39.7954 54.5169 40.0651 53.0938 40.0749 51.6332 39.823 50.2068L37.3861 36.3862C37.1348 34.9598 36.6263 33.5904 35.8862 32.3457 35.5037 31.7014 35.8829 30.8734 36.6211 30.7435L53.8424 27.7069C54.5806 27.5764 55.2203 28.2253 55.0805 28.9608 54.8109 30.3846 54.8017 31.8445 55.053 33.2709L57.4905 47.0915C57.7418 48.518 58.2496 49.8873 58.9904 51.1326 59.3729 51.7763 58.993 52.6043 58.2555 52.7342Z" fill="#B4DE87" transform="matrix(1 0 0 1.01163 600.352 94)"/><path d="M42.7322 29.6661 36.6211 30.7435C35.8829 30.8734 35.5037 31.7014 35.8862 32.3457 36.6263 33.5904 37.1348 34.9598 37.3861 36.3862L39.823 50.2068C40.0749 51.6332 40.0651 53.0938 39.7954 54.5169 39.6563 55.2531 40.296 55.9013 41.0342 55.7708L51.0303 54.0084C45.2537 49.4365 43.0432 37.5751 42.7322 29.6661Z" fill="#92D18A" transform="matrix(1 0 0 1.01163 600.352 94)"/><path d="M54.5773 26.1047C53.8365 24.8593 53.3287 23.4907 53.0774 22.0636L50.9633 10.0761 34.5339 20.2094 35.4105 25.1789C35.6618 26.6053 35.6526 28.0658 35.3829 29.489 35.2432 30.2251 35.8829 30.8734 36.6211 30.7435L53.8424 27.7069C54.5799 27.5764 54.9598 26.749 54.5773 26.1047Z" fill="#8EC15D" transform="matrix(1 0 0 1.01163 600.352 94)"/><path d="M34.5339 20.2094 35.4105 25.1789C35.6618 26.6053 35.6526 28.0658 35.3829 29.489 35.2432 30.2251 35.8829 30.8734 36.6211 30.7435L46.6172 28.9805C43.4618 26.4826 41.3721 21.809 40.0729 16.7929Z" fill="#57B33B" transform="matrix(1 0 0 1.01163 600.352 94)"/><path d="M28.9746 44.801C26.5403 44.801 24.24 45.9138 22.7282 47.8218L17.2791 54.7013C11.9802 61.3912 7.49231 68.684 3.9092 76.4289L1.45791 81.7258C0.807036 83.1326 1.83453 84.7401 3.3843 84.7401L54.5648 84.7401C56.1152 84.7401 57.1427 83.1326 56.4919 81.7258L54.0406 76.4289C50.4575 68.684 45.9689 61.3905 40.6707 54.7013L35.2215 47.8218C33.7098 45.9138 31.4088 44.801 28.9746 44.801Z" fill="#F8EED1" transform="matrix(1 0 0 1.01163 600.352 94)"/><path d="M24.7379 46.0207C23.9795 46.4971 23.2978 47.1027 22.7282 47.8218L17.2791 54.7013C11.9802 61.3905 7.49231 68.684 3.9092 76.4283L1.45791 81.7258C0.807036 83.1326 1.83453 84.7401 3.3843 84.7401L43.8371 84.7401C21.8215 76.9243 19.5696 55.9289 24.7379 46.0207Z" fill="#EDD8A4" transform="matrix(1 0 0 1.01163 600.352 94)"/><path d="M80.1059 12.681C79.7319 14.8009 75.7512 14.2504 71.2147 11.4527 66.6776 8.65431 63.3025 4.66769 63.6765 2.5484 64.0498 0.428451 68.0312 0.978941 72.5676 3.77667 77.1047 6.57505 80.4792 10.5617 80.1059 12.681Z" fill="#F8EED1" transform="matrix(1 0 0 1.01163 600.352 94)"/><path d="M34.5339 20.2094C34.9079 22.3293 38.8886 21.7788 43.4251 18.9804 47.9622 16.1827 51.3373 12.1961 50.9633 10.0761 50.5893 7.95685 46.6086 8.50734 42.0722 11.3051 37.535 14.1034 34.1599 18.0901 34.5339 20.2094Z" fill="#F8EED1" transform="matrix(1 0 0 1.01163 600.352 94)"/><path d="M12.8857 79.2188C12.8857 79.888 12.3431 80.4306 11.6738 80.4306 11.0046 80.4306 10.4619 79.888 10.4619 79.2188 10.4619 78.5495 11.0046 78.0069 11.6738 78.0069 12.3431 78.0069 12.8857 78.5495 12.8857 79.2188Z" fill="#F8EED1" transform="matrix(1 0 0 1.01163 600.352 94)"/><path d="M17.451 67.9787C17.451 68.6479 16.9084 69.1905 16.2391 69.1905 15.5699 69.1905 15.0273 68.6479 15.0273 67.9787 15.0273 67.3094 15.5699 66.7668 16.2391 66.7668 16.9084 66.7668 17.451 67.3094 17.451 67.9787Z" fill="#F8EED1" transform="matrix(1 0 0 1.01163 600.352 94)"/><path d="M22.5485 75.431C22.5485 76.1002 22.0058 76.6428 21.3366 76.6428 20.6673 76.6428 20.1247 76.1002 20.1247 75.431 20.1247 74.7617 20.6673 74.2191 21.3366 74.2191 22.0058 74.2191 22.5485 74.7617 22.5485 75.431Z" fill="#F8EED1" transform="matrix(1 0 0 1.01163 600.352 94)"/><path d="M40.9679 76.6422C40.9679 77.3121 40.4253 77.8547 39.756 77.8547 39.0868 77.8547 38.5442 77.3121 38.5442 76.6422 38.5442 75.9729 39.0868 75.4303 39.756 75.4303 40.4253 75.4303 40.9679 75.9729 40.9679 76.6422Z" fill="#EDD8A4" transform="matrix(1 0 0 1.01163 600.352 94)"/><path d="M28.9746 54.431C28.9746 55.1002 28.4319 55.6428 27.7627 55.6428 27.0934 55.6428 26.5508 55.1002 26.5508 54.431 26.5508 53.7617 27.0934 53.2191 27.7627 53.2191 28.4319 53.2191 28.9746 53.7617 28.9746 54.431Z" fill="#EDD8A4" transform="matrix(1 0 0 1.01163 600.352 94)"/><path d="M35.2078 61.7822C35.2078 62.4515 34.6651 62.9941 33.9959 62.9941 33.3266 62.9941 32.784 62.4515 32.784 61.7822 32.784 61.1123 33.3266 60.5697 33.9959 60.5697 34.6651 60.5697 35.2078 61.1123 35.2078 61.7822Z" fill="#EDD8A4" transform="matrix(1 0 0 1.01163 600.352 94)"/><path d="M45.3508 11.5616C45.1566 11.225 44.5294 11.223 43.9493 11.5583 43.37 11.893 43.0577 12.4369 43.2519 12.7735 43.4461 13.1101 44.074 13.1114 44.6534 12.7768 45.2327 12.4421 45.545 11.8982 45.3508 11.5616Z" fill="#EDD8A4" transform="matrix(1 0 0 1.01163 600.352 94)"/><path d="M39.4509 17.6118C39.2567 17.2752 38.6288 17.2739 38.0494 17.6085 37.4701 17.9431 37.1571 18.487 37.352 18.8236 37.5462 19.1602 38.1735 19.1622 38.7528 18.8276 39.3328 18.4923 39.6451 17.9483 39.4509 17.6118Z" fill="#EDD8A4" transform="matrix(1 0 0 1.01163 600.352 94)"/><path d="M67.2058 2.80166C67.0115 3.13825 67.3239 3.68218 67.9039 4.01681 68.4832 4.35143 69.1105 4.35012 69.3054 4.01353 69.4996 3.67693 69.1873 3.13301 68.6072 2.79838 68.0279 2.46376 67.4006 2.46507 67.2058 2.80166Z" fill="#EDD8A4" transform="matrix(1 0 0 1.01163 600.352 94)"/><path d="M76.3036 10.4081C76.1094 10.7441 76.4217 11.2887 77.0011 11.6233 77.5811 11.9579 78.2084 11.9566 78.4026 11.62 78.5968 11.2834 78.2845 10.7388 77.7051 10.4042 77.1251 10.0696 76.4978 10.0715 76.3036 10.4081Z" fill="#EDD8A4" transform="matrix(1 0 0 1.01163 600.352 94)"/><path d="M70.1216 8.06577C69.9274 8.40236 70.2397 8.94695 70.819 9.28157 71.3991 9.61619 72.0263 9.61423 72.2205 9.27829 72.4147 8.9417 72.1024 8.39711 71.5231 8.06249 70.9431 7.72786 70.3158 7.72983 70.1216 8.06577Z" fill="#EDD8A4" transform="matrix(1 0 0 1.01163 600.352 94)"/><path d="M79.1401 7.66947C77.6323 5.88939 75.5333 4.12573 73.229 2.70455 69.4018 0.34381 65.9545-0.543929 64.0085 0.329376 63.1981 0.69287 62.6581 1.35293 62.4679 2.19278 62.4554 2.23739 62.4442 2.28267 62.4357 2.32925L60.2672 14.629C60.0409 15.9098 59.5894 17.1262 58.9248 18.2443 58.5843 18.8171 58.5081 19.504 58.7043 20.1313 58.3054 20.6529 58.142 21.3241 58.266 21.9789 58.5088 23.2571 58.5167 24.5549 58.291 25.8356L56.6559 35.1074 56.2937 33.0524C56.068 31.771 56.0759 30.4732 56.3186 29.195 56.4427 28.5409 56.2793 27.8696 55.8804 27.3474 56.0765 26.7201 56.0004 26.0338 55.6599 25.461 54.9952 24.3423 54.5432 23.1258 54.3175 21.8451L52.2041 9.85765C52.1955 9.81106 52.1844 9.76514 52.1713 9.72052 51.981 8.88068 51.4417 8.22127 50.6313 7.85777 48.6853 6.98447 45.238 7.87221 41.4101 10.233 39.1058 11.6541 37.0069 13.4178 35.4997 15.1979 34.3181 16.5934 32.9769 18.634 33.2932 20.4285L34.1691 25.398C34.3955 26.6788 34.387 27.9766 34.1448 29.2547 34.0208 29.9095 34.1842 30.5808 34.5825 31.103 34.3863 31.7303 34.4631 32.4166 34.8036 32.9894 35.4682 34.1074 35.9197 35.3239 36.1454 36.6053L38.4943 49.9253 36.2084 47.0397C34.4473 44.8167 31.811 43.5412 28.9746 43.5412 26.1388 43.5412 23.5018 44.8167 21.7408 47.0397L16.2916 53.9192C10.9376 60.678 6.38674 68.0738 2.76557 75.8994L0.314941 81.197C-0.172561 82.2494-0.0898893 83.4613 0.534743 84.4389 1.15938 85.4166 2.22493 85.9999 3.3843 85.9999L5.57183 85.9999C6.26798 85.9999 6.83159 85.4362 6.83159 84.7401 6.83159 84.0439 6.26798 83.4803 5.57183 83.4803L3.3843 83.4803C2.95782 83.4803 2.73408 83.2015 2.65731 83.0821 2.58055 82.9626 2.42176 82.6425 2.60154 82.2553L5.05218 76.9578C8.59001 69.3119 13.0359 62.0867 18.2666 55.4834L23.7157 48.6039C24.9958 46.9879 26.913 46.0608 28.9746 46.0608 31.0368 46.0608 32.9533 46.9879 34.2334 48.6039L39.6832 55.4834C39.943 55.8121 40.1996 56.1435 40.4561 56.4748 40.4594 56.4787 40.4627 56.4827 40.4653 56.4873 45.3574 62.8169 49.5376 69.6964 52.8969 76.9578L54.1219 79.6046C54.1232 79.6079 54.1246 79.6105 54.1259 79.6138L55.3482 82.2553C55.5274 82.6425 55.3686 82.9626 55.2918 83.0821 55.2157 83.2021 54.9913 83.4803 54.5648 83.4803L11.3379 83.4803C10.6417 83.4803 10.0781 84.0446 10.0781 84.7401 10.0781 85.4362 10.6417 85.9999 11.3379 85.9999L54.5648 85.9999C55.7248 85.9999 56.7904 85.4166 57.415 84.4389 58.0397 83.462 58.1223 82.2501 57.6348 81.197L57.0929 80.0245 62.8871 79.0029C63.6417 78.8704 64.2821 78.375 64.6016 77.6795 64.9205 76.9834 64.8772 76.175 64.4861 75.5163 64.1784 74.9992 63.9186 74.4599 63.7034 73.9035L68.9189 74.8234C69.0541 74.847 69.1892 74.8588 69.3231 74.8588 69.9412 74.8588 70.5408 74.6128 70.9824 74.1646 71.5204 73.6201 71.756 72.8458 71.6136 72.0939 71.3715 70.8158 71.363 69.518 71.5887 68.2372L74.0262 54.4165C74.2519 53.1351 74.7033 51.9187 75.3686 50.8006 75.7085 50.2278 75.7853 49.5415 75.5891 48.9143 75.9874 48.392 76.1514 47.7208 76.0267 47.0659 75.7846 45.7878 75.7761 44.49 76.0024 43.2092L77.1113 36.9209C77.232 36.2353 76.7747 35.5824 76.0891 35.4617 75.4047 35.3396 74.7506 35.7983 74.6298 36.4833L73.521 42.7716C73.2579 44.2649 73.2526 45.776 73.5039 47.2674L58.3284 44.5917 57.8625 41.9495C58.0653 41.3386 58.2253 40.7166 58.3349 40.0946L60.7724 26.2739C61.0355 24.7813 61.0408 23.2702 60.7888 21.7782L77.4794 24.7215C76.7327 26.0371 76.2209 27.4589 75.9578 28.9516L75.6652 30.6109C75.5445 31.2966 76.0018 31.9501 76.6868 32.0708 76.7609 32.0839 76.8344 32.0899 76.9072 32.0899 77.507 32.0899 78.0384 31.6601 78.1467 31.0486L78.4393 29.3892C78.665 28.1078 79.1164 26.8914 79.7817 25.7733 80.1223 25.2005 80.1984 24.5142 80.0022 23.887 80.4005 23.3647 80.5638 22.6935 80.4398 22.0386 80.1977 20.7605 80.1892 19.4627 80.4156 18.1819L81.3466 12.9008 81.3466 12.9001C81.6622 11.1043 80.3211 9.06505 79.1401 7.66947ZM35.8974 20.1293C35.7904 20.0821 35.7865 20.0591 35.7747 19.9909 35.5594 18.7698 38.163 15.1966 42.7335 12.3778 46.3586 10.1418 48.869 9.82747 49.5999 10.1562 49.7069 10.2041 49.7108 10.227 49.7226 10.2946L49.7226 10.2953C49.9378 11.517 47.3336 15.0903 42.7637 17.9083 39.1386 20.1451 36.6283 20.458 35.8974 20.1293ZM36.6506 24.9604 36.2602 22.7459C36.3763 22.7525 36.4931 22.7578 36.6145 22.7578 38.5816 22.7578 41.2277 21.8162 44.0865 20.0532 46.3908 18.632 48.4897 16.8684 49.9975 15.0883 50.1517 14.9052 50.3098 14.711 50.4653 14.5083L51.8366 22.2827C52.0998 23.7754 52.6109 25.1972 53.3575 26.5134L36.6683 29.4562C36.9196 27.9641 36.9144 26.4531 36.6506 24.9604ZM41.6581 53.9192 41.2179 53.3628C41.3104 52.231 41.2599 51.0985 41.0637 49.9877L38.6268 36.1677C38.3637 34.6743 37.852 33.2525 37.1053 31.937L53.7958 28.9942C53.5439 30.4856 53.5498 31.9967 53.8129 33.49L56.2498 47.3107C56.5129 48.8034 57.0246 50.2252 57.7713 51.5407L41.9757 54.326C41.8694 54.1908 41.7644 54.0544 41.6581 53.9192ZM73.0656 49.7482C72.3196 51.0637 71.8078 52.4862 71.5447 53.9789L69.1079 67.7996C68.8448 69.2922 68.8389 70.8033 69.0902 72.2953L63.0243 71.2252 60.7068 58.0803C60.4811 56.7989 60.489 55.5018 60.7311 54.2236 60.8558 53.5688 60.6924 52.8976 60.2935 52.3753 60.4896 51.7481 60.4135 51.0618 60.073 50.4883 59.4713 49.4759 59.0455 48.3821 58.8027 47.2333ZM58.2083 54.0222C57.9563 55.5142 57.9622 57.0246 58.226 58.518L60.6629 72.338C60.926 73.8313 61.4371 75.2532 62.1838 76.5687L55.9978 77.6592 55.1842 75.8994C52.0322 69.0882 48.1755 62.6037 43.6994 56.5804ZM77.9341 17.7436C77.671 19.237 77.6651 20.7474 77.9164 22.2394L61.2271 19.2967C61.9738 17.9805 62.4849 16.5587 62.748 15.066L64.1745 6.97988C64.33 7.18262 64.4881 7.37683 64.6423 7.55989 66.15 9.34062 68.249 11.1036 70.5533 12.5248 73.4121 14.2878 76.0582 15.2294 78.0253 15.2294 78.1467 15.2294 78.2641 15.2248 78.3796 15.2175ZM78.8651 12.4625 78.8651 12.4658C78.8533 12.5314 78.8474 12.5543 78.7424 12.6016 78.0115 12.9296 75.5012 12.6167 71.8761 10.3799 67.3055 7.56186 64.702 3.9886 64.9172 2.76689 64.929 2.69931 64.9329 2.67634 65.0399 2.62844 65.1941 2.55889 65.4277 2.51821 65.7347 2.51821 66.881 2.51821 69.0469 3.08576 71.9063 4.84943 76.4762 7.6675 79.0797 11.2408 78.8651 12.4625Z" transform="matrix(1 0 0 1.01163 600.352 94)"/></g></g></g></g></svg>