<svg width="171" height="170" xmlns="http://www.w3.org/2000/svg" xmlns:xlink="http://www.w3.org/1999/xlink" overflow="hidden"><defs><clipPath id="clip0"><rect x="907" y="275" width="171" height="170"/></clipPath><clipPath id="clip1"><rect x="935" y="302" width="115" height="116"/></clipPath><clipPath id="clip2"><rect x="935" y="302" width="115" height="116"/></clipPath><clipPath id="clip3"><rect x="935" y="302" width="115" height="116"/></clipPath></defs><g clip-path="url(#clip0)" transform="translate(-907 -275)"><path d="M912 360C912 315.265 948.041 279 992.5 279 1036.96 279 1073 315.265 1073 360 1073 404.735 1036.96 441 992.5 441 948.041 441 912 404.735 912 360Z" fill="#D9D9D9" fill-rule="evenodd"/><path d="M912 360C912 315.265 948.041 279 992.5 279 1036.96 279 1073 315.265 1073 360 1073 404.735 1036.96 441 992.5 441 948.041 441 912 404.735 912 360Z" stroke="#3C7D9A" stroke-width="8" stroke-miterlimit="8" fill="none" fill-rule="evenodd"/><g clip-path="url(#clip1)"><g clip-path="url(#clip2)"><g clip-path="url(#clip3)"><path d="M10.22 85.1337C5.95341 85.1337 2.57981 81.6609 2.57981 77.4935L2.57981 37.5065C2.57981 33.2399 6.05263 29.8663 10.22 29.8663L104.78 29.8663C109.047 29.8663 112.42 33.3391 112.42 37.5065L112.42 77.4935C112.42 81.7601 108.947 85.1337 104.78 85.1337L10.22 85.1337 10.22 85.1337ZM16.6695 37.308C16.3719 37.308 16.1734 37.5065 16.1734 37.8041L16.1734 37.8041C16.1734 40.6816 13.7921 42.9638 11.0138 42.9638L11.0138 42.9638C10.7161 42.9638 10.5177 43.1622 10.5177 43.4599L10.5177 43.4599 10.5177 71.2425C10.5177 71.5401 10.7161 71.7386 11.0138 71.7386 13.8913 71.7386 16.1734 74.0207 16.1734 76.8982 16.1734 77.1959 16.3719 77.3943 16.6695 77.3943L98.4297 77.3943C98.7274 77.3943 98.9258 77.1959 98.9258 76.8982 98.9258 74.0207 101.307 71.7386 104.185 71.7386 104.185 71.7386 104.185 71.7386 104.284 71.7386 104.582 71.7386 104.78 71.5401 104.78 71.2425L104.78 43.5591C104.78 43.2614 104.582 43.063 104.284 43.063 101.406 43.063 99.1243 40.7808 99.1243 37.9034 99.1243 37.6057 98.9258 37.4072 98.6281 37.4072L16.6695 37.308Z" fill="#C0D863" transform="matrix(1 0 0 1.0087 935 302)"/><path d="M57.5496 76.4021C47.0319 76.4021 38.5979 67.8689 38.5979 57.4504 38.5979 46.9327 47.1311 38.4987 57.5496 38.4987 68.0673 38.4987 76.5013 47.0319 76.5013 57.4504 76.5013 62.5108 74.5168 67.2735 70.9448 70.8456 67.3727 74.4176 62.61 76.4021 57.5496 76.4021Z" fill="#FFE64C" transform="matrix(1 0 0 1.0087 935 302)"/><path d="M55.2675 56.5574C54.7714 56.4582 54.2752 56.2597 53.7791 56.1605 52.9853 55.962 52.39 55.4659 51.8939 54.8706 51.497 54.2752 51.2985 53.5807 51.2985 52.7869 51.2985 51.2985 52.0923 49.8102 53.3822 49.0164 53.8783 48.6195 54.4737 48.3218 55.069 48.1234L57.0535 47.4288 57.0535 56.855 55.2675 56.5574Z" fill="#FFE64C" transform="matrix(1 0 0 1.0087 935 302)"/><path d="M58.0457 57.2519 59.931 57.7481C60.6255 57.9465 61.4193 58.2442 62.0147 58.5418 63.3046 59.2364 64.1976 60.7248 64.0984 62.2131 64.0984 63.8007 63.3046 65.1898 61.9154 65.9836 61.3201 66.3805 60.5263 66.6782 59.8318 66.8766L57.9465 67.3727 58.0457 57.2519Z" fill="#FFE64C" transform="matrix(1 0 0 1.0087 935 302)"/><path d="M65.0906 76.5013 68.9603 73.8223C69.9525 73.1277 70.8456 72.4331 71.6393 71.5401 79.478 63.7015 79.478 51.1001 71.6393 43.2614 70.8456 42.4676 69.9525 41.6739 68.9603 40.9793L65.0906 38.3003 97.8343 38.3003 98.132 39.3917C98.7274 41.5746 100.414 43.1622 102.498 43.7575L103.589 44.0552 103.589 70.6471 102.498 70.9448C100.315 71.5401 98.7274 73.2269 98.132 75.3106L97.8343 76.4021 65.0906 76.5013Z" fill="#C0D863" transform="matrix(1 0 0 1.0087 935 302)"/><path d="M17.2649 76.5013 16.9672 75.4098C16.3719 73.2269 14.6851 71.6393 12.6014 71.044L11.5099 70.7463 11.5099 44.1544 12.6014 43.8568C14.7843 43.2614 16.3719 41.5746 16.9672 39.4909L17.2649 38.3995 50.0086 38.3995 46.1389 41.0785C45.1467 41.7731 44.2537 42.4676 43.4599 43.3607 35.6212 51.1993 35.6212 63.8007 43.4599 71.6393 44.2537 72.4331 45.1467 73.2269 46.1389 73.9215L50.0086 76.6005 17.2649 76.5013Z" fill="#C0D863" transform="matrix(1 0 0 1.0087 935 302)"/><path d="M104.879 31.2554 10.22 31.2554C6.84642 31.2554 4.06816 34.0336 4.06816 37.4072L4.06816 77.3943C4.06816 80.7679 6.84642 83.5462 10.22 83.5462L104.78 83.5462C108.154 83.5462 110.932 80.7679 110.932 77.3943L110.932 37.5065C111.031 34.0336 108.253 31.3546 104.879 31.2554L104.879 31.2554ZM16.6695 35.8197 98.4297 35.8197C99.5211 35.8197 100.414 36.7127 100.414 37.8041 100.414 39.8878 102.002 41.5746 104.085 41.5746L104.185 41.5746C105.276 41.5746 106.169 42.4676 106.169 43.5591L106.169 71.3417C106.169 72.4331 105.276 73.3261 104.185 73.3261 102.101 73.3261 100.513 75.0129 100.513 76.9974 100.513 78.0889 99.6204 78.9819 98.5289 78.9819L16.6695 78.9819C15.5781 78.9819 14.6851 78.0889 14.6851 76.9974 14.6851 74.9137 12.9983 73.3261 11.0138 73.3261L11.0138 73.3261C9.92235 73.3261 9.02934 72.4331 9.02934 71.3417L9.02934 43.5591C9.02934 42.4676 9.92235 41.5746 11.0138 41.5746 13.0975 41.5746 14.6851 39.8878 14.6851 37.9034 14.6851 36.8119 15.4789 35.9189 16.5703 35.8197 16.5703 35.8197 16.6695 35.8197 16.6695 35.8197ZM55.5651 55.069 55.5651 49.5125C55.069 49.711 54.6721 49.9094 54.176 50.2071 53.283 50.7032 52.7869 51.6954 52.6877 52.7869 52.6877 53.1838 52.7869 53.6799 52.9853 53.9776 53.283 54.3745 53.6799 54.5729 54.176 54.7714 54.6721 54.8706 55.1682 54.9698 55.5651 55.069ZM59.5341 59.2364 59.5341 65.3883C60.1294 65.289 60.7248 64.9914 61.2209 64.6937 62.1139 64.1976 62.7092 63.2054 62.61 62.2131 62.7092 61.2209 62.2131 60.3279 61.3201 59.8318 60.7248 59.5341 60.1294 59.3356 59.5341 59.2364ZM55.5651 43.5591C55.5651 42.4676 56.4582 41.5746 57.5496 41.5746 58.6411 41.5746 59.5341 42.4676 59.5341 43.5591L59.5341 45.8412C61.2209 45.9405 62.8085 46.3374 64.2968 46.9327 65.1898 47.4288 65.5867 47.9249 65.5867 48.5203 65.5867 49.711 64.9914 50.4055 63.8999 50.4055 63.1061 50.3063 62.3123 50.1079 61.5186 49.8102 60.824 49.6117 60.1294 49.4133 59.4349 49.3141L59.4349 55.6644C61.1217 55.962 62.7092 56.5574 64.1976 57.4504 65.6859 58.4426 66.4797 60.2286 66.3805 62.0147 66.4797 64.0984 65.4875 65.9836 63.8999 67.2735 62.61 68.2657 61.0224 68.8611 59.4349 69.0595L59.4349 71.3417C59.4349 72.4331 58.5418 73.3261 57.4504 73.3261 56.3589 73.3261 55.4659 72.4331 55.4659 71.3417L55.4659 69.0595C54.0768 68.9603 52.6877 68.6626 51.3978 68.2657 49.6117 67.5712 48.6195 66.8766 48.6195 66.1821 48.6195 64.7929 49.2148 64.0984 50.4055 64.0984 51.3978 64.2968 52.2908 64.4953 53.1838 64.8922 53.9776 65.1898 54.7714 65.289 55.5651 65.4875L55.5651 58.5418 54.8706 58.4426C54.176 58.2442 53.3822 58.0457 52.6877 57.8473 51.9931 57.6488 51.2985 57.2519 50.7032 56.855 49.5125 55.8628 48.9172 54.4737 48.9172 52.9853 48.9172 51.0009 49.9094 49.1156 51.5962 47.9249 52.7869 47.0319 54.0768 46.4366 55.5651 46.1389L55.5651 43.5591ZM69.9525 45.1467C63.1061 38.3003 52.0923 38.3003 45.2459 45.1467 38.3995 51.9931 38.3995 63.0069 45.2459 69.8533 52.0923 76.6997 63.1061 76.6997 69.9525 69.8533 73.2269 66.5789 75.1122 62.1139 75.1122 57.4504 75.0129 52.7869 73.2269 48.3218 69.9525 45.1467L69.9525 45.1467ZM45.2459 75.0129C35.522 68.1665 33.1406 54.7714 39.9871 45.0475 41.4754 42.9638 43.2614 41.1777 45.2459 39.7886L18.3563 39.7886C17.6618 42.4676 15.5781 44.5513 12.8991 45.2459L12.8991 69.5556C15.5781 70.2502 17.6618 72.3339 18.3563 75.0129L45.2459 75.0129ZM69.8533 39.8878C79.5772 46.7343 81.9586 60.0302 75.1122 69.7541 73.6238 71.8378 71.8378 73.6238 69.8533 75.0129L96.7429 75.0129C97.4374 72.3339 99.5211 70.2502 102.2 69.5556L102.2 45.2459C99.5211 44.5513 97.4374 42.4676 96.7429 39.7886L69.8533 39.8878ZM10.22 27.2865 104.78 27.2865C110.436 27.2865 115 31.8507 115 37.5065L115 77.4935C115 83.1493 110.436 87.7135 104.78 87.7135L10.22 87.7135C4.56428 87.7135 0 83.1493 0 77.4935L0 37.5065C0.0992235 31.8507 4.6635 27.2865 10.22 27.2865Z" fill="#2B2D03" transform="matrix(1 0 0 1.0087 935 302)"/></g></g></g></g></svg>