<svg width="171" height="171" xmlns="http://www.w3.org/2000/svg" xmlns:xlink="http://www.w3.org/1999/xlink" overflow="hidden"><defs><clipPath id="clip0"><rect x="513" y="283" width="171" height="171"/></clipPath><clipPath id="clip1"><rect x="541" y="311" width="115" height="115"/></clipPath><clipPath id="clip2"><rect x="541" y="311" width="115" height="115"/></clipPath><clipPath id="clip3"><rect x="541" y="311" width="115" height="115"/></clipPath></defs><g clip-path="url(#clip0)" transform="translate(-513 -283)"><path d="M518 368.5C518 324.041 554.041 288 598.5 288 642.959 288 679 324.041 679 368.5 679 412.959 642.959 449 598.5 449 554.041 449 518 412.959 518 368.5Z" fill="#D9D9D9" fill-rule="evenodd"/><path d="M518 368.5C518 324.041 554.041 288 598.5 288 642.959 288 679 324.041 679 368.5 679 412.959 642.959 449 598.5 449 554.041 449 518 412.959 518 368.5Z" stroke="#3C7D9A" stroke-width="8" stroke-miterlimit="8" fill="none" fill-rule="evenodd"/><g clip-path="url(#clip1)"><g clip-path="url(#clip2)"><g clip-path="url(#clip3)"><path d="M644.218 423.645 602.879 393.1 591.788 417.417C591.115 418.891 589.54 419.681 587.956 419.337 586.372 418.993 585.266 417.62 585.266 416L585.266 390.209 558.954 407.367C557.57 408.27 555.797 408.074 554.643 406.89 553.49 405.707 553.339 403.929 554.277 402.568L572.462 376.182 558.036 376.545C556.373 376.582 554.932 375.435 554.603 373.808 554.273 372.18 555.156 370.559 556.702 369.952L569.768 364.82 548.934 351.753C547.552 350.887 546.975 349.152 547.563 347.63 548.15 346.108 549.744 345.21 551.348 345.498L575.452 349.793 570.515 340.17C569.779 338.732 570.133 337.01 571.376 335.98 572.62 334.951 574.378 334.924 575.652 335.916L584.2 342.572 583.173 316.234C583.109 314.579 584.236 313.12 585.854 312.765 587.47 312.41 589.105 313.262 589.74 314.792L600.621 341.016 607.472 331.795C608.453 330.475 610.178 330.041 611.667 330.742 613.156 331.443 613.922 333.048 613.529 334.646L611.1 344.538 639.59 328.955C641.035 328.164 642.839 328.518 643.878 329.796 644.917 331.074 644.896 332.912 643.828 334.165L622.75 358.916 641.898 359.829C645.504 360.001 646.402 364.945 643.089 366.376L620.332 376.194 649.082 418.994C650.011 420.376 649.812 422.215 648.607 423.366 647.41 424.511 645.565 424.64 644.218 423.645Z" fill="#F4A32C"/><path d="M585.853 312.765C584.236 313.12 583.109 314.579 583.173 316.234L584.199 342.572 575.652 335.916C574.378 334.924 572.62 334.951 571.376 335.981 570.133 337.01 569.779 338.732 570.515 340.17L575.452 349.793 551.348 345.498C549.744 345.211 548.15 346.108 547.563 347.63 546.975 349.152 547.552 350.887 548.934 351.753L569.768 364.82 556.702 369.952C555.156 370.559 554.273 372.181 554.603 373.808 554.932 375.435 556.373 376.583 558.036 376.545L572.462 376.182 554.277 402.568C553.339 403.929 553.49 405.707 554.643 406.89 555.797 408.074 557.57 408.27 558.954 407.367L585.266 390.21 585.266 390.26 593.385 379.014 602.258 348.315C602.089 343.98 600.621 341.017 600.621 341.017L589.74 314.792C589.104 313.262 587.47 312.41 585.853 312.765Z" fill="#E89528"/><path d="M603.979 386.76 636.78 410.997 613.988 377.067C612.798 375.296 613.506 372.875 615.469 372.027L631.537 365.095 617.722 364.436C614.89 364.3 613.445 360.969 615.285 358.81L631.233 340.083 609.203 352.133C608.016 352.783 606.555 352.669 605.482 351.844 604.409 351.02 603.925 349.637 604.247 348.323L605.18 344.524 602.781 347.753C601.203 349.877 597.901 349.472 596.885 347.026L589.429 329.055 590.143 347.373C590.194 348.695 589.467 349.94 588.29 350.544 587.112 351.148 585.677 351.014 584.632 350.201L580.458 346.95 582.722 351.362C584.01 353.874 581.865 356.778 579.085 356.283L562.18 353.271 576.75 362.409C577.848 363.097 578.456 364.327 578.335 365.619 578.215 366.91 577.39 368.007 576.183 368.481L571.142 370.461 576.904 370.316C578.189 370.286 579.379 370.969 579.993 372.104 580.608 373.24 580.534 374.605 579.802 375.668L565.737 396.076 585.738 383.034C586.789 382.349 588.127 382.294 589.23 382.892 590.333 383.489 591.018 384.64 591.018 385.894L591.018 405.242 598.842 388.089C599.271 387.148 600.092 386.459 601.094 386.2 602.091 385.942 603.144 386.143 603.979 386.76Z" fill="#F7E7A1"/><path d="M565.737 396.076 585.738 383.034C586.79 382.349 588.128 382.295 589.23 382.892 589.598 383.092 589.918 383.353 590.183 383.659L593.385 379.014C594.029 378.078 594.094 376.877 593.553 375.878 593.013 374.879 591.966 374.278 590.835 374.304L585.765 374.432 590.201 372.69C591.263 372.273 591.989 371.308 592.094 370.172 592.2 369.036 591.666 367.953 590.699 367.348L577.88 359.307 592.754 361.957C595.2 362.393 597.088 359.837 595.954 357.628L593.962 353.745 597.635 356.605C598.554 357.321 599.818 357.439 600.853 356.908 601.889 356.376 602.529 355.281 602.484 354.118L602.258 348.315C600.563 349.774 597.799 349.227 596.886 347.026L589.429 329.055 590.143 347.373C590.194 348.695 589.467 349.94 588.29 350.544 587.112 351.148 585.677 351.014 584.632 350.201L580.458 346.95 582.722 351.363C584.01 353.874 581.865 356.778 579.085 356.284L562.181 353.271 576.75 362.409C577.848 363.098 578.456 364.328 578.335 365.62 578.215 366.911 577.391 368.007 576.183 368.482L571.142 370.462 576.904 370.316C578.189 370.287 579.379 370.969 579.993 372.105 580.608 373.24 580.534 374.606 579.802 375.669L565.737 396.076Z" fill="#F4D44E"/><path d="M590.661 406.889C591.435 407.057 592.223 406.663 592.551 405.942L600.375 388.789C600.593 388.311 601.008 387.962 601.517 387.831 602.025 387.699 602.557 387.804 602.978 388.115L635.779 412.352C636.078 412.573 636.429 412.682 636.779 412.682 637.201 412.682 637.621 412.524 637.944 412.215 638.537 411.649 638.635 410.738 638.178 410.058L615.386 376.126C615.099 375.699 615.017 375.17 615.162 374.675 615.308 374.18 615.663 373.778 616.136 373.574L632.205 366.641C632.925 366.331 633.335 365.565 633.195 364.793 633.055 364.022 632.401 363.449 631.618 363.412L617.802 362.753C617.138 362.721 616.561 362.323 616.297 361.713 616.033 361.102 616.136 360.409 616.568 359.902L632.516 341.175C633.043 340.556 633.053 339.65 632.54 339.019 632.028 338.389 631.139 338.215 630.425 338.604L608.395 350.655C607.793 350.984 607.053 350.926 606.51 350.508 605.966 350.091 605.72 349.39 605.884 348.724L606.816 344.926C607.008 344.147 606.623 343.341 605.898 343 605.172 342.659 604.306 342.876 603.828 343.52L601.429 346.748C601.059 347.247 600.445 347.509 599.828 347.434 599.211 347.358 598.68 346.954 598.442 346.381L590.985 328.409C590.673 327.656 589.867 327.235 589.068 327.409 588.271 327.584 587.714 328.305 587.746 329.12L588.46 347.439C588.486 348.109 588.118 348.739 587.521 349.045 586.924 349.351 586.197 349.283 585.668 348.871L581.493 345.621C580.87 345.135 579.993 345.148 579.384 345.653 578.775 346.156 578.599 347.016 578.959 347.719L581.223 352.131C581.525 352.72 581.469 353.417 581.075 353.949 580.682 354.482 580.034 354.741 579.381 354.625L562.476 351.613C561.682 351.471 560.899 351.912 560.609 352.665 560.319 353.417 560.602 354.27 561.286 354.699L575.855 363.837C576.411 364.186 576.719 364.809 576.658 365.463 576.597 366.117 576.179 366.673 575.567 366.913L570.526 368.893C569.765 369.192 569.329 369.994 569.491 370.796 569.653 371.597 570.373 372.162 571.185 372.145L576.944 372C576.958 372 576.971 372 576.985 372 577.625 372 578.208 372.344 578.512 372.907 578.824 373.482 578.786 374.174 578.415 374.712L577.548 375.971C577.02 376.736 577.213 377.786 577.979 378.314 578.745 378.842 579.794 378.648 580.322 377.883L581.189 376.625C582.283 375.037 582.393 372.998 581.475 371.303 580.841 370.13 579.797 369.279 578.574 368.881 579.383 368.061 579.901 366.975 580.013 365.776 580.193 363.847 579.285 362.01 577.645 360.983L570.42 356.451 578.79 357.942C580.712 358.284 582.626 357.521 583.785 355.952 584.601 354.848 584.926 353.503 584.735 352.198 586.107 352.778 587.698 352.741 589.059 352.043 590.817 351.141 591.904 349.282 591.826 347.308L591.479 338.391 595.33 347.672C596.032 349.364 597.598 350.554 599.417 350.779 600.524 350.916 601.626 350.681 602.565 350.146 602.804 351.33 603.461 352.416 604.456 353.181 606.057 354.412 608.238 354.582 610.011 353.612L624.03 345.944 614.003 357.718C612.732 359.21 612.426 361.253 613.204 363.052 613.983 364.85 615.683 366.026 617.641 366.119L624.187 366.432 614.801 370.481C613.405 371.084 612.358 372.267 611.93 373.726 611.501 375.185 611.742 376.746 612.59 378.007L629.957 403.862 604.981 385.407C604.096 384.753 603.049 384.407 601.954 384.407 601.523 384.407 601.091 384.462 600.672 384.57 599.177 384.957 597.951 385.985 597.309 387.391L592.703 397.491 592.703 385.896C592.703 384.023 591.68 382.305 590.032 381.412 588.385 380.521 586.387 380.602 584.817 381.624L571.97 390.002 575.856 384.363C576.384 383.597 576.191 382.548 575.425 382.02 574.658 381.491 573.609 381.685 573.081 382.451L564.349 395.122C563.893 395.784 563.969 396.677 564.53 397.254 565.092 397.83 565.983 397.929 566.657 397.489L586.658 384.447C587.19 384.1 587.869 384.072 588.427 384.374 588.986 384.677 589.333 385.26 589.333 385.896L589.333 405.244C589.334 406.035 589.886 406.721 590.661 406.889Z"/><path d="M612.384 329.217C610.16 328.171 607.584 328.818 606.119 330.79L601.039 337.628 591.295 314.146C590.347 311.861 587.906 310.589 585.492 311.12 583.077 311.65 581.394 313.828 581.49 316.3L581.705 321.821C581.741 322.751 582.523 323.469 583.454 323.439 584.384 323.403 585.108 322.62 585.072 321.69L584.856 316.169C584.824 315.33 585.395 314.591 586.215 314.411 587.033 314.231 587.862 314.663 588.183 315.438L599.064 341.662C599.296 342.222 599.812 342.614 600.414 342.688 601.015 342.763 601.611 342.508 601.972 342.021L608.823 332.8C609.328 332.12 610.182 331.906 610.949 332.266 611.715 332.627 612.094 333.422 611.893 334.244L609.464 344.137C609.305 344.786 609.543 345.467 610.073 345.874 610.603 346.282 611.323 346.337 611.908 346.017L640.398 330.433C641.13 330.032 642.044 330.212 642.571 330.859 643.097 331.506 643.087 332.437 642.545 333.073L621.467 357.824C621.051 358.313 620.949 358.997 621.204 359.586 621.459 360.176 622.028 360.568 622.669 360.599L641.817 361.512C642.626 361.55 643.292 362.134 643.437 362.931 643.582 363.727 643.164 364.508 642.421 364.828L619.664 374.646C619.204 374.845 618.856 375.238 618.715 375.718 618.574 376.199 618.654 376.717 618.933 377.133L626.713 388.716C627.038 389.2 627.571 389.461 628.113 389.461 628.436 389.461 628.763 389.368 629.051 389.175 629.823 388.656 630.029 387.609 629.51 386.837L622.86 376.937 643.756 367.922C645.947 366.976 647.179 364.675 646.752 362.327 646.325 359.979 644.361 358.26 641.977 358.146L626.256 357.396 645.111 335.258C646.706 333.385 646.737 330.641 645.185 328.733 643.633 326.825 640.94 326.296 638.781 327.477L613.649 341.224 615.165 335.047C615.751 332.661 614.607 330.264 612.384 329.217Z"/><path d="M633.896 393.367C633.378 392.595 632.331 392.389 631.559 392.908 630.786 393.426 630.581 394.473 631.1 395.245L647.684 419.934C648.154 420.634 648.053 421.566 647.443 422.149 647.119 422.46 646.694 422.631 646.247 422.631L646.247 422.631C645.876 422.631 645.521 422.513 645.219 422.29L603.881 391.745C603.472 391.443 602.949 391.343 602.458 391.469 601.966 391.596 601.558 391.939 601.347 392.401L590.256 416.718C589.91 417.477 589.128 417.867 588.314 417.691 587.499 417.514 586.951 416.834 586.951 416L586.951 390.209C586.951 389.591 586.613 389.023 586.069 388.728 585.526 388.433 584.865 388.461 584.346 388.798L558.034 405.956C557.321 406.421 556.443 406.324 555.849 405.715 555.255 405.105 555.181 404.225 555.664 403.524L573.849 377.138C574.208 376.616 574.245 375.937 573.943 375.38 573.648 374.835 573.079 374.497 572.462 374.497 572.448 374.497 572.433 374.498 572.419 374.498L557.997 374.86C557.144 374.873 556.42 374.297 556.254 373.474 556.087 372.649 556.534 371.828 557.317 371.52L570.383 366.389C570.975 366.156 571.386 365.61 571.445 364.977 571.504 364.344 571.202 363.731 570.663 363.393L549.829 350.326C549.129 349.887 548.837 349.008 549.134 348.237 549.432 347.465 550.237 347.01 551.053 347.156L575.156 351.451C575.787 351.563 576.426 351.309 576.806 350.794 577.187 350.279 577.242 349.593 576.951 349.024L572.014 339.401C571.641 338.673 571.82 337.8 572.45 337.278 573.081 336.757 573.971 336.743 574.617 337.245L583.165 343.901C583.682 344.304 584.385 344.37 584.968 344.071 585.552 343.772 585.908 343.162 585.883 342.507L585.378 329.552C585.341 328.622 584.55 327.899 583.629 327.935 582.699 327.971 581.975 328.754 582.011 329.683L582.375 339.016 576.686 334.587C574.784 333.107 572.159 333.146 570.302 334.683 568.445 336.22 567.916 338.793 569.016 340.939L572.402 347.539 551.645 343.84C549.244 343.409 546.868 344.75 545.991 347.024 545.114 349.297 545.975 351.887 548.039 353.181L566.044 364.474 556.086 368.385C553.778 369.291 552.46 371.713 552.951 374.143 553.434 376.529 555.528 378.231 557.959 378.231 557.999 378.231 558.038 378.23 558.078 378.229L569.198 377.95 552.89 401.612C551.489 403.644 551.714 406.298 553.437 408.066 555.16 409.834 557.807 410.127 559.874 408.778L583.581 393.319 583.581 416C583.581 418.42 585.233 420.469 587.598 420.983 589.963 421.497 592.317 420.318 593.321 418.116L603.55 395.69 643.217 425C644.102 425.654 645.15 426 646.246 426L646.248 426C647.565 426 648.817 425.497 649.772 424.584 651.57 422.865 651.868 420.119 650.481 418.054L633.896 393.367Z"/></g></g></g></g></svg>