<svg id="Capa_1" enable-background="new 0 0 512 512" height="512" viewBox="0 0 512 512" width="512" xmlns="http://www.w3.org/2000/svg"><g><g><path clip-rule="evenodd" d="m290.88 47.61 43.12 20.39 35.794-20.39v-34.526c0-3.061-2.523-5.584-5.612-5.584h-67.69c-3.09 0-5.612 2.523-5.612 5.584z" fill="#375e7d" fill-rule="evenodd"/></g><g><path clip-rule="evenodd" d="m118.056 465.665 141.944 18.335 133.945-18.335v-62.504l-134.945-22.161-140.944 22.161z" fill="#375e7d" fill-rule="evenodd"/></g><g><path clip-rule="evenodd" d="m118.056 364.326 141.944 22.674 133.945-22.674v-176.57l-134.945-28.756-140.945 28.756v89.944 35.547 51.079z" fill="#375e7d" fill-rule="evenodd"/></g><g><path clip-rule="evenodd" d="m118.056 148.921 140.944 32.079 134.945-32.079v-26.929-35.547l-135.945-17.445-139.944 17.445v35.547z" fill="#375e7d" fill-rule="evenodd"/></g><g><path clip-rule="evenodd" d="m107.256 468.953c-5.187 3.487-8.617 9.439-8.617 16.129 0 10.658 8.731 19.417 19.417 19.417h275.889c10.686 0 19.417-8.759 19.417-19.417 0-6.69-3.43-12.643-8.617-16.129-3.09-2.069-6.803-3.288-10.8-3.288h-275.889c-3.997 0-7.711 1.219-10.8 3.288z" fill="#f9f7f8" fill-rule="evenodd"/></g><g><path clip-rule="evenodd" d="m118.056 403.161h275.889c10.686 0 19.417-8.731 19.417-19.417s-8.731-19.417-19.417-19.417h-275.889c-10.686 0-19.417 8.731-19.417 19.417s8.73 19.417 19.417 19.417z" fill="#f9f7f8" fill-rule="evenodd"/></g><g><path clip-rule="evenodd" d="m218.541 292.581c0 24.463 18.737 36.709 37.473 36.709 18.708 0 37.445-12.246 37.445-36.709 0-18.879-24.264-51.818-34.412-67.068-2.409-3.628-3.685-3.628-6.094 0-10.148 15.251-34.412 48.189-34.412 67.068z" fill="#ffd772" fill-rule="evenodd"/></g><g><path clip-rule="evenodd" d="m118.056 187.756h275.889c10.686 0 19.417-8.731 19.417-19.417 0-10.658-8.731-19.417-19.417-19.417h-275.889c-10.686 0-19.417 8.759-19.417 19.417 0 10.686 8.73 19.417 19.417 19.417z" fill="#f9f7f8" fill-rule="evenodd"/></g><g><path clip-rule="evenodd" d="m118.056 86.445h275.889c10.686 0 19.417-8.731 19.417-19.417s-8.731-19.417-19.417-19.417h-24.151-113.78-137.958c-10.686 0-19.417 8.731-19.417 19.417s8.73 19.417 19.417 19.417z" fill="#f9f7f8" fill-rule="evenodd"/></g><g><path clip-rule="evenodd" d="m363.502 67.028c0 10.687-8.759 19.417-19.417 19.417h49.86c10.686 0 19.417-8.731 19.417-19.417s-8.731-19.417-19.417-19.417h-24.151-25.71c10.659-.001 19.418 8.73 19.418 19.417z" fill="#e5e4ec" fill-rule="evenodd"/></g><g><path clip-rule="evenodd" d="m393.945 86.445h-49.86v35.547 26.929h49.86v-26.929z" fill="#2b4d66" fill-rule="evenodd"/></g><g><path clip-rule="evenodd" d="m413.362 168.338c0-10.658-8.731-19.417-19.417-19.417h-49.86c10.658 0 19.417 8.759 19.417 19.417 0 10.687-8.759 19.417-19.417 19.417h49.86c10.686.001 19.417-8.73 19.417-19.417z" fill="#e5e4ec" fill-rule="evenodd"/></g><g><path clip-rule="evenodd" d="m393.945 277.699v-89.943h-49.86v176.57h49.86v-51.08z" fill="#2b4d66" fill-rule="evenodd"/></g><g><path clip-rule="evenodd" d="m393.945 364.326h-49.86c10.658 0 19.417 8.731 19.417 19.417s-8.759 19.417-19.417 19.417h49.86c10.686 0 19.417-8.731 19.417-19.417s-8.731-19.417-19.417-19.417z" fill="#e5e4ec" fill-rule="evenodd"/></g><g><path clip-rule="evenodd" d="m344.085 403.161h49.86v62.504h-49.86z" fill="#2b4d66" fill-rule="evenodd"/></g><g><path clip-rule="evenodd" d="m393.945 465.665h-49.86c3.968 0 7.682 1.219 10.771 3.288 5.216 3.487 8.645 9.439 8.645 16.129 0 10.658-8.759 19.417-19.417 19.417h49.86c10.686 0 19.417-8.759 19.417-19.417 0-6.69-3.43-12.643-8.617-16.129-3.089-2.069-6.802-3.288-10.799-3.288z" fill="#e5e4ec" fill-rule="evenodd"/></g><g><path clip-rule="evenodd" d="m256.014 329.29c18.708 0 37.445-12.246 37.445-36.709 0-18.879-24.264-51.818-34.412-67.068-2.409-3.628-3.685-3.628-6.094 0-2.863 4.309-6.86 10.035-11.112 16.469 10.8 16.299 23.272 37.049 23.272 50.599 0 18.142-10.318 29.594-23.272 34.271 4.508 1.616 9.326 2.438 14.173 2.438z" fill="#fbba58" fill-rule="evenodd"/></g><g><path clip-rule="evenodd" d="m342.412 13.084v34.526h1.672 25.71v-34.526c0-3.061-2.523-5.584-5.612-5.584h-27.382c3.09 0 5.612 2.523 5.612 5.584z" fill="#2b4d66" fill-rule="evenodd"/></g><g><path d="m269.545 227.641c-1.581-2.319-3.022-4.433-4.25-6.276-1.103-1.661-4.032-6.073-9.294-6.073-5.256 0-8.186 4.401-9.292 6.066-1.232 1.852-2.675 3.968-4.258 6.289-15.893 23.306-31.41 47.518-31.41 64.934 0 29.023 22.625 44.209 44.973 44.209 22.334 0 44.945-15.186 44.945-44.209 0-17.418-15.518-41.632-31.414-64.94zm-13.531 94.149c-14.919 0-29.973-9.032-29.973-29.209 0-14.247 18.736-41.722 28.802-56.483.395-.578.78-1.144 1.157-1.697.375.551.76 1.115 1.152 1.691 10.067 14.763 28.807 42.241 28.807 56.489 0 20.177-15.04 29.209-29.945 29.209z"/><path d="m420.862 168.338c0-12.239-8.214-22.59-19.417-25.846v-49.618c11.203-3.256 19.417-13.607 19.417-25.846 0-14.842-12.075-26.917-26.917-26.917h-16.65v-27.027c-.001-7.214-5.883-13.084-13.113-13.084h-67.689c-7.23 0-13.112 5.87-13.112 13.084v27.026h-165.326c-14.842 0-26.917 12.075-26.917 26.917 0 12.24 8.214 22.59 19.417 25.846v49.618c-11.203 3.256-19.417 13.607-19.417 25.846s8.214 22.59 19.417 25.846v163.713c-11.203 3.256-19.417 13.607-19.417 25.846s8.214 22.59 19.417 25.846v49.646c-11.203 3.256-19.417 13.607-19.417 25.846 0 14.842 12.075 26.917 26.917 26.917h275.889c14.842 0 26.917-12.075 26.917-26.917 0-12.239-8.214-22.59-19.417-25.846v-49.644c11.203-3.256 19.417-13.607 19.417-25.846s-8.214-22.59-19.417-25.846v-163.713c11.203-3.257 19.418-13.607 19.418-25.847zm-295.307 188.488v-161.57h260.889v161.57zm172.825-341.826h63.914v25.11h-63.914zm-192.242 52.028c0-6.571 5.346-11.917 11.917-11.917h275.889c6.571 0 11.917 5.346 11.917 11.917s-5.346 11.917-11.917 11.917h-117.208c-4.143 0-7.5 3.358-7.5 7.5s3.357 7.5 7.5 7.5h109.709v47.476h-260.89v-47.476h116.541c4.142 0 7.5-3.358 7.5-7.5s-3.358-7.5-7.5-7.5h-124.041c-6.571 0-11.917-5.346-11.917-11.917zm0 101.31c0-6.571 5.346-11.917 11.917-11.917h275.889c6.571 0 11.917 5.346 11.917 11.917s-5.346 11.917-11.917 11.917h-275.889c-6.571.001-11.917-5.345-11.917-11.917zm299.724 316.745c0 6.571-5.346 11.917-11.917 11.917h-275.89c-6.571 0-11.917-5.346-11.917-11.917s5.346-11.917 11.917-11.917h124.041c4.142 0 7.5-3.358 7.5-7.5s-3.358-7.5-7.5-7.5h-116.541v-47.504h260.889v47.504h-109.708c-4.143 0-7.5 3.358-7.5 7.5s3.357 7.5 7.5 7.5h117.209c6.571-.001 11.917 5.345 11.917 11.917zm0-101.339c0 6.571-5.346 11.917-11.917 11.917h-275.89c-6.571 0-11.917-5.346-11.917-11.917s5.346-11.917 11.917-11.917h275.889c6.572-.001 11.918 5.345 11.918 11.917z"/></g></g></svg>