<svg id="Layer_1" enable-background="new 0 0 494.875 494.875" height="512" viewBox="0 0 494.875 494.875" width="512" xmlns="http://www.w3.org/2000/svg"><g><g><path d="m183.313 129.893v-62.393h-90v62.482c0 12.955-4.193 25.562-11.952 35.936l-20.971 28.039c-7.759 10.374-11.952 22.981-11.952 35.936v214.982c0 11.046 8.954 20 20 20h140c11.046 0 20-8.954 20-20v-214.893c0-13.01-4.228-25.667-12.048-36.064l-21.029-27.961c-7.82-10.397-12.048-23.054-12.048-36.064z" fill="#fff"/><path d="m216.39 193.918-21.029-27.961c-7.819-10.397-12.048-23.054-12.048-36.064v-62.393h-20v62.393c0 13.01 4.229 25.667 12.048 36.064l21.029 27.961c7.819 10.397 12.048 23.054 12.048 36.064v214.893c0 11.046-8.954 20-20 20h20c11.046 0 20-8.954 20-20v-214.893c0-13.01-4.229-25.667-12.048-36.064z" fill="#b6e6fa"/><path d="m401.188 129.893v-62.393h-90v62.482c0 12.955-4.193 25.562-11.952 35.936l-20.971 28.039c-7.759 10.374-11.952 22.981-11.952 35.936v214.982c0 11.046 8.954 20 20 20h140c11.046 0 20-8.954 20-20v-214.893c0-13.01-4.228-25.667-12.048-36.064l-21.029-27.961c-7.82-10.397-12.048-23.054-12.048-36.064z" fill="#fff"/><path d="m434.265 193.918-21.029-27.961c-7.819-10.397-12.048-23.054-12.048-36.064v-62.393h-20v62.393c0 13.01 4.229 25.667 12.048 36.064l21.029 27.961c7.819 10.397 12.048 23.054 12.048 36.064v214.893c0 11.046-8.954 20-20 20h20c11.046 0 20-8.954 20-20v-214.893c0-13.01-4.229-25.667-12.048-36.064z" fill="#b6e6fa"/><path d="m198.438 67.5h-120v-27.562c0-5.523 4.477-10 10-10h100c5.523 0 10 4.477 10 10z" fill="#b6e6fa"/><path d="m188.438 29.938h-20c5.523 0 10 4.477 10 10v27.562h20v-27.562c0-5.523-4.478-10-10-10z" fill="#54c9f3"/><path d="m416.313 67.5h-120v-27.562c0-5.523 4.477-10 10-10h100c5.523 0 10 4.477 10 10z" fill="#b6e6fa"/><path d="m406.313 29.938h-20c5.523 0 10 4.477 10 10v27.562h20v-27.562c0-5.523-4.478-10-10-10z" fill="#54c9f3"/><path d="m7.5 254.938h479.875v85h-479.875z" fill="#dfba7f"/><path d="m467.375 254.938v65h-459.875v20h479.875v-85z" fill="#f69500"/><path d="m7.5 379.938h479.875v85h-479.875z" fill="#dfba7f"/><path d="m467.375 379.938v65h-459.875v20h479.875v-85z" fill="#f69500"/></g><g><g><path d="m494.875 347.438v-100h-41.063v-17.456c0-14.541-4.813-28.95-13.554-40.572l-21.029-27.961c-6.798-9.04-10.542-20.247-10.542-31.556v-54.893h15.125v-35.062c0-9.649-7.851-17.5-17.5-17.5h-100c-9.649 0-17.5 7.851-17.5 17.5v35.062h14.875v54.982c0 11.259-3.714 22.426-10.458 31.444l-20.971 28.04c-8.671 11.594-13.446 25.952-13.446 40.428v17.544h-22.875v-17.456c0-14.541-4.813-28.95-13.554-40.572l-21.029-27.961c-6.798-9.04-10.542-20.247-10.542-31.556v-54.893h15.125v-35.062c0-9.649-7.851-17.5-17.5-17.5h-60.563v15h60.563c1.379 0 2.5 1.122 2.5 2.5v20.062h-.125-104.874v-20.062c0-1.378 1.121-2.5 2.5-2.5h24.438v-15h-24.438c-9.649 0-17.5 7.851-17.5 17.5v35.062h14.875v54.982c0 11.259-3.714 22.426-10.458 31.444l-20.971 28.04c-8.671 11.594-13.446 25.952-13.446 40.428v17.544h-40.938v100h40.938v25h-40.938v100h494.875v-100h-41.063v-25zm-191.062-307.5c0-1.378 1.121-2.5 2.5-2.5h100c1.379 0 2.5 1.122 2.5 2.5v20.062h-.125-104.875zm89.875 35.062v22.5h-75v-22.5zm-292.875 0h75v22.5h-75zm-44.875 154.893c0-11.259 3.714-22.426 10.458-31.444l20.971-28.04c8.671-11.594 13.446-25.952 13.446-40.428v-17.481h75v17.393c0 14.541 4.813 28.95 13.554 40.572l21.029 27.961c6.798 9.04 10.542 20.247 10.542 31.556v17.456h-165zm423.937 157.545v70h-464.875v-70h157.5v-15h-116.562v-25h165v25h-33.563v15zm-243.937-15v-25h22.875v25zm37.875 0v-25h165v25zm-258.813-40v-70h322.375v-15h-63.563v-17.544c0-11.259 3.714-22.426 10.458-31.444l20.971-28.04c8.671-11.594 13.446-25.952 13.446-40.428v-17.482h75v17.393c0 14.541 4.813 28.95 13.554 40.572l21.029 27.961c6.798 9.04 10.542 20.247 10.542 31.556v17.456h-86.438v15h127.5v70z"/><path d="m44.708 292.104h14.667v15h-14.667z"/><path d="m44.708 412.438h14.667v15h-14.667z"/><path d="m435.708 292.104h14.667v15h-14.667z"/><path d="m435.708 412.438h14.667v15h-14.667z"/></g><g><path d="m368.708 442.438h-15v-15h15zm-30 0h-15v-15h15zm-30 0h-15v-15h15z" fill="#fff"/></g></g></g></svg>