<?xml version="1.0"?>
<svg xmlns="http://www.w3.org/2000/svg" xmlns:xlink="http://www.w3.org/1999/xlink" xmlns:svgjs="http://svgjs.com/svgjs" version="1.1" width="512" height="512" x="0" y="0" viewBox="0 0 513.258 513.258" style="enable-background:new 0 0 512 512" xml:space="preserve"><g><path xmlns="http://www.w3.org/2000/svg" id="XMLID_236_" d="m461.874 195.627-130.367 35.444v-34.701h-120.197v-27.84h36.439v-30h-104.915v30h38.476v27.84h-94.126l-21.84-12.317c-13.718-7.735-30.025-7.612-43.626.332-13.6 7.943-21.718 22.088-21.718 37.837 0 11.979 4.988 23.574 13.686 31.813l54.561 51.679v69.013h254.586l142.221-145.878 37.689 14.105 10.516-28.097zm-427.558 36.627c-2.743-2.598-4.316-6.255-4.316-10.033 0-7.159 4.789-10.729 6.849-11.932 2.059-1.203 7.522-3.622 13.759-.104l17.639 9.947v44.261zm275.866 112.474h-211.936v-118.358h203.261v43.946l110.513-30.046z" fill="#ffffff" data-original="#000000" style=""/></g></svg>
