<?xml version="1.0"?>
<svg xmlns="http://www.w3.org/2000/svg" xmlns:xlink="http://www.w3.org/1999/xlink" xmlns:svgjs="http://svgjs.com/svgjs" version="1.1" width="512" height="512" x="0" y="0" viewBox="0 0 512 512" style="enable-background:new 0 0 512 512" xml:space="preserve"><g><path xmlns="http://www.w3.org/2000/svg" d="m478.271 99.032a8 8 0 0 0 -9.079-2.523l-127.145 47.679c-17.147-89.213-52.754-144.188-93.932-144.188-26.365 0-50.315 21.846-69.258 63.175-16.482 35.961-27.932 84.825-32.529 138.462q-29.128-6.177-64.621-6.747a432.723 432.723 0 0 0 -75.113 5.234 8 8 0 0 0 -1.488 15.333c1.215.472 121.616 48.165 129.973 129.791 7.441 72.695 22.563 120.111 46.231 144.958 19.087 20.037 39.91 21.888 56.376 21.888 1.937 0 3.815-.026 5.621-.051 1.614-.022 3.181-.043 4.693-.043 29.232 0 53.138-15.452 73.084-47.24 11-17.525 25.138-45.257 46.633-118.031l34.271-114.459c3.638-12.148 48.952-82.4 76.661-123.822a8 8 0 0 0 -.378-9.416zm-215.778 132.968h-30.493v-16h32v13.178q-.75 1.394-1.507 2.822zm9.507-96v16h-48v-16zm-48-32v-16h48v16zm48 72v16h-48v-16zm24-24v-16h28.025q1.71 7.811 3.207 16zm-8-48v-16h22.256q2.822 7.665 5.4 16zm-24-40v-16h27.054a169.633 169.633 0 0 1 8.969 16zm-32-16v16h-35.81a169.723 169.723 0 0 1 8.974-16zm-24 40v16h-27.439q2.554-8.286 5.389-16zm-8 48v16h-30.99q1.487-8.155 3.205-16zm0 40v16h-36.687q.849-8.1 1.913-16zm43.088 320.045h-.112c-34.488-30.326-34.976-103.302-34.976-104.045h-8-8c0 2.972.375 64.271 28.293 102.638-9.169-1.882-18.486-6.111-27.4-15.467-20.835-21.872-34.933-67.478-41.9-135.551-3.906-38.165-29.567-75.083-74.208-106.763a341.575 341.575 0 0 0 -40.035-24.315 439.768 439.768 0 0 1 45.028-1.648c36.536.6 87.666 6.6 123.758 31.832 23.853 16.673 38.572 40.019 43.75 69.388 17.012 96.484 18.795 164.064 4.77 180.779-1.828 2.178-3.639 3.107-6.056 3.107-1.583 0-3.223.022-4.912.045zm143.572-268.365-34.279 114.488c-23.423 79.3-45.208 131.415-79.084 148.068 8.649-24.316 8.3-69.793-1.042-135.81.524-26.384 33.615-82.488 46.435-102.039l-13.379-8.775c-.5.756-12.282 18.774-24.261 41.327q-9.072 17.081-14.837 31.121c-.382-2.225-.77-4.462-1.169-6.725a130.94 130.94 0 0 0 -8.475-28.839c37.854-82.7 60.388-105.934 90.638-121.155l104.479-39.179c-21.709 32.977-60.818 93.467-65.026 107.518z" fill="#ffffff" data-original="#000000" style=""/></g></svg>
