<?xml version="1.0"?>
<svg xmlns="http://www.w3.org/2000/svg" xmlns:xlink="http://www.w3.org/1999/xlink" xmlns:svgjs="http://svgjs.com/svgjs" version="1.1" width="512" height="512" x="0" y="0" viewBox="0 0 480 480" style="enable-background:new 0 0 512 512" xml:space="preserve" class=""><g transform="matrix(1,0,0,1,90,0)"><path xmlns="http://www.w3.org/2000/svg" d="m56.039062 447.527344v24.472656c0 4.417969 3.582032 8 8 8h176c4.417969 0 8-3.582031 8-8v-24.472656c32.582032-2.929688 57.183594-30.835938 56-63.527344v-224c1.183594-32.691406-23.417968-60.597656-56-63.527344v-88.472656c0-4.417969-3.582031-8-8-8h-176c-4.417968 0-8 3.582031-8 8v88.472656c-32.582031 2.929688-57.179687 30.835938-55.9999995 63.527344v224c-1.1796875 32.691406 23.4179685 60.597656 55.9999995 63.527344zm176 16.472656h-160v-16h160zm-160-448h160v80h-160zm-56 144c-.597656-12.90625 4.265626-25.464844 13.402344-34.601562 9.132813-9.132813 21.695313-13.996094 34.597656-13.398438h176c12.90625-.597656 25.464844 4.265625 34.601563 13.398438 9.132813 9.136718 14 21.695312 13.398437 34.601562v8h-272zm0 24h272v184h-272zm272 200c.601563 12.90625-4.265624 25.464844-13.398437 34.601562-9.136719 9.132813-21.695313 13.996094-34.601563 13.398438h-176c-12.902343.597656-25.464843-4.265625-34.597656-13.398438-9.136718-9.136718-14-21.695312-13.402344-34.601562zm0 0" fill="#ffffff" data-original="#000000" style="" class=""/><path xmlns="http://www.w3.org/2000/svg" d="m184.039062 32h-64c-4.417968 0-8 3.582031-8 8v32c0 4.417969 3.582032 8 8 8h64c4.417969 0 8-3.582031 8-8v-32c0-4.417969-3.582031-8-8-8zm-8 32h-48v-16h48zm0 0" fill="#ffffff" data-original="#000000" style="" class=""/><path xmlns="http://www.w3.org/2000/svg" d="m177.441406 251.542969c-8.800781-4.566407-10.082031-5.941407-9.472656-10.519531 2.910156-21.847657.871094-33.832032-6.601562-38.839844-4.949219-3.117188-11.289063-2.949219-16.070313.425781-17.65625 10.132813-42.855469 55.445313-41.257813 81.199219 2.191407 34.871094 22.402344 60.191406 48 60.191406 26.472657 0 48-27.199219 48-60.695312 0-20.105469-13.597656-27.113282-22.597656-31.761719zm-25.402344 76.457031c-16.648437 0-30.398437-19.433594-32-45.191406-1.3125-21.015625 22.480469-59.886719 32.554688-66.054688 1.105469 7.355469.949219 14.851563-.464844 22.15625-2.183594 16.425782 9.953125 22.699219 17.984375 26.851563 9.125 4.726562 13.925781 7.664062 13.925781 17.542969 0 24.648437-14.351562 44.695312-32 44.695312zm0 0" fill="#ffffff" data-original="#000000" style="" class=""/><path xmlns="http://www.w3.org/2000/svg" d="m32.039062 248h16v-32h32v-16h-48zm0 0" fill="#ffffff" data-original="#000000" style="" class=""/><path xmlns="http://www.w3.org/2000/svg" d="m32.039062 264h16v32h-16zm0 0" fill="#ffffff" data-original="#000000" style="" class=""/></g></svg>
