<?xml version="1.0"?>
<svg xmlns="http://www.w3.org/2000/svg" xmlns:xlink="http://www.w3.org/1999/xlink" xmlns:svgjs="http://svgjs.com/svgjs" version="1.1" width="512" height="512" x="0" y="0" viewBox="0 0 512 512" style="enable-background:new 0 0 512 512" xml:space="preserve"><g>
<g xmlns="http://www.w3.org/2000/svg">
	<g>
		<path d="M503.611,477.319c-3.994-1.964-7.863-4.435-11.499-7.342c-21.049-16.841-46.739-22.859-71.117-18.097v-73.07    c38.735-41.758,59.998-95.777,59.998-152.817C480.993,101.872,380.269,0,256,0C131.89,0,31.007,101.724,31.007,225.993    c0,57.04,21.262,111.059,59.998,152.817v72.779c-23.929-4.231-49,1.894-69.619,18.388c-3.998,3.198-8.268,5.86-12.692,7.913    c-7.515,3.487-10.78,12.405-7.294,19.919c3.487,7.515,12.404,10.781,19.919,7.294c6.604-3.064,12.932-7,18.806-11.701    c21.608-17.287,50.646-17.287,72.257,0c30.996,24.796,77.743,24.796,108.738,0c21.643-17.314,49.613-17.314,71.257,0    c30.994,24.795,77.741,24.797,108.737,0c21.609-17.286,50.646-17.288,72.259,0.001c5.336,4.268,11.056,7.914,17.001,10.837    c7.432,3.654,16.423,0.592,20.078-6.842C514.108,489.964,511.045,480.975,503.611,477.319z M390.995,463.856    c-2.944,1.855-5.826,3.885-8.621,6.121c-6.25,5-13.607,8.435-21.378,10.307v-43.297c0-8.284-6.716-15-15-15s-15,6.716-15,15    v42.904c-7.217-1.94-14.035-5.237-19.88-9.914c-16.058-12.847-34.857-19.636-54.368-19.636s-38.311,6.79-54.369,19.636    c-19.978,15.983-51.279,15.983-71.257,0c-3.268-2.614-6.651-4.956-10.12-7.05V240.993h0.001h29.999v74.998c0,8.284,6.716,15,15,15    s15-6.716,15-15v-74.998h59.998v44.999c0,8.284,6.716,15,15,15s15-6.716,15-15v-44.999h59.998v74.998c0,8.284,6.716,15,15,15    s15-6.716,15-15v-74.998h29.999V463.856z M121.829,210.994C129.265,143.038,186.595,89.997,256,89.997    s126.735,53.04,134.171,120.996H121.829z M255.999,59.998c-91.008,0-164.995,74.859-164.995,165.995V329.85    c-19.525-30.853-29.999-66.612-29.999-103.857c0-108.072,87.474-195.994,194.994-195.994s194.994,87.922,194.994,195.994    c0,37.245-10.474,73.003-29.999,103.856V225.993C420.994,134.975,347.134,59.998,255.999,59.998z" fill="#ffffff" data-original="#000000" style=""/>
	</g>
</g>
<g xmlns="http://www.w3.org/2000/svg">
	<g>
		<path d="M196.001,360.989c-8.284,0-15,6.716-15,15v60.998c0,8.284,6.716,15,15,15s15-6.716,15-15v-60.998    C211,367.705,204.284,360.989,196.001,360.989z" fill="#ffffff" data-original="#000000" style=""/>
	</g>
</g>
<g xmlns="http://www.w3.org/2000/svg">
	<g>
		<path d="M285.998,330.99c-8.284,0-15,6.716-15,15v59.998c0,8.284,6.716,15,15,15s15-6.716,15-15V345.99    C300.998,337.706,294.282,330.99,285.998,330.99z" fill="#ffffff" data-original="#000000" style=""/>
	</g>
</g>
<g xmlns="http://www.w3.org/2000/svg">
</g>
<g xmlns="http://www.w3.org/2000/svg">
</g>
<g xmlns="http://www.w3.org/2000/svg">
</g>
<g xmlns="http://www.w3.org/2000/svg">
</g>
<g xmlns="http://www.w3.org/2000/svg">
</g>
<g xmlns="http://www.w3.org/2000/svg">
</g>
<g xmlns="http://www.w3.org/2000/svg">
</g>
<g xmlns="http://www.w3.org/2000/svg">
</g>
<g xmlns="http://www.w3.org/2000/svg">
</g>
<g xmlns="http://www.w3.org/2000/svg">
</g>
<g xmlns="http://www.w3.org/2000/svg">
</g>
<g xmlns="http://www.w3.org/2000/svg">
</g>
<g xmlns="http://www.w3.org/2000/svg">
</g>
<g xmlns="http://www.w3.org/2000/svg">
</g>
<g xmlns="http://www.w3.org/2000/svg">
</g>
</g></svg>
