<svg width="577" height="578" xmlns="http://www.w3.org/2000/svg" xmlns:xlink="http://www.w3.org/1999/xlink" overflow="hidden"><defs><clipPath id="clip0"><rect x="567" y="96" width="577" height="578"/></clipPath></defs><g clip-path="url(#clip0)" transform="translate(-567 -96)"><path d="M728.5 312C728.5 285.214 750.214 263.5 777 263.5L920 263.5C946.786 263.5 968.5 285.214 968.5 312L968.5 312C968.5 338.786 946.786 360.5 920 360.5L777 360.5C750.214 360.5 728.5 338.786 728.5 312Z" stroke="#FFFFFF" stroke-width="26.6667" stroke-miterlimit="8" fill="none" fill-rule="evenodd"/><path d="M714 320.5C714 318.015 716.015 316 718.5 316L977.5 316C979.985 316 982 318.015 982 320.5L982 320.5C982 322.986 979.985 325 977.5 325L718.5 325C716.015 325 714 322.985 714 320.5Z" stroke="#FFFFFF" stroke-width="20" stroke-miterlimit="8" fill="#FFFFFF" fill-rule="evenodd"/><path d="M779.5 292C779.5 288.962 781.963 286.5 785 286.5 788.038 286.5 790.5 288.962 790.5 292 790.5 295.038 788.038 297.5 785 297.5 781.963 297.5 779.5 295.038 779.5 292Z" stroke="#FFFFFF" stroke-width="13.3333" stroke-miterlimit="8" fill="#FFFFFF" fill-rule="evenodd"/><path d="M811.5 292C811.5 288.962 813.963 286.5 817 286.5 820.038 286.5 822.5 288.962 822.5 292 822.5 295.038 820.038 297.5 817 297.5 813.963 297.5 811.5 295.038 811.5 292Z" stroke="#FFFFFF" stroke-width="13.3333" stroke-miterlimit="8" fill="#FFFFFF" fill-rule="evenodd"/><path d="M842.5 292C842.5 288.962 844.963 286.5 848 286.5 851.038 286.5 853.5 288.962 853.5 292 853.5 295.038 851.038 297.5 848 297.5 844.963 297.5 842.5 295.038 842.5 292Z" stroke="#FFFFFF" stroke-width="13.3333" stroke-miterlimit="8" fill="#FFFFFF" fill-rule="evenodd"/><path d="M874.5 292C874.5 288.962 876.963 286.5 880 286.5 883.038 286.5 885.5 288.962 885.5 292 885.5 295.038 883.038 297.5 880 297.5 876.963 297.5 874.5 295.038 874.5 292Z" stroke="#FFFFFF" stroke-width="13.3333" stroke-miterlimit="8" fill="#FFFFFF" fill-rule="evenodd"/><path d="M906.5 292C906.5 288.962 908.963 286.5 912 286.5 915.038 286.5 917.5 288.962 917.5 292 917.5 295.038 915.038 297.5 912 297.5 908.963 297.5 906.5 295.038 906.5 292Z" stroke="#FFFFFF" stroke-width="13.3333" stroke-miterlimit="8" fill="#FFFFFF" fill-rule="evenodd"/><path d="M807.5 245.751C807.5 243.955 808.955 242.5 810.751 242.5L885.25 242.5C887.045 242.5 888.5 243.955 888.5 245.751L888.5 260.249C888.5 262.045 887.045 263.5 885.25 263.5L810.751 263.5C808.955 263.5 807.5 262.045 807.5 260.249Z" stroke="#FFFFFF" stroke-width="26.6667" stroke-miterlimit="8" fill="#FFFFFF" fill-rule="evenodd"/><path d="M807.5 363.905C807.5 362.025 809.025 360.5 810.905 360.5L885.095 360.5C886.975 360.5 888.5 362.025 888.5 363.905L888.5 379.095C888.5 380.975 886.975 382.5 885.095 382.5L810.905 382.5C809.025 382.5 807.5 380.975 807.5 379.095Z" stroke="#FFFFFF" stroke-width="26.6667" stroke-miterlimit="8" fill="#FFFFFF" fill-rule="evenodd"/><path d="M807.5 631.751C807.5 629.955 808.955 628.5 810.751 628.5L885.25 628.5C887.045 628.5 888.5 629.955 888.5 631.751L888.5 646.25C888.5 648.045 887.045 649.5 885.25 649.5L810.751 649.5C808.955 649.5 807.5 648.045 807.5 646.25Z" stroke="#FFFFFF" stroke-width="26.6667" stroke-miterlimit="8" fill="#FFFFFF" fill-rule="evenodd"/><rect x="816.5" y="382.5" width="63" height="246" stroke="#FFFFFF" stroke-width="26.6667" stroke-miterlimit="8" fill="none"/><path d="M952.25 121.5C954.045 121.5 955.5 122.955 955.5 124.751L955.5 199.25C955.5 201.045 954.045 202.5 952.25 202.5L937.751 202.5C935.955 202.5 934.5 201.045 934.5 199.25L934.5 124.751C934.5 122.955 935.955 121.5 937.751 121.5Z" stroke="#FFFFFF" stroke-width="26.6667" stroke-miterlimit="8" fill="#FFFFFF" fill-rule="evenodd"/><path d="M816.5 221.5C816.5 171.794 857.018 131.5 907 131.5" stroke="#FFFFFF" stroke-width="26.6667" stroke-miterlimit="8" fill="none" fill-rule="evenodd"/><path d="M880.5 217C880.5 204.574 890.574 194.5 903 194.5" stroke="#FFFFFF" stroke-width="26.6667" stroke-miterlimit="8" fill="none" fill-rule="evenodd"/><path d="M817.5 220.5 817.5 246.004" stroke="#FFFFFF" stroke-width="26.6667" stroke-miterlimit="8" fill="none" fill-rule="evenodd"/><path d="M0 0 0.300892 30.4288" stroke="#FFFFFF" stroke-width="26.6667" stroke-miterlimit="8" fill="none" fill-rule="evenodd" transform="matrix(-1 0 0 1 880.801 215.5)"/><path d="M906.5 131.5 936.081 131.5" stroke="#FFFFFF" stroke-width="26.6667" stroke-miterlimit="8" fill="none" fill-rule="evenodd"/><path d="M902.5 194.5 933.956 194.5" stroke="#FFFFFF" stroke-width="26.6667" stroke-miterlimit="8" fill="none" fill-rule="evenodd"/></g></svg>