<?xml version="1.0"?>
<svg xmlns="http://www.w3.org/2000/svg" xmlns:xlink="http://www.w3.org/1999/xlink" xmlns:svgjs="http://svgjs.com/svgjs" version="1.1" width="512" height="512" x="0" y="0" viewBox="0 0 573.33147 573" style="enable-background:new 0 0 512 512" xml:space="preserve"><g><path xmlns="http://www.w3.org/2000/svg" d="m114.953125 170.207031h-38.152344c-27.488281 0-55.214843-20.640625-63.117187-46.988281l-13.324219-44.40625c-.773437-2.582031-.28125-5.378906 1.328125-7.546875 1.605469-2.164063 4.148438-3.4375 6.84375-3.4375h127.976562c4.710938 0 8.53125 3.820313 8.53125 8.53125s-3.820312 8.53125-8.53125 8.53125h-116.507812l10.027344 33.425781c5.664062 18.878906 27.078125 34.828125 46.773437 34.828125h38.152344c4.710937 0 8.53125 3.816407 8.53125 8.527344 0 4.71875-3.820313 8.535156-8.53125 8.535156zm0 0" fill="#ffffff" data-original="#000000" style=""/><path xmlns="http://www.w3.org/2000/svg" d="m460.699219 170.207031h-46.007813c-4.710937 0-8.53125-3.816406-8.53125-8.535156 0-4.710937 3.820313-8.527344 8.53125-8.527344h46.007813c19.6875 0 41.109375-15.949219 46.769531-34.828125l10.027344-33.425781h-116.503906c-4.710938 0-8.535157-3.820313-8.535157-8.53125s3.824219-8.53125 8.535157-8.53125h127.972656c2.695312 0 5.238281 1.273437 6.84375 3.4375 1.613281 2.164063 2.105468 4.960937 1.328125 7.542969l-13.320313 44.410156c-7.90625 26.347656-35.628906 46.988281-63.117187 46.988281zm0 0" fill="#ffffff" data-original="#000000" style=""/><path xmlns="http://www.w3.org/2000/svg" d="m179.164062 84.890625h-42.65625c-4.710937 0-8.53125-3.820313-8.53125-8.53125v-46.867187c0-16.496094 13.398438-29.917969 29.859376-29.917969 16.464843 0 29.863281 13.421875 29.863281 29.917969v46.867187c0 4.710937-3.820313 8.53125-8.535157 8.53125zm-34.125-17.0625h25.597657v-38.335937c0-7.089844-5.742188-12.855469-12.800781-12.855469-7.054688 0-12.796876 5.765625-12.796876 12.855469zm0 0" fill="#ffffff" data-original="#000000" style=""/><path xmlns="http://www.w3.org/2000/svg" d="m392.457031 84.890625h-42.65625c-4.710937 0-8.535156-3.820313-8.535156-8.53125v-46.867187c0-16.496094 13.402344-29.917969 29.863281-29.917969 16.46875 0 29.863282 13.421875 29.863282 29.917969v46.867187c0 4.710937-3.824219 8.53125-8.535157 8.53125zm-34.121093-17.0625h25.589843v-38.335937c0-7.089844-5.738281-12.855469-12.796875-12.855469s-12.792968 5.765625-12.792968 12.855469zm0 0" fill="#ffffff" data-original="#000000" style=""/><path xmlns="http://www.w3.org/2000/svg" d="m332.773438 520.007812h-136.578126c-65.839843 0-119.410156-53.566406-119.410156-119.410156v-104.714844c0-13.359374 8.535156-25.148437 20.699219-29.71875l22.011719-190.78125c.503906-4.308593 4.144531-7.554687 8.480468-7.554687h273.015626c4.328124 0 7.976562 3.246094 8.476562 7.554687l22.015625 190.816407c12.160156 4.613281 20.695313 16.433593 20.695313 29.792969v104.605468c0 65.84375-53.566407 119.410156-119.40625 119.410156zm-197.195313-435.117187-21.808594 189.007813c-.441406 3.847656-3.425781 6.917968-7.257812 7.464843-7.21875 1.039063-12.664063 7.28125-12.664063 14.519531v104.714844c0 56.433594 45.914063 102.34375 102.347656 102.34375h136.574219c56.4375 0 102.347657-45.910156 102.347657-102.34375v-104.605468c0-7.378907-5.335938-13.53125-12.695313-14.613282-3.816406-.566406-6.78125-3.628906-7.222656-7.464844l-21.808594-189.023437zm0 0" fill="#ffffff" data-original="#000000" style=""/><g xmlns="http://www.w3.org/2000/svg" fill-rule="evenodd"><path d="m375.394531 357.90625c0 18.847656-15.277343 34.125-34.128906 34.125-18.84375 0-34.121094-15.277344-34.121094-34.125 0-18.851562 15.277344-34.128906 34.121094-34.128906 18.851563 0 34.128906 15.277344 34.128906 34.128906zm0 0" fill="#ffffff" data-original="#000000" style=""/><path d="m221.828125 357.90625c0 18.847656-15.28125 34.125-34.128906 34.125-18.851563 0-34.125-15.277344-34.125-34.125 0-18.851562 15.273437-34.128906 34.125-34.128906 18.847656 0 34.128906 15.277344 34.128906 34.128906zm0 0" fill="#ffffff" data-original="#000000" style=""/><path d="m230.355469 212.863281c0 9.429688-7.640625 17.0625-17.0625 17.0625s-17.0625-7.632812-17.0625-17.0625c0-9.421875 7.640625-17.0625 17.0625-17.0625s17.0625 7.640625 17.0625 17.0625zm0 0" fill="#ffffff" data-original="#000000" style=""/><path d="m332.738281 212.863281c0 9.429688-7.640625 17.0625-17.066406 17.0625-9.421875 0-17.0625-7.632812-17.0625-17.0625 0-9.421875 7.640625-17.0625 17.0625-17.0625 9.425781 0 17.066406 7.640625 17.066406 17.0625zm0 0" fill="#ffffff" data-original="#000000" style=""/></g><path xmlns="http://www.w3.org/2000/svg" d="m426.585938 281.117188h-255.949219c-4.710938 0-8.535157-3.816407-8.535157-8.527344 0-4.714844 3.824219-8.535156 8.535157-8.535156h255.949219c4.710937 0 8.53125 3.820312 8.53125 8.535156 0 4.710937-3.820313 8.527344-8.53125 8.527344zm0 0" fill="#ffffff" data-original="#000000" style=""/></g></svg>
