<svg width="202" height="202" xmlns="http://www.w3.org/2000/svg" xmlns:xlink="http://www.w3.org/1999/xlink" overflow="hidden"><defs><clipPath id="clip0"><rect x="170" y="223" width="202" height="202"/></clipPath><clipPath id="clip1"><rect x="204" y="264" width="134" height="135"/></clipPath><clipPath id="clip2"><rect x="204" y="264" width="134" height="135"/></clipPath><clipPath id="clip3"><rect x="204" y="264" width="134" height="135"/></clipPath></defs><g clip-path="url(#clip0)" transform="translate(-170 -223)"><path d="M175 324C175 270.981 217.981 228 271 228 324.019 228 367 270.981 367 324 367 377.019 324.019 420 271 420 217.981 420 175 377.019 175 324Z" stroke="#3C7D9A" stroke-width="8" stroke-miterlimit="8" fill="#D9D9D9" fill-rule="evenodd"/><g clip-path="url(#clip1)"><g clip-path="url(#clip2)"><g clip-path="url(#clip3)"><path d="M93.6953 63.2315 93.6953 120.129C93.6953 122.444 95.6996 124.291 98.0676 124.03 100.071 123.809 101.547 122.041 101.547 120.026L101.547 63.2315Z" fill="#FFB357" transform="matrix(1 0 0 1.00746 204 264)"/><path d="M30.8828 74.3281 30.8828 108.613C30.8828 110.928 32.8871 112.776 35.2551 112.514 37.258 112.294 38.7344 110.525 38.7344 108.51L38.7344 85.0146C38.7344 82.8465 40.4921 81.0894 42.6602 81.0891L47.8945 70.228 42.6602 60.8336Z" fill="#FFFF00" transform="matrix(1 0 0 1.00746 204 264)"/><path d="M49.3918 110.262C46.1481 113.488 41.7742 118.957 41.7742 123.534 41.7742 128.23 45.604 132.038 50.3293 132.037 55.0321 132.037 58.8849 128.366 58.8849 123.534 58.8849 119.047 54.4556 113.432 51.2615 110.257 50.7446 109.743 49.9082 109.747 49.3918 110.262Z" fill="#FFFF00" transform="matrix(1 0 0 1.00746 204 264)"/><path d="M83.6956 102.94C82.9625 102.171 81.8416 102.257 81.21 102.915 78.8064 105.421 75.9005 109.275 75.9005 112.539 75.9005 116.129 78.8286 119.04 82.4417 119.04 86.0377 119.04 88.9831 116.233 88.9831 112.539 88.9831 109.356 86.0673 105.429 83.6956 102.94Z" fill="#FFFF00" transform="matrix(1 0 0 1.00746 204 264)"/><path d="M42.6602 60.8336 42.6602 81.0891C44.9196 81.0891 46.5859 82.979 46.5859 85.1177L46.5859 97.9974C46.5859 100.013 48.0623 101.781 50.0652 102.002 52.4333 102.263 54.4375 100.416 54.4375 98.1006 54.4375 95.9325 56.1952 94.1753 58.3633 94.175L63.5977 61.6625 58.3633 42.841Z" fill="#FFFF00" transform="matrix(1 0 0 1.00746 204 264)"/><path d="M58.3633 42.8413 58.3633 94.175C60.6217 94.175 62.2891 96.0641 62.2891 98.2037L62.2891 103.335C62.2891 105.65 64.2933 107.497 66.6613 107.236 68.6643 107.015 70.1406 105.247 70.1406 103.232L70.1406 77.1631C70.1406 74.995 71.8983 73.2375 74.0664 73.2375L79.3008 52.5704 74.0664 24.8489Z" fill="#FFFF00" transform="matrix(1 0 0 1.00746 204 264)"/><path d="M74.8301 23.9737 74.0664 24.8489 74.0664 73.2378C76.3269 73.2378 77.9922 75.1287 77.9922 77.2664L77.9922 92.9102C77.9922 95.2253 79.9964 97.0725 82.3645 96.8113 84.3674 96.5904 85.8438 94.8223 85.8438 92.807L85.8438 28.1039C85.8438 22.3003 78.6465 19.6012 74.8301 23.9737Z" fill="#FFFF00" transform="matrix(1 0 0 1.00746 204 264)"/><path d="M105.082 1.9799C94.3868 1.89825 84.2232 6.49638 77.2193 14.5976 73.515 18.8825 70.8959 23.9282 69.5062 29.3279L56.7354 14.5979C49.8278 6.63064 39.8598 2.0312 29.3866 1.97912 22.0333 1.94797 15.1441 4.73659 10.0084 9.84691 4.89545 14.9347 1.96289 21.9975 1.96289 29.2243L1.96289 47.6176C1.96289 62.6432 14.1825 74.8673 29.2023 74.8673 39.7956 74.8673 49.8475 70.2681 56.7804 62.249 60.485 57.9639 63.1043 52.918 64.494 47.5184L77.2649 62.2485C84.1727 70.2157 94.1408 74.8152 104.614 74.867 104.662 74.8673 104.709 74.8673 104.757 74.8673 112.063 74.8673 118.889 72.0763 123.992 66.9992 129.105 61.9117 132.038 54.8487 132.038 47.6218L132.038 29.2285C132.037 14.3176 119.945 2.09401 105.082 1.9799Z" fill="#FFCE71" transform="matrix(1 0 0 1.00746 204 264)"/><path d="M108.656 2.24529C99.1514 0.903453 86.1822 4.23042 77.2191 14.5974L44.901 51.9787C40.9532 56.5449 35.231 59.1639 29.2021 59.1639 22.841 59.1639 17.6658 53.9842 17.6658 47.6174L17.6658 29.1861C17.6658 18.9827 21.719 9.19706 28.9341 1.98226 21.7365 2.06522 15.0289 4.8507 10.0081 9.84664 4.89545 14.9347 1.96289 21.9975 1.96289 29.2243L1.96289 47.6176C1.96289 62.6432 14.1825 74.8673 29.2023 74.8673 39.7956 74.8673 49.8475 70.2681 56.7804 62.249L89.0982 24.8677 97.2332 15.4582C102.586 9.26668 110.366 5.70835 118.551 5.70835 115.566 3.95038 112.22 2.74857 108.656 2.24529Z" fill="#FFB357" transform="matrix(1 0 0 1.00746 204 264)"/><path d="M48.0079 108.87C45.5435 111.321 39.8116 117.656 39.8116 123.534 39.8116 126.332 40.9072 128.962 42.8962 130.939 44.8824 132.913 47.5224 134 50.3296 134 56.2277 134 60.8478 129.403 60.8478 123.534 60.8478 117.488 54.5697 110.778 52.6452 108.865 51.3665 107.594 49.2864 107.597 48.0079 108.87ZM50.3293 130.074C48.5661 130.074 46.9092 129.393 45.6636 128.155 44.4213 126.92 43.7371 125.279 43.7371 123.534 43.7371 120.093 47.0623 115.464 50.3288 112.106 53.4678 115.34 56.9217 120.096 56.9217 123.534 56.922 127.201 54.0263 130.074 50.3293 130.074Z" transform="matrix(1 0 0 1.00746 204 264)"/><path d="M82.4493 100.429C82.4472 100.429 82.4453 100.429 82.4435 100.429 81.4464 100.429 80.4809 100.84 79.7936 101.556 77.6067 103.836 73.9376 108.294 73.9376 112.539 73.9376 114.802 74.8236 116.929 76.4323 118.528 78.0382 120.124 80.1723 121.003 82.4414 121.003 87.2102 121.003 90.946 117.285 90.946 112.539 90.946 108.175 86.8692 103.425 85.1164 101.586 84.4072 100.842 83.46 100.431 82.4493 100.429ZM82.4414 117.078C81.2163 117.078 80.065 116.604 79.2 115.744 78.3382 114.887 77.8634 113.749 77.8634 112.539 77.8634 110.516 79.5701 107.512 82.4404 104.47 85.2287 107.444 87.0204 110.594 87.0204 112.539 87.0202 115.084 85.0091 117.078 82.4414 117.078Z" transform="matrix(1 0 0 1.00746 204 264)"/><path d="M91.0572 24.7246C91.0179 24.2011 90.7795 23.7248 90.382 23.382 90.026 23.0757 89.5706 22.9056 89.0995 22.9056 88.529 22.9056 87.9872 23.1516 87.613 23.5835L55.2959 60.9648C51.7235 65.0973 47.1617 68.3609 42.1053 70.4023 41.6185 70.596 41.239 70.9703 41.0323 71.4545 40.8281 71.936 40.8229 72.4699 41.0192 72.9567 41.3202 73.7026 42.0346 74.1842 42.8407 74.1842 43.092 74.1842 43.338 74.1371 43.5736 74.0402 46.3739 72.9122 49.0435 71.4492 51.5036 69.6931 53.99 67.9212 56.2643 65.8484 58.2664 63.5322L67.0107 53.4176 72.383 59.614C72.7712 60.0618 73.3176 60.2911 73.867 60.2911 74.3226 60.2911 74.7806 60.1333 75.152 59.8114 75.9709 59.1011 76.0594 57.8616 75.3493 57.0424L69.6051 50.417 90.5835 26.1509C90.9263 25.7557 91.0938 25.248 91.0572 24.7246Z" transform="matrix(1 0 0 1.00746 204 264)"/><path d="M104.802 0C93.6354 0 83.0405 4.84703 75.7341 13.2979L66.9893 23.4128 58.2193 13.2953C58.2115 13.2875 58.201 13.277 58.1932 13.2665 50.9174 4.89152 40.4198 0.0549609 29.3962 0 29.357 0 29.3125 0 29.2654 0L29.2523 0C12.7271 0 0 13.2943 0 29.2078L0 47.6014C0 63.5937 12.914 76.6598 28.9199 76.8111L28.9199 108.598C28.9199 111.82 31.5259 114.485 34.8191 114.485 38.112 114.485 40.6973 111.785 40.6973 108.494L40.6973 84.9989C40.6973 83.9167 41.5777 83.0363 42.6602 83.0363 43.8724 83.0363 44.623 84.1086 44.623 85.102L44.623 97.9817C44.623 101.048 46.8702 103.608 49.8498 103.937 53.3629 104.323 56.4004 101.582 56.4004 98.0849 56.4004 97.0029 57.2811 96.1222 58.3633 96.1222 59.5756 96.1222 60.3262 97.1945 60.3262 98.188L60.3262 103.319C60.3262 106.812 63.3592 109.559 66.8765 109.171 69.8564 108.843 72.1035 106.282 72.1035 103.216L72.1035 77.1474C72.1035 76.0651 72.9839 75.1847 74.0664 75.1847 75.2787 75.1847 76.0293 76.257 76.0293 77.2505L76.0293 92.8945C76.0293 96.3986 79.0762 99.1344 82.5796 98.7465 85.5595 98.4178 87.8066 95.8576 87.8066 92.7913L87.8066 72.8437C89.0838 73.4781 90.3937 74.041 91.7324 74.527L91.7324 120.113C91.7324 123.341 94.3444 126.001 97.6316 126.001 100.925 126.001 103.51 123.3 103.51 120.01L103.51 76.7917C121.124 77.3735 134 63.5346 134 47.6059L134 29.2125C134 13.4997 121.361 0.0714492 104.802-5.9508e-14ZM99.584 120.01C99.584 121.054 98.8234 121.956 97.8522 122.063 96.647 122.195 95.6582 121.265 95.6582 120.113L95.6582 75.7144C96.9485 76.0303 98.2584 76.2795 99.584 76.4598ZM130.074 47.6059C130.074 54.3142 127.353 60.8698 122.607 65.5919 111.147 76.9948 91.9572 74.253 80.4675 62.7913 79.6999 62.0255 78.457 62.0271 77.6917 62.7947 76.9259 63.5623 76.9275 64.805 77.6951 65.5705 79.6039 67.4748 81.6777 69.1521 83.8811 70.5939L83.8811 92.7913C83.8811 93.8356 83.1206 94.7372 82.1493 94.8445 80.9428 94.9777 79.9553 94.0426 79.9553 92.8945L79.9553 77.2505C79.9553 73.9468 77.3138 71.2589 74.0667 71.2589 70.8195 71.2589 68.178 73.9005 68.178 77.1474L68.178 103.216C68.178 104.26 67.4174 105.162 66.4462 105.269 65.2439 105.4 64.2522 104.474 64.2522 103.319L64.2522 98.188C64.2522 94.8843 61.6107 92.1964 58.3635 92.1964 55.1167 92.1967 52.4749 94.8382 52.4749 98.0849 52.4749 99.2432 51.4796 100.166 50.2806 100.035 49.3096 99.9276 48.5491 99.026 48.5491 97.9817L48.5491 85.102C48.5491 81.7984 45.9076 79.1105 42.6604 79.1105 39.4133 79.1105 36.7717 81.752 36.7717 84.9989L36.7717 108.494C36.7717 109.539 36.0112 110.44 35.04 110.548 33.8439 110.682 32.846 109.755 32.846 108.598L32.846 76.6399C33.7787 76.5514 34.7081 76.4313 35.628 76.2753 36.7092 76.0895 37.4169 75.0651 37.235 74.0114 37.0476 72.9007 35.9821 72.2121 34.9711 72.4045 33.0737 72.7264 31.1317 72.8887 29.2028 72.8887 15.254 72.8887 3.92578 61.5526 3.92578 47.6014L3.92578 29.2078C3.92029 15.5053 14.8455 3.93128 29.2654 3.92578L29.3727 3.92578C39.284 3.97551 48.7163 8.32789 55.2514 15.868L64.3951 26.4137 43.4163 50.6795C39.8417 54.8141 34.6607 57.1855 29.2023 57.1855 28.1183 57.1855 27.2394 58.0644 27.2394 59.1484 27.2394 60.2325 28.1183 61.1113 29.2023 61.1113 35.8018 61.1113 42.065 58.2447 46.386 53.2469L78.7041 15.8657C85.264 8.27764 94.7767 3.92578 104.802 3.92578 119.148 3.98807 130.074 15.6181 130.074 29.2125Z" transform="matrix(1 0 0 1.00746 204 264)"/><path d="M34.2852 68.2652C34.2852 69.3492 33.4063 70.228 32.3223 70.228 31.2382 70.228 30.3594 69.3492 30.3594 68.2652 30.3594 67.1811 31.2382 66.3023 32.3223 66.3023 33.4063 66.3023 34.2852 67.1811 34.2852 68.2652Z" transform="matrix(1 0 0 1.00746 204 264)"/><path d="M60.457 44.7105C60.457 45.7945 59.5782 46.6734 58.4941 46.6734 57.4101 46.6734 56.5313 45.7945 56.5313 44.7105 56.5313 43.6264 57.4101 42.7476 58.4941 42.7476 59.5782 42.7476 60.457 43.6264 60.457 44.7105Z" transform="matrix(1 0 0 1.00746 204 264)"/><path d="M73.8047 31.6245C73.8047 32.7086 72.9259 33.5874 71.8418 33.5874 70.7577 33.5874 69.8789 32.7086 69.8789 31.6245 69.8789 30.5404 70.7577 29.6616 71.8418 29.6616 72.9259 29.6616 73.8047 30.5404 73.8047 31.6245Z" transform="matrix(1 0 0 1.00746 204 264)"/><path d="M89.7695 13.0425C89.7695 14.1266 88.8907 15.0054 87.8066 15.0054 86.7226 15.0054 85.8438 14.1266 85.8438 13.0425 85.8438 11.9584 86.7226 11.0796 87.8066 11.0796 88.8907 11.0796 89.7695 11.9584 89.7695 13.0425Z" transform="matrix(1 0 0 1.00746 204 264)"/><path d="M13.3477 23.773C13.3477 24.857 12.4688 25.7359 11.3848 25.7359 10.3007 25.7359 9.42188 24.857 9.42188 23.773 9.42188 22.6889 10.3007 21.8101 11.3848 21.8101 12.4688 21.8101 13.3477 22.6889 13.3477 23.773Z" transform="matrix(1 0 0 1.00746 204 264)"/><path d="M18.4512 46.3242C18.4512 47.4083 17.5724 48.2871 16.4883 48.2871 15.4042 48.2871 14.5254 47.4083 14.5254 46.3242 14.5254 45.2401 15.4042 44.3613 16.4883 44.3613 17.5724 44.3613 18.4512 45.2401 18.4512 46.3242Z" transform="matrix(1 0 0 1.00746 204 264)"/><path d="M14.5254 59.105C14.5254 60.1891 13.6466 61.0679 12.5625 61.0679 11.4784 61.0679 10.5996 60.1891 10.5996 59.105 10.5996 58.0209 11.4784 57.1421 12.5625 57.1421 13.6466 57.1421 14.5254 58.0209 14.5254 59.105Z" transform="matrix(1 0 0 1.00746 204 264)"/><path d="M42.1367 47.3276C42.1367 48.4117 41.2579 49.2905 40.1738 49.2905 39.0898 49.2905 38.2109 48.4117 38.2109 47.3276 38.2109 46.2436 39.0898 45.3648 40.1738 45.3648 41.2579 45.3648 42.1367 46.2436 42.1367 47.3276Z" transform="matrix(1 0 0 1.00746 204 264)"/><path d="M26.4336 31.6245C26.4336 32.7086 25.5548 33.5874 24.4707 33.5874 23.3866 33.5874 22.5078 32.7086 22.5078 31.6245 22.5078 30.5404 23.3866 29.6616 24.4707 29.6616 25.5548 29.6616 26.4336 30.5404 26.4336 31.6245Z" transform="matrix(1 0 0 1.00746 204 264)"/><path d="M52.6055 26.3901C52.6055 27.4742 51.7267 28.353 50.6426 28.353 49.5585 28.353 48.6797 27.4742 48.6797 26.3901 48.6797 25.3061 49.5585 24.4273 50.6426 24.4273 51.7267 24.4273 52.6055 25.3061 52.6055 26.3901Z" transform="matrix(1 0 0 1.00746 204 264)"/><path d="M34.2852 10.687C34.2852 11.7711 33.4063 12.6499 32.3223 12.6499 31.2382 12.6499 30.3594 11.7711 30.3594 10.687 30.3594 9.60295 31.2382 8.72413 32.3223 8.72413 33.4063 8.72413 34.2852 9.60295 34.2852 10.687Z" transform="matrix(1 0 0 1.00746 204 264)"/><path d="M123.27 44.7105C123.27 45.7945 122.391 46.6734 121.307 46.6734 120.223 46.6734 119.344 45.7945 119.344 44.7105 119.344 43.6264 120.223 42.7476 121.307 42.7476 122.391 42.7476 123.27 43.6264 123.27 44.7105Z" transform="matrix(1 0 0 1.00746 204 264)"/><path d="M90.946 39.9561C90.946 41.0402 90.0671 41.919 88.9831 41.919 87.899 41.919 87.0202 41.0402 87.0202 39.9561 87.0202 38.872 87.899 37.9932 88.9831 37.9932 90.0671 37.9932 90.946 38.872 90.946 39.9561Z" transform="matrix(1 0 0 1.00746 204 264)"/><path d="M109.529 36.2046C109.529 37.2887 108.65 38.1675 107.566 38.1675 106.482 38.1675 105.604 37.2887 105.604 36.2046 105.604 35.1205 106.482 34.2417 107.566 34.2417 108.65 34.2417 109.529 35.1205 109.529 36.2046Z" transform="matrix(1 0 0 1.00746 204 264)"/><path d="M94.4805 57.7964C94.4805 58.8805 93.6017 59.7593 92.5176 59.7593 91.4335 59.7593 90.5547 58.8805 90.5547 57.7964 90.5547 56.7123 91.4335 55.8335 92.5176 55.8335 93.6017 55.8335 94.4805 56.7123 94.4805 57.7964Z" transform="matrix(1 0 0 1.00746 204 264)"/><path d="M118.035 15.9214C118.035 17.0055 117.156 17.8843 116.072 17.8843 114.988 17.8843 114.109 17.0055 114.109 15.9214 114.109 14.8373 114.988 13.9585 116.072 13.9585 117.156 13.9585 118.035 14.8373 118.035 15.9214Z" transform="matrix(1 0 0 1.00746 204 264)"/><path d="M110.184 65.648C110.184 66.732 109.305 67.6108 108.221 67.6108 107.137 67.6108 106.258 66.732 106.258 65.648 106.258 64.5639 107.137 63.6851 108.221 63.6851 109.305 63.6851 110.184 64.5639 110.184 65.648Z" transform="matrix(1 0 0 1.00746 204 264)"/></g></g></g><path d="M304 384.5C304 385.881 302.881 387 301.5 387L301.5 387C300.119 387 299 385.881 299 384.5L299 341.5C299 340.119 300.119 339 301.5 339L301.5 339C302.881 339 304 340.119 304 341.5Z" fill="#FFFF00" fill-rule="evenodd"/><path d="M298.466 335.969 307.84 338.041 307.011 341.791 297.638 339.719Z" fill-rule="evenodd"/></g></svg>